<?xml version="1.0" encoding="UTF-8"?> <!-- Generator: Adobe Illustrator 22.1.0, SVG Export Plug-In . SVG Version: 6.00 Build 0) --> <svg xmlns="http://www.w3.org/2000/svg" xmlns:xlink="http://www.w3.org/1999/xlink" id="Atlassian" x="0px" y="0px" viewBox="0 0 1515.4 240" style="enable-background:new 0 0 1515.4 240;" xml:space="preserve"> <style type="text/css"> .st0{fill:#FFFFFF;} </style> <g id="Atlassian_1_"> <g id="Blue"> <path class="st0" d="M73.1,112c-1.7-2.3-4.9-2.7-7.2-1c-0.7,0.5-1.2,1.2-1.5,1.9L20,201.6c-1.3,2.6-0.3,5.8,2.4,7.1 c0.7,0.4,1.6,0.6,2.4,0.6h61.8c2,0.1,3.9-1.1,4.8-2.9C104.5,178.8,96.5,137,73.1,112z"></path> <path class="st0" d="M105.6,31.2c-22.6,34.6-25.2,78.6-7,115.7l29.9,59.6c0.9,1.8,2.7,2.9,4.8,2.9h61.8c2.9,0,5.3-2.4,5.2-5.4 c0-0.8-0.2-1.6-0.6-2.3l-85-170.5c-1.2-2.5-4.2-3.5-6.7-2.3C106.9,29.3,106.1,30.2,105.6,31.2z"></path> <path class="st0" d="M830.6,102.4c0,21.9,10.2,39.4,50.1,47.1c23.8,5,28.8,8.8,28.8,16.8s-5,12.7-21.9,12.7 c-20.3-0.4-40.1-5.7-57.8-15.6v35.8c12,5.9,27.9,12.5,57.4,12.5c41.7,0,58.2-18.6,58.2-46.2 M945.4,165.4 c0-26.1-13.8-38.3-52.8-46.7c-21.5-4.8-26.7-9.5-26.7-16.4c0-8.6,7.7-12.2,21.9-12.2c17.2,0,34.2,5.2,50.3,12.5V68.5 c-15.4-7-32.3-10.5-49.2-10.2c-38.5,0-58.5,16.8-58.5,44.2"></path> <polygon class="st0" points="1366.2,60.5 1366.2,209.4 1397.9,209.4 1397.9,95.9 1411.3,126 1456.2,209.4 1496.1,209.4 1496.1,60.5 1464.3,60.5 1464.3,156.6 1452.3,128.7 1416.3,60.5 "></polygon> <rect x="1129.8" y="60.5" class="st0" width="34.7" height="148.9"></rect> <path class="st0" d="M1089.8,165.4c0-26.1-13.8-38.3-52.8-46.7c-21.5-4.8-26.7-9.5-26.7-16.4c0-8.6,7.7-12.2,21.9-12.2 c17.2,0,34.2,5.2,50.3,12.5V68.5c-15.4-7-32.3-10.5-49.2-10.2c-38.5,0-58.5,16.8-58.5,44.2c0,21.9,10.2,39.4,50.1,47.1 c23.8,5,28.8,8.8,28.8,16.8s-5,12.7-21.9,12.7c-20.3-0.4-40.1-5.7-57.8-15.6v35.8c12,5.9,27.9,12.5,57.4,12.5 c41.7,0,58.2-18.6,58.2-46.2"></path> <polygon class="st0" points="561.2,60.5 561.2,209.4 632.5,209.4 643.7,177.2 596.1,177.2 596.1,60.5 "></polygon> <polygon class="st0" points="420.4,60.5 420.4,92.7 459,92.7 459,209.4 493.9,209.4 493.9,92.7 535.1,92.7 535.1,60.5 "></polygon> <path class="st0" d="M369.9,60.5h-45.7l-52,148.9H312l7.3-25.1c18.2,5.3,37.5,5.3,55.6,0l7.4,25.1H422L369.9,60.5z M347,157.5 c-6.5,0-12.9-0.9-19.1-2.7l19.1-65l19.1,65C359.9,156.6,353.5,157.5,347,157.5z"></path> <path class="st0" d="M755.4,60.5h-45.7l-52,148.9h39.7l7.4-25.1c18.1,5.3,37.4,5.3,55.5,0l7.4,25.1h39.7L755.4,60.5z M732.5,157.5 c-6.5,0-12.9-0.9-19.1-2.7l19.1-65l19.1,65C745.4,156.6,739,157.5,732.5,157.5L732.5,157.5z"></path> <path class="st0" d="M1289.4,60.5h-45.7l-52,148.9h39.7l7.4-25.1c18.1,5.3,37.4,5.3,55.5,0l7.4,25.1h39.7L1289.4,60.5z M1266.5,157.5c-6.5,0-12.9-0.9-19.1-2.7l19.1-65l19.1,65C1279.4,156.6,1273,157.5,1266.5,157.5L1266.5,157.5z"></path> </g> </g> </svg> 