<?xml version="1.0" encoding="UTF-8"?> <!-- Generator: Adobe Illustrator 22.1.0, SVG Export Plug-In . SVG Version: 6.00 Build 0) --> <svg xmlns="http://www.w3.org/2000/svg" xmlns:xlink="http://www.w3.org/1999/xlink" id="BigCommerce_2_" x="0px" y="0px" viewBox="0 0 1012 240" style="enable-background:new 0 0 1012 240;" xml:space="preserve"> <style type="text/css"> .st0{fill:#FFFFFF;} </style> <g id="BigCommerce_1_"> <g id="BigCommerce"> <g> <path class="st0" d="M283,116.6c14.7,0,24.6,6.7,30.7,14.9V13.6c0-2.2-2.6-3.6-4.4-2.2L163.8,117.8h3.8 c15.1,0,22.8,9.7,22.8,20.2c0,8.3-4.2,14.3-10.1,16.9c-1,0.4-1,1.8,0,2.2c6.7,2.8,11.5,9.9,11.5,18.4c0,12.1-7.9,21.6-23,21.6 h-41.4c-0.8,0-1.6-0.6-1.6-1.6v-50L17.5,224.7c-1.8,1.6-1,4.4,1.4,4.4h292.2c1.4,0,2.4-1,2.4-2.4v-40.2 c-7.9,7.3-18.2,11.9-30.7,11.9c-23.4,0-42.4-16.1-42.4-41C240.7,132.5,259.8,116.6,283,116.6z M225.1,195.6 c0,0.8-0.6,1.4-1.4,1.4h-13.9c-0.8,0-1.4-0.6-1.4-1.4v-76.5c0-0.8,0.6-1.4,1.4-1.4h13.9c0.8,0,1.4,0.6,1.4,1.4V195.6z"></path> </g> <path class="st0" d="M144.4,149.2H164c5.6,0,9.3-3.2,9.3-8.3c0-4.8-3.6-8.3-9.3-8.3h-20.4c-0.4,0-0.8,0.4-0.8,0.8v14.3 C142.8,148.6,143.6,149.2,144.4,149.2z"></path> <path class="st0" d="M144.4,182.3h20.4c6.3,0,10.1-3.4,10.1-9.1c0-5-3.6-9.1-10.1-9.1h-20.4c-0.8,0-1.6,0.6-1.6,1.6v14.9 C142.8,181.5,143.6,182.3,144.4,182.3z"></path> <path class="st0" d="M301,140.6c-3.8-5-10.3-9.1-18-9.1c-14.5,0-25,11.1-25,26s10.5,26,25,26c6.7,0,12.9-2.8,16.3-5.6 c0.2-0.2,0.4-0.6,0.4-1v-7.7c0-0.6-0.6-1.2-1.2-1.2h-18c-1,0-1.6-0.8-1.6-1.6v-11.3c0-1,0.8-1.6,1.6-1.6h33.3v-18l-10.7,5.9 C302.4,141.6,301.4,141.2,301,140.6z"></path> <path class="st0" d="M326.2,157.5c0-24.4,17.6-41,40.2-41c14.7,0,24.2,7.5,29.9,16.5c0.4,0.6,0.2,1.6-0.6,1.8l-9.1,4.8 c-0.6,0.4-1.4,0.2-1.6-0.4c-3.8-6.1-10.9-10.5-18.6-10.5c-15.1,0-26.4,11.9-26.4,28.7c0,16.5,11.3,28.7,26.4,28.7 c7.7,0,14.7-4.4,18.6-10.5c0.4-0.6,1-0.8,1.6-0.4l9.1,4.6c0.8,0.4,1,1.2,0.6,2c-5.9,9.1-15.3,16.7-29.9,16.7 C343.8,198.5,326.2,181.7,326.2,157.5z"></path> <path class="st0" d="M404.1,157.5c0-19.8,11.3-35.1,28.2-39.5c28.9-7.7,55.3,19.4,49,49.4c-3.8,18.6-18.6,31.3-38.1,31.3 C420.2,198.5,404.1,181.1,404.1,157.5z M468.5,157.5c0-16.3-10.1-28.7-25.4-28.7c-15.5,0-25.4,12.3-25.4,28.7 c0,16.3,9.9,28.7,25.4,28.7S468.5,173.7,468.5,157.5z"></path> <path class="st0" d="M564.5,196.1v-60.3l-24,60.7c0,0.2-0.4,0.4-0.6,0.4h-5c-0.2,0-0.6-0.2-0.6-0.4L510,135.7V196c0,0.6-0.4,1-1,1 h-12.1c-0.6,0-1-0.4-1-1v-77.5c0-0.6,0.4-1,1-1h17.4c0.8,0,1.4,0.4,1.8,1.2l21.2,54.5l21-54.5c0.2-0.8,1-1.2,1.8-1.2h17.4 c0.6,0,1,0.4,1,1V196c0,0.6-0.4,1-1,1h-12.1C565.1,197.1,564.5,196.7,564.5,196.1z"></path> <path class="st0" d="M701.7,195.6v-76.5c0-0.8,0.6-1.4,1.4-1.4h51.5c0.8,0,1.4,0.6,1.4,1.4v9.3c0,0.8-0.6,1.4-1.4,1.4h-37.5 c-0.8,0-1.4,0.6-1.4,1.4v17.6c0,0.8,0.6,1.4,1.4,1.4h36.7c0.8,0,1.4,0.6,1.4,1.4v9.3c0,0.8-0.6,1.4-1.4,1.4h-36.7 c-0.8,0-1.4,0.6-1.4,1.4v19.2c0,0.8,0.6,1.4,1.4,1.4h37.5c0.8,0,1.4,0.6,1.4,1.4v9.3c0,0.8-0.6,1.4-1.4,1.4h-51.5 C702.3,197.1,701.7,196.5,701.7,195.6z"></path> <path class="st0" d="M820.6,196.3L803.8,168c-0.2-0.4-0.8-0.6-1.2-0.6h-11.7c-0.8,0-1.4,0.6-1.4,1.4v26.8c0,0.8-0.6,1.4-1.4,1.4 h-10.9c-0.8,0-1.4-0.6-1.4-1.4v-76.5c0-0.8,0.6-1.4,1.4-1.4h33.5c15.7,0,26,10.1,26,24.8c0,13.1-8.1,20.6-16.9,22.8 c-1,0.2-1.4,1.2-1,2.2c3.2,5.2,13.3,21.4,17.2,27.2c0.6,1,0,2.2-1.2,2.2H822C821.4,197.1,821,196.9,820.6,196.3z M822.4,142.4 c0-7.7-5.6-12.5-13.5-12.5h-17.8c-0.8,0-1.4,0.6-1.4,1.4v22.4c0,0.8,0.6,1.4,1.4,1.4h17.8C816.7,155.1,822.4,150.2,822.4,142.4z"></path> <path class="st0" d="M930.8,195.6v-76.5c0-0.8,0.6-1.4,1.4-1.4h51.7c0.8,0,1.4,0.6,1.4,1.4v9.5c0,0.8-0.6,1.4-1.4,1.4h-37.7 c-0.8,0-1.4,0.6-1.4,1.4v17.8c0,0.8,0.6,1.4,1.4,1.4h36.7c0.8,0,1.4,0.6,1.4,1.4v9.5c0,0.8-0.6,1.4-1.4,1.4h-36.7 c-0.8,0-1.4,0.6-1.4,1.4v19.4c0,0.8,0.6,1.4,1.4,1.4h37.7c0.8,0,1.4,0.6,1.4,1.4v9.5c0,0.8-0.6,1.4-1.4,1.4h-51.7 C931.4,197.1,930.8,196.5,930.8,195.6z"></path> <path class="st0" d="M846.8,157.1c0-24.4,17.6-41,40.2-41c14.7,0,24.2,7.5,29.9,16.5c0.4,0.6,0.2,1.6-0.6,1.8l-9.1,4.8 c-0.6,0.4-1.4,0.2-1.6-0.4c-3.8-6.1-10.9-10.5-18.6-10.5c-15.1,0-26.4,11.9-26.4,28.7c0,16.5,11.3,28.7,26.4,28.7 c7.7,0,14.7-4.4,18.6-10.5c0.4-0.6,1-0.8,1.6-0.4l9.1,4.6c0.8,0.4,1,1.2,0.6,2c-5.9,9.1-15.3,16.7-29.9,16.7 C864.4,198.1,846.8,181.5,846.8,157.1z"></path> <path class="st0" d="M667.4,196.1v-60.3l-24,60.7c0,0.2-0.4,0.4-0.6,0.4h-5c-0.2,0-0.6-0.2-0.6-0.4L613,135.8v60.3 c0,0.6-0.4,1-1,1h-12.1c-0.6,0-1-0.4-1-1v-77.5c0-0.6,0.4-1,1-1h17.4c0.8,0,1.4,0.4,1.8,1.2l21.2,54.5l21-54.5 c0.2-0.8,1-1.2,1.8-1.2h17.4c0.6,0,1,0.4,1,1v77.5c0,0.6-0.4,1-1,1h-12.1C667.8,197.1,667.4,196.7,667.4,196.1z"></path> </g> </g> </svg> 