<?xml version="1.0" encoding="UTF-8"?> <!-- Generator: Adobe Illustrator 22.1.0, SVG Export Plug-In . SVG Version: 6.00 Build 0) --> <svg xmlns="http://www.w3.org/2000/svg" xmlns:xlink="http://www.w3.org/1999/xlink" id="Layer_1" x="0px" y="0px" viewBox="0 0 630 362" style="enable-background:new 0 0 630 362;" xml:space="preserve"> <style type="text/css"> .st0{fill:#32446E;} .st1{fill:#FFFFFF;} </style> <g> <path class="st0" d="M16.4,9.2h47.5c12,0.1,21.1,3.2,27.1,9.4c6.1,6.2,9.2,14.4,9.2,24.5c0.1,5.2-1.1,10.2-3.6,14.9 c-1.3,2.3-3.1,4.4-5.5,6.4c-2.4,2.1-5.4,4.1-8.9,5.8v0.3c6.6,1.8,11.7,5.4,15.1,10.8c3.2,5.6,4.8,11.7,4.8,18.3 c-0.1,10.9-3.4,19.6-9.9,25.9c-6.4,6.6-14.5,10-24.1,10H16.4V9.2z M34.9,26.1v36.6h26.9c6.8,0,11.8-1.8,15-5.5 c3.3-3.4,4.9-7.7,4.9-12.8c0-5.1-1.6-9.5-4.9-13.1c-3.2-3.3-8.2-5.1-15-5.2H34.9z M34.9,79.6v38.1h28.7c6.9-0.1,12-2.1,15.2-5.8 c3.2-3.7,4.8-8.1,4.8-13.2c0-5.2-1.6-9.7-4.8-13.4c-3.2-3.7-8.3-5.5-15.2-5.7H34.9z"></path> <path class="st0" d="M123.3,9.2h17.4v103.4c0,4.1,2.2,6.2,6.6,6.2h6.1v16.9h-7.8c-6.4,0-11.6-1.6-15.7-4.9 c-4.4-3.3-6.5-8.9-6.5-16.8V9.2z"></path> <path class="st0" d="M169.1,45.5h17.4v53.9c0,6.1,1.7,10.9,5,14.3c3.3,3.4,7.4,5.1,12.5,5.1c5.1,0,9.2-1.7,12.4-5.1 c3.3-3.4,4.9-8.2,4.9-14.3V45.5h17.4v90.2h-17.4v-9.6h-0.3c-5.8,7.1-13.3,10.7-22.6,10.7c-7.2-0.1-13.7-2.8-19.6-8.1 c-6.3-5.2-9.5-12.9-9.7-23V45.5z"></path> <path class="st0" d="M274.7,97.3c0,7.3,2,12.9,6,16.7c3.7,3.9,8.7,5.8,14.8,5.8c7.1,0,13.4-3,19-8.9l12.6,11.3 c-8.9,9.8-19.3,14.6-31.3,14.5c-4.6,0-9-0.7-13.4-2.1c-2.2-0.8-4.3-1.8-6.4-3c-2.2-1.1-4.2-2.5-6.1-4.1c-3.7-3.4-6.7-8.1-9-14.1 c-2.5-5.8-3.8-13.3-3.8-22.6c0-8.9,1.1-16.3,3.3-22.2c2.2-6,5-10.8,8.4-14.2c3.5-3.5,7.3-6.1,11.6-7.6c4.2-1.6,8.4-2.3,12.6-2.3 c9.9,0.1,18.3,3.5,25.2,10.2c7,6.8,10.5,16.1,10.6,28v14.8H274.7z M311.6,82.5c-0.2-7.1-2.1-12.4-5.5-16c-3.4-3.4-7.7-5.2-12.9-5.2 c-5.3,0-9.6,1.7-12.9,5.2c-3.3,3.6-5.1,9-5.5,16H311.6z"></path> <path class="st0" d="M359.5,105.1c9.8,8.3,21.4,12.5,34.9,12.6c16-0.2,24-6.1,24.3-17.6c0.1-9.4-5.2-15.1-16-17 c-4.9-0.7-10.4-1.5-16.2-2.3c-10.5-1.8-18.6-5.8-24.1-12.1c-5.7-6.4-8.5-14.2-8.5-23.5c0-11.1,3.6-20,10.7-26.8 c6.9-6.7,16.7-10.1,29.3-10.3c15.2,0.3,28.5,4.7,39.7,13L423.2,37c-9.2-6.3-19.3-9.5-30.4-9.7c-5.7,0-10.5,1.5-14.3,4.4 c-4,3.1-6,7.6-6.2,13.7c0,3.7,1.4,7,4.1,9.9c2.7,3,7.2,5.1,13.2,6.3c3.4,0.6,8,1.2,13.8,2c11.5,1.6,20,5.9,25.5,12.8 c5.4,6.8,8.2,14.7,8.2,23.6c-0.6,24.2-15,36.5-43,36.8c-18.1,0-33.7-5.7-46.8-17.2L359.5,105.1z"></path> <path class="st0" d="M455.5,9.2h17.4v78.5h0.4l33.6-42.3h21l-30.1,35.2l34.2,55h-22l-23.2-42.2l-13.8,16.2v26h-17.4V9.2z"></path> <path class="st0" d="M535.1,45.5h18.6l20.7,63.2h0.3l20.6-63.2h18.6l-37.5,108.9c-2.4,6.8-5.7,11.5-10,14.1 c-4.3,2.5-9.2,3.7-14.6,3.7h-5.8v-16.9h5.1c2.3,0,4.4-0.6,6.4-1.9c2-1.3,3.3-3.3,4.1-5.9l4.8-15.2L535.1,45.5z"></path> </g> <g> <path class="st1" d="M16.4,186.2h47.5c12,0.1,21.1,3.2,27.1,9.4c6.1,6.2,9.2,14.4,9.2,24.5c0.1,5.2-1.1,10.2-3.6,14.9 c-1.3,2.3-3.1,4.4-5.5,6.4c-2.4,2.1-5.4,4.1-8.9,5.8v0.3c6.6,1.8,11.7,5.4,15.1,10.8c3.2,5.6,4.8,11.7,4.8,18.3 c-0.1,10.9-3.4,19.6-9.9,25.9c-6.4,6.6-14.5,10-24.1,10H16.4V186.2z M34.9,203.1v36.6h26.9c6.8,0,11.8-1.8,15-5.5 c3.3-3.4,4.9-7.7,4.9-12.8c0-5.1-1.6-9.5-4.9-13.1c-3.2-3.3-8.2-5.1-15-5.2H34.9z M34.9,256.6v38.1h28.7c6.9-0.1,12-2.1,15.2-5.8 c3.2-3.7,4.8-8.1,4.8-13.2c0-5.2-1.6-9.7-4.8-13.4c-3.2-3.7-8.3-5.5-15.2-5.7H34.9z"></path> <path class="st1" d="M123.3,186.2h17.4v103.4c0,4.1,2.2,6.2,6.6,6.2h6.1v16.9h-7.8c-6.4,0-11.6-1.6-15.7-4.9 c-4.4-3.3-6.5-8.9-6.5-16.8V186.2z"></path> <path class="st1" d="M169.1,222.5h17.4v53.9c0,6.1,1.7,10.9,5,14.3c3.3,3.4,7.4,5.1,12.5,5.1c5.1,0,9.2-1.7,12.4-5.1 c3.3-3.4,4.9-8.2,4.9-14.3v-53.9h17.4v90.2h-17.4v-9.6h-0.3c-5.8,7.1-13.3,10.7-22.6,10.7c-7.2-0.1-13.7-2.8-19.6-8.1 c-6.3-5.2-9.5-12.9-9.7-23V222.5z"></path> <path class="st1" d="M274.7,274.3c0,7.3,2,12.9,6,16.7c3.7,3.9,8.7,5.8,14.8,5.8c7.1,0,13.4-3,19-8.9l12.6,11.3 c-8.9,9.8-19.3,14.6-31.3,14.5c-4.6,0-9-0.7-13.4-2.1c-2.2-0.8-4.3-1.8-6.4-3c-2.2-1.1-4.2-2.5-6.1-4.1c-3.7-3.4-6.7-8.1-9-14.1 c-2.5-5.8-3.8-13.3-3.8-22.6c0-8.9,1.1-16.3,3.3-22.2c2.2-6,5-10.8,8.4-14.2c3.5-3.5,7.3-6.1,11.6-7.6c4.2-1.6,8.4-2.3,12.6-2.3 c9.9,0.1,18.3,3.5,25.2,10.2c7,6.8,10.5,16.1,10.6,28v14.8H274.7z M311.6,259.5c-0.2-7.1-2.1-12.4-5.5-16 c-3.4-3.4-7.7-5.2-12.9-5.2c-5.3,0-9.6,1.7-12.9,5.2c-3.3,3.6-5.1,9-5.5,16H311.6z"></path> <path class="st1" d="M359.5,282.1c9.8,8.3,21.4,12.5,34.9,12.6c16-0.2,24-6.1,24.3-17.6c0.1-9.4-5.2-15.1-16-17 c-4.9-0.7-10.4-1.5-16.2-2.3c-10.5-1.8-18.6-5.8-24.1-12.1c-5.7-6.4-8.5-14.2-8.5-23.5c0-11.1,3.6-20,10.7-26.8 c6.9-6.7,16.7-10.1,29.3-10.3c15.2,0.3,28.5,4.7,39.7,13L423.2,214c-9.2-6.3-19.3-9.5-30.4-9.7c-5.7,0-10.5,1.5-14.3,4.4 c-4,3.1-6,7.6-6.2,13.7c0,3.7,1.4,7,4.1,9.9c2.7,3,7.2,5.1,13.2,6.3c3.4,0.6,8,1.2,13.8,2c11.5,1.6,20,5.9,25.5,12.8 c5.4,6.8,8.2,14.7,8.2,23.6c-0.6,24.2-15,36.5-43,36.8c-18.1,0-33.7-5.7-46.8-17.2L359.5,282.1z"></path> <path class="st1" d="M455.5,186.2h17.4v78.5h0.4l33.6-42.3h21l-30.1,35.2l34.2,55h-22l-23.2-42.2l-13.8,16.2v26h-17.4V186.2z"></path> <path class="st1" d="M535.1,222.5h18.6l20.7,63.2h0.3l20.6-63.2h18.6l-37.5,108.9c-2.4,6.8-5.7,11.5-10,14.1 c-4.3,2.5-9.2,3.7-14.6,3.7h-5.8v-16.9h5.1c2.3,0,4.4-0.6,6.4-1.9c2-1.3,3.3-3.3,4.1-5.9l4.8-15.2L535.1,222.5z"></path> </g> <g> </g> <g> </g> <g> </g> <g> </g> <g> </g> <g> </g> <g> </g> <g> </g> <g> </g> <g> </g> <g> </g> <g> </g> <g> </g> <g> </g> <g> </g> </svg> 