<?xml version="1.0" encoding="UTF-8"?> <!-- Generator: Adobe Illustrator 22.1.0, SVG Export Plug-In . SVG Version: 6.00 Build 0) --> <svg xmlns="http://www.w3.org/2000/svg" xmlns:xlink="http://www.w3.org/1999/xlink" id="Layer_1" x="0px" y="0px" viewBox="0 0 531.2 207.1" style="enable-background:new 0 0 531.2 207.1;" xml:space="preserve"> <style type="text/css"> .st0{fill:#3D5883;} </style> <g> <g> <path class="st0" d="M2.1,28.5H44c10.6,0.1,18.6,2.9,24,8.3c5.4,5.5,8.1,12.7,8.1,21.7c0.1,4.6-1,9-3.2,13.2 c-1.1,2-2.8,3.9-4.9,5.7c-2.1,1.9-4.7,3.6-7.8,5.1v0.3c5.9,1.6,10.3,4.8,13.3,9.6c2.8,5,4.2,10.3,4.2,16.1 c-0.1,9.6-3,17.3-8.8,22.9c-5.7,5.9-12.8,8.8-21.3,8.8H2.1V28.5z M18.4,43.5v32.3h23.7c6,0,10.4-1.6,13.3-4.9 c2.9-3,4.3-6.8,4.3-11.3c0-4.5-1.4-8.4-4.3-11.5c-2.8-2.9-7.2-4.5-13.3-4.6H18.4z M18.4,90.6v33.7h25.3c6.1-0.1,10.6-1.8,13.4-5.1 c2.8-3.3,4.2-7.2,4.2-11.7c0-4.6-1.4-8.5-4.3-11.8c-2.8-3.2-7.3-4.9-13.4-5H18.4z"></path> <path class="st0" d="M96.3,28.5h15.4v91.2c0,3.6,1.9,5.4,5.8,5.4h5.4v14.9H116c-5.6,0-10.2-1.4-13.9-4.3 c-3.8-2.9-5.8-7.9-5.8-14.8V28.5z"></path> <path class="st0" d="M136.7,60.5h15.4V108c0,5.4,1.5,9.6,4.4,12.6c2.9,3,6.5,4.5,11,4.5c4.5,0,8.1-1.5,10.9-4.5 c2.9-3,4.3-7.2,4.3-12.6V60.5h15.4v79.6h-15.4v-8.5h-0.3c-5.1,6.3-11.7,9.4-19.9,9.4c-6.4-0.1-12.1-2.5-17.2-7.2 c-5.6-4.6-8.4-11.3-8.5-20.3V60.5z"></path> <path class="st0" d="M229.9,106.2c0,6.5,1.8,11.4,5.3,14.8c3.3,3.4,7.6,5.1,13,5.1c6.3,0,11.9-2.6,16.8-7.8l11.2,10 c-7.8,8.6-17,12.9-27.6,12.8c-4,0-8-0.6-11.8-1.8c-1.9-0.7-3.8-1.6-5.6-2.7c-1.9-1-3.7-2.2-5.4-3.6c-3.3-3-5.9-7.1-7.9-12.4 c-2.2-5.1-3.3-11.7-3.3-19.9c0-7.9,1-14.4,2.9-19.6c1.9-5.3,4.4-9.5,7.4-12.6c3-3.1,6.5-5.4,10.3-6.7c3.7-1.4,7.4-2.1,11.1-2.1 c8.8,0.1,16.2,3.1,22.2,9c6.1,6,9.3,14.2,9.4,24.7v13H229.9z M262.4,93.2c-0.2-6.2-1.8-11-4.8-14.1c-3-3-6.8-4.6-11.4-4.6 c-4.7,0-8.5,1.5-11.4,4.6c-2.9,3.2-4.5,7.9-4.8,14.1H262.4z"></path> <path class="st0" d="M304.7,113.1c8.6,7.3,18.9,11,30.8,11.1c14.1-0.2,21.2-5.4,21.4-15.6c0.1-8.3-4.6-13.3-14.1-15 c-4.4-0.6-9.1-1.3-14.3-2.1c-9.3-1.6-16.4-5.1-21.2-10.7c-5-5.7-7.5-12.6-7.5-20.7c0-9.8,3.1-17.6,9.4-23.6 c6.1-5.9,14.7-8.9,25.9-9c13.4,0.3,25.1,4.1,35,11.5L360.9,53c-8.1-5.5-17.1-8.4-26.8-8.6c-5.1,0-9.3,1.3-12.6,3.9 c-3.5,2.7-5.3,6.7-5.4,12.1c0,3.2,1.2,6.1,3.6,8.7c2.4,2.7,6.3,4.5,11.7,5.5c3,0.5,7,1.1,12.2,1.8c10.1,1.4,17.6,5.2,22.5,11.3 c4.8,6,7.2,12.9,7.2,20.9c-0.5,21.4-13.2,32.2-37.9,32.5c-16,0-29.8-5.1-41.3-15.2L304.7,113.1z"></path> <path class="st0" d="M389.4,28.5h15.4v69.3h0.3l29.6-37.3h18.6l-26.6,31.1l30.2,48.5h-19.5l-20.5-37.2l-12.2,14.3v22.9h-15.4V28.5 z"></path> <path class="st0" d="M459.6,60.5H476l18.2,55.8h0.3l18.2-55.8h16.4L496,156.6c-2.1,6-5.1,10.1-8.8,12.4c-3.8,2.2-8.1,3.3-12.9,3.3 h-5.1v-14.9h4.5c2,0,3.9-0.6,5.6-1.7c1.7-1.2,2.9-2.9,3.6-5.2l4.2-13.4L459.6,60.5z"></path> </g> </g> </svg> 