<?xml version="1.0" encoding="UTF-8"?> <!-- Generator: Adobe Illustrator 22.1.0, SVG Export Plug-In . SVG Version: 6.00 Build 0) --> <svg xmlns="http://www.w3.org/2000/svg" xmlns:xlink="http://www.w3.org/1999/xlink" id="Layer_1" x="0px" y="0px" viewBox="0 0 503.4 391.4" style="enable-background:new 0 0 503.4 391.4;" xml:space="preserve"> <style type="text/css"> .st0{fill-opacity:0;stroke:#33E1FF;stroke-width:2;} .st1{filter:url(#filter-8);} .st2{opacity:0;} .st3{fill:none;stroke:#000000;stroke-width:7;} .st4{fill-opacity:0;stroke:#FA5555;stroke-width:7;} .st5{filter:url(#filter-10);} .st6{filter:url(#filter-12);} .st7{filter:url(#filter-14);} .st8{fill:none;} .st9{fill:#FFFFFF;} .st10{font-family:'Barlow-Medium';} .st11{font-size:15px;} </style> <filter filterUnits="userSpaceOnUse" height="200%" id="filter-8" width="200%" x="-50%" y="-50%"> <feOffset dx="0" dy="2" in="SourceAlpha" result="shadow-1-feOffset-shadow"></feOffset> <feGaussianBlur in="shadow-1-feOffset-shadow" result="shadow-1-feGaussianBlur-shadow" stdDeviation="2"></feGaussianBlur> <feColorMatrix in="shadow-1-feGaussianBlur-shadow" result="shadow-1-feColorMatrix-shadow" type="matrix" values="0 0 0 0 0 0 0 0 0 0 0 0 0 0 0 0 0 0 0.45 0"> </feColorMatrix> </filter> <filter filterUnits="userSpaceOnUse" height="200%" id="filter-14" width="200%" x="-50%" y="-50%"> <feOffset dx="0" dy="2" in="SourceAlpha" result="shadow-1-feOffset-shadow"></feOffset> <feGaussianBlur in="shadow-1-feOffset-shadow" result="shadow-1-feGaussianBlur-shadow" stdDeviation="2"></feGaussianBlur> <feColorMatrix in="shadow-1-feGaussianBlur-shadow" result="shadow-1-feColorMatrix-shadow" type="matrix" values="0 0 0 0 0 0 0 0 0 0 0 0 0 0 0 0 0 0 0.45 0"> </feColorMatrix> </filter> <filter filterUnits="userSpaceOnUse" height="200%" id="filter-12" width="200%" x="-50%" y="-50%"> <feOffset dx="0" dy="2" in="SourceAlpha" result="shadow-1-feOffset-shadow"></feOffset> <feGaussianBlur in="shadow-1-feOffset-shadow" result="shadow-1-feGaussianBlur-shadow" stdDeviation="2"></feGaussianBlur> <feColorMatrix in="shadow-1-feGaussianBlur-shadow" result="shadow-1-feColorMatrix-shadow" type="matrix" values="0 0 0 0 0 0 0 0 0 0 0 0 0 0 0 0 0 0 0.45 0"> </feColorMatrix> </filter> <filter filterUnits="userSpaceOnUse" height="200%" id="filter-10" width="200%" x="-50%" y="-50%"> <feOffset dx="0" dy="2" in="SourceAlpha" result="shadow-1-feOffset-shadow"></feOffset> <feGaussianBlur in="shadow-1-feOffset-shadow" result="shadow-1-feGaussianBlur-shadow" stdDeviation="2"></feGaussianBlur> <feColorMatrix in="shadow-1-feGaussianBlur-shadow" result="shadow-1-feColorMatrix-shadow" type="matrix" values="0 0 0 0 0 0 0 0 0 0 0 0 0 0 0 0 0 0 0.45 0"> </feColorMatrix> </filter> <g> <g> <g> <path id="path-2" class="st0" d="M298.4,58.1c33.4,10.2,61.7,32.2,80.1,61.1"></path> </g> </g> <g transform="translate(167.5633108444967, 87.2902466658535) rotate(285.0001019057876) translate(-167.5633108444967, -87.2902466658535)"> <g> <path id="path-3" class="st0" d="M127.5,56.8c33.4,10.2,61.7,32.2,80.1,61.1"></path> </g> </g> <g transform="translate(251.02316420718688, 338.6869239138649) rotate(145.00005184680424) translate(-251.02316420718688, -338.6869239138649)"> <g> <path id="path-4" class="st0" d="M211,308.2c33.4,10.2,61.7,32.2,80.1,61.1"></path> </g> </g> <g transform="translate(123.65373191483371, 253.17161370333486) rotate(210.00007508847509) translate(-123.65373191483371, -253.17161370333486)"> <g> <path id="path-5" class="st0" d="M83.6,222.6c33.4,10.2,61.7,32.2,80.1,61.1"></path> </g> </g> <g transform="translate(382.5633108444967, 251.2902466658535) rotate(75.00002681731253) translate(-382.5633108444967, -251.2902466658535)"> <g> <path id="path-6" class="st0" d="M342.5,220.8c33.4,10.2,61.7,32.2,80.1,61.1"></path> </g> </g> <g> <g> <g class="st1"> <g id="ellipse-7_4_"> <circle class="st2" cx="165.2" cy="318.2" r="18.5"></circle> <circle class="st3" cx="165.2" cy="318.2" r="18.5"></circle> </g> </g> <g> <ellipse id="ellipse-7_1_" class="st4" cx="165.2" cy="318.2" rx="18.5" ry="18.5"></ellipse> </g> </g> </g> <g> <g> <g class="st5"> <g id="ellipse-9_2_"> <circle class="st2" cx="109.2" cy="153.2" r="18.5"></circle> <circle class="st3" cx="109.2" cy="153.2" r="18.5"></circle> </g> </g> <g> <ellipse id="ellipse-9_1_" class="st4" cx="109.2" cy="153.2" rx="18.5" ry="18.5"></ellipse> </g> </g> </g> <g> <g> <g class="st6"> <g id="ellipse-11_2_"> <circle class="st2" cx="394.2" cy="153.2" r="18.5"></circle> <circle class="st3" cx="394.2" cy="153.2" r="18.5"></circle> </g> </g> <g> <ellipse id="ellipse-11_1_" class="st4" cx="394.2" cy="153.2" rx="18.5" ry="18.5"></ellipse> </g> </g> </g> <g> <g> <g class="st7"> <g id="ellipse-13_2_"> <ellipse transform="matrix(0.2076 -0.9782 0.9782 0.2076 148.5959 289.8485)" class="st2" cx="253.2" cy="53.2" rx="18.5" ry="18.5"></ellipse> <ellipse transform="matrix(0.2076 -0.9782 0.9782 0.2076 148.5959 289.8485)" class="st3" cx="253.2" cy="53.2" rx="18.5" ry="18.5"></ellipse> </g> </g> <g> <ellipse id="ellipse-13_1_" transform="matrix(0.2076 -0.9782 0.9782 0.2076 148.5959 289.8485)" class="st4" cx="253.2" cy="53.2" rx="18.5" ry="18.5"></ellipse> </g> </g> </g> <g> <g> <g class="st1"> <g id="ellipse-7_4_"> <circle class="st2" cx="338.2" cy="318.2" r="18.5"></circle> <circle class="st3" cx="338.2" cy="318.2" r="18.5"></circle> </g> </g> <g> <ellipse id="ellipse-7_2_" class="st4" cx="338.2" cy="318.2" rx="18.5" ry="18.5"></ellipse> </g> </g> </g> </g> <rect x="331.2" y="181" class="st8" width="126" height="19"></rect> <text transform="matrix(1 0 0 1 367.3999 191.5)" class="st9 st10 st11">PEOPLE</text> <rect x="46.2" y="181" class="st8" width="126" height="19"></rect> <text transform="matrix(1 0 0 1 75.5972 191.5)" class="st9 st10 st11">CREATIVE</text> <rect x="275.2" y="347.8" class="st8" width="126" height="19"></rect> <text transform="matrix(1 0 0 1 306.6372 358.265)" class="st9 st10 st11">PROCESS</text> <rect x="102.2" y="347.8" class="st8" width="126" height="19"></rect> <text transform="matrix(1 0 0 1 125.6577 358.265)" class="st9 st10 st11">MARKETING</text> <rect x="190.2" y="3" class="st8" width="126" height="48.3"></rect> <text transform="matrix(1 0 0 1 216.6431 13.5)"><tspan x="0" y="0" class="st9 st10 st11">PLATFORM </tspan><tspan x="-9.2" y="12" class="st9 st10 st11">TECHNOLOGY</tspan></text> </svg> 