<?xml version="1.0" encoding="UTF-8"?> <!-- Generator: Adobe Illustrator 22.1.0, SVG Export Plug-In . SVG Version: 6.00 Build 0) --> <svg xmlns="http://www.w3.org/2000/svg" xmlns:xlink="http://www.w3.org/1999/xlink" id="Layer_1" x="0px" y="0px" viewBox="0 0 1067.4 298.4" style="enable-background:new 0 0 1067.4 298.4;" xml:space="preserve"> <style type="text/css"> .st0{fill-opacity:0;stroke:#33E1FF;stroke-width:2;stroke-opacity:0.5;} .st1{fill:none;} .st2{fill:#FFFFFF;} .st3{font-family:'Barlow-Regular';} .st4{font-size:22px;} </style> <g> <g> <g> <path id="path-0" class="st0" d="M268.7,4.7v289"></path> </g> </g> <g> <g> <path id="path-1" class="st0" d="M533.7,4.7v289"></path> </g> </g> <g> <g> <path id="path-2" class="st0" d="M6.7,99.7h1054"></path> </g> </g> <g> <g> <path id="path-3" class="st0" d="M6.7,191.7h1054"></path> </g> </g> <g> <g> <path id="path-4" class="st0" d="M796.7,4.7v289"></path> </g> </g> </g> <rect y="40" class="st1" width="269" height="46"></rect> <text transform="matrix(1 0 0 1 114.5571 55.3999)" class="st2 st3 st4">SEO</text> <rect y="125" class="st1" width="269" height="46"></rect> <text transform="matrix(1 0 0 1 73.1978 140.3999)"><tspan x="0" y="0" class="st2 st3 st4">Email Design </tspan><tspan x="-2.1" y="26.4" class="st2 st3 st4">&amp; Templating</tspan></text> <rect y="230" class="st1" width="269" height="46"></rect> <text transform="matrix(1 0 0 1 29.9243 245.3999)" class="st2 st3 st4">Content &amp; Community</text> <rect x="268.7" y="40" class="st1" width="269" height="46"></rect> <text transform="matrix(1 0 0 1 297.7271 55.3999)" class="st2 st3 st4">Marketing Automation</text> <rect x="268.7" y="135" class="st1" width="269" height="46"></rect> <text transform="matrix(1 0 0 1 341.0117 150.3999)" class="st2 st3 st4">UI/UX Design</text> <rect x="268.7" y="230" class="st1" width="269" height="46"></rect> <text transform="matrix(1 0 0 1 343.9927 245.3999)" class="st2 st3 st4">Social Media</text> <rect x="537.4" y="40" class="st1" width="269" height="46"></rect> <text transform="matrix(1 0 0 1 600.5645 55.3999)" class="st2 st3 st4">Graphic Design</text> <rect x="537.4" y="125" class="st1" width="253" height="46"></rect> <text transform="matrix(1 0 0 1 575.69 140.3999)"><tspan x="0" y="0" class="st2 st3 st4">Customer Journey </tspan><tspan x="48.2" y="26.4" class="st2 st3 st4">Mapping</tspan></text> <rect x="537.4" y="220" class="st1" width="269" height="46"></rect> <text transform="matrix(1 0 0 1 616.7339 235.3999)"><tspan x="0" y="0" class="st2 st3 st4">Digital PR &amp; </tspan><tspan x="-30.2" y="26.4" class="st2 st3 st4">Audience Building</tspan></text> <rect x="806.1" y="40" class="st1" width="269" height="46"></rect> <text transform="matrix(1 0 0 1 897.0436 55.3999)" class="st2 st3 st4">Analytics</text> <rect x="806.1" y="135" class="st1" width="269" height="46"></rect> <text transform="matrix(1 0 0 1 862.108 150.3999)" class="st2 st3 st4">Lead Generation</text> <rect x="806.1" y="230" class="st1" width="269" height="46"></rect> <text transform="matrix(1 0 0 1 853.9132 245.3999)" class="st2 st3 st4">Digital Advertising</text> </svg> 