<?xml version="1.0" encoding="UTF-8"?> <svg xmlns="http://www.w3.org/2000/svg" xmlns:xlink="http://www.w3.org/1999/xlink" height="171.04630109478467" width="171.0463010947842"> <defs> <ellipse id="ellipse-0" opacity="1" rx="62" ry="62" cx="85.5231505473921" cy="85.5231505473921"></ellipse> <path id="path-1" opacity="1" d="M93.26765008825528,64.27315054739256 L115.5231505473921,64.27315054739256 L115.5231505473921,107.5231505473921 L59.523150547392106,107.5231505473921 L59.523150547392106,64.27315054739256 L83.0261808504224,64.27315054739256 "></path> <path id="path-2" opacity="1" d="M92.5231505473921,87.5231505473921 L110.5231705473916,87.5231505473921 "></path> <path id="path-3" opacity="1" d="M92.5231505473921,99.5231505473921 L99.0231705473916,99.5231505473921 "></path> <path id="path-4" opacity="1" d="M92.5231505473921,93.52317054739206 L99.0231705473916,93.52317054739206 "></path> <path id="path-5" opacity="1" d="M101.5231505473921,93.5231505473921 L108.0231705473916,93.5231505473921 "></path> <ellipse id="ellipse-6" opacity="1" rx="8.931012709749448" ry="9.018673510266215" cx="76.0247093085875" cy="89.54182405771198"></ellipse> <path id="path-7" opacity="1" d="M61.620848011411226,107.08355582456751 C63.99283695256411,101.41517197484433 69.5518864382497,97.4331633791353 76.02467650314675,97.4331633791353 C82.4713270826732,97.4331633791353 88.01160221631858,101.38307531097995 90.39961234961058,107.01496548224584 "></path> <path id="path-8" opacity="1" d="M86.5231505473921,53.523150547392106 L87.5231505473921,53.523150547392106 C90.2827256698621,53.523150547392106 92.5231505473921,55.76357542492211 92.5231505473921,58.523150547392106 L92.5231505473921,70.5231505473921 C92.5231505473921,73.2827256698621 90.2827256698621,75.5231505473921 87.5231505473921,75.5231505473921 L86.5231505473921,75.5231505473921 C83.76357542492211,75.5231505473921 81.5231505473921,73.2827256698621 81.5231505473921,70.5231505473921 L81.5231505473921,58.523150547392106 C81.5231505473921,55.76357542492211 83.76357542492211,53.523150547392106 86.5231505473921,53.523150547392106Z"></path> </defs> <g opacity="1"> <g opacity="1"> <use xlink:href="#ellipse-0" fill-opacity="0" stroke="rgb(51,225,255)" stroke-opacity="1" stroke-width="10"></use> </g> <g opacity="1"> <use xlink:href="#path-1" fill-opacity="0" stroke="rgb(255,255,255)" stroke-opacity="1" stroke-width="3"></use> </g> <g opacity="1"> <use xlink:href="#path-2" fill-opacity="0" stroke="rgb(255,51,102)" stroke-opacity="1" stroke-width="3"></use> </g> <g opacity="1"> <use xlink:href="#path-3" fill-opacity="0" stroke="rgb(255,51,102)" stroke-opacity="1" stroke-width="3"></use> </g> <g opacity="1"> <use xlink:href="#path-4" fill-opacity="0" stroke="rgb(255,51,102)" stroke-opacity="1" stroke-width="3"></use> </g> <g opacity="1"> <use xlink:href="#path-5" fill-opacity="0" stroke="rgb(255,51,102)" stroke-opacity="1" stroke-width="3"></use> </g> <g opacity="1"> <use xlink:href="#ellipse-6" fill="rgb(200,200,200)" fill-opacity="1"></use> </g> <g opacity="1"> <use xlink:href="#path-7" fill="rgb(200,200,200)" fill-opacity="1"></use> </g> <g opacity="1"> <use xlink:href="#path-8" fill-opacity="0" stroke="rgb(255,255,255)" stroke-opacity="1" stroke-width="3"></use> </g> </g> </svg> 