<?xml version="1.0" encoding="UTF-8"?> <!-- Generator: Adobe Illustrator 22.1.0, SVG Export Plug-In . SVG Version: 6.00 Build 0) --> <svg xmlns="http://www.w3.org/2000/svg" xmlns:xlink="http://www.w3.org/1999/xlink" id="Layer_1" x="0px" y="0px" viewBox="0 0 3017 226" style="enable-background:new 0 0 3017 226;" xml:space="preserve"> <style type="text/css"> .st0{fill:none;} .st1{fill:url(#rect-0_1_);} .st2{fill:#FFFFFF;} </style> <pattern x="750" y="171" width="1" height="1" patternUnits="userSpaceOnUse" id="pattern-1" viewBox="0 -1 1 1" style="overflow:visible;"> <g> <rect y="-1" class="st0" width="1" height="1"></rect> <g transform="scale(1,1)"> <image style="overflow:visible;enable-background:new ;" width="1502" height="113" id="fe78fdb6-15d6-4660-bbb4-e61a965db8b0_1_" xlink:href="853817F2CF3FABD2.png" transform="matrix(1 0 0 -1 0 0)"> </image> </g> </g> </pattern> <g> <g> <pattern id="rect-0_1_" xlink:href="#pattern-1" patternTransform="matrix(1 0 0 -1 0 -15728)"> </pattern> <rect id="rect-0" x="750" y="58" class="st1" width="1502" height="113"></rect> </g> </g> <circle class="st2" cx="24" cy="82" r="24"></circle> <circle class="st2" cx="24" cy="142" r="24"></circle> <circle class="st2" cx="24" cy="202" r="24"></circle> <circle class="st2" cx="89" cy="82" r="24"></circle> <circle class="st2" cx="89" cy="24" r="24"></circle> <circle class="st2" cx="89" cy="142" r="24"></circle> <circle class="st2" cx="89" cy="202" r="24"></circle> <circle class="st2" cx="156" cy="82" r="24"></circle> <circle class="st2" cx="156" cy="142" r="24"></circle> <circle class="st2" cx="156" cy="202" r="24"></circle> <circle class="st2" cx="221" cy="82" r="24"></circle> <circle class="st2" cx="221" cy="24" r="24"></circle> <circle class="st2" cx="221" cy="142" r="24"></circle> <circle class="st2" cx="221" cy="202" r="24"></circle> <circle class="st2" cx="288" cy="82" r="24"></circle> <circle class="st2" cx="288" cy="142" r="24"></circle> <circle class="st2" cx="288" cy="202" r="24"></circle> <circle class="st2" cx="353" cy="82" r="24"></circle> <circle class="st2" cx="353" cy="24" r="24"></circle> <circle class="st2" cx="353" cy="142" r="24"></circle> <circle class="st2" cx="353" cy="202" r="24"></circle> <circle class="st2" cx="420" cy="82" r="24"></circle> <circle class="st2" cx="420" cy="142" r="24"></circle> <circle class="st2" cx="420" cy="202" r="24"></circle> <circle class="st2" cx="485" cy="82" r="24"></circle> <circle class="st2" cx="485" cy="24" r="24"></circle> <circle class="st2" cx="485" cy="142" r="24"></circle> <circle class="st2" cx="485" cy="202" r="24"></circle> <circle class="st2" cx="552" cy="82" r="24"></circle> <circle class="st2" cx="552" cy="142" r="24"></circle> <circle class="st2" cx="552" cy="202" r="24"></circle> <circle class="st2" cx="617" cy="82" r="24"></circle> <circle class="st2" cx="617" cy="24" r="24"></circle> <circle class="st2" cx="617" cy="142" r="24"></circle> <circle class="st2" cx="617" cy="202" r="24"></circle> <circle class="st2" cx="684" cy="82" r="24"></circle> <circle class="st2" cx="684" cy="142" r="24"></circle> <circle class="st2" cx="684" cy="202" r="24"></circle> <circle class="st2" cx="749" cy="82" r="24"></circle> <circle class="st2" cx="749" cy="24" r="24"></circle> <circle class="st2" cx="749" cy="142" r="24"></circle> <circle class="st2" cx="749" cy="202" r="24"></circle> <circle class="st2" cx="816" cy="82" r="24"></circle> <circle class="st2" cx="816" cy="142" r="24"></circle> <circle class="st2" cx="816" cy="202" r="24"></circle> <circle class="st2" cx="881" cy="82" r="24"></circle> <circle class="st2" cx="881" cy="24" r="24"></circle> <circle class="st2" cx="881" cy="142" r="24"></circle> <circle class="st2" cx="881" cy="202" r="24"></circle> <circle class="st2" cx="948" cy="82" r="24"></circle> <circle class="st2" cx="948" cy="142" r="24"></circle> <circle class="st2" cx="948" cy="202" r="24"></circle> <circle class="st2" cx="1013" cy="82" r="24"></circle> <circle class="st2" cx="1013" cy="24" r="24"></circle> <circle class="st2" cx="1013" cy="142" r="24"></circle> <circle class="st2" cx="1013" cy="202" r="24"></circle> <circle class="st2" cx="1080" cy="82" r="24"></circle> <circle class="st2" cx="1080" cy="142" r="24"></circle> <circle class="st2" cx="1080" cy="202" r="24"></circle> <circle class="st2" cx="1145" cy="82" r="24"></circle> <circle class="st2" cx="1145" cy="24" r="24"></circle> <circle class="st2" cx="1145" cy="142" r="24"></circle> <circle class="st2" cx="1145" cy="202" r="24"></circle> <circle class="st2" cx="1212" cy="82" r="24"></circle> <circle class="st2" cx="1212" cy="142" r="24"></circle> <circle class="st2" cx="1212" cy="202" r="24"></circle> <circle class="st2" cx="1277" cy="82" r="24"></circle> <circle class="st2" cx="1277" cy="24" r="24"></circle> <circle class="st2" cx="1277" cy="142" r="24"></circle> <circle class="st2" cx="1277" cy="202" r="24"></circle> <circle class="st2" cx="1344" cy="82" r="24"></circle> <circle class="st2" cx="1344" cy="142" r="24"></circle> <circle class="st2" cx="1344" cy="202" r="24"></circle> <circle class="st2" cx="1409" cy="82" r="24"></circle> <circle class="st2" cx="1409" cy="24" r="24"></circle> <circle class="st2" cx="1409" cy="142" r="24"></circle> <circle class="st2" cx="1409" cy="202" r="24"></circle> <circle class="st2" cx="1476" cy="82" r="24"></circle> <circle class="st2" cx="1476" cy="142" r="24"></circle> <circle class="st2" cx="1476" cy="202" r="24"></circle> <circle class="st2" cx="1541" cy="82" r="24"></circle> <circle class="st2" cx="1541" cy="24" r="24"></circle> <circle class="st2" cx="1541" cy="142" r="24"></circle> <circle class="st2" cx="1541" cy="202" r="24"></circle> <circle class="st2" cx="1608" cy="82" r="24"></circle> <circle class="st2" cx="1608" cy="142" r="24"></circle> <circle class="st2" cx="1608" cy="202" r="24"></circle> <circle class="st2" cx="1673" cy="82" r="24"></circle> <circle class="st2" cx="1673" cy="24" r="24"></circle> <circle class="st2" cx="1673" cy="142" r="24"></circle> <circle class="st2" cx="1673" cy="202" r="24"></circle> <circle class="st2" cx="1740" cy="82" r="24"></circle> <circle class="st2" cx="1740" cy="142" r="24"></circle> <circle class="st2" cx="1740" cy="202" r="24"></circle> <circle class="st2" cx="1805" cy="82" r="24"></circle> <circle class="st2" cx="1805" cy="24" r="24"></circle> <circle class="st2" cx="1805" cy="142" r="24"></circle> <circle class="st2" cx="1805" cy="202" r="24"></circle> <circle class="st2" cx="1872" cy="82" r="24"></circle> <circle class="st2" cx="1872" cy="142" r="24"></circle> <circle class="st2" cx="1872" cy="202" r="24"></circle> <circle class="st2" cx="1937" cy="82" r="24"></circle> <circle class="st2" cx="1937" cy="24" r="24"></circle> <circle class="st2" cx="1937" cy="142" r="24"></circle> <circle class="st2" cx="1937" cy="202" r="24"></circle> <circle class="st2" cx="2004" cy="82" r="24"></circle> <circle class="st2" cx="2004" cy="142" r="24"></circle> <circle class="st2" cx="2004" cy="202" r="24"></circle> <circle class="st2" cx="2069" cy="82" r="24"></circle> <circle class="st2" cx="2069" cy="24" r="24"></circle> <circle class="st2" cx="2069" cy="142" r="24"></circle> <circle class="st2" cx="2069" cy="202" r="24"></circle> <circle class="st2" cx="2136" cy="82" r="24"></circle> <circle class="st2" cx="2136" cy="142" r="24"></circle> <circle class="st2" cx="2136" cy="202" r="24"></circle> <circle class="st2" cx="2201" cy="82" r="24"></circle> <circle class="st2" cx="2201" cy="24" r="24"></circle> <circle class="st2" cx="2201" cy="142" r="24"></circle> <circle class="st2" cx="2201" cy="202" r="24"></circle> <circle class="st2" cx="2268" cy="82" r="24"></circle> <circle class="st2" cx="2268" cy="142" r="24"></circle> <circle class="st2" cx="2268" cy="202" r="24"></circle> <circle class="st2" cx="2333" cy="82" r="24"></circle> <circle class="st2" cx="2333" cy="24" r="24"></circle> <circle class="st2" cx="2333" cy="142" r="24"></circle> <circle class="st2" cx="2333" cy="202" r="24"></circle> <circle class="st2" cx="2400" cy="82" r="24"></circle> <circle class="st2" cx="2400" cy="142" r="24"></circle> <circle class="st2" cx="2400" cy="202" r="24"></circle> <circle class="st2" cx="2465" cy="82" r="24"></circle> <circle class="st2" cx="2465" cy="24" r="24"></circle> <circle class="st2" cx="2465" cy="142" r="24"></circle> <circle class="st2" cx="2465" cy="202" r="24"></circle> <circle class="st2" cx="2532" cy="82" r="24"></circle> <circle class="st2" cx="2532" cy="142" r="24"></circle> <circle class="st2" cx="2532" cy="202" r="24"></circle> <circle class="st2" cx="2597" cy="82" r="24"></circle> <circle class="st2" cx="2597" cy="24" r="24"></circle> <circle class="st2" cx="2597" cy="142" r="24"></circle> <circle class="st2" cx="2597" cy="202" r="24"></circle> <circle class="st2" cx="2664" cy="82" r="24"></circle> <circle class="st2" cx="2664" cy="142" r="24"></circle> <circle class="st2" cx="2664" cy="202" r="24"></circle> <circle class="st2" cx="2729" cy="82" r="24"></circle> <circle class="st2" cx="2729" cy="24" r="24"></circle> <circle class="st2" cx="2729" cy="142" r="24"></circle> <circle class="st2" cx="2729" cy="202" r="24"></circle> <circle class="st2" cx="2796" cy="82" r="24"></circle> <circle class="st2" cx="2796" cy="142" r="24"></circle> <circle class="st2" cx="2796" cy="202" r="24"></circle> <circle class="st2" cx="2861" cy="82" r="24"></circle> <circle class="st2" cx="2861" cy="24" r="24"></circle> <circle class="st2" cx="2861" cy="142" r="24"></circle> <circle class="st2" cx="2861" cy="202" r="24"></circle> <circle class="st2" cx="2928" cy="82" r="24"></circle> <circle class="st2" cx="2928" cy="142" r="24"></circle> <circle class="st2" cx="2928" cy="202" r="24"></circle> <circle class="st2" cx="2993" cy="82" r="24"></circle> <circle class="st2" cx="2993" cy="24" r="24"></circle> <circle class="st2" cx="2993" cy="142" r="24"></circle> <circle class="st2" cx="2993" cy="202" r="24"></circle> </svg> 