<?xml version="1.0" encoding="UTF-8"?> <!-- Generator: Adobe Illustrator 22.1.0, SVG Export Plug-In . SVG Version: 6.00 Build 0) --> <svg xmlns="http://www.w3.org/2000/svg" xmlns:xlink="http://www.w3.org/1999/xlink" id="Layer_1" x="0px" y="0px" viewBox="0 0 817.3 284.8" style="enable-background:new 0 0 817.3 284.8;" xml:space="preserve"> <g> <path d="M53.4,36.1H17c-0.3,0-0.5,0.2-0.5,0.5v24.5c0,0.3,0.2,0.5,0.5,0.5h25.4c0.9,0,1.3,0.4,1.3,1.3v3.6c0,0.9-0.4,1.3-1.3,1.3 H17c-0.3,0-0.5,0.2-0.5,0.5v24.9c0,0.3,0.2,0.5,0.5,0.5h36.4c0.9,0,1.3,0.4,1.3,1.3v3.6c0,0.9-0.4,1.3-1.3,1.3H10.7 c-0.9,0-1.3-0.4-1.3-1.3V31.2c0-0.9,0.4-1.3,1.3-1.3h42.7c0.9,0,1.3,0.4,1.3,1.3v3.6C54.7,35.7,54.3,36.1,53.4,36.1z"></path> <path d="M64.5,99.4c-0.2-0.3-0.1-0.7,0.2-1.1l20.8-33.1c0.1-0.2,0.1-0.4,0-0.6L64.7,31.5c-0.1-0.4-0.2-0.6-0.2-0.7 c0-0.3,0.1-0.5,0.3-0.6c0.2-0.2,0.5-0.2,0.8-0.2h4.9c0.6,0,1.1,0.3,1.5,0.9l17.7,28.1c0.2,0.4,0.4,0.4,0.6,0l17.6-28.1 c0.4-0.6,0.9-0.9,1.5-0.9h4.9c0.7,0,1,0.3,1,0.8c0,0.3-0.1,0.6-0.2,0.8L94.4,64.7c-0.1,0.2-0.1,0.4,0,0.6l20.7,33 c0.1,0.4,0.2,0.6,0.2,0.7c0,0.3-0.1,0.5-0.3,0.6c-0.2,0.2-0.5,0.2-0.8,0.2h-4.8c-0.6,0-1.1-0.3-1.5-0.9L90.3,71 c-0.2-0.4-0.4-0.4-0.6,0L72,99c-0.4,0.6-0.9,0.9-1.5,0.9h-4.9C65.1,99.9,64.7,99.7,64.5,99.4z"></path> <path d="M168.8,35.2c3.6,3.6,5.4,8.3,5.4,14.2c0,5.8-1.8,10.5-5.5,14c-3.6,3.5-8.4,5.3-14.3,5.3H135c-0.3,0-0.5,0.2-0.5,0.5v29.4 c0,0.9-0.4,1.3-1.3,1.3h-4.5c-0.9,0-1.3-0.4-1.3-1.3V31.1c0-0.9,0.4-1.3,1.3-1.3h26C160.6,29.8,165.3,31.6,168.8,35.2z M163.5,59.1 c2.5-2.4,3.7-5.6,3.7-9.6c0-4.1-1.2-7.3-3.7-9.8c-2.5-2.5-5.7-3.7-9.6-3.7H135c-0.3,0-0.5,0.2-0.5,0.5v25.8c0,0.3,0.2,0.5,0.5,0.5 h18.9C157.8,62.8,161,61.6,163.5,59.1z"></path> <path d="M231.3,36.1h-36.4c-0.3,0-0.5,0.2-0.5,0.5v24.5c0,0.3,0.2,0.5,0.5,0.5h25.4c0.9,0,1.3,0.4,1.3,1.3v3.6 c0,0.9-0.4,1.3-1.3,1.3h-25.4c-0.3,0-0.5,0.2-0.5,0.5v24.9c0,0.3,0.2,0.5,0.5,0.5h36.4c0.9,0,1.3,0.4,1.3,1.3v3.6 c0,0.9-0.4,1.3-1.3,1.3h-42.7c-0.9,0-1.3-0.4-1.3-1.3V31.2c0-0.9,0.4-1.3,1.3-1.3h42.7c0.9,0,1.3,0.4,1.3,1.3v3.6 C232.6,35.7,232.2,36.1,231.3,36.1z"></path> <path d="M287.3,98.9l-14.6-30.8c-0.1-0.3-0.3-0.4-0.6-0.4h-16.7c-0.3,0-0.5,0.2-0.5,0.5v30.4c0,0.9-0.4,1.3-1.3,1.3h-4.5 c-0.9,0-1.3-0.4-1.3-1.3V31.1c0-0.9,0.4-1.3,1.3-1.3h25.6c5.7,0,10.4,1.8,13.9,5.3c3.5,3.5,5.3,8.2,5.3,13.9 c0,4.7-1.2,8.6-3.8,11.9c-2.5,3.2-5.9,5.3-10.2,6.3c-0.3,0.1-0.4,0.3-0.3,0.6l14.9,30.6c0.1,0.3,0.2,0.5,0.2,0.6 c0,0.6-0.4,0.9-1.2,0.9h-4.6C288.2,99.9,287.6,99.6,287.3,98.9z M254.9,36.5v25c0,0.3,0.2,0.5,0.5,0.5h18.5c3.9,0,7-1.2,9.4-3.6 c2.4-2.4,3.6-5.5,3.6-9.3c0-3.9-1.2-7-3.6-9.5c-2.4-2.4-5.5-3.6-9.4-3.6h-18.5C255.1,36,254.9,36.2,254.9,36.5z"></path> <path d="M352.1,31.2v3.7c0,0.9-0.4,1.3-1.3,1.3h-19.2c-0.3,0-0.5,0.2-0.5,0.5v61.9c0,0.9-0.4,1.3-1.3,1.3h-4.5 c-0.9,0-1.3-0.4-1.3-1.3V36.7c0-0.3-0.2-0.5-0.5-0.5h-18.4c-0.9,0-1.3-0.4-1.3-1.3v-3.7c0-0.9,0.4-1.3,1.3-1.3h45.7 C351.7,29.9,352.1,30.3,352.1,31.2z"></path> <path d="M373.2,98.4c-3.6-1.5-6.4-3.7-8.4-6.5c-2-2.8-2.9-6.1-2.9-9.9v-2.8c0-0.9,0.4-1.3,1.3-1.3h4.3c0.9,0,1.3,0.4,1.3,1.3v2.4 c0,3.8,1.6,6.9,4.8,9.3c3.2,2.4,7.5,3.6,12.9,3.6c5.1,0,9-1.1,11.7-3.2c2.7-2.2,4-5.1,4-8.6c0-2.3-0.6-4.3-1.9-6 c-1.2-1.7-3.1-3.2-5.6-4.7c-2.5-1.5-6.2-3.2-10.9-5.1c-5-2-8.9-3.8-11.6-5.2c-2.8-1.5-5-3.4-6.7-5.8c-1.7-2.4-2.5-5.4-2.5-9 c0-5.6,1.9-9.9,5.8-13c3.9-3.1,9.3-4.6,16.2-4.6c7.3,0,13.1,1.7,17.4,5.2c4.3,3.5,6.4,8.1,6.4,13.8V50c0,0.9-0.4,1.3-1.3,1.3H403 c-0.9,0-1.3-0.4-1.3-1.3v-1.5c0-3.9-1.5-7-4.5-9.5c-3-2.5-7.2-3.7-12.7-3.7c-4.7,0-8.3,1-10.8,2.9c-2.5,1.9-3.8,4.7-3.8,8.4 c0,2.4,0.6,4.4,1.8,5.9c1.2,1.6,3,2.9,5.3,4.1c2.3,1.2,5.8,2.7,10.5,4.5c4.9,2,8.8,3.9,11.8,5.6c3,1.7,5.4,3.9,7.2,6.4 c1.8,2.5,2.7,5.5,2.7,9.1c0,5.5-2.1,10-6.1,13.4c-4.1,3.4-9.8,5-17.2,5C381.1,100.7,376.9,99.9,373.2,98.4z"></path> <path d="M444.2,98.6V31.2c0-0.9,0.4-1.3,1.3-1.3h4.5c0.9,0,1.3,0.4,1.3,1.3v67.4c0,0.9-0.4,1.3-1.3,1.3h-4.5 C444.6,99.9,444.2,99.5,444.2,98.6z"></path> <path d="M470.1,98.6V31.2c0-0.9,0.4-1.3,1.3-1.3h4.5c0.6,0,1.1,0.3,1.5,0.9L511,85.2c0.1,0.2,0.3,0.3,0.4,0.2 c0.1,0,0.2-0.2,0.2-0.4V31.2c0-0.9,0.4-1.3,1.3-1.3h4.5c0.9,0,1.3,0.4,1.3,1.3v67.4c0,0.9-0.4,1.3-1.3,1.3h-4.5 c-0.6,0-1.1-0.3-1.5-0.9l-33.7-54.6c-0.1-0.2-0.3-0.3-0.4-0.2c-0.1,0-0.2,0.2-0.2,0.5l0.1,54c0,0.9-0.4,1.3-1.3,1.3h-4.5 C470.5,99.9,470.1,99.5,470.1,98.6z"></path> </g> <g> <path d="M190.9,219.1c-0.2,0.2-0.4,0.4-0.6,0.7c-0.2,0.2-0.4,0.6-0.5,1.1c-0.1,0.8-0.6,1.6-1.6,2.6c-0.2,0.3-0.6,0.8-1.1,1.5 c-0.1,0.3-0.2,0.7-0.4,1.1v0.1l-0.3,1.1l0.1,0.1l-0.1,0.2c-0.3,0.2-0.6,0.5-0.9,0.9c-0.3,0.3-0.6,0.6-0.9,0.9 c-0.6,0.6-1.1,1.1-1.7,1.6c-0.6,0.5-1.1,1.1-1.7,1.6c-0.2,0.2-0.4,0.4-0.5,0.5c-0.1,0.1-0.3,0.3-0.5,0.5c-0.3,0.2-0.6,0.5-0.8,0.8 c-0.2,0.3-0.5,0.5-0.8,0.8c-0.8,0.6-1.6,1.2-2.5,1.8c-0.9,0.6-1.7,1.2-2.5,1.8c-0.5,0.5-1,0.9-1.6,1.2c-0.6,0.4-1.1,0.7-1.6,1.1 c-0.2,0.2-0.3,0.4-0.4,0.4c-0.1,0.1-0.2,0.2-0.4,0.4l-0.6,0.4c-0.4,0.3-0.8,0.7-1.2,1c-0.4,0.4-0.8,0.7-1.2,1 c-1.1,0.7-2,1.5-2.9,2.2c-0.9,0.7-1.8,1.5-2.8,2.4c-0.3,0.3-0.6,0.7-1,0.9c-0.4,0.3-0.8,0.6-1.3,1c-0.8,0.6-1.5,1.2-2.1,1.7 c-0.6,0.5-1.3,1.2-1.9,2c-0.9,0.9-2.2,1.7-4,2.5c-0.5,0.3-0.9,0.5-1.2,0.6c-0.3,0.1-0.7,0.3-1.1,0.6l-0.3,0 c-0.2,0.1-0.5,0.3-0.8,0.5c-0.3,0.2-0.6,0.5-0.6,0.9c-0.3,0.6-0.7,1.1-1.3,1.5c-0.6,0.4-1.3,0.7-2.2,1c-0.2,0.1-0.4,0.2-0.6,0.3 c-0.2,0.1-0.5,0.2-0.6,0.3c-0.1,0.1-0.2,0.2-0.4,0.2c-0.2,0.1-0.4,0.3-0.7,0.4c-0.3,0.1-0.6,0.3-0.9,0.6c-1.5,1.5-3.2,2.1-5,1.9 c-0.3-0.2-0.7-0.2-1.2-0.1c-0.5,0.1-1,0.3-1.5,0.8c-0.5,0.5-1,0.7-1.5,0.9c-0.5,0.1-1.2,0.2-1.9,0.4c-0.5,0.1-1,0.1-1.5,0.2 c-0.5,0.1-1.1,0.3-1.7,0.5c-1.1,0.5-2.5,0.8-4.3,0.9l-1.6,0.2l-0.6,0.1l-0.3,0c-0.8-0.2-1.5-0.3-2.2-0.5c-0.7-0.1-1.5-0.3-2.2-0.3 c-1.7-0.2-3.4-0.5-5.2-0.9c-1.5-0.4-3.1-0.8-4.7-1.2c-1.6-0.4-3-1.1-4.4-2c-0.5-0.1-0.9-0.3-1.2-0.6c-0.3-0.3-0.7-0.6-1.2-1.1 c-0.2-0.2-0.4-0.3-0.5-0.4c-0.1-0.1-0.3-0.3-0.5-0.4l-0.1-0.1c-0.1-0.1-0.2-0.2-0.4-0.4c-0.1-0.2-0.4-0.3-0.6-0.3 c-0.9-0.2-1.6-0.5-2.2-1c-0.6-0.5-1.1-1.1-1.7-1.8c-0.6-0.8-1.4-1.5-2.4-2.1c0-0.1,0-0.1-0.1-0.1c-0.1-1-0.4-1.7-0.9-2.2 c-0.5-0.5-1-1-1.6-1.4l-0.1-0.1c-0.2-0.2-0.4-0.4-0.5-0.7c-0.1-0.3-0.3-0.7-0.4-1c-0.2-0.3-0.3-0.5-0.4-0.8 c-0.1-0.3-0.2-0.5-0.4-0.8c-0.8-1.3-1.4-2.8-1.9-4.3c-0.5-1.5-0.8-3.4-1-5.6c-0.1-0.4-0.1-0.8-0.1-1.1c0-0.4,0-0.8-0.1-1.1 c-0.2-1.3-0.4-2.7-0.5-4c-0.1-1.3-0.2-2.7-0.1-4.1l0.1-0.2c0.2-1.5,0.4-3,0.5-4.4c0.1-1.5,0.4-2.9,0.6-4.3c0.5-2.4,1-4.8,1.6-7.3 c0.6-2.5,1.2-5,2-7.5c0.3-1.1,0.7-2.2,1.1-3.2c0.5-1,1-2.1,1.6-3.2c0.3-0.6,0.6-1.2,0.9-1.9c0.3-0.6,0.5-1.2,0.7-1.9 c0.2-0.5,0.3-1,0.4-1.4c0.1-0.4,0.2-0.9,0.3-1.4c0.1-0.2,0.1-0.4,0.1-0.5s0-0.3,0.1-0.5c0-0.1,0-0.2,0.1-0.2c0-0.1,0.1-0.1,0.1-0.2 c0.7-1.3,1.3-2.6,2-3.9c0.9-1.5,1.7-3,2.7-4.6c0.9-1.6,1.8-3.1,2.8-4.6c2.2-3.5,4.5-7.1,7-10.8c2.4-3.7,5-7.6,7.8-11.5 c0.8-1.2,1.6-2.3,2.5-3.3c0.9-1.1,1.9-2.1,2.9-3.3c0.1-0.2,0.2-0.4,0.4-0.6c0.1-0.2,0.3-0.4,0.5-0.6c1-1,1.9-2,2.7-3 c0.9-1,1.8-2,2.7-3c1.4-1.6,2.9-3.2,4.3-4.8c1.4-1.6,2.9-3.3,4.3-4.9c1-1.2,2-2.3,3-3.3c1.1-1,2.1-2,3.2-2.9l3.4-3.6 c1.2-1.1,2.5-2.3,3.7-3.4c1.2-1.1,2.4-2.2,3.5-3.3c0.4-0.3,0.7-0.7,1.1-1c0.3-0.3,0.7-0.6,1.1-1c0.2-0.2,0.5-0.6,0.9-1 c0.4-0.4,0.6-1,0.6-1.7v-0.4c0.5,0.1,0.9,0.2,1.3,0.3c0.4,0,0.8,0,1.3,0c1.6-0.1,3.4,0.3,5.3,1.3c0.6,0.4,1.1,0.8,1.7,1.2 c0.6,0.4,1.1,0.8,1.7,1.2c0.6,0.4,1.1,0.8,1.7,1.3c0.6,0.5,1.1,0.9,1.7,1.3c0.4,0.9,0.9,1.7,1.5,2.3c0.6,0.6,1.2,1.3,1.8,1.9 c0.5,0.4,0.9,0.8,1.3,1.3c0.4,0.4,0.7,0.9,1,1.3c0.1,0.1,0.1,0.2,0.1,0.3c0,0.1,0,0.2,0.1,0.3c0.6,1,1.1,1.9,1.4,2.7 c0.4,0.8,0.7,1.7,0.9,2.6c-0.1,0.5-0.1,1,0.1,1.4c0.1,0.4,0.3,0.8,0.5,1.2c0.2,0.3,0.3,0.5,0.4,0.7c0.1,0.2,0.2,0.4,0.3,0.6 c0,0.9,0,1.7,0,2.5c0,0.8,0,1.7-0.1,2.7c0.1,0.3,0.1,0.6,0.1,0.9c0,0.3-0.1,0.6-0.1,1c-0.2,0.4-0.2,0.7-0.1,1 c0.1,0.2,0.3,0.4,0.4,0.6c0.4,0.4,0.4,1.1,0,1.9c-0.1,0.3-0.2,0.6-0.3,0.8c-0.1,0.3-0.1,0.6-0.1,1v0.1c-0.1,0.3-0.2,0.6-0.2,1 c0,0.3,0,0.8,0.2,1.2c0.1,0.1,0.1,0.2,0.1,0.4c-0.7,0.4-1.1,0.9-1.4,1.4c-0.2,0.6-0.5,1.1-0.6,1.6c-0.1,0.1-0.1,0.2-0.1,0.2 c0,0.1,0,0.1-0.1,0.2c-0.2,0.6-0.4,1.3-0.7,1.9c-0.3,0.7-0.5,1.4-0.7,2.1c-0.5,1.1-0.9,2.2-1.2,3.2c-0.3,1-0.7,2.1-1.2,3.1 c-0.2,0.4-0.4,0.8-0.6,1.1c-0.2,0.3-0.5,0.6-0.6,1c-0.2,0.1-0.3,0.2-0.4,0.3c0,0.1-0.2,0.2-0.4,0.3c-1.8,0-3.3,1.2-4.3,3.5 c0,0.1-0.1,0.3-0.4,0.6c-0.2,0.3-0.7,0.5-1.5,0.7c-0.1,0-0.2,0-0.4-0.1c-0.1-0.1-0.3-0.1-0.5-0.2c0.8-3.1,1.5-6.1,2.2-9.1 c0.7-2.9,1.3-6,1.7-9.1c0.2-1.7,0.3-3.6,0.4-5.7c0-2.1,0.1-4,0.1-5.6c0.1-0.7,0.1-1.4,0.1-2c0-0.6,0-1.3,0.1-2c0-1-0.1-1.7-0.3-2.1 c-0.2-0.3-0.3-0.5-0.4-0.7c-0.1-0.2-0.2-0.5-0.3-0.8c-0.1-0.1-0.4-0.1-0.8-0.2c-0.4,0-0.7-0.1-0.8-0.2l-0.7-1.2l-1.1,0.7 c-0.2,0-0.3,0.1-0.4,0.2c-0.6,0.3-1,0.5-1.3,0.8c-0.3,0.2-0.6,0.5-0.9,0.7c-0.3,0.2-0.6,0.5-0.9,0.7c-1.9,1.4-3.6,2.8-5,4.2 c-1.6,1.6-3.3,3.2-5.1,5c-1.8,1.7-3.6,3.5-5.5,5.5c-2.6,2.7-5.2,5.6-7.8,8.5c-0.7,0.8-1.1,1.6-1.4,2.4c-0.6,0.7-0.9,1.2-1,1.6 c-0.2,0.2-0.4,0.4-0.6,0.6c-0.2,0.2-0.5,0.4-0.8,0.6c-0.2,0.2-0.4,0.5-0.7,0.7c-0.3,0.2-0.6,0.5-0.9,0.9c-0.8,1-1.5,2-2.2,2.9 c-0.7,1-1.5,2-2.2,2.9c-1.3,1.7-2.6,3.3-3.8,5c-1.2,1.7-2.4,3.4-3.7,5.1l-0.3,0.3c-0.2,0.2-0.4,0.5-0.6,1l-0.1,0.3 c-0.3,0.2-0.4,0.5-0.4,0.8c-0.2,0.2-0.4,0.4-0.5,0.7c-0.1,0.2-0.3,0.4-0.5,0.7l0.1,0.1c-0.2,0.2-0.4,0.6-0.6,1.1 c-0.2,0.5-0.1,1,0.1,1.4l-0.1,0.2v0.1c-0.2,0.2-0.3,0.4-0.4,0.5c-0.1,0.1-0.2,0.3-0.4,0.5c-0.4,0.6-0.7,1-1,1c-0.8,0-1.3,0.4-1.7,1 c-0.3,0.7-0.6,1.1-0.8,1.4c-0.2,0.5-0.3,1-0.4,1.4c0,0.4-0.2,0.8-0.4,1.2c-0.1,0.3-0.2,0.6-0.3,0.9c-0.1,0.3-0.2,0.7-0.3,1.1v0.1 c-0.1,0-0.1,0.1-0.1,0.2c0,0.1,0,0.2-0.1,0.2c-0.8,0.5-1.3,1-1.7,1.6c-0.4,0.5-0.7,1.1-1,1.6c-0.3,0.6-0.6,1.1-0.9,1.4 c-0.2,0.2-0.4,0.5-0.6,0.9c-0.2,0.4-0.3,0.8-0.1,1.4c0,0.5-0.2,1.1-0.7,1.7c-0.2,0.4-0.4,0.8-0.6,1.2c-0.2,0.4-0.3,0.9-0.3,1.4 c-0.1,0-0.2,0.1-0.2,0.2c0,0.1-0.2,0.2-0.4,0.3c-0.2,0.2-0.3,0.5-0.4,0.7c0,0.3-0.2,0.5-0.4,0.7c-0.2,0.5-0.3,0.9-0.4,1.3 c-0.1,0.4-0.2,0.7-0.3,1.1c-0.2,0.4-0.4,1-0.6,1.8c-0.2,0.5-0.4,1-0.6,1.5c-0.2,0.5-0.5,0.9-0.6,1.3c-0.2,0.2-0.3,0.4-0.4,0.6 c-0.1,0.2-0.2,0.4-0.3,0.6c-0.6,1-1.1,1.9-1.6,2.9c-0.5,1-0.8,2.2-0.9,3.5c0,0.9-0.2,2-0.7,3.3c-0.2,0.5-0.3,1-0.4,1.4 c-0.1,0.5-0.2,0.9-0.3,1.4c-1,4.7-1.7,9.2-2.3,13.4c0,0.8,0.2,1.8,0.7,3c0.5,1.2,0.8,2.2,0.9,2.9c0.2,0.5,0.3,0.9,0.3,1.2 c0,0.3,0,0.7,0,1.1c0.2,1.9,1.2,3,3.2,3.2c2.5,0.2,5,0.4,7.6,0.4c2.6,0.1,5.2-0.5,7.8-1.6c0.6-0.3,1.2-0.5,1.8-0.7 c0.6-0.2,1.2-0.4,1.7-0.7c0.9-0.3,1.7-0.6,2.5-0.9c0.8-0.3,1.6-0.6,2.4-1c0.5-0.3,1-0.5,1.6-0.7c0.6-0.2,1.1-0.4,1.7-0.7 c1.5-0.7,3.1-1.4,4.7-2.2c1.6-0.8,3.1-1.7,4.5-2.9c0.5-0.4,1-0.7,1.5-0.9c0.5-0.3,1.1-0.5,1.8-0.8c0.4-0.2,0.8-0.5,1.1-0.7 c0.4-0.2,0.8-0.4,1.1-0.7l0.7-0.4c1.8-1,3.6-2.1,5.4-3.3c1.8-1.1,3.5-2.3,5.2-3.4c2.3-1.5,4.5-3,6.5-4.4c2-1.5,3.9-2.8,5.7-4.2 c0.4-0.2,0.7-0.5,1.1-0.8c0.3-0.3,0.6-0.5,0.8-0.8c0.7,1,1.1,1.4,1.4,1.4c0.2,0,0.6-0.3,1.2-0.9c0.2-0.2,0.4-0.4,0.6-0.4 c0.2-0.1,0.4-0.2,0.6-0.4c0.4-0.2,0.8-0.4,1.1-0.6c0.4-0.1,0.7-0.3,1-0.6c0.8-0.9,1.6-1.6,2.4-2.2c0.9-0.6,1.8-1.2,2.7-1.9 c1.4-0.8,2.8-1.7,4-2.7c1.2-1,2.4-2.1,3.6-3.2c0.1-0.2,0.1-0.6,0.1-1c1.2,0.7,2.5,0.5,3.7-0.7c0.6-0.5,0.9-0.8,1-0.9 c-0.3,0-0.3,0.1-0.1,0.3c-0.8,0.9-1.6,1.7-2.5,2.3c-0.9,0.7-1.8,1.3-2.7,1.9c-0.3,0.2-0.6,0.4-0.8,0.6c-0.2,0.1-0.5,0.3-0.8,0.6 c-0.9,0.6-1.7,1.3-2.5,2c-0.8,0.8-1.7,1.5-2.5,2.2c-0.3,0.3-0.6,0.6-0.9,0.9c-0.3,0.3-0.6,0.6-0.9,0.9c-0.1,0-0.2,0.1-0.4,0.4 c-1.1,0.4-2,1-2.8,1.6c-0.8,0.7-1.6,1.3-2.4,2c-1.1,1-2.3,1.9-3.4,2.7c-0.6,0.3-1,0.5-1.3,0.8c-1.4,0.8-2.9,1.7-4.5,2.8 c-0.9,0.5-1.7,1.2-2.4,2c-0.4,0.3-0.7,0.5-1,0.7c-0.3,0.2-0.6,0.5-0.9,0.7c-0.6,0.5-1.3,0.9-2.3,1.4c-0.1,0.2-0.4,0.5-1,0.7l-1,0.7 l1.1,2.9l1.1-0.3l0.6-0.1c0.8-0.1,1.3-0.2,1.7-0.4c0.7-0.3,1.3-0.6,1.9-0.9c0.6-0.3,1.1-0.6,1.7-0.8c0.4-0.2,0.8-0.6,1.4-0.9 c0.5-0.4,0.8-0.9,0.8-1.6l0.3,0c0.1-0.1,0.2-0.2,0.3-0.2c0.1,0,0.2-0.1,0.3-0.2c1.6-0.8,3.1-1.7,4.5-2.7c0.2-0.2,0.4-0.4,0.6-0.5 c0.2-0.1,0.5-0.2,0.6-0.5c0.4-0.2,0.8-0.5,1.3-0.8c0.5-0.3,1-0.6,1.4-1c0.6-0.5,1.1-0.9,1.7-1.3c0.5-0.4,1.1-0.9,1.8-1.4 c1.1-0.7,2-1.5,2.9-2.2c0.9-0.7,1.9-1.4,2.9-2.2c0.2-0.2,0.4-0.4,0.6-0.5c0.2-0.1,0.5-0.2,0.6-0.5c0.1,0,0.2,0,0.2-0.1 c0-0.1,0.1-0.1,0.2-0.1c-0.4,0.3-0.7,0.5-1,0.8c-0.3,0.3-0.6,0.5-0.9,0.8c0.1,0.1,0.1,0.2,0.1,0.4c0.2,0,0.4,0,0.6,0.1 c0.2,0.1,0.3,0.1,0.4-0.1c0.8-0.6,1.5-1.2,2.2-1.7c0.7-0.5,1.5-1.1,2.2-1.7c0.5-0.4,0.9-0.7,1.1-1c0.3-0.3,0.7-0.6,1.1-0.9 c0.8-0.5,1.1-1.3,1-2.3c0.3-0.1,0.6-0.3,0.9-0.4c0.3-0.1,0.6-0.3,0.9-0.6c0.2-0.2,0.4-0.4,0.7-0.7c0.3-0.2,0.6-0.5,1-0.7l-0.3,0.3 c0.9-0.2,1.7-0.7,2.5-1.3c0.8-0.7,1.3-1.4,1.5-2.2c0.4-0.2,0.6-0.4,0.7-0.5l0.3,0.2c0.9-0.1,1.5-0.4,1.9-0.8 c0.4-0.4,0.5-0.6,0.4-0.6c-0.1,0-0.5,0.3-1.1,1c-0.6,0.7-1.6,2.2-2.8,4.4c-0.9,1.1-2.1,2.1-3.6,3.1c-0.3,0.2-0.6,0.5-0.9,0.7 c-0.3,0.2-0.7,0.5-1.1,0.9L190.9,219.1z M82.6,233.3c0.9-0.5,1.4-1.3,1.5-2.3c0.1-1-0.2-1.8-0.9-2.5c-0.1,0.8-0.2,1.6-0.2,2.3 C82.9,231.5,82.8,232.4,82.6,233.3z M84.5,226.4c0.2-0.2,0.4-0.4,0.5-0.7c0.1-0.2,0.4-0.6,0.8-1.1l-1.4-0.4 c-0.2,0.2-0.3,0.5-0.4,0.8c0,0.3-0.2,0.6-0.4,0.8C83.6,226.1,83.9,226.3,84.5,226.4z M93.1,200.4c-1.1,0.6-1.7,1.2-1.9,1.7 c-0.2,0.5,0,1.2,0.4,2c0.9-0.9,1.4-1.6,1.5-2C93.3,201.8,93.3,201.2,93.1,200.4z M95.1,194.6c-0.3,0.6-0.5,1.3-0.7,2 c-0.2,0.7-0.4,1.4-0.6,2.1c0,0.1,0.1,0.2,0.3,0.4c1.1-1.9,2.1-3.8,3-5.6c1-1.8,2-3.7,3-5.6c-0.1-0.1-0.2-0.1-0.3-0.2 c-0.1,0-0.2-0.1-0.3-0.2c-0.7,0.3-1.1,0.7-1.4,1.4c-0.3,0.6-0.5,1.3-0.7,2c-0.3,0.7-0.7,1.4-1.1,1.9 C95.8,193.4,95.4,194,95.1,194.6z M100,186.3c0,0.1,0,0.2,0.1,0.3c0.1,0.1,0.2,0.3,0.3,0.5c0.2-0.1,0.4-0.2,0.6-0.2 c0.2,0,0.3-0.1,0.4-0.4c0.5-0.8,0.9-1.7,1.1-2.5c0.2-0.2,0.3-0.5,0.3-0.8c0-0.3,0-0.5,0.1-0.7c-0.1-0.1-0.2-0.1-0.3-0.2 c-0.1,0-0.2-0.1-0.3-0.2c-0.5,0.8-0.9,1.4-1.3,2.1C100.8,184.9,100.4,185.6,100,186.3z M105.5,179c-1.4,0.7-2.3,1.2-2.4,1.4 c-0.2,0.3,0,0.9,0.7,1.9C104.3,181,104.9,179.9,105.5,179z M172.1,218.9c-0.4,0.5-0.8,1-1.1,1.5c-0.4,0.4-0.8,0.8-1.3,1.2 c-0.5,0.3-1,0.5-1.4,0.8c-0.5,0.3-1,0.5-1.4,0.8c0.2-0.2,0.4-0.4,0.6-0.6c0.2-0.2,0.5-0.4,0.6-0.6c0.5-0.5,1-0.9,1.5-1.3 c0.5-0.4,1-0.8,1.5-1.2c0.8-0.6,1.5-1.2,2.2-1.8c0.7-0.6,1.5-1.2,2.2-1.8c0.5-0.4,1-0.7,1.5-1.2c0.5-0.4,1.1-0.8,1.7-1.2 c0.6-0.5,0.9-0.8,1-1c0.4-0.4,0.8-0.8,1.3-1.1c0.5-0.3,1.1-0.8,2-1.6l0.6,0.6c-0.5,0.1-0.8,0.2-1,0.3c-0.6,0.4-1.2,0.8-1.8,1.2 c-0.6,0.4-1.2,0.9-1.8,1.5c-0.8,0.8-1.6,1.6-2.4,2.4c-0.8,0.8-1.7,1.6-2.5,2.4C173.5,217.7,172.9,217.9,172.1,218.9z M191.5,207.6 c-0.3,0.2-0.5,0.4-0.7,0.6c-0.2,0.2-0.4,0.4-0.7,0.6C190.4,208.4,190.9,208,191.5,207.6z"></path> <path d="M251.9,174.7c0.2,1.1,0.2,2.3,0.1,3.5c-0.1,1.2-0.2,2.4-0.2,3.5c0,0.3,0,0.6,0.1,0.9c0,0.3,0,0.7-0.1,1 c-0.2,0.8-0.4,1.6-0.5,2.5c-0.1,0.8-0.4,1.7-0.8,2.5c-0.3,0.8-0.6,1.6-0.9,2.3c-0.3,0.7-0.3,1.5,0.1,2.3c0.5,0.9,0.4,1.7-0.1,2.5 c-0.6,0.8-1.1,1.6-1.4,2.4c-0.5,1-0.9,2.1-1.4,3.1c-0.4,1-0.9,2.1-1.4,3.1c-0.2,0.2-0.4,0.4-0.5,0.7c-0.1,0.2-0.3,0.4-0.5,0.7 c-0.7,1.1-1.3,2.1-1.9,3.2c-0.6,1.1-1.2,2.1-1.9,3.2c-0.6,0.9-1.2,1.7-1.8,2.6c-0.6,0.9-1.2,1.7-1.8,2.6c-0.2,0.2-0.3,0.5-0.4,0.8 c0,0.3-0.2,0.7-0.4,1.1c-0.1,0.1-0.5,0.4-1.3,0.9c0.5,0.4,0.9,0.8,1.1,1.1c-1.1,1.3-2.1,2.6-3.1,3.9c-1,1.3-2,2.6-3.1,3.9 c-0.9,1.2-1.7,2.4-2.6,3.7c-0.9,1.2-1.7,2.5-2.6,3.7c-0.7,0.8-1.3,1.5-1.9,2.2c-0.6,0.7-1.3,1.4-2.1,2.1c-0.6,0.6-1.1,1.2-1.7,1.8 c-0.6,0.6-1.2,1.2-1.9,1.8c-1.1,1-2.2,2-3.3,2.9c-1.1,0.9-2.2,1.9-3.2,3c-1.1,1.1-2.2,1.8-3.4,2.2c-1.2,0.3-2.3,0.9-3.4,1.7 c-0.4,0.2-0.8,0.4-1.4,0.3c-0.5,0-1-0.1-1.5-0.2c-1.2-0.3-2.3-0.7-3.3-1.3c-0.5-0.3-1-0.5-1.7-0.4c-0.6,0-1.2-0.2-1.7-0.7 c-0.7-0.7-1.4-1.4-2.1-2c-0.7-0.7-1.5-1.3-2.2-2c-0.9-0.8-1.6-1.9-2.2-3.2c-0.6-1.1-1.1-2.2-1.7-3.3c-0.6-1.1-1.1-2.3-1.6-3.6 c-0.2-0.6-0.3-1.1-0.4-1.8c-0.1-0.6-0.2-1.2-0.3-1.8c0-1.4,0-2.7-0.1-4c0-1.3,0-2.6,0.2-4c0.2-1.4,0.5-2.8,0.8-4.3 c0.3-1.5,0.7-3,1.1-4.4c0-0.2,0.1-0.4,0.3-0.6c0.2-0.2,0.3-0.3,0.3-0.4c0.1-0.5,0.1-0.9,0.1-1.2c0-0.3,0-0.6,0.1-0.9 c0.9-3,1.8-5.9,2.9-8.7c0.3-0.9,0.6-1.8,1-2.7c0.4-0.9,0.8-1.7,1.1-2.6c0.4-0.8,0.7-1.7,1-2.5c0.3-0.9,0.7-1.7,1.1-2.6 c0.6-1.3,1.1-2.6,1.7-3.9c0.6-1.2,1.2-2.5,1.9-3.8c1.6-3.4,3.3-6.8,5-10c0.5-0.8,0.9-1.7,1.4-2.5c0.4-0.8,0.9-1.6,1.4-2.5 c0.2-0.2,0.3-0.5,0.4-0.8c0.1-0.3,0.1-0.5,0-0.6c-0.5-0.6-1.1-0.9-1.7-0.8c-0.5,0.2-1,0.4-1.5,0.6c-0.5,0.2-1,0.5-1.5,0.7 c-0.5-0.6-1-0.9-1.6-0.9c-0.6,0-1.4,0.4-2.6,1c-0.9,0.5-1.9,0.8-3.1,1c-1.2,0.2-2.3,0.1-3.2-0.2c0.4-0.2,0.7-0.4,0.9-0.6 c0.2-0.2,0.5-0.3,0.6-0.3c0.9-0.1,1.6-0.4,2.1-0.9c0.5-0.5,1-1.1,1.5-2c0.2-0.2,0.4-0.4,0.5-0.5c0.1-0.1,0.3-0.3,0.5-0.5 c1.9-1.1,3.8-2,5.5-3c1.8-0.9,3.6-1.9,5.4-2.8c1.1-0.5,2.1-1,3-1.5c1-0.4,2-0.9,3-1.5c0.5-0.4,1-0.7,1.5-1.2c0.5-0.4,0.6-1,0.2-1.9 c1.4-1,2.6-2.2,3.4-3.7c0.9-1.5,1.8-2.8,2.9-4.1c0.8-0.9,1.5-1.8,2.2-2.6c0.7-0.9,1.4-1.8,2.2-2.6c0.5-0.5,1-0.6,1.6-0.5 c0.6,0.1,1,0.4,1.3,0.8c0.1,0.2,0.5,0.3,1.1,0.4c0.5,0,1,0,1.6,0c0.6,0,1.1,0,1.6,0c0,0.1-0.1,0.3-0.3,0.5c0.4,0.2,0.9,0.6,1.4,1.1 c0.6,0.4,1.2,0.8,1.8,1.1c0.6,0.3,1,0.9,1.2,1.9c0,0.2,0.1,0.4,0.3,0.5c0.8,0.4,1.1,0.8,1,1.3c-0.1,0.5-0.2,1.1-0.4,1.7 c-0.4,0.7-0.7,1.5-1.1,2.2c-0.3,0.7-0.6,1.5-0.8,2.3c-0.2,0.4,0,0.8,0.6,1.1c1.2,0.6,2.5,1.2,3.7,1.9c1.2,0.7,2.5,1.3,3.8,1.9 c1,0.4,1.7,1,2.3,1.7c0.6,0.7,1.1,1.4,1.7,2.1c0.2,0.2,0.3,0.4,0.3,0.7c0,0.3,0,0.6,0.1,1c0.5-0.3,0.8-0.2,0.9,0.2 c0.1,0.4,0.2,0.8,0.3,1.4c0.3,1.1,0.6,2.2,1.1,3.3C251.4,172.5,251.8,173.6,251.9,174.7z M246.5,180.3c0-0.7,0.1-1.4,0.4-2.2 c0.3-0.8,0-1.2-0.9-1.4c-0.2-1.2-0.4-2.4-0.6-3.5c-0.2-1.1-0.4-2.1-0.5-3.2c-0.1-0.8-0.3-1.4-0.6-2c-0.3-0.5-0.8-1-1.6-1.5v2.6 c-0.4-0.3-0.6-0.6-0.7-0.8c-0.3-0.6-0.5-1.3-0.7-1.9c-0.2-0.6-0.6-1.3-1.1-1.9c-0.5-0.5-1.1-1-1.9-1.3c-0.8-0.4-1.7-0.7-2.7-0.9 c-1-0.2-1.9-0.3-2.8-0.2c-0.9,0.1-1.7,0.3-2.4,0.7c-0.3,0.1-0.5,0.4-0.6,0.7c-0.9,1.2-1.7,2.3-2.6,3.4c-0.9,1.1-1.7,2.2-2.4,3.4 c-1,1.4-1.9,2.8-2.8,4.2c-0.9,1.4-1.8,2.8-2.8,4.2c-0.5,0.6-0.9,1.1-1.2,1.7c-0.3,0.6-0.7,1.1-1.1,1.7c-0.5,0.9-1,1.9-1.5,2.8 c-0.5,0.9-1,1.8-1.5,2.8c-0.8,1.4-1.5,2.7-2.2,4c-0.7,1.3-1.4,2.7-2.2,4.2c-0.4,0.6-0.7,1.2-1.1,1.8c-0.3,0.6-0.6,1.2-0.9,1.8 c-0.8,1.6-1.5,3.1-2.1,4.6c-0.6,1.5-1.3,3-1.9,4.4c-0.5,1-0.9,2.1-1.2,3.1c-0.3,1-0.7,2.1-1.2,3.2c-0.3,0.5-0.5,1.1-0.6,1.8 c-0.1,0.7-0.7,1-1.7,1c-0.2,1.2-0.2,2.4-0.1,3.5c0.1,1.1-0.5,2.2-1.8,3.2v0.4c-0.2,1.1-0.4,2.2-0.6,3.4c-0.2,1.2-0.4,2.3-0.6,3.4 c-0.1,0.5-0.2,1-0.4,1.6c-0.1,0.6-0.2,1.1-0.2,1.6c0,1.2,0,2.3,0.1,3.5c0,1.2,0.1,2.3,0.2,3.5c0.2,1,0.7,1.4,1.6,0.9 c1.1-0.6,2.1-1.2,3.1-1.8c1-0.5,2-1.2,2.9-1.9c1.1-0.9,2.3-1.9,3.4-3c1.1-1,2.2-2,3.3-3c1.1-0.9,2.1-1.9,3-2.9c1-1,1.9-2,2.9-2.9 c0.5-0.6,0.9-1.1,1.3-1.6c0.4-0.5,0.8-1.1,1.3-1.7c0-0.4,0.2-0.8,0.6-1.2c0.4-0.4,0.8-0.6,1.3-0.6l1.4-0.2 c-0.1-0.3-0.2-0.5-0.2-0.8c0-0.2-0.1-0.5-0.2-0.8c0.2-0.2,0.5-0.5,0.8-0.8c0.3-0.3,0.7-0.7,1.1-1c0.3-0.3,0.7-0.7,1.1-1 c0.5-0.3,0.7-0.6,0.7-0.9c0-1.1,0.2-1.6,0.7-1.5c0.5,0.1,1.1,0,1.7-0.3c-0.7,1.1-1.1,2-1.4,2.7c0.2,0.2,0.3,0.2,0.4,0.2 c0.5-0.5,0.9-0.9,1.4-1.3c0.4-0.4,0.8-0.9,1.1-1.4c0.7-1.3,1.5-2.4,2.5-3.3c1-1,1.8-2.1,2.5-3.3c0.5-0.8,1.1-1.6,1.9-2.3 c0.8-0.7,1.3-1.5,1.6-2.6c0.1-0.4,0.3-0.8,0.7-1.3c0.5-0.8,1-1.7,1.5-2.5c0.5-0.8,1-1.6,1.5-2.5c0.3-0.5,0.5-1.1,0.8-1.7 c0.2-0.6,0.5-1.2,0.6-1.7c0.3-0.9,0.6-1.8,1-2.6c0.1,0,0.4-0.2,1-0.4c-0.1-0.1-0.2-0.1-0.2-0.1c0,0-0.1,0-0.2-0.1 c0.1-0.4,0.1-0.8,0.1-1.1c0-0.3,0.1-0.7,0.3-1c0.1-0.4,0.2-0.8,0.4-1.1c0.2-0.3,0.4-0.7,0.6-1.1c0.2-1.1,0.4-2.1,0.7-3.2 C246.5,182.3,246.6,181.3,246.5,180.3z M200.1,167.4c1.1-0.7,2.1-1.4,3.2-2.1c-0.8-0.2-1.5,0-2.2,0.5 C200.3,166.3,200,166.8,200.1,167.4z M227.2,214.3c0.8-1.1,1.6-2.2,2.4-3.3c0.8-1.1,1.6-2.2,2.4-3.3c0.1,0,0.2,0,0.2,0 c0,0,0.1,0.1,0.2,0c-0.2,0.5-0.4,1.1-0.6,1.6c-0.2,0.6-0.6,1.1-0.9,1.5c-0.5,0.7-1,1.3-1.7,1.8c-0.6,0.6-1.2,1.1-1.7,1.7 C227.3,214.6,227.2,214.5,227.2,214.3z M238.3,196.8c0,0.4-0.2,1-0.6,2c-0.4,0.9-0.9,1.9-1.5,3.1c-0.6,1.1-1.3,2.1-2,3.1 c-0.7,0.9-1.3,1.6-1.8,1.9c1.1-1.7,2.1-3.4,3-5C236.4,200.2,237.3,198.5,238.3,196.8z M242.8,179.4c0-0.6,0-1.2,0.1-1.8 c0-0.6,0.1-1.2,0.1-1.9c0.1,0.1,0.3,0.1,0.6,0.1c-0.1,0.6-0.1,1.2-0.1,1.8s0,1.2-0.1,1.8L242.8,179.4z"></path> <path d="M289,187.6c0.2,0,0.7,0,1.4,0.2c-0.7,0.9-1.3,1.8-1.9,2.7c-0.6,0.9-1.2,1.8-1.8,2.7c-0.2,0.3-0.3,0.6-0.2,1 c0,0.3,0,0.7-0.2,1c-0.6,1.2-1.1,2.3-1.7,3.3c-0.5,1-1.1,2.2-1.8,3.3c-0.2,0.5-0.5,1-0.8,1.4c-0.3,0.4-0.6,0.9-0.9,1.4 c-0.5,0.8-0.9,1.5-1.2,2.1c-0.3,0.7-0.7,1.4-1.1,2.1c-1.3,2.4-2.7,4.9-4,7.3c-1.3,2.4-2.7,4.9-4,7.3c-0.7,1.5-1.4,2.6-2.2,3.5 c-0.8,0.9-1.8,1.8-3.2,2.6c-0.2,0.1-0.4,0.2-0.6,0.1c-0.2-0.1-0.5-0.1-0.6-0.2c-0.4,0-0.7-0.1-1-0.1c-0.3-0.1-0.6-0.2-1-0.3 c-0.8-0.2-1.3-0.6-1.6-1.2c-0.3-0.6-0.5-1.3-0.7-2.1c-0.3-0.6-0.7-1.2-1.3-1.7c-0.3-0.2-0.4-0.7-0.4-1.3c0-0.6,0-1.2,0-1.8 c-0.3-0.2-0.5-0.5-0.7-1c-0.2-0.5-0.7-0.5-1.4,0l-0.3-0.2c-0.1-0.1-0.2-0.3-0.4-0.7c-0.2-0.4-0.3-0.7-0.4-1.1 c-0.1-0.4-0.2-0.7-0.4-1.1c-0.1-0.3-0.2-0.6-0.4-0.9c-0.1-0.3-0.2-0.6-0.1-0.8c0.6-1.7,1.1-3.4,1.7-5c0.6-1.6,1.1-3.2,1.6-5 c0.5-1.7,1-3.4,1.4-4.9c0.5-1.6,1-3.2,1.4-4.9c0.5-1.7,0.9-3.4,1.3-5c0.4-1.6,0.8-3.3,1.1-5c0.6-3.2,1.1-6.4,1.7-9.6 c0.6-3.2,1.1-6.4,1.6-9.6c0.6-4.1,0.8-8.3,0.6-12.8c0-1.6-0.2-3.2-0.6-4.6c-0.4-1.4-1.4-2.6-2.8-3.5c-1-0.6-1.1-1.6-0.6-3 c0.8-0.1,1.3-0.1,1.7-0.1c0.6,0.1,1.2,0.1,1.8,0.1c0.6,0,1.3-0.1,1.9-0.2c0.8,0.1,1.5,0.3,2.2,0.6c0.7,0.3,1.5,0.6,2.2,0.9 c0.4,0.1,0.9,0.4,1.4,0.7c0.2,0,0.3,0,0.3,0.1c0.8,1.2,1.7,2.2,2.8,3.1c1.1,0.9,1.7,2.2,1.9,3.9c0,0.8,0.1,1.5,0.4,2.2 c0.2,0.7,0.4,1.4,0.5,2.2c0.2,1,0.3,2.1,0.4,3.2c0.1,1.1,0.2,2.2,0.3,3.2c0.1,0.9,0.1,1.7,0.1,2.5c0,0.8,0,1.7,0,2.5 c0,0.5,0,1-0.1,1.4c0,0.4-0.1,0.9-0.2,1.4c-0.2,1-0.3,2-0.4,2.9c-0.1,0.9-0.2,1.9-0.4,2.8c0,0.4-0.1,0.6-0.3,0.6 c-1,0.2-1.4,0.5-1.2,0.9c0.1,0.4,0.3,0.8,0.4,1.3c0.1,0.6,0,1.4-0.1,2.4c0,0.1,0,0.2-0.1,0.2c0,0.1-0.1,0.1-0.1,0.2 c0.3,0.7,0.2,1.3-0.2,1.6c-0.4,0.3-0.9,0.6-1.5,0.9c0.8,0.6,1.1,1.2,1.1,1.8c0,0.6-0.2,1.4-0.6,2.2c-0.2,0.3-0.3,0.7-0.4,1 c0,0.3-0.1,0.7-0.2,1c-0.2,0.4-0.4,0.9-0.5,1.3c-0.1,0.5-0.3,1-0.5,1.6c-0.2,0.6-0.3,1.4-0.3,2.4c0.1,1.5-0.2,3-1,4.4 c-0.5,0.8-0.8,1.6-0.9,2.5c-0.1,0.9-0.2,1.7-0.4,2.5c0.1,0.1,0.2,0.1,0.3,0.1c0.1,0,0.2,0,0.3,0.1c0.8-1.1,1.4-2,1.9-2.7 c1.1-1.8,2.1-3.6,3.2-5.4c1.1-1.8,2.2-3.6,3.2-5.4c0.8-1.4,1.5-2.7,2.3-4c0.8-1.3,1.5-2.7,2.3-4c0.7-1.1,1.3-2.1,1.9-3.1 c0.6-1,1.2-2,1.9-3.1c0.2-0.2,0.3-0.4,0.4-0.5c0.1-0.1,0.2-0.3,0.4-0.5l0.3,0.2c-1.1,1.8-2.1,3.6-3.2,5.4c-1.1,1.8-2.2,3.7-3.3,5.7 c0.4-0.2,0.8-0.5,1.4-1c0.5-0.5,1-1.1,1.4-1.7c0.4-0.6,0.8-1.2,1.1-1.7c0.3-0.5,0.5-0.9,0.5-1.2c0.2-0.3,0.4-0.7,0.6-1 c0.2-0.4,0.4-0.7,0.6-1c0.6-0.9,1.1-1.6,1.7-2.3c0.6-0.7,1.1-1.4,1.6-2.3c0.5-0.7,1-1.5,1.4-2.2c0.5-0.7,1-1.5,1.4-2.3 c0.2-0.3,0.5-0.6,0.8-1c0.3-0.3,0.6-0.7,0.9-1c0.4-0.5,0.7-1.1,1-1.6c0.3-0.5,0.6-1.1,1-1.6c0.8-1.1,1.5-2.1,2.2-3.1 c0.7-1,1.4-2,2.2-3.1c0.9-1.3,1.7-2.6,2.5-3.8c0.8-1.2,1.6-2.5,2.4-3.8c0.4-0.2,0.7-0.5,0.9-0.7c0.4-0.2,0.7-0.5,1-0.9 c0.8-1.1,1.6-2.2,2.4-3.3c0.8-1.1,1.6-2.2,2.4-3.3l2.2-2.9c0.2-0.2,0.4-0.4,0.6-0.4c0.2,0,0.5-0.1,0.6-0.2c0,0.2,0.1,0.3,0.3,0.2 c-0.3,0.5-0.6,1-0.9,1.4c-0.3,0.4-0.6,0.9-0.9,1.3c-0.9,1.2-1.7,2.4-2.7,3.7c-0.9,1.2-1.8,2.5-2.7,3.7c-0.9,1.3-1.7,2.6-2.6,3.9 c-0.9,1.3-1.8,2.5-2.7,3.7c-0.5,0.8-1,1.7-1.6,2.6c-0.6,0.9-1.1,1.7-1.6,2.6c-1,1.5-1.8,2.9-2.7,4.3c-0.8,1.4-1.7,2.8-2.5,4.3 c-0.6,0.9-1.2,1.7-1.8,2.7c-0.6,0.9-1.2,1.9-1.8,2.8c-0.2,0.3-0.5,0.9-0.9,1.7c-0.9,1.5-1.7,3-2.7,4.5 C290.9,184.6,290,186.1,289,187.6z M372.6,163.4c-0.2,0.8-0.5,1.5-0.6,2.4c0,0.2,0,0.4-0.1,0.5c-0.1,0.1-0.2,0.3-0.3,0.5l-3.4,6.2 c-0.6,1.2-1.2,2.3-1.8,3.3c-0.6,1.1-1.2,2.2-1.8,3.3c-0.6,1.1-1.1,2.1-1.7,3c-0.5,1-1.1,2-1.7,3c-0.5,0.9-1,1.9-1.5,2.8 c-0.5,1-1,1.9-1.5,3c-0.3,0.5-0.5,1.1-0.6,1.7c-0.1,0.6-0.3,1.2-0.5,1.8c-0.4,0.2-0.8,0.3-1.1,0.3c0.1,0.5,0.2,0.9,0.2,1.4 c0,0.4,0.1,0.9,0.1,1.4c0,0.2-0.1,0.4-0.4,0.6c-0.3,0.2-0.5,0.4-0.6,0.6c-0.4,0.7-0.7,1.5-0.9,2.2c-0.2,0.7-0.7,1.4-1.4,2 c-0.2,0.1-0.3,0.4-0.2,0.7c0,0.3,0,0.7-0.1,1c-0.6,1.3-1.1,2.5-1.7,3.8c-0.6,1.3-1.1,2.5-1.6,3.9c-0.3,0.7-0.5,1.4-0.7,2.1 c-0.2,0.7-0.4,1.3-0.6,2.1v0.7c-0.8,0.7-1.2,1.5-1.2,2.4c0,0.9-0.2,1.7-0.5,2.6c-0.4,1.1-0.8,2.3-1.2,3.5c-0.4,1.2-0.8,2.3-1.2,3.5 c-0.3,1-0.6,2-0.8,3c-0.2,1-0.5,2.1-0.6,3.2c-0.1,0.5-0.2,1-0.3,1.6c-0.1,0.5-0.1,1.1-0.1,1.5c-0.1,0.3,0,0.8,0.1,1.6 c-0.2,0.1-0.4,0.2-0.6,0.4c-0.2,0.1-0.4,0.2-0.6,0.4c0.2,1.3,0.4,2.7,0.5,4.1c0.1,1.4-0.2,2.8-0.9,4.3c0.3,0.2,0.5,0.6,0.7,0.9 c0.2,0.4,0.1,0.9-0.3,1.5c-0.2,0.3-0.2,0.7-0.1,1.1c0.1,0.4,0.5,0.7,1.1,0.8c0.4,0,0.7,0.2,1,0.4c0.3,0.2,0.5,0.5,0.7,0.6 c0,0.3-0.1,0.6-0.4,0.8c-0.3,0.2-0.6,0.4-0.8,0.6c-0.2,0.2-0.4,0.4-0.6,0.7c-0.1,0.3-0.1,0.7,0.1,1.2c-0.9-0.1-1.7-0.1-2.7-0.1 c-0.9,0-1.6-0.2-2.1-0.6c-1.1-0.8-2-1.7-2.9-2.6c-0.9-0.9-1.6-2-2.3-3c-0.5-1-0.9-2.1-1.1-3.2s-0.6-2.2-0.9-3.4 c-0.3-1.2-0.4-2.6-0.4-4c0-2.2,0.1-4.4,0.2-6.5c0.1-2.1,0.5-4.3,0.9-6.5c0.1-0.4,0-0.8-0.1-1.2c-0.2-0.4-0.2-0.8-0.1-1.2 c0.3-0.8,0.6-1.7,0.9-2.5c0.3-0.9,0.6-1.8,0.9-2.7c0.2-0.6,0.4-1.2,0.5-1.9c0.1-0.7,0.3-1.3,0.5-2c0.8-2.2,1.5-4.5,2.2-6.7 c0.7-2.2,1.4-4.5,2.2-6.7c0.9-2.6,1.7-5.1,2.7-7.6c0.9-2.5,1.8-5.1,2.8-7.8c1.8-5.3,3.8-10.7,6-16.2c1-2.3,1.9-4.5,2.9-6.8 c1-2.2,2-4.5,3.1-6.9c0.2-0.4,0.3-0.8,0.3-1.1c0-0.5-0.1-0.8-0.4-1c-0.3-0.2-0.6,0-1,0.4c-1.1,1.1-2.1,2.2-3.2,3.4 c-1.1,1.1-2.2,2.2-3.3,3.2c-1.8,1.9-3.5,4.1-5,6.6c-0.1,0.1-0.2,0.2-0.3,0.3c-0.1,0.1-0.2,0.1-0.3,0.3c-1,0.7-1.7,1.5-2.4,2.5 c-0.6,0.9-1.2,1.9-1.8,2.8c-0.3,0.5-0.6,1-1,1.3c-0.4,0.3-0.8,0.8-1.1,1.3c-0.5,0.8-1,1.5-1.5,2.3c-0.5,0.8-1,1.5-1.5,2.3 c-0.3,0.3-0.3,0.5-0.1,0.6c0.3,0.7,0.2,1.4-0.3,1.9c-0.5,0.6-0.9,1.1-1.3,1.6c-0.5,0.7-1,1.5-1.5,2.1c-0.5,0.7-1,1.4-1.5,2.1 c-0.5,0.7-0.9,1.3-1.2,2.1c-0.3,0.7-0.7,1.4-1.2,2.1c-0.7,1.2-1.3,2.3-2,3.5c-0.7,1.2-1.3,2.3-2,3.5c-0.5,0.8-0.9,1.5-1.4,2.2 c-0.4,0.7-0.9,1.5-1.4,2.4c-0.1,0.1-0.1,0.2-0.1,0.2c0,0,0,0.1-0.1,0.2c-1,1.1-1.7,2.3-2.2,3.5c-0.5,1.2-1.1,2.5-1.7,3.7 c-0.7,1.2-1.3,2.4-1.9,3.6c-0.6,1.3-1.3,2.5-1.9,3.6c-0.7,1.4-1.3,2.7-1.9,3.9c-0.6,1.3-1.3,2.5-1.9,3.8c-0.4,0.8-0.7,1.7-1,2.5 c-0.3,0.8-0.7,1.6-1.1,2.4c-0.5,0.8-1,1.4-1.5,2c-0.5,0.6-1.1,1.2-1.7,1.9c-0.1,0.2-0.2,0.4-0.2,0.5c0,0.2-0.2,0.3-0.4,0.6v0.1 c-0.2,0.3-0.4,0.6-0.6,1c-0.2,0.3-0.5,0.8-0.8,1.3c-0.4,0-0.9,0-1.4,0c-0.6,0-1.1-0.1-1.6-0.4c-0.8-0.4-1.5-0.9-2.2-1.4 c-0.7-0.6-1.2-1.2-1.6-2c-0.4-0.9-0.8-1.8-1.3-2.8c-0.5-1-0.3-2.1,0.4-3.3l-1.1,0.2c-0.1-0.5-0.2-0.9-0.2-1.4 c0-0.4-0.1-0.8-0.1-1.2c0-0.5,0-1,0-1.5c0-0.5,0-1.1,0.1-1.6c0.1-0.7,0.2-1.4,0.3-2c0.1-0.6,0.2-1.3,0.3-2c0.2-0.6,0.3-1.3,0.3-1.9 c0-0.7,0.1-1.3,0.3-1.9c0.9-3.2,1.7-6.4,2.6-9.5c0.9-3.1,1.7-6.3,2.6-9.5c0.2-0.4,0.5-1.1,0.9-2.2c0.8-2.1,1.5-4.1,2.2-6.1 c0.7-2,1.5-4,2.2-6.1c0.7-1.8,1.3-3.5,2-5.1c0.7-1.7,1.4-3.4,2.2-5.1c1.1-2.5,2.1-5,3.2-7.5c1.1-2.5,2.2-5.1,3.2-7.5 c0.9-1.9,1.7-3.7,2.6-5.5c0.9-1.8,1.7-3.7,2.6-5.5c0.9-1.9,1.7-3.7,2.7-5.6c0.9-1.9,1.8-3.8,2.7-5.6c0.2-0.4,0.5-0.8,0.8-1.3 c0.3-0.4,0.6-0.9,0.8-1.3c0.4-0.8,0.6-1.5,0.6-2c-1.1,0.7-1.9,1.6-2.7,2.6c-0.7,1-1.5,2-2.2,3.1c-0.1-0.1-0.2-0.1-0.2-0.1 c0,0-0.1,0-0.2-0.1c0.2-0.4,0.4-0.8,0.6-1.2c0.2-0.4,0.4-0.8,0.7-1.3c1.1-1.2,2.3-2.5,3.4-3.8c1.1-1.3,2.3-2.6,3.4-3.9 c0.5-0.6,0.9-1.2,1.1-1.8c0.3-0.7,0.6-1.3,1-2c0.5-0.9,1.1-1.4,1.9-1.4c0.6,0.1,1.1,0.2,1.7,0.3c0.6,0.1,1.2,0.1,2,0.2 c0.8-0.6,1.4-0.6,1.9-0.1c0.5,0.5,1.1,1,1.7,1.5c0.8,0.8,1.6,1.5,2.4,2.1c0.3,0.2,0.4,0.4,0.4,0.5c0.3,1.4,0.8,2.7,1.5,3.9 c0.7,1.2,1,2.6,0.8,4.3c-0.3,0.9-0.8,2-1.4,3.1c-0.6,0.9-1.2,1.7-1.8,2.6c-0.6,0.9-1.2,1.7-1.7,2.6c-0.5,0.8-0.9,1.5-1.3,2.2 c-0.4,0.7-0.8,1.5-1.3,2.2c-0.2,0.3-0.4,0.6-0.5,0.9c-0.1,0.3-0.4,0.6-0.6,0.8c-1,0.6-1.6,1.4-1.8,2.2c-0.2,0.9-0.5,1.7-0.6,2.6 c0,0.4-0.1,0.7-0.4,0.8c-0.7,0.6-1.1,1.2-1.4,1.9c-0.3,0.7-0.6,1.4-0.9,2.1c-0.4,0.8-0.9,1.7-1.4,2.5c-0.6,0.8-1.1,1.6-1.6,2.5 c-0.5,0.8-0.9,1.7-1.3,2.6c-0.4,0.9-0.8,1.8-1.1,2.7c-0.5,0.9-0.9,1.9-1.4,2.9c-0.4,1-0.9,2-1.4,3c-0.1,0.2-0.2,0.4-0.2,0.5 c0,0.2-0.1,0.3-0.2,0.4c-0.8,0.6-1.3,1.2-1.5,1.8c-0.2,0.6-0.5,1.3-0.6,2c-0.1,0.2-0.5,0.7-1.3,1.4c0.1,0.2,0.2,0.3,0.2,0.5 c0,0.1,0.1,0.3,0.2,0.5c-0.2,0.3-0.4,0.7-0.7,1.1s-0.5,0.8-0.7,1.2c-0.1,0.2-0.2,0.5-0.3,0.8c-0.1,0.3-0.1,0.6-0.1,0.7 c-0.2,0.5-0.4,1-0.5,1.5c-0.1,0.5-0.6,0.7-1.4,0.6c0.7,1.3,0.4,2.4-0.9,3.5c-0.2,0.2-0.3,0.6-0.3,1c0,0.4-0.1,0.8-0.3,1.1 c-0.2,0.3-0.4,0.7-0.6,1c-0.2,0.4-0.4,0.6-0.6,0.6c-0.8-0.1-1.2,0-1.2,0.4c0,0.3,0,0.7,0.2,0.9c-0.4,0.3-0.7,0.5-1.1,0.7 c-0.3,0.2-0.6,0.5-0.9,0.7c0.3,0.2,0.5,0.3,0.8,0.5c0.2,0.2,0.5,0.4,0.8,0.5c-0.1,0.2-0.2,0.5-0.3,0.8c-0.1,0.4-0.2,0.8-0.4,1.3 l-0.1,0c-0.1,0-0.2,0-0.2,0.1c0,0.1-0.1,0.1-0.2,0.1c-0.5,0.4-0.8,0.6-0.9,0.7c0,0.1,0,0.2,0.1,0.4c0,0.2,0.2,0.3,0.4,0.4 c0.7,0.5,0.7,1.1,0,1.9c-0.8,0.7-1.2,1.5-1.4,2.4c-0.1,0.9-0.4,1.8-0.6,2.6c-0.1,0.2-0.2,0.5-0.2,0.8c0,0.3-0.2,0.6-0.4,0.8 c-0.8,0.7-1.2,1.5-1.4,2.3c-0.2,0.9-0.5,1.7-1,2.6c-0.1,0.1,0,0.4,0.3,1c0.3-0.5,0.5-1,0.7-1.3c0.2-0.4,0.4-0.8,0.6-1.2 c0.5-0.8,0.9-1.5,1.1-2.1s0.7-1.4,1.1-2.1c0.5-0.8,1-1.7,1.6-2.5c0.6-0.8,1.1-1.6,1.6-2.5c0.4-0.5,0.7-1,0.9-1.5 c0.2-0.5,0.5-1,0.8-1.5c0.5-0.9,0.9-1.9,1.3-3c0.4-1,1-1.9,1.7-2.6c0.8-0.8,1.3-1.6,1.5-2.5c0.2-0.9,0.7-1.7,1.4-2.5 c0.6-0.9,1.1-1.7,1.7-2.6c0.5-0.9,1.1-1.7,1.7-2.6c0.2-0.3,0.5-0.7,0.9-1c0.4-0.3,0.8-0.3,1.3,0.1c0.2,0.1,0.4,0,0.7-0.1 c0.3-0.1,0.4-0.3,0.4-0.5c0.2-0.6,0.5-1.1,0.9-1.5c0.4-0.4,0.8-0.8,1.3-1.3c0.6-0.6,1.1-1.2,1.5-1.9c0.4-0.7,0.9-1.4,1.4-2 c0.1-0.1,0.2-0.2,0.2-0.3c0-0.1,0.2-0.3,0.4-0.5c0.3-0.5,0.6-0.9,1-1.2c0.4-0.3,0.9,0,1.4,0.7c-0.8-0.7-1-1.3-0.6-1.8 c0.4-0.5,0.8-1.1,1.3-1.6c1.1-1.2,2.3-2.5,3.4-3.8c1.1-1.3,2.2-2.6,3.4-3.9c0.7-0.9,1.3-1.7,2-2.5c0.7-0.8,1.4-1.6,2.2-2.5 c0.3-0.3,0.6-0.7,1-0.9c0.4-0.3,0.8-0.6,1.1-1c0.3-0.2,0.7-0.7,1.3-1.4c0.2-0.2,0.4-0.4,0.6-0.7c0.2-0.2,0.6-0.2,1.1,0l0.9-0.4 c-0.2-0.2-0.4-0.3-0.6-0.4c-0.2-0.1-0.4-0.2-0.6-0.4c0.2-0.2,0.5-0.7,0.9-1.3c-0.2-0.1-0.4-0.1-0.6-0.1c-0.2,0-0.4-0.1-0.7-0.3 l3.2-0.5c0.1-0.1,0.1-0.2,0.1-0.3c-0.6-0.3-1.1-0.5-1.4-0.7c0.2-0.1,0.4-0.3,0.5-0.4c0.1-0.2,0.3-0.2,0.5-0.1 c0.8,0.1,1.4-0.1,1.8-0.6c0.4-0.5,0.9-1,1.4-1.6c1-1.3,2.1-1.8,3.3-1.4c0.4,0,1.1,0.1,2,0.1c0.2,0.1,0.4,0.1,0.6,0.1 c0.2,0,0.3,0.2,0.2,0.7c0,0.1,0.1,0.2,0.4,0.3c0.2,0.1,0.5,0.1,0.6,0c1.1-0.3,1.8-0.3,2.4,0.2c0.5,0.5,1.1,1,1.8,1.3 c0.5,0.4,0.9,0.9,1.2,1.5c0.3,0.6,0.7,1.1,1.2,1.5c0.9,0.8,1.3,1.6,1.4,2.6c0.1,1,0.2,2,0.4,3v0.7 C372.7,161.9,372.9,162.6,372.6,163.4z M292.3,173.9c-0.1-0.1-0.1-0.1-0.1-0.2c0,0,0-0.1-0.1-0.2c0.4-0.4,0.7-0.9,1.1-1.3 c0.3-0.4,0.7-0.9,1.1-1.5l0.3,0.2L292.3,173.9z M294.7,226.4c0.3-1.2,0.6-2.4,1-3.6c-0.7,0.1-1.1,0.2-1.4,0.4 c-0.1,0-0.2,0.1-0.3,0.3c-0.1,0.2-0.1,0.4-0.1,0.6c-0.2,0.8-0.3,1.6-0.4,2.5c0,0.8-0.1,1.7-0.2,2.7c0.7-0.3,1-0.7,1.1-1.2 C294.4,227.4,294.5,226.9,294.7,226.4z M297.9,213.3c0.8-0.7,0.7-1.4-0.3-2c-0.4,0.6-0.6,1-0.6,1.1c0.2,0.5,0.1,0.8-0.1,1.1 c-0.3,0.3-0.5,0.6-0.7,0.9c-0.5,0.6-0.7,1.3-0.7,2.1c0,0.7-0.1,1.3-0.3,1.9c-0.2,0.6-0.4,1.3-0.6,2c0,0.2,0,0.4,0.1,0.6 c0.1,0.2,0.2,0.5,0.3,0.9c0.5-0.7,0.8-1.4,1.1-1.8c0.2-0.5,0.5-1,0.6-1.5v-0.6c0-0.8,0-1.6,0-2.4 C296.8,214.9,297.1,214,297.9,213.3z M299.3,206.1c0.5-0.4,0.8-0.6,0.9-0.7c0.4-0.7,0.6-1.4,0.7-2.1c0-0.1-0.1-0.5-0.3-1.1 c-0.2,0-0.3,0.1-0.3,0.2l-1.3,2.8C299,205.3,299.1,205.6,299.3,206.1z M301.2,219c0.2-0.5,0.4-0.9,0.6-1.2c0.2-0.3,0.4-0.6,0.6-1 l-0.7-0.6c-0.2,0.3-0.4,0.6-0.5,0.9c-0.1,0.3-0.3,0.7-0.5,1.1C300.7,218.2,300.9,218.5,301.2,219z M304.7,208.1 c0.3-0.6,0.5-1.2,0.8-1.7c0.2-0.5,0.5-1,0.6-1.6C304.4,205.4,303.9,206.5,304.7,208.1z M328.9,178.6c0.4-0.5,0.8-1,1.2-1.5 c0.4-0.4,0.9-1,1.5-1.5c-0.1,0.3-0.1,0.6-0.1,0.9c0,0.3-0.1,0.5-0.3,0.8c-0.4,0.5-0.8,1-1.3,1.4c-0.5,0.4-0.9,0.9-1.3,1.4 c-0.5,0.8-1,1.5-1.4,2.2c-0.5,0.8-1,1.5-1.4,2.2c-0.2,0.3-0.5,0.6-1,0.9v-0.6c0.8-1.1,1.5-2.1,2.1-3.1 C327.5,180.8,328.2,179.7,328.9,178.6z M334.4,171.4c-0.2,2.1-1.1,3.2-2.7,3.5c0.6-0.7,1.1-1.3,1.4-1.8 C333.5,172.5,333.9,172,334.4,171.4z M338.3,168c-0.2-0.2-0.3-0.3-0.4-0.5c0.5-0.4,0.9-0.7,1.2-1.1c0.3-0.4,0.7-0.8,1.1-1.1 l0.4,0.4c-0.4,0.4-0.7,0.8-1.1,1.2C339.1,167.1,338.7,167.5,338.3,168z"></path> <path d="M406.3,170.7c0.2,0,0.7,0,1.4,0.2c-0.7,0.9-1.3,1.8-1.9,2.7c-0.6,0.9-1.2,1.8-1.8,2.7c-0.2,0.3-0.3,0.6-0.2,1 c0,0.3,0,0.7-0.2,1c-0.6,1.2-1.1,2.3-1.7,3.3c-0.5,1-1.1,2.2-1.8,3.3c-0.2,0.5-0.5,1-0.8,1.4c-0.3,0.4-0.6,0.9-0.9,1.4 c-0.5,0.8-0.9,1.5-1.2,2.1c-0.3,0.7-0.7,1.4-1.1,2.1c-1.3,2.4-2.7,4.9-4,7.3c-1.3,2.4-2.7,4.9-4,7.3c-0.7,1.5-1.4,2.6-2.2,3.5 c-0.8,0.9-1.8,1.8-3.2,2.6c-0.2,0.1-0.4,0.2-0.6,0.1c-0.2-0.1-0.5-0.1-0.6-0.2c-0.4,0-0.7-0.1-1-0.1c-0.3-0.1-0.6-0.2-1-0.3 c-0.8-0.2-1.3-0.6-1.6-1.2c-0.3-0.6-0.5-1.3-0.7-2.1c-0.3-0.6-0.7-1.2-1.3-1.7c-0.3-0.2-0.4-0.7-0.4-1.3c0-0.6,0-1.2,0-1.8 c-0.3-0.2-0.5-0.5-0.7-1c-0.2-0.5-0.7-0.5-1.4,0l-0.3-0.2c-0.1-0.1-0.2-0.3-0.4-0.7c-0.2-0.4-0.3-0.7-0.4-1.1 c-0.1-0.4-0.2-0.7-0.4-1.1c-0.1-0.3-0.2-0.6-0.4-0.9c-0.1-0.3-0.2-0.6-0.1-0.8c0.6-1.7,1.1-3.4,1.7-5c0.6-1.6,1.1-3.2,1.6-5 c0.5-1.7,1-3.4,1.4-4.9c0.5-1.6,1-3.2,1.4-4.9c0.5-1.7,0.9-3.4,1.3-5c0.4-1.6,0.8-3.3,1.1-5c0.6-3.2,1.1-6.4,1.7-9.6 c0.6-3.2,1.1-6.4,1.6-9.6c0.6-4.1,0.8-8.3,0.6-12.8c0-1.6-0.2-3.2-0.6-4.6c-0.4-1.4-1.4-2.6-2.8-3.5c-1-0.6-1.1-1.6-0.6-3 c0.8-0.1,1.3-0.1,1.7-0.1c0.6,0.1,1.2,0.1,1.8,0.1c0.6,0,1.3-0.1,1.9-0.2c0.8,0.1,1.5,0.3,2.2,0.6c0.7,0.3,1.5,0.6,2.2,0.9 c0.4,0.1,0.9,0.4,1.4,0.7c0.2,0,0.3,0,0.3,0.1c0.8,1.2,1.7,2.2,2.8,3.1c1.1,0.9,1.7,2.2,1.9,3.9c0,0.8,0.1,1.5,0.4,2.2 c0.2,0.7,0.4,1.4,0.5,2.2c0.2,1,0.3,2.1,0.4,3.2c0.1,1.1,0.2,2.2,0.3,3.2c0.1,0.9,0.1,1.7,0.1,2.5c0,0.8,0,1.7,0,2.5 c0,0.5,0,1-0.1,1.4c0,0.4-0.1,0.9-0.2,1.4c-0.2,1-0.3,2-0.4,2.9c-0.1,0.9-0.2,1.9-0.4,2.8c0,0.4-0.1,0.6-0.3,0.6 c-1,0.2-1.4,0.5-1.2,0.9c0.1,0.4,0.3,0.8,0.4,1.3c0.1,0.6,0,1.4-0.1,2.4c0,0.1,0,0.2-0.1,0.2c0,0.1-0.1,0.1-0.1,0.2 c0.3,0.7,0.2,1.3-0.2,1.6c-0.4,0.3-0.9,0.6-1.5,0.9c0.8,0.6,1.1,1.2,1.1,1.8c0,0.6-0.2,1.4-0.6,2.2c-0.2,0.3-0.3,0.7-0.4,1 c0,0.3-0.1,0.7-0.2,1c-0.2,0.4-0.4,0.9-0.5,1.3c-0.1,0.5-0.3,1-0.5,1.6c-0.2,0.6-0.3,1.4-0.3,2.4c0.1,1.5-0.2,3-1,4.4 c-0.5,0.8-0.8,1.6-0.9,2.5c-0.1,0.9-0.2,1.7-0.4,2.5c0.1,0.1,0.2,0.1,0.3,0.1c0.1,0,0.2,0,0.3,0.1c0.8-1.1,1.4-2,1.9-2.7 c1.1-1.8,2.1-3.6,3.2-5.4c1.1-1.8,2.2-3.6,3.2-5.4c0.8-1.4,1.5-2.7,2.3-4c0.8-1.3,1.5-2.7,2.3-4c0.7-1.1,1.3-2.1,1.9-3.1 c0.6-1,1.2-2,1.9-3.1c0.2-0.2,0.3-0.4,0.4-0.5c0.1-0.1,0.2-0.3,0.4-0.5l0.3,0.2c-1.1,1.8-2.1,3.6-3.2,5.4c-1.1,1.8-2.2,3.7-3.3,5.7 c0.4-0.2,0.8-0.5,1.4-1c0.5-0.5,1-1.1,1.4-1.7c0.4-0.6,0.8-1.2,1.1-1.7c0.3-0.5,0.5-0.9,0.5-1.2c0.2-0.3,0.4-0.7,0.6-1 c0.2-0.4,0.4-0.7,0.6-1c0.6-0.9,1.1-1.6,1.7-2.3c0.6-0.7,1.1-1.4,1.6-2.3c0.5-0.7,1-1.5,1.4-2.2c0.5-0.7,1-1.5,1.4-2.3 c0.2-0.3,0.5-0.6,0.8-1c0.3-0.3,0.6-0.7,0.9-1c0.4-0.5,0.7-1.1,1-1.6c0.3-0.5,0.6-1.1,1-1.6c0.8-1.1,1.5-2.1,2.2-3.1 c0.7-1,1.4-2,2.2-3.1c0.9-1.3,1.7-2.6,2.5-3.8c0.8-1.2,1.6-2.5,2.4-3.8c0.4-0.2,0.7-0.5,0.9-0.7c0.4-0.2,0.7-0.5,1-0.9 c0.8-1.1,1.6-2.2,2.4-3.3c0.8-1.1,1.6-2.2,2.4-3.3l2.2-2.9c0.2-0.2,0.4-0.3,0.6-0.4c0.2,0,0.5-0.1,0.6-0.2c0,0.2,0.1,0.3,0.3,0.2 c-0.3,0.5-0.6,1-0.9,1.4c-0.3,0.4-0.6,0.9-0.9,1.3c-0.9,1.2-1.7,2.4-2.7,3.7c-0.9,1.2-1.8,2.5-2.7,3.7c-0.9,1.3-1.7,2.6-2.6,3.9 c-0.9,1.3-1.8,2.5-2.7,3.7c-0.5,0.8-1,1.7-1.6,2.6c-0.6,0.9-1.1,1.7-1.6,2.6c-1,1.5-1.8,2.9-2.7,4.3c-0.8,1.4-1.7,2.8-2.5,4.3 c-0.6,0.9-1.2,1.8-1.8,2.7c-0.6,0.9-1.2,1.9-1.8,2.8c-0.2,0.3-0.5,0.9-0.9,1.7c-0.9,1.5-1.7,3-2.7,4.5 C408.2,167.7,407.3,169.2,406.3,170.7z M490,146.4c-0.2,0.8-0.5,1.5-0.6,2.4c0,0.2,0,0.4-0.1,0.5c-0.1,0.1-0.2,0.3-0.3,0.5 l-3.4,6.2c-0.6,1.2-1.2,2.3-1.8,3.3c-0.6,1.1-1.2,2.2-1.8,3.3c-0.6,1.1-1.1,2.1-1.7,3c-0.5,1-1.1,2-1.7,3c-0.5,0.9-1,1.9-1.5,2.8 c-0.5,1-1,1.9-1.5,3c-0.3,0.5-0.5,1.1-0.6,1.7c-0.1,0.6-0.3,1.2-0.5,1.8c-0.4,0.2-0.8,0.3-1.1,0.3c0.1,0.5,0.2,0.9,0.2,1.4 c0,0.4,0.1,0.9,0.1,1.4c0,0.2-0.1,0.4-0.4,0.6c-0.3,0.2-0.5,0.4-0.6,0.6c-0.4,0.7-0.7,1.5-0.9,2.2c-0.2,0.7-0.7,1.4-1.4,2 c-0.2,0.1-0.3,0.4-0.2,0.7c0,0.3,0,0.7-0.1,1c-0.6,1.3-1.1,2.5-1.7,3.8c-0.6,1.3-1.1,2.5-1.6,3.9c-0.3,0.7-0.5,1.4-0.7,2.1 c-0.2,0.7-0.4,1.3-0.6,2.1v0.7c-0.8,0.7-1.2,1.5-1.2,2.4c0,0.9-0.2,1.7-0.5,2.6c-0.4,1.1-0.8,2.3-1.2,3.5c-0.4,1.2-0.8,2.3-1.2,3.5 c-0.3,1-0.6,2-0.8,3c-0.2,1-0.5,2.1-0.6,3.2c-0.1,0.5-0.2,1-0.3,1.6c-0.1,0.5-0.1,1.1-0.1,1.6c-0.1,0.3,0,0.8,0.1,1.6 c-0.2,0.1-0.4,0.2-0.6,0.4c-0.2,0.1-0.4,0.2-0.6,0.4c0.2,1.3,0.4,2.7,0.5,4.1c0.1,1.4-0.2,2.8-0.9,4.3c0.3,0.2,0.5,0.6,0.7,0.9 c0.2,0.4,0.1,0.9-0.3,1.5c-0.2,0.3-0.2,0.7-0.1,1.1c0.1,0.4,0.5,0.7,1.1,0.8c0.4,0,0.7,0.2,1,0.4c0.3,0.2,0.5,0.5,0.7,0.6 c0,0.3-0.1,0.6-0.4,0.8c-0.3,0.2-0.6,0.4-0.8,0.6c-0.2,0.2-0.4,0.4-0.6,0.7c-0.1,0.3-0.1,0.7,0.1,1.2c-0.9-0.1-1.7-0.1-2.7-0.1 c-0.9,0-1.6-0.2-2.1-0.6c-1.1-0.8-2-1.7-2.9-2.6c-0.9-0.9-1.6-2-2.3-3c-0.5-1-0.9-2.1-1.1-3.2c-0.3-1.1-0.6-2.2-0.9-3.4 c-0.3-1.2-0.4-2.6-0.4-4c0-2.2,0.1-4.4,0.2-6.5c0.1-2.1,0.5-4.3,0.9-6.5c0.1-0.4,0-0.8-0.1-1.2c-0.2-0.4-0.2-0.8-0.1-1.2 c0.3-0.8,0.6-1.7,0.9-2.5c0.3-0.9,0.6-1.8,0.9-2.7c0.2-0.6,0.4-1.2,0.5-1.9c0.1-0.7,0.3-1.3,0.5-2c0.8-2.2,1.5-4.5,2.2-6.7 c0.7-2.2,1.4-4.5,2.2-6.7c0.9-2.5,1.7-5.1,2.7-7.6c0.9-2.5,1.8-5.1,2.8-7.8c1.8-5.3,3.8-10.7,6-16.2c1-2.3,1.9-4.5,2.9-6.8 c1-2.2,2-4.5,3.1-6.9c0.2-0.4,0.3-0.8,0.3-1.1c0-0.5-0.1-0.8-0.4-1c-0.3-0.2-0.6,0-1,0.4c-1.1,1.1-2.1,2.2-3.2,3.4 c-1.1,1.1-2.2,2.2-3.3,3.2c-1.8,1.9-3.5,4.1-5,6.6c-0.1,0.1-0.2,0.2-0.3,0.3c-0.1,0.1-0.2,0.1-0.3,0.3c-1,0.7-1.7,1.5-2.4,2.5 c-0.6,0.9-1.2,1.9-1.8,2.8c-0.3,0.5-0.6,1-1,1.3c-0.4,0.3-0.8,0.8-1.1,1.3c-0.5,0.7-1,1.5-1.5,2.3c-0.5,0.8-1,1.5-1.5,2.3 c-0.3,0.3-0.3,0.5-0.1,0.6c0.3,0.7,0.2,1.4-0.3,1.9c-0.5,0.6-0.9,1.1-1.3,1.6c-0.5,0.8-1,1.5-1.5,2.1c-0.5,0.7-1,1.4-1.5,2.1 c-0.5,0.7-0.9,1.3-1.2,2.1c-0.3,0.7-0.7,1.4-1.2,2.1c-0.7,1.2-1.3,2.3-2,3.5c-0.7,1.2-1.3,2.3-2,3.5c-0.5,0.8-0.9,1.5-1.4,2.2 c-0.4,0.7-0.9,1.5-1.4,2.4c-0.1,0.1-0.1,0.2-0.1,0.2c0,0,0,0.1-0.1,0.2c-1,1.1-1.7,2.3-2.2,3.5c-0.5,1.2-1.1,2.5-1.7,3.7 c-0.7,1.2-1.3,2.4-1.9,3.6c-0.6,1.3-1.3,2.5-1.9,3.6c-0.7,1.4-1.3,2.7-1.9,3.9c-0.6,1.3-1.3,2.5-1.9,3.8c-0.4,0.8-0.7,1.7-1,2.5 c-0.3,0.8-0.7,1.6-1.1,2.4c-0.5,0.8-1,1.4-1.5,2c-0.5,0.6-1.1,1.2-1.7,1.9c-0.1,0.2-0.2,0.4-0.2,0.5c0,0.2-0.2,0.3-0.4,0.6v0.1 c-0.2,0.3-0.4,0.6-0.6,1c-0.2,0.3-0.5,0.8-0.8,1.3c-0.4,0-0.9,0-1.4,0c-0.6,0-1.1-0.1-1.6-0.4c-0.8-0.4-1.5-0.9-2.2-1.4 c-0.7-0.6-1.2-1.2-1.6-2c-0.4-0.9-0.8-1.8-1.3-2.8c-0.5-1-0.3-2.1,0.4-3.3l-1.1,0.2c-0.1-0.5-0.2-0.9-0.2-1.4 c0-0.4-0.1-0.8-0.1-1.2c0-0.5,0-1,0-1.5c0-0.5,0-1.1,0.1-1.6c0.1-0.7,0.2-1.4,0.3-2c0.1-0.6,0.2-1.3,0.3-2c0.2-0.6,0.3-1.3,0.3-1.9 c0-0.7,0.1-1.3,0.3-1.9c0.9-3.2,1.7-6.4,2.6-9.5c0.9-3.1,1.7-6.3,2.6-9.5c0.2-0.4,0.5-1.1,0.9-2.2c0.8-2.1,1.5-4.1,2.2-6.1 c0.7-2,1.5-4,2.2-6.1c0.7-1.8,1.3-3.5,2-5.1c0.7-1.7,1.4-3.4,2.2-5.1c1.1-2.5,2.1-5,3.2-7.5c1.1-2.5,2.2-5.1,3.2-7.5 c0.9-1.9,1.7-3.7,2.6-5.5c0.9-1.8,1.7-3.7,2.6-5.5c0.9-1.9,1.7-3.7,2.7-5.6c0.9-1.9,1.8-3.8,2.7-5.6c0.2-0.4,0.5-0.8,0.8-1.3 c0.3-0.4,0.6-0.9,0.8-1.3c0.4-0.8,0.6-1.5,0.6-2c-1.1,0.7-1.9,1.6-2.7,2.6s-1.5,2-2.2,3.1c-0.1-0.1-0.2-0.1-0.2-0.1 c0,0-0.1,0-0.2-0.1c0.2-0.4,0.4-0.8,0.6-1.2c0.2-0.4,0.4-0.8,0.7-1.3c1.1-1.2,2.3-2.5,3.4-3.8c1.1-1.3,2.3-2.6,3.4-3.9 c0.5-0.6,0.9-1.2,1.1-1.8c0.3-0.7,0.6-1.3,1-2c0.5-0.9,1.1-1.4,1.9-1.4c0.6,0.1,1.1,0.2,1.7,0.3c0.6,0.1,1.2,0.1,2,0.2 c0.8-0.6,1.4-0.6,1.9-0.1c0.5,0.5,1.1,1,1.7,1.5c0.8,0.8,1.6,1.5,2.4,2.1c0.3,0.3,0.4,0.4,0.4,0.5c0.3,1.4,0.8,2.7,1.5,3.9 c0.7,1.2,1,2.6,0.8,4.3c-0.3,0.9-0.8,2-1.4,3.1c-0.6,0.9-1.2,1.7-1.8,2.6c-0.6,0.9-1.2,1.7-1.7,2.6c-0.5,0.8-0.9,1.5-1.3,2.2 c-0.4,0.7-0.8,1.5-1.3,2.2c-0.2,0.3-0.4,0.6-0.5,0.9c-0.1,0.3-0.4,0.6-0.6,0.8c-1,0.6-1.6,1.4-1.8,2.2c-0.2,0.9-0.5,1.7-0.6,2.6 c0,0.4-0.1,0.7-0.4,0.8c-0.7,0.6-1.1,1.2-1.4,1.9c-0.3,0.7-0.6,1.4-0.9,2.1c-0.4,0.8-0.9,1.7-1.4,2.5c-0.6,0.8-1.1,1.6-1.6,2.5 c-0.5,0.8-0.9,1.7-1.3,2.6c-0.4,0.9-0.8,1.8-1.1,2.7c-0.5,0.9-0.9,1.9-1.4,2.9c-0.4,1-0.9,2-1.4,3c-0.1,0.2-0.2,0.4-0.2,0.5 c0,0.2-0.1,0.3-0.2,0.4c-0.8,0.6-1.3,1.2-1.5,1.8c-0.2,0.6-0.5,1.3-0.6,2c-0.1,0.2-0.5,0.7-1.3,1.4c0.1,0.2,0.2,0.3,0.2,0.5 c0,0.1,0.1,0.3,0.2,0.5c-0.2,0.3-0.4,0.7-0.7,1.1s-0.5,0.8-0.7,1.2c-0.1,0.2-0.2,0.5-0.3,0.8c-0.1,0.3-0.1,0.6-0.1,0.7 c-0.2,0.5-0.4,1-0.5,1.5c-0.1,0.5-0.6,0.7-1.4,0.6c0.7,1.3,0.4,2.4-0.9,3.5c-0.2,0.2-0.3,0.6-0.3,1c0,0.4-0.1,0.8-0.3,1.1 c-0.2,0.3-0.4,0.7-0.6,1c-0.2,0.4-0.4,0.6-0.6,0.6c-0.8-0.1-1.2,0-1.2,0.4c0,0.3,0,0.7,0.2,0.9c-0.4,0.3-0.7,0.5-1.1,0.7 c-0.3,0.2-0.6,0.5-0.9,0.7c0.3,0.2,0.5,0.3,0.8,0.5c0.2,0.2,0.5,0.4,0.8,0.5c-0.1,0.2-0.2,0.5-0.3,0.8c-0.1,0.4-0.2,0.8-0.4,1.3 l-0.1,0c-0.1,0-0.2,0-0.2,0.1c0,0.1-0.1,0.1-0.2,0.1c-0.5,0.4-0.8,0.6-0.9,0.7c0,0.1,0,0.2,0.1,0.4c0,0.2,0.2,0.3,0.4,0.4 c0.7,0.5,0.7,1.1,0,1.9c-0.8,0.7-1.2,1.5-1.4,2.4c-0.1,0.9-0.4,1.8-0.6,2.6c-0.1,0.2-0.2,0.5-0.2,0.8c0,0.3-0.2,0.6-0.4,0.8 c-0.8,0.7-1.2,1.5-1.4,2.3c-0.2,0.9-0.5,1.7-1,2.6c-0.1,0.1,0,0.4,0.3,1c0.3-0.5,0.5-1,0.7-1.3c0.2-0.4,0.4-0.8,0.6-1.2 c0.5-0.7,0.9-1.5,1.1-2.1s0.7-1.4,1.1-2.1c0.5-0.8,1-1.7,1.6-2.5c0.6-0.8,1.1-1.6,1.6-2.5c0.4-0.5,0.7-1,0.9-1.5 c0.2-0.5,0.5-1,0.8-1.5c0.5-0.9,0.9-1.9,1.3-3c0.4-1,1-1.9,1.7-2.6c0.8-0.8,1.3-1.6,1.5-2.5c0.2-0.9,0.7-1.7,1.4-2.5 c0.6-0.9,1.1-1.7,1.7-2.6c0.5-0.9,1.1-1.7,1.7-2.6c0.2-0.3,0.5-0.7,0.9-1c0.4-0.3,0.8-0.3,1.3,0.1c0.2,0.1,0.4,0,0.7-0.1 c0.3-0.1,0.4-0.3,0.4-0.5c0.2-0.6,0.5-1.1,0.9-1.5c0.4-0.4,0.8-0.8,1.3-1.3c0.6-0.6,1.1-1.2,1.5-1.9c0.4-0.7,0.9-1.4,1.4-2 c0.1-0.1,0.2-0.2,0.2-0.3c0-0.1,0.2-0.3,0.4-0.5c0.3-0.5,0.6-0.9,1-1.2c0.4-0.3,0.9,0,1.4,0.7c-0.8-0.7-1-1.3-0.6-1.8 c0.4-0.5,0.8-1.1,1.3-1.6c1.1-1.2,2.3-2.5,3.4-3.8c1.1-1.3,2.2-2.6,3.4-3.9c0.7-0.9,1.3-1.7,2-2.5c0.7-0.8,1.4-1.6,2.2-2.5 c0.3-0.3,0.6-0.6,1-0.9c0.4-0.3,0.8-0.6,1.1-1c0.3-0.2,0.7-0.7,1.3-1.4c0.2-0.2,0.4-0.4,0.6-0.7c0.2-0.2,0.6-0.2,1.1,0l0.9-0.4 c-0.2-0.2-0.4-0.3-0.6-0.4c-0.2-0.1-0.4-0.2-0.6-0.4c0.2-0.2,0.5-0.7,0.9-1.3c-0.2-0.1-0.4-0.1-0.6-0.1c-0.2,0-0.4-0.1-0.7-0.3 l3.2-0.5c0.1-0.1,0.1-0.2,0.1-0.3c-0.6-0.3-1.1-0.5-1.4-0.7c0.2-0.1,0.4-0.3,0.5-0.4c0.1-0.2,0.3-0.2,0.5-0.1 c0.8,0.1,1.4-0.1,1.8-0.6c0.4-0.5,0.9-1,1.4-1.6c1-1.3,2.1-1.8,3.3-1.4c0.4,0,1.1,0.1,2,0.1c0.2,0.1,0.4,0.1,0.6,0.1 c0.2,0,0.3,0.2,0.2,0.7c0,0.1,0.1,0.2,0.4,0.3c0.2,0.1,0.5,0.1,0.6,0c1.1-0.3,1.8-0.3,2.4,0.2c0.5,0.5,1.1,1,1.8,1.3 c0.5,0.4,0.9,0.9,1.2,1.5c0.3,0.6,0.7,1.1,1.2,1.5c0.9,0.8,1.3,1.6,1.4,2.6c0.1,1,0.2,2,0.4,3v0.7C490,145,490.2,145.7,490,146.4z M409.6,156.9c-0.1-0.1-0.1-0.1-0.1-0.2c0,0,0-0.1-0.1-0.2c0.4-0.4,0.7-0.9,1.1-1.3c0.3-0.4,0.7-0.9,1.1-1.5l0.3,0.2L409.6,156.9z M412.1,209.4c0.3-1.2,0.6-2.4,1-3.6c-0.7,0.1-1.1,0.2-1.4,0.4c-0.1,0-0.2,0.1-0.3,0.3c-0.1,0.2-0.1,0.4-0.1,0.6 c-0.2,0.8-0.3,1.6-0.4,2.5c0,0.8-0.1,1.7-0.2,2.7c0.7-0.3,1-0.7,1.1-1.2C411.8,210.5,411.9,210,412.1,209.4z M415.2,196.3 c0.8-0.7,0.7-1.4-0.3-2c-0.4,0.6-0.6,1-0.6,1.1c0.2,0.5,0.1,0.8-0.1,1.1c-0.3,0.3-0.5,0.6-0.7,0.9c-0.5,0.6-0.7,1.3-0.7,2.1 c0,0.7-0.1,1.3-0.3,1.9c-0.2,0.6-0.4,1.3-0.6,2c0,0.2,0,0.4,0.1,0.6c0.1,0.2,0.2,0.5,0.3,0.9c0.5-0.7,0.8-1.4,1.1-1.8 c0.2-0.5,0.5-1,0.6-1.5v-0.6c0-0.8,0-1.6,0-2.4C414.1,197.9,414.5,197.1,415.2,196.3z M416.7,189.1c0.5-0.4,0.8-0.6,0.9-0.7 c0.4-0.7,0.6-1.4,0.7-2.1c0-0.1-0.1-0.5-0.3-1.1c-0.2,0-0.3,0.1-0.3,0.2l-1.3,2.8C416.3,188.3,416.4,188.7,416.7,189.1z M418.5,202.1c0.2-0.5,0.4-0.9,0.6-1.2c0.2-0.3,0.4-0.6,0.6-1l-0.7-0.6c-0.2,0.3-0.4,0.6-0.5,0.9c-0.1,0.3-0.3,0.7-0.5,1.1 C418,201.3,418.2,201.6,418.5,202.1z M422,191.1c0.3-0.6,0.5-1.2,0.8-1.7c0.2-0.5,0.5-1,0.6-1.6C421.7,188.5,421.2,189.6,422,191.1 z M446.2,161.7c0.4-0.5,0.8-1,1.2-1.5c0.4-0.4,0.9-1,1.5-1.5c-0.1,0.3-0.1,0.6-0.1,0.9c0,0.3-0.1,0.5-0.3,0.8 c-0.4,0.5-0.8,1-1.3,1.4c-0.5,0.4-0.9,0.9-1.3,1.4c-0.5,0.8-1,1.5-1.4,2.2c-0.5,0.8-1,1.5-1.4,2.2c-0.2,0.3-0.5,0.6-1,0.9V168 c0.8-1.1,1.5-2.1,2.1-3.1C444.8,163.8,445.5,162.8,446.2,161.7z M451.7,154.5c-0.2,2.1-1.1,3.2-2.7,3.5c0.6-0.7,1.1-1.3,1.4-1.8 C450.8,155.6,451.2,155,451.7,154.5z M455.6,151c-0.2-0.2-0.3-0.3-0.4-0.5c0.5-0.4,0.9-0.7,1.2-1.1c0.3-0.4,0.7-0.8,1.1-1.1 l0.4,0.4c-0.4,0.4-0.7,0.8-1.1,1.2C456.5,150.2,456.1,150.6,455.6,151z"></path> <path d="M555,169.6c0.4-0.5,0.9-1,1.5-1.3c0.6-0.3,1.4-0.3,2.2,0l-2.4,2.8c-1.1,1.2-2,2.4-2.9,3.5c-0.9,1.1-1.8,2.2-2.8,3.3 c-0.2,0.2-0.4,0.4-0.6,0.5c-0.2,0.1-0.5,0.2-0.6,0.5c-0.2,0.2-0.4,0.4-0.5,0.7c-0.1,0.2-0.3,0.4-0.5,0.7l-1.3,1.5 c0-0.1-0.1,0-0.4,0.4c-0.8,1.7-1.8,3.1-3.1,4.2c-1.3,1.1-2.5,2.3-3.7,3.7c-1.1,1.2-2.3,2.5-3.6,3.8c-1.2,1.3-2.5,2.6-3.7,3.8 c-0.2,0.1-0.4,0.2-0.5,0.4c-0.1,0.1-0.3,0.2-0.5,0.4c-0.6,0.4-1.3,0.9-2.3,1.6c-1,0.7-1.9,1.5-2.9,2.3c-1,0.8-2,1.6-2.9,2.4 c-1,0.8-1.7,1.3-2.2,1.7c-1.1,0.9-2.2,1.7-3.3,2.2c-1.1,0.6-2.3,1-3.6,1.4c-1.2,0.4-2.5,0.7-3.7,0.8c-1.2,0.2-2.4-0.1-3.4-0.8 c-0.8-0.5-1.4-0.3-1.9,0.6c-0.3,0.7-0.7,1.1-1.2,1.2c-0.5,0.1-1.1,0.1-1.7,0.1c-0.6,0.1-1.1,0-1.5-0.1c-0.4-0.2-0.7-0.7-0.8-1.4 c-0.1,0-0.2,0-0.2,0.1c0,0.1-0.1,0.1-0.2,0.1c0,0.2,0,0.4-0.1,0.7c0,0.2-0.1,0.6-0.1,1c-0.5-0.4-0.9-0.8-1.1-1.2 c-0.3-0.4-0.6-0.8-1-1.2c0-0.1,0-0.2-0.1-0.3c0-0.1,0-0.2-0.1-0.3v-0.1l-0.4-0.8c-0.5-1.7-1.2-2.9-2.2-3.8c-0.4-0.2-0.6-0.6-0.8-1 c-0.1-0.4-0.3-0.9-0.5-1.3c-0.3-0.4-0.6-0.9-0.9-1.3c-0.3-0.4-0.6-0.9-0.9-1.3c-0.3-0.4-0.5-0.9-0.6-1.4c-0.1-0.5-0.3-1-0.5-1.5 c-0.4-1.3-0.7-2.6-0.9-3.9c-0.2-1.3-0.3-2.6-0.1-4c0.1-1,0.2-1.9,0.4-2.8c0.1-0.9,0.3-1.8,0.4-2.8c0.1-0.1,0.1-0.3,0.1-0.5 c-0.1-1.6,0.1-3.2,0.7-4.7c0.6-1.5,1.1-2.9,1.6-4.4c0.1-0.3,0.4-0.6,0.9-0.9c-0.9-1-0.6-1.9,0.9-2.6c0.3-0.3,0.4-0.6,0.4-0.9 c-0.3-1,0-1.8,0.9-2.3l0.3-1.2c0.4-0.2,0.7-0.3,1.1-0.6c0.3-0.2,0.3-0.7-0.2-1.4c-0.1-0.1,0-0.4,0.4-0.9c0.3-0.5,0.6-0.8,0.9-1.1 c0.2-0.2,0.4-0.4,0.5-0.5c0.1-0.1,0.1-0.3-0.1-0.6l1.3-1.1c-0.2-0.3-0.5-0.6-0.9-0.9c1.3-0.2,1.8-0.6,1.3-1.4 c0.5-0.6,0.9-1.1,1.2-1.6c0.3-0.5,0.7-1,1.1-1.5c0.2-0.4,0.4-0.8,0.6-1.3c0.2-0.4,0.5-0.9,0.6-1.4c0.1,0,0.2,0,0.2-0.1 c0-0.1,0.1-0.1,0.2-0.1c1.1-0.6,1.7-1.1,1.9-1.4c0.2-0.3,0.2-0.9,0-1.8c0.2-0.1,0.4-0.2,0.6-0.2c0.2,0,0.5-0.1,0.6-0.2 c-0.2-0.2-0.4-0.4-0.6-0.6c-0.2-0.2-0.4-0.5-0.6-0.7c1.4-2,3-4.3,4.7-6.8c-0.2,0.6-0.3,1-0.4,1.2c0.1,0,0.2,0,0.2,0 c0,0,0.1,0.1,0.2,0c0.2-0.3,0.4-0.6,0.6-1c0.2-0.3,0.4-0.7,0.7-1.3c0.8-0.3,1.1-1,0.9-2c-0.1-0.6,0.2-1.3,1-2.2 c0.8-0.9,1.5-1.5,2.3-1.8l0.6-0.1c-0.3-0.8-0.2-1.5,0.4-1.9c0.5-0.5,0.9-1,1.2-1.5c0.8-1.3,1.6-2.5,2.6-3.6c1-1.1,1.9-2.3,2.9-3.5 c1-1.3,2-2.5,3.1-3.7c1.1-1.2,2-2.5,2.8-3.8c1-1.6,2-3,3.2-4.3c1.1-1.3,2.4-2.6,3.7-3.8c0.2-0.2,0.4-0.4,0.7-0.6 c0.3-0.2,0.6-0.4,0.9-0.6c0.4-0.2,0.7-0.3,0.9-0.3l3.9,1.2c0.1,0,0.2,0,0.3,0c0.1,0,0.2,0,0.3,0c0.5,0.1,0.9,0.3,1.3,0.4 c0.4,0.1,0.7,0.4,1,0.9c0.3,0.3,0.6,0.6,1,0.9c0.4,0.2,0.8,0.4,1.1,0.6c1.1,0.5,1.8,1.2,2.3,2c0.5,0.8,1,1.7,1.4,2.7 c0,0.1,0,0.2,0.1,0.3c0.2,0.6,0.3,1.2,0.4,1.8c0,0.7,0.2,1.3,0.5,2c0.5,1,0.8,2,1.1,2.9c0.2,0.9,0.6,1.9,1.1,2.8 c0.5,1,0.5,2.1,0.1,3.2c-0.4,1.1-0.4,2.2,0,3.2c0,0.1,0,0.2-0.1,0.4c-0.1,0.2-0.2,0.3-0.3,0.6c0.9,0.5,1.1,1,0.7,1.6 c-0.4,0.6-0.7,1.2-0.9,1.8c-0.1,0.6-0.2,1.2-0.3,1.7c-0.1,0.5-0.2,1.1-0.4,1.7c-0.2,0.5-0.3,1-0.4,1.4c0,0.4-0.3,0.9-0.8,1.4 c-0.2,0.2-0.3,0.5-0.3,0.7c0,0.2,0,0.5-0.1,0.7c-0.5,1-1,2-1.6,3c-0.9,1.7-1.8,3.2-2.7,4.5c-0.6,1-1.1,1.9-1.7,2.9 c-0.6,1-1.1,1.9-1.7,2.7c-0.5,0.8-1,1.6-1.5,2.3c-0.5,0.7-1,1.4-1.5,2.3c-0.4,0.5-0.7,1.2-1,2c-0.2,0.5-0.4,0.8-0.7,1 c-1,0.6-1.7,1.4-2.2,2.3c-0.5,0.9-1.1,1.8-1.8,2.7c-0.5,0.6-1.1,1.1-1.7,1.7c-0.7,0.6-1.3,1.2-1.9,1.7c-0.5,0.5-0.9,0.9-1.4,1.4 c-0.4,0.5-0.9,0.9-1.4,1.4c-0.6,0.6-1.2,1.1-1.8,1.6c-0.6,0.5-1.3,1-1.9,1.6c-0.2,0-0.3,0.1-0.4,0.2c-1.3,1.3-2.8,2.2-4.3,2.9 c-1.5,0.7-3.1,1.3-4.6,2c-0.6,0.3-1,0.4-1.3,0.5l-0.1,0c-1.2,0.5-2.9,0.9-5,1.3c-2.1,0.4-3.8,0.5-5,0.4l-0.1-0.1l-0.9,0.6 c0.2,0.9-0.2,1.8-1.3,2.5c-0.2,0.1-0.3,0.3-0.4,0.5c0,0.2-0.1,0.4-0.2,0.6c-0.2,0.2-0.3,0.4-0.4,0.6c0,0.2-0.2,0.3-0.4,0.6 c-0.5,0.6-0.6,0.9-0.2,1c0.3,0.1,0.6,0.2,0.8,0.4c-0.2,0.5-0.3,1-0.4,1.5c-0.1,0.5-0.2,1-0.3,1.5c-0.2,0.4-0.4,0.7-0.6,0.8 c-0.9,1-1,2-0.3,3.1c0.3,0.4,0.2,1-0.1,1.6c-0.4,0.7-0.3,1.3,0.3,1.7c0.3,0.1,0.5,0.4,0.7,1.1l0.4,0.8c0.1,0.5,0.2,1,0.2,1.5 c0,0.5,0.2,1,0.5,1.5c0.6,0.8,1.4,1.2,2.4,1.2c1.9,0,4.1-0.5,6.5-1.4c2.4-1,4.4-2.1,6-3.4c0.9-0.7,1.9-1.6,3.2-2.6 c1.2-1,2.5-2.1,3.9-3.2c1.3-1.1,2.6-2.2,3.8-3.3c1.2-1.1,2.2-2,3.1-2.7c2.1-2,4.2-4,6.2-6c2-2,4-4.1,6-6.1c1.7-1.8,3.4-3.6,5-5.4 c1.6-1.8,3.3-3.6,4.9-5.5c1.4-1.5,2.8-2.9,4.2-4.4c1.4-1.5,2.8-3,4.1-4.5c0.4-0.3,0.7-0.7,1-1.2c0.3-0.4,0.6-0.9,0.9-1.3 c0.1,0.1,0.2,0.1,0.3,0.2c0.1,0,0.2,0.1,0.3,0.3c-2.3,2.9-4.6,5.7-7,8.4c-2.3,2.8-4.6,5.5-6.8,8.3c-0.2,0.3-0.4,0.6-0.5,0.9 c-0.1,0.3-0.3,0.5-0.5,0.7c-0.6,0.8-1.2,1.5-1.8,2.2c-0.6,0.7-1.2,1.4-1.8,2.1c-0.1,0.1-0.2,0.2-0.3,0.3c-0.1,0.1-0.2,0.2-0.3,0.3 c-0.2,0.1-0.3,0.2-0.4,0.3c0,0.1-0.2,0.3-0.4,0.5c0.2,0,0.4,0,0.6,0.1c0.2,0.1,0.5,0,0.6-0.1c0.3-0.2,0.6-0.5,0.8-0.8 c0.2-0.3,0.5-0.5,0.8-0.8c1.4-1.4,2.8-2.8,4.2-4.2C552.4,172.8,553.7,171.2,555,169.6z M494.5,176.7c0-0.1,0-0.1,0.1-0.2 c0,0,0.1-0.1,0.1-0.2c-0.2-0.6-0.4-1-0.6-1.4c-0.1-0.1-0.2-0.1-0.4-0.1c0,0.2,0,0.4-0.1,0.6c-0.1,0.2-0.1,0.4,0,0.6 C493.5,176.2,493.8,176.4,494.5,176.7z M495,173.6c0.3-0.2,0.7-0.5,1.2-0.9c-0.8-0.7-0.7-1.5,0.3-2.4c0.1-0.1,0.1-0.3,0.1-0.4 c0-0.2,0-0.4,0.1-0.6c-0.1,0-0.2,0-0.2,0c0,0-0.1-0.1-0.2,0c-0.5,0.8-0.9,1.7-1.3,2.4c-0.4,0.8-0.8,1.6-1.3,2.4l0.3,0.2 C494.3,174.1,494.7,173.8,495,173.6z M496.2,186.8c0.3-0.2,0.5-0.6,0.5-1.2c0-0.5,0-1-0.2-1.4c-0.2,0.4-0.3,0.8-0.4,1.1 c-0.1,0.3-0.2,0.7-0.4,1.1c0,0.1,0,0.2,0.1,0.3c0,0.1,0.1,0.2,0.1,0.3C496.1,187,496.2,186.9,496.2,186.8z M496.2,168.2 c0.2,0.2,0.4,0.3,0.7,0.4s0.6,0.2,0.9,0.4c0.2-0.3,0.4-0.6,0.5-0.9c0.1-0.3,0.3-0.7,0.4-1.1c0.1-0.2,0.1-0.5,0.1-0.8 c0-0.3-0.1-0.6-0.1-0.9c0.2,0.1,0.3,0.1,0.4,0.2c0,0,0.2,0.1,0.4,0.2c0.5-0.6,0.9-1.1,1.2-1.6c0.3-0.5,0.7-1,1.1-1.5 c0.1-0.2,0.2-0.3,0.2-0.4c0-0.1,0.1-0.2,0.2-0.4c0-0.1-0.1-0.2-0.2-0.3c-0.1-0.1-0.3-0.1-0.4,0.1c-0.2,0-0.4,0.2-0.7,0.5 c-0.1,0.2-0.2,0.4-0.2,0.5c0,0.2-0.1,0.3-0.2,0.5c-0.1,0-0.2-0.1-0.4-0.2c0.2-0.4,0.4-0.8,0.6-1.3c0.2-0.4,0.5-0.8,0.9-1 c0.9-0.5,1.4-0.9,1.5-1.1c0.1-0.2,0-0.7-0.5-1.5l0.9-0.6c0.4-0.2,0.8-0.5,1.2-0.8c0.4-0.3,0.7-0.5,0.8-0.7c0.1-1,0.4-1.7,1-2.1 c0.6-0.4,1.1-0.9,1.6-1.5c-0.2-0.9-0.3-1.6-0.4-1.8c0.7-0.5,1.2-1,1.7-1.6c0.4-0.3,0.7-0.7,1-1.2c0.3-0.4,0.6-0.9,0.9-1.3 c0.7-0.9,0.5-1.5-0.6-1.8c-3.1,3.6-5.7,7.3-7.9,11.3C500.5,160,498.3,164.1,496.2,168.2z M497.7,182.4c0.5-0.9,0.9-1.9,1.2-2.8 c0.3-0.9,0.7-1.9,1.2-2.8c-0.2,0-0.3-0.1-0.3-0.2c-0.4,0.3-0.6,0.5-0.6,0.7c-0.2,0.6-0.5,1.2-0.8,1.8c-0.3,0.6-0.6,1.2-0.9,1.8 c-0.2,0.3-0.3,0.9-0.3,1.6L497.7,182.4z M501.8,165.3c0.3-0.5,0.7-1,1.3-1.4c0.6-0.4,0.7-1,0.4-1.8c-0.5,0.1-0.8,0.2-0.9,0.3 c-0.4,0.4-0.7,0.9-0.9,1.3c-0.2,0.4-0.5,0.9-0.8,1.3c-0.3,0.3-0.2,0.5,0.1,0.4C501.3,165.7,501.5,165.7,501.8,165.3z M503.4,169.5 c0.6-0.9,1.1-1.6,1.6-2.3c0.5-0.7,1-1.5,1.6-2.3c-0.9,0.2-1.6,0.8-2.3,1.7C503.6,167.4,503.3,168.4,503.4,169.5z M520.5,153.9 c-0.7,1-1.3,2-1.9,3c-0.6,1-1.2,2-1.9,3c-0.1,0.1-0.2,0.2-0.4,0.4c-0.2,0.1-0.3,0.1-0.4,0.1c-0.5,0-0.8,0.1-0.9,0.3 c-0.1,0.3-0.2,0.6-0.3,1c0,0.3-0.1,0.7-0.3,1.4c-0.2,0.4-0.4,0.8-0.6,1.2c-0.2,0.4-0.4,0.8-0.6,1.2l-0.7,0.8 c-0.2,0.3-0.4,0.6-0.7,1c-0.3,0.3-0.5,0.7-0.7,1.1c-0.5,1-0.9,2.1-1.2,3.1c-0.3,1-0.9,2-1.8,2.9l-0.3,0.3l-1.9,3 c0.8-0.1,1.6-0.1,2.4-0.1c0.9,0.1,1.7-0.1,2.4-0.5c0.5-0.3,0.9-0.5,1.3-0.6c0.4-0.2,0.8-0.4,1.3-0.6c0.6-0.2,1-0.3,1.3-0.4 c0.3-0.1,0.6-0.3,1-0.5c0.3-0.2,0.6-0.4,0.9-0.6c0.3-0.1,0.7-0.3,1.1-0.6c0.2,0,0.4-0.1,0.6-0.4l4.3-3.7c0.5-0.4,1-0.7,1.4-1 c0.5-0.3,1-0.7,1.4-1.2c1.3-1.2,2.6-2.4,3.7-3.7c1.1-1.3,2.1-2.7,2.9-4.1l0.6-0.7c0.7-0.9,1.3-1.7,1.9-2.6c0.6-0.9,1.2-1.7,1.8-2.6 c0.8-1.1,1.5-2.2,2.3-3.2c0.8-1.1,1.5-2.2,2.3-3.2c0.2-0.2,0.3-0.5,0.3-0.8c0.1-0.2,0.2-0.5,0.2-0.8c0-0.3,0.2-0.6,0.4-0.8 c1.4-2.5,2.7-5.1,3.7-7.7c1.1-2.6,1.8-5.3,2.2-8.2c0.2-1,0.3-2,0.2-2.9c0-1-0.1-1.9-0.1-2.9c0-0.2-0.1-0.4-0.2-0.7 c-0.1-0.3-0.3-0.4-0.5-0.4c-0.5,0.1-0.9,0.3-1.3,0.8c-0.2,0.2-0.6,0.7-1.1,1.3c-0.6,0.7-1,1.1-1.1,1.2c-0.4,0.4-0.7,0.8-1.1,1.2 c-0.3,0.3-0.7,0.7-1.1,1c-0.6,0.5-1.1,1-1.6,1.5c-0.5,0.6-1.1,1.1-1.7,1.6c-0.8,0.6-1.4,1.3-2,2.2c-0.6,0.9-1.2,1.7-1.9,2.5 c-0.3,0.3-0.6,0.6-1,0.9c-0.4,0.3-0.8,0.6-1.1,0.8c-0.4,0.4-0.6,0.8-0.7,1c-0.5,0.7-0.9,1.5-1.2,2.2c-0.3,0.7-0.7,1.5-1.2,2.2 c-0.5,0.8-1,1.5-1.7,2.2c-0.6,0.7-1.2,1.4-1.8,2.1c-0.8,1-1.5,2-2.2,3.1c-0.7,1.1-1.6,1.9-2.9,2.5c0,0.3,0,0.6,0.1,0.8 C520.6,153.5,520.6,153.7,520.5,153.9z M513.3,141.7c-1,0-1.7,0.7-2.3,2.1c0.4,0.1,0.9,0.4,1.4,0.7c-0.1-0.2-0.2-0.4-0.2-0.6 c0-0.2-0.1-0.4-0.2-0.7c0.2,0,0.4,0,0.6,0c0.2,0,0.4,0,0.6-0.2c0.2,0,0.5-0.3,0.9-0.8c-0.2-0.1-0.3-0.2-0.4-0.4 C513.6,141.7,513.5,141.6,513.3,141.7z M514.5,139.3c-0.2,0.1-0.4,0.3-0.6,0.6c-0.2,0.3-0.5,0.5-0.6,0.7c0.3,0.2,0.7,0.5,1.3,0.8 c0,0.2,0.1,0.3,0.3,0.2c0.2-0.3,0.4-0.6,0.5-0.9c0.1-0.3,0.3-0.6,0.5-1c-0.1-0.1-0.2-0.2-0.4-0.2c-0.2-0.1-0.4-0.1-0.5-0.2 C514.7,139.3,514.6,139.3,514.5,139.3z M517,136.8c-0.2,0.2-0.4,0.5-0.6,0.8c-0.2,0.3-0.5,0.6-0.6,0.8c0,0.2,0,0.3,0.1,0.4 c0.2-0.1,0.4-0.2,0.6-0.2c0.2,0,0.3-0.1,0.4-0.4c0.2-0.2,0.3-0.5,0.3-0.7c0-0.2,0-0.5,0.1-0.7C517.2,136.8,517.1,136.7,517,136.8z M528.1,167.9c0.2-0.2,0.3-0.6,0.4-1c0-0.4,0.1-0.9,0.2-1.3c-0.8,0.1-1.3,0.6-1.6,1.4c-0.2,0.3-0.4,0.6-0.7,1 c-0.3,0.3-0.5,0.7-0.7,1l-1.7,1.6l0.4,0.4c0.7-0.5,1.3-1,1.9-1.4C526.9,169,527.5,168.5,528.1,167.9z M530.1,165.2 c0.2,0,0.4-0.2,0.6-0.7c0.1-0.1,0.1-0.2,0-0.3c-0.1-0.1-0.2-0.1-0.3-0.1c-0.4-0.1-0.7,0-1,0.3c-0.2,0.2-0.3,0.4-0.4,0.6 c0,0.2-0.2,0.3-0.4,0.6C529.3,165.4,529.8,165.3,530.1,165.2z M578.4,140v0.6c-0.3,0.5-0.6,1.1-0.9,1.8c-0.3,0.7-0.7,1.1-1.1,1.4 c-0.6,0.4-1,0.8-1.2,1.2c-0.2,0.4-0.6,0.9-0.9,1.4c-0.5,0.7-1,1.4-1.4,2.1c-0.5,0.8-1,1.5-1.4,2.2c-0.2,0.4-0.4,0.9-0.5,1.3 c-0.1,0.5-0.3,0.8-0.5,1.2c-0.5,0.8-1,1.6-1.7,2.3c-0.6,0.7-1.2,1.4-1.7,2.3c-0.5,0.6-0.9,1.1-1.4,1.5c-0.4,0.5-0.8,1-1.2,1.6 c-0.2,0.5-0.5,1-1,1.5c-0.5,0.5-0.9,1-1.3,1.5l-0.4,0.5c-0.2,0.9-0.6,1.6-1.2,2c-0.6,0.4-1.3,0.9-1.9,1.4c-0.6-0.5-0.9-0.8-0.9-1 s0.3-0.5,1-1.1c0.2-0.2,0.4-0.5,0.6-0.8c0.2-0.3,0.4-0.6,0.7-0.8c0.3-0.3,0.6-0.7,0.9-1c0.3-0.3,0.7-0.7,1.1-1 c0.5-0.7,1-1.3,1.6-1.9c0.6-0.6,1.1-1.3,1.6-1.9c0.5-0.7,0.9-1.3,1.4-1.9c0.4-0.6,0.9-1.2,1.4-1.9c0.5-0.8,0.9-1.7,1.3-2.4 c0.4-0.8,0.8-1.5,1.3-2.3c0.4-0.5,0.8-1,1.3-1.5c0.5-0.5,1-1,1.4-1.5l-0.4-0.2c0.1-0.2,0.2-0.5,0.2-0.8c0-0.4,0.1-0.5,0.2-0.6 c1.1-0.2,1.5-0.5,1.4-1.2c-0.1-0.6,0-1.2,0.1-1.7c0.2-0.4,0.3-0.8,0.3-1.1c0.1,0,0.2,0,0.2,0c0,0,0.1,0.1,0.2,0 c-0.2-0.2-0.3-0.3-0.4-0.4c-0.1-0.1-0.2-0.3-0.4-0.4c-1.6,2.6-3.3,5.1-4.9,7.5c-1.6,2.4-3.4,4.8-5.3,7.1l-0.3-0.2 c0.2-0.2,0.3-0.4,0.4-0.6c0-0.2,0.2-0.4,0.4-0.6c1.1-1.5,2.1-3,3.1-4.4c1-1.5,2-2.9,3.1-4.3c0.8-1.3,1.4-2.5,2-3.6 c0.2-0.5,0.5-1,0.8-1.5c0.3-0.5,0.6-0.9,0.9-1.4c0.4-0.4,0.8-0.9,1.1-1.3l0.9,0.7c0.2,0.2,0.4,0.4,0.7,0.6c0.3,0.2,0.5,0.4,0.7,0.6 c0,0.2,0,0.4,0.1,0.6C578.3,139.6,578.4,139.8,578.4,140z"></path> <path d="M601.9,126.7c0.8,1.5,0.5,2.9-0.7,4c-0.3,0.2-0.5,0.5-0.7,0.8c-0.2,0.3-0.4,0.7-0.6,1.2c-0.5,0.5-1,0.9-1.4,1.4 c-0.5,0.5-1,1.1-1.4,1.7c0.4,0.4,0.6,0.8,0.6,1.2c0,0.4-0.4,0.8-1.1,1.2c-0.3,0.2-0.5,0.6-0.6,1.1c-0.1,0.5-0.4,1.1-0.6,1.8 c1.2-0.4,1.9-0.6,2-0.7c0.8-1.2,1.5-2.4,2.2-3.6c0.7-1.2,1.4-2.4,2.2-3.6c0.6-0.9,1.1-1.7,1.7-2.6c0.6-0.9,1.2-1.7,1.9-2.6 c0.2-0.4,0.5-0.8,0.9-1.2c0.4-0.4,0.6-0.8,0.6-1.2c0-1.1,0.4-1.9,1.1-2.4c0.7-0.5,1.3-1.2,1.8-1.9c0.5-0.8,1-1.6,1.4-2.3 c0.5-0.7,1-1.5,1.4-2.3c0.6-0.9,1.1-1.7,1.6-2.5c0.5-0.8,1-1.6,1.6-2.3c1.6-2,3.3-3.9,4.9-5.9c1.6-1.9,3.3-3.8,4.9-5.7 c0.3-0.4,0.6-0.8,0.9-1.2c0.3-0.3,0.7-0.7,1.1-1l0.3,0.2c-1.3,1.6-2.6,3.1-3.9,4.6c-1.2,1.5-2.5,3.1-3.9,4.6c0,0.1,0.1,0.2,0.3,0.4 c0.8-0.3,1.3-0.6,1.6-1c1.1-1.2,2.3-2.5,3.4-3.8c1.1-1.3,2.2-2.6,3.2-3.8c1.1-1,1.2-2,0.6-2.9c0.5-0.7,0.9-1.3,1.4-1.9 c0.4-0.6,0.9-1.3,1.4-1.9c0.2-0.2,0.3-0.4,0.2-0.6c0-0.2,0-0.4,0.1-0.6c-0.5,0.1-0.9,0.2-1.3,0.5c-0.9,0.8-1.7,1.6-2.5,2.3 c-0.8,0.7-1.7,1.4-2.7,2c0.1-0.1,0.2-0.2,0.2-0.3c0-0.1,0.1-0.2,0.2-0.3c1.4-1.4,2.8-2.7,4.2-4c1.4-1.3,2.8-2.7,4.1-4.2 c0.4-0.3,0.6-0.8,0.8-1.3c0.1-0.5,0.4-1,0.6-1.4c0.4-0.5,0.8-1,1.1-1.4c0.4-0.4,0.8-0.8,1.3-1.3c0.2-0.1,0.4-0.2,0.6-0.2 c0.2,0,0.4,0,0.4,0.1c0.4,0.8,0.9,1.1,1.6,0.7c0.7-0.3,1.2-0.4,1.7-0.3c0.7,0.2,1.3,0.4,1.9,0.7c0.6,0.3,1.2,0.5,1.9,0.8 c0.4,0.1,0.7,0.3,1.1,0.6c0.3,0.2,0.7,0.5,1.2,0.8c0,0.9,0.7,1.6,2,2.2c0.5,0.1,0.8,0.5,1,1.1c0.2,0.6,0.4,1.2,0.7,1.7 c0.2,0.5,0.4,0.9,0.5,1.5c0.1,0.5,0.1,1.1-0.1,1.8c-0.2,0.8-0.3,1.6-0.4,2.5c0,0.8-0.2,1.7-0.4,2.5c-0.1,0.4-0.3,0.8-0.5,1.2 c-0.2,0.4-0.5,0.8-0.6,1.3c-1.3,2.1-2.7,4.3-4,6.4c-1.3,2.1-2.7,4.3-4,6.4c-0.3,0.4-0.5,0.9-0.6,1.3c-0.1,0.5-0.2,0.9-0.4,1.3 c-0.3,0.8-0.6,1.6-0.9,2.3c-0.3,0.7-0.8,1.4-1.6,2c-0.4,0.3-0.6,0.8-0.8,1.5c-0.1,0.7-0.4,1.2-0.6,1.8c-0.3,0.8-0.6,1.6-1,2.3 c-0.4,0.7-0.8,1.4-1.1,2.1c-0.5,0.8-0.8,1.5-0.9,2.2c-0.1,0.7-0.4,1.5-0.6,2.2c-0.6,1.2-0.8,2.3-0.6,3.5c0.2,1.2-0.1,2.4-0.9,3.7 c-0.4,0.6-0.5,1.4-0.4,2.4c0.1,1,0.2,1.9,0.1,2.9c0,0.3,0,0.6-0.1,1c0,0.3-0.1,0.7-0.1,1.1c0.4,0.7,0.7,1.5,1.1,2.2 c0.3,0.8,0.7,1.6,1.1,2.4c-1.6,1.4-3.3,1.6-4.9,0.7c-3.6-2-6.2-4.7-7.6-8.2c-1.4-3.4-2.2-7.3-2.2-11.6c0.1-6.9,1.5-13.9,4.3-20.9 c0.4-0.8,0.7-1.7,0.9-2.6c0.2-0.9,0.5-1.8,0.8-2.7l-0.4-0.4c-0.2,0.2-0.5,0.5-0.8,0.7c-0.3,0.2-0.6,0.5-0.8,0.7 c-1.1,1.3-2.1,2.6-3,3.9c-1,1.3-2,2.7-3,4.1c-0.5,0.8-0.9,1.5-1.3,2.3c-0.4,0.8-0.8,1.6-1.3,2.4c-0.3,0.5-0.6,1-0.9,1.4 c-0.3,0.4-0.7,0.9-1.1,1.5c-0.9,1.4-1.7,2.8-2.7,4.1c-0.9,1.3-1.7,2.8-2.5,4.2c-2,3.4-4,6.8-5.9,10.2c-1.9,3.4-3.8,6.9-5.7,10.4 c-1.6,3.1-3.2,6.1-4.6,9.3c-1.4,3.1-2.9,6.2-4.3,9.2c-1.2,2.5-2.4,5-3.4,7.6c-1.1,2.5-2.2,5.1-3.4,7.6c-0.6,1.2-1.2,2.4-1.9,3.6 c-0.7,1.1-1.3,2.3-1.8,3.4c-0.6,1.3-1.3,2.5-2.1,3.6c-0.8,1-1.6,2.2-2.4,3.3c-1.3,2.4-3.2,3-5.5,1.8c-0.6-0.3-1.2-0.5-1.8-0.6 c-0.6-0.1-1.2-0.5-1.7-1.2c-1.1-1.5-2-3.1-2.6-4.9c-0.6-1.8-1-3.6-1.1-5.5c-0.4-5-0.1-10,0.9-15.1c1.3-7.1,3.2-14,5.6-20.8 c0.8-2.2,1.6-4.3,2.4-6.5c0.8-2.2,1.7-4.4,2.5-6.6c1-2.4,1.9-4.7,2.9-7c1-2.3,1.9-4.6,2.9-7c0.5-1,0.9-2,1.4-3 c0.4-0.9,0.8-1.9,1.1-2.9c0.5-1.8,1.2-3.5,2.2-5.2c1-1.6,1.8-3.3,2.5-5.1c0.7-1.8,1.4-3.6,2.3-5.4c0.9-1.7,1.7-3.5,2.4-5.2 c0.8-2.2,2.3-3.8,4.6-4.7c0.2,0.6,0.5,0.9,0.8,1.1c0.3,0.1,0.7,0.2,1,0.1c0.3-0.1,0.7-0.2,1.1-0.3c0.4-0.1,0.8-0.1,1.1-0.1v1.3 c1.1-0.5,1.9-0.6,2.5-0.3c0.6,0.3,1.3,0.8,1.9,1.4c0.8,0.7,1.6,1.3,2.4,2c0.8,0.7,1.5,1.5,1.9,2.6c0.1,0.2,0.2,0.4,0.3,0.7 c0.1,0.3,0.1,0.5,0.1,0.7c-0.4,1.5-0.7,3.1-0.9,4.6c-0.2,1.6-0.9,3.1-2,4.5c-0.9,1.2-1.7,2.4-2.5,3.5c-0.8,1.1-1.5,2.4-1.9,3.8 c-0.1,0.5-0.4,0.9-0.8,1.3c-0.4,0.4-0.7,0.8-0.9,1.3c-0.6,1.2-1.1,2.4-1.7,3.7c-0.5,1.3-1.1,2.5-1.7,3.7c-0.3,0.6-0.6,1.2-1,1.8 c-0.4,0.6-0.8,1.1-1.3,1.6c-1.3,1.1-2.3,2.3-2.9,3.6c-0.6,1.4-1.2,2.7-1.7,4.2c-0.3,0.9-0.6,1.8-1.1,2.6s-1.2,1.4-2.2,1.7 c0.6,1,0.7,2,0.3,2.9c-0.4,1-0.9,1.9-1.6,2.8c-0.4,0.5-0.8,1.1-1.1,1.7c-0.4,0.6-0.5,1.3-0.3,2.2c0.1,0.4-0.1,0.8-0.5,1.3 c-0.4,0.5-0.7,1-0.9,1.5c-0.6,1.2-1.2,2.3-1.9,3.5c-0.7,1.2-1.1,2.4-1.4,3.5c-0.2,1.1-0.6,2.2-1.1,3.3c-0.5,1.1-0.6,2.2-0.1,3.3 c0.2,0.3,0.1,0.7-0.3,1.2c-0.4,0.5-0.7,1.1-0.9,1.6c-0.3,0.6-0.5,1.3-0.7,2c-0.2,0.7-0.4,1.5-0.7,2.4c0.3-0.2,0.6-0.4,0.8-0.6 c0.2-0.1,0.5-0.3,0.6-0.5l10.3-20.7c1.1-2.2,2.3-4.4,3.4-6.6c1.1-2.2,2.3-4.4,3.6-6.6c0.9-1.6,1.8-3.2,2.7-4.8 c1-1.6,1.9-3.2,2.9-4.9c0.5-0.8,1-1.7,1.5-2.7c0.5-0.9,1.1-1.9,1.7-2.7c0.2-0.4,0.4-0.8,0.7-1.1S601.5,127.2,601.9,126.7z M568.7,168.6c0.2,0.1,0.3,0.1,0.4,0.2c0,0,0.2,0.1,0.4,0.2c0.2-0.4,0.4-0.8,0.5-1.2c0.1-0.4,0.3-0.7,0.5-1c-0.1,0-0.2,0-0.3-0.1 c-0.1-0.1-0.2-0.1-0.2-0.1c0,0-0.1,0-0.2-0.1C569.5,166.9,569.1,167.6,568.7,168.6z M595.7,143.3c-0.1-0.1-0.2-0.1-0.3-0.2 c-0.1,0-0.2-0.1-0.3-0.2c-0.2,0.2-0.4,0.4-0.7,0.5c-0.3,0.1-0.5,0.3-0.7,0.5c-0.2,0.2-0.3,0.5-0.4,0.8c0,0.3-0.2,0.6-0.4,0.8 c0.3,0,0.6-0.1,0.9-0.1c0.3,0,0.6-0.1,0.8-0.3c0.2-0.2,0.4-0.5,0.5-0.9C595.4,144,595.5,143.6,595.7,143.3z M623.9,98.6 c-1.2,1.4-2.5,2.8-3.7,4.2c-1.2,1.3-2.4,2.8-3.6,4.3c-0.6,0.7-1.1,1.4-1.5,2.1c-0.4,0.7-0.9,1.5-1.4,2.4c-0.1,0.1-0.2,0.2-0.2,0.4 c0,0.2-0.2,0.3-0.4,0.4c-1.8,1.1-3.2,2.6-4,4.4c-0.9,1.8-1.9,3.5-3,5.1c-0.4,0.5-0.8,1.1-1.1,1.6c-0.4,0.5-0.5,1.2-0.4,2 c0,0.2-0.2,0.4-0.7,0.5c-0.5,0.2-1,0.3-1.4,0.4c5.9-10.2,12.9-19.6,21-28.2C623.4,98.4,623.6,98.6,623.9,98.6z"></path> <path d="M716.5,138.3c0.8,1.4,0.2,3-1.6,4.7c0.4,0.4,0.5,0.9,0.2,1.4c-0.2,0.5-0.6,0.9-1.1,1.4c-0.9,1.1-1.7,2.2-2.4,3.3 c-0.7,1.1-1.6,2.2-2.5,3.3c-1.6,1.9-3.2,3.7-4.8,5.4c-1.6,1.7-3.2,3.5-5,5.3c-1.3,1.4-2.7,2.7-4,3.9c-1.3,1.3-2.5,2.6-3.6,4 c-0.7,0.9-1.3,1.5-2,2c-0.7,0.4-1.3,0.9-2,1.4c-0.2,0.2-0.3,0.5-0.4,0.8c-0.1,0.3-0.2,0.7-0.4,1.2c-1.1,0.9-2.2,1.9-3.3,2.9 c-1.1,1-2.4,2-3.7,2.9c-1.1,0.9-2.2,1.7-3.4,2.3c-1.2,0.6-2.4,1.3-3.5,2c-0.8,0.4-1.4,0.8-2,1.2c-0.6,0.4-1.2,0.8-2,1.2 c-0.3,0.2-0.7,0.4-1.1,0.4c-0.5,0-0.9,0.1-1.1,0.4c-0.8,0.6-1.5,0.9-2.2,0.8s-1.5,0.1-2.2,0.4c-1.3,0.6-2.6,0.7-3.7,0.5 c-1.1-0.3-2.3-0.8-3.3-1.5c-0.6-0.4-1.1-0.8-1.6-1.3c-0.5-0.5-1-0.9-1.6-1.3c-0.2-0.3-0.5-0.4-0.9-0.5c-0.4,0-0.8-0.1-1.1-0.3 c-0.8-0.3-1.2-0.5-1.3-0.7c-0.2-0.7-0.5-1-0.8-1.2c-0.3-0.1-0.7-0.3-1.1-0.4c-0.9-0.3-1.4-0.7-1.6-1.2c-0.3-0.8-0.6-1.7-0.8-2.5 c-0.2-0.8-0.6-1.6-0.9-2.3c-0.3-0.6-0.6-1.3-1.1-2c-0.4-0.7-0.7-1.4-0.9-2.1c-0.5-1.5-0.9-3-1.3-4.6c-0.4-1.6-0.6-3.2-0.7-4.8 c0-1.4,0.2-2.7,0.5-4.2c0.3-1.4,0.7-2.8,1.2-4.1c1-3.5,2.2-7.1,3.6-10.6c1-2.2,1.9-4.4,2.9-6.5c1-2.2,2-4.3,3-6.4 c1.2-2.7,2.8-5.5,4.6-8.4c1.9-3,3.8-6,5.7-8.9c1.9-2.9,3.8-5.9,5.7-8.8c1.3-1.9,2.8-3.8,4.3-5.6c1.5-1.8,3-3.7,4.3-5.5 c0.8-1,1.5-2,2.3-3c0.8-1,1.6-2,2.6-2.9c1.8-1.6,3.6-3.4,5.3-5.3c1.7-1.9,3.7-3.4,6-4.5c1.4-0.7,2.9-1.2,4.4-1.4 c1.5-0.3,2.9,0.1,4.2,1.2c0.6,0.4,1.1,0.9,1.6,1.4c0.5,0.5,1,1,1.4,1.5c0.5,0.6,0.9,1.2,1.4,1.8c0.4,0.6,0.8,1.2,1.1,1.8 c0.4,0.9,0.9,1.7,1.6,2.3c0.7,0.6,1.2,1.3,1.7,2.2c0.4,0.9,0.6,1.9,0.6,2.9s0.1,2.1,0.3,3.1c0.1,0.5,0.2,0.9,0.2,1.4 c0,0.4,0,0.9-0.1,1.4c-0.2,1.4-0.5,2.8-0.8,4.1c-0.3,1.4-0.7,2.7-1.1,4.2c-0.4,1.8-1,3.7-1.7,5.6c-0.6,1.7-1.3,3.5-2.2,5.3 c-0.2,0.5-0.4,1-0.7,1.6c-0.3,0.5-0.6,1.1-0.9,1.6c-0.2,0.4-0.4,0.7-0.6,1c-0.5,0.6-1,1.1-1.4,1.6c-0.5,0.5-1,1.1-1.4,1.7 c-0.5,0.7-0.8,1.3-1,2c-0.2,0.7-0.5,1.3-0.9,1.9c-0.8,1.4-1.6,2.7-2.5,3.9c-0.9,1.2-2,2.3-3.4,3.3c-0.5,0.3-0.8,0.6-1.1,1 c-0.2,0.4-0.6,0.7-0.9,1.1c-0.9,0.9-1.8,1.3-2.9,1.1c-1.1-0.2-1.8-0.8-2.2-1.8c-0.2-0.5-0.1-1,0.3-1.6c1.6-1.6,3-3.4,4.2-5.3 c1.2-1.9,2.4-3.8,3.5-5.8c1.8-2.8,3.4-5.7,4.8-8.6c1.4-3,2.7-6,3.8-9.1c1.6-4.6,2.6-9,2.9-13.2c0-0.4-0.1-0.9-0.3-1.4 c-0.2,0.1-0.4,0.2-0.6,0.2c-0.2,0-0.4,0.1-0.6,0.2c-0.6,0.4-1.2,0.8-1.8,1.4c-0.6,0.6-1.3,0.9-1.9,0.9c-1.4,0.1-2.7,0.6-3.7,1.4 c-1,0.8-2,1.8-2.9,3c-0.8,0.9-1.6,1.7-2.5,2.5c-0.9,0.8-1.8,1.6-2.8,2.5c-0.2,0.2-0.3,0.4-0.4,0.4c-0.1,0.1-0.2,0.2-0.4,0.4 c-0.8,0.9-1.5,1.8-2.2,2.7c-0.7,0.9-1.5,1.8-2.2,2.7c-0.9,1-1.7,2.1-2.7,3.2c-0.9,1.1-1.7,2.3-2.5,3.6c-0.8,1.2-1.5,2.4-2.2,3.6 c-0.7,1.2-1.5,2.4-2.2,3.6c-0.5,0.8-1,1.6-1.6,2.2c-0.6,0.6-1.1,1.3-1.6,2.2c-0.7,1.1-1.3,2.1-1.8,3.2c-0.5,1-1.1,2.1-1.7,3.3 c-0.5,0.8-1,1.7-1.6,2.6c-0.6,0.9-1.1,1.8-1.6,2.6c-1.2-0.1-1.8,0.5-1.6,2c0,0.5-0.1,1-0.4,1.5c-0.3,0.5-0.5,1-0.7,1.6 c-0.4,1-0.8,2-1.2,2.9c-0.4,0.9-0.9,1.9-1.4,2.8c-0.7,1.6-1.3,3.1-2,4.6c-0.7,1.5-1.3,3-1.9,4.4c-0.2,0.3-0.3,0.6-0.2,0.8 c0,0.2,0,0.6-0.1,1c-0.3,0.8-0.5,1.7-0.7,2.5c-0.2,0.9-0.4,1.7-0.6,2.5c-0.3,0.1-0.6,0.3-0.9,0.4c-0.3,0.1-0.7,0.3-1.2,0.5 c0.9,0.5,1.3,0.9,1.4,1.4c0.1,0.5,0,1.1-0.1,1.8c-0.8,2.1-0.5,3.9,0.9,5.4c0.8,0.9,1.4,1.8,1.9,2.9c0.5,1,1,2.1,1.5,3.1 c0.4,1,1,1.6,1.7,1.7c0.8,0.1,1.5,0.2,2.3,0.3c1.4,0.3,2.8,0.1,4.2-0.5c1.4-0.6,2.8-1.2,4.1-1.9c2.8-1.4,5.4-3.1,7.9-5.1 c1.9-1.4,3.8-2.9,5.5-4.4c1.8-1.5,3.6-3.1,5.4-4.7c1.2-1,2.4-2,3.5-3.1c1.1-1.1,2.2-2.2,3.2-3.3c2-1.9,4-3.9,6-5.8 c2-1.9,4-3.9,5.9-5.9c1.1-1,2-2,2.9-3c0.9-1,1.8-2.1,2.8-3.2c0.8-0.9,1.6-1.8,2.4-2.7c0.8-0.9,1.7-1.9,2.5-2.8 c0.2-0.2,0.4-0.4,0.6-0.6C716,138.8,716.2,138.6,716.5,138.3z M659.1,123.7c-0.1-0.1-0.2-0.1-0.2-0.1c0,0-0.1,0-0.2-0.1 c-0.2,0.2-0.4,0.4-0.7,0.6s-0.6,0.5-1,0.8c0.3,0.2,0.5,0.3,0.8,0.3c0.2,0.1,0.5,0.1,0.6,0.2c0.2-0.3,0.3-0.6,0.4-0.9 C658.8,124.3,658.9,124,659.1,123.7z"></path> <path d="M783,136.7c0.4-0.5,0.9-1,1.5-1.3c0.6-0.3,1.4-0.3,2.2,0l-2.4,2.8c-1.1,1.2-2,2.4-2.9,3.5c-0.9,1.1-1.8,2.2-2.8,3.3 c-0.2,0.2-0.4,0.4-0.6,0.5c-0.2,0.1-0.5,0.2-0.6,0.5c-0.2,0.2-0.4,0.4-0.5,0.7c-0.1,0.2-0.3,0.4-0.5,0.7l-1.3,1.5 c0-0.1-0.1,0-0.4,0.4c-0.8,1.7-1.8,3.1-3.1,4.2c-1.3,1.1-2.5,2.3-3.7,3.7c-1.2,1.2-2.3,2.5-3.6,3.8c-1.2,1.3-2.5,2.6-3.7,3.8 c-0.2,0.1-0.4,0.2-0.5,0.4c-0.1,0.1-0.3,0.2-0.5,0.4c-0.6,0.4-1.3,0.9-2.3,1.6s-1.9,1.5-2.9,2.3c-1,0.8-2,1.6-2.9,2.4 c-1,0.8-1.7,1.3-2.2,1.7c-1.1,0.9-2.2,1.7-3.3,2.2c-1.1,0.6-2.3,1-3.6,1.4c-1.2,0.4-2.5,0.7-3.7,0.8c-1.2,0.2-2.4-0.1-3.4-0.8 c-0.8-0.5-1.4-0.3-1.9,0.6c-0.3,0.7-0.7,1.1-1.2,1.2c-0.5,0.1-1.1,0.1-1.7,0.1c-0.6,0.1-1.1,0-1.5-0.1c-0.4-0.2-0.7-0.7-0.8-1.4 c-0.1,0-0.2,0-0.2,0.1c0,0.1-0.1,0.1-0.2,0.1c0,0.2,0,0.4-0.1,0.7c0,0.2-0.1,0.6-0.1,1c-0.5-0.4-0.9-0.8-1.1-1.2 c-0.3-0.4-0.6-0.8-1-1.2c0-0.1,0-0.2-0.1-0.3c0-0.1,0-0.2-0.1-0.3v-0.1l-0.4-0.8c-0.5-1.7-1.2-2.9-2.2-3.8c-0.4-0.2-0.6-0.6-0.8-1 c-0.1-0.4-0.3-0.9-0.5-1.3c-0.3-0.4-0.6-0.9-0.9-1.3c-0.3-0.4-0.6-0.9-0.9-1.3c-0.3-0.4-0.5-0.9-0.6-1.4c-0.1-0.5-0.3-1-0.5-1.5 c-0.4-1.3-0.7-2.6-0.9-3.9c-0.2-1.3-0.3-2.6-0.1-4c0.1-1,0.2-1.9,0.4-2.8c0.1-0.9,0.3-1.8,0.4-2.8c0.1-0.1,0.1-0.3,0.1-0.5 c-0.1-1.6,0.1-3.2,0.7-4.7c0.6-1.5,1.1-2.9,1.6-4.4c0.1-0.3,0.4-0.6,0.9-0.9c-0.9-1-0.6-1.9,0.9-2.6c0.3-0.3,0.4-0.6,0.4-0.9 c-0.3-1,0-1.8,0.9-2.3l0.3-1.2c0.4-0.2,0.7-0.3,1.1-0.6c0.3-0.2,0.3-0.7-0.2-1.4c-0.1-0.1,0-0.4,0.4-0.9c0.3-0.5,0.6-0.8,0.9-1.1 c0.2-0.2,0.4-0.4,0.5-0.5c0.1-0.1,0.1-0.3-0.1-0.6l1.3-1.1c-0.2-0.3-0.5-0.6-0.9-0.9c1.3-0.2,1.8-0.6,1.3-1.4 c0.5-0.6,0.9-1.1,1.2-1.6c0.3-0.5,0.7-1,1.1-1.5c0.2-0.4,0.4-0.8,0.6-1.3c0.2-0.4,0.5-0.9,0.6-1.4c0.1,0,0.2,0,0.2-0.1 c0-0.1,0.1-0.1,0.2-0.1c1.1-0.6,1.7-1.1,1.9-1.4c0.2-0.3,0.2-0.9,0-1.8c0.2-0.1,0.4-0.2,0.6-0.2c0.2,0,0.5-0.1,0.6-0.2 c-0.2-0.2-0.4-0.4-0.6-0.6c-0.2-0.2-0.4-0.5-0.6-0.7c1.4-2.1,3-4.3,4.7-6.8c-0.2,0.6-0.3,1-0.4,1.2c0.1,0,0.2,0,0.2,0 c0,0,0.1,0.1,0.2,0c0.2-0.3,0.4-0.6,0.6-1c0.2-0.3,0.4-0.7,0.7-1.3c0.8-0.3,1.1-1,0.9-2c-0.1-0.6,0.2-1.3,1-2.2 c0.8-0.9,1.5-1.5,2.3-1.8l0.6-0.1c-0.3-0.8-0.2-1.5,0.4-1.9c0.5-0.5,0.9-1,1.2-1.5c0.8-1.3,1.6-2.5,2.6-3.6c1-1.1,1.9-2.3,2.9-3.5 c1-1.3,2-2.5,3.1-3.7c1.1-1.2,2-2.5,2.8-3.8c1-1.6,2-3,3.2-4.3c1.1-1.3,2.4-2.6,3.7-3.8c0.2-0.2,0.4-0.4,0.7-0.6 c0.3-0.2,0.6-0.4,0.9-0.6c0.4-0.2,0.7-0.3,0.9-0.3l3.9,1.2c0.1,0,0.2,0,0.3,0c0.1,0,0.2,0,0.3,0c0.5,0.1,0.9,0.3,1.3,0.4 c0.4,0.1,0.7,0.4,1,0.9c0.3,0.3,0.6,0.6,1,0.9c0.4,0.2,0.8,0.4,1.1,0.6c1.1,0.5,1.8,1.2,2.3,2c0.5,0.8,1,1.7,1.4,2.7 c0,0.1,0,0.2,0.1,0.3c0.2,0.6,0.3,1.2,0.4,1.8c0,0.7,0.2,1.3,0.5,2c0.5,1,0.8,2,1.1,2.9c0.2,0.9,0.6,1.9,1.1,2.8 c0.5,1,0.5,2.1,0.1,3.2c-0.4,1.1-0.4,2.2,0,3.2c0,0.1,0,0.2-0.1,0.4c-0.1,0.2-0.2,0.3-0.3,0.6c0.9,0.5,1.1,1,0.7,1.6 c-0.4,0.6-0.7,1.2-0.9,1.8c-0.1,0.6-0.2,1.2-0.3,1.7c-0.1,0.5-0.2,1.1-0.4,1.7c-0.2,0.5-0.3,1-0.4,1.4c-0.1,0.4-0.3,0.9-0.8,1.4 c-0.2,0.2-0.3,0.5-0.3,0.7c0,0.2,0,0.5-0.1,0.7c-0.5,1-1,2-1.6,3c-0.9,1.7-1.8,3.2-2.7,4.5c-0.6,1-1.1,1.9-1.7,2.9 c-0.6,1-1.1,1.9-1.7,2.7c-0.5,0.8-1,1.6-1.5,2.3c-0.5,0.7-1,1.4-1.5,2.3c-0.4,0.5-0.7,1.2-1,2c-0.2,0.5-0.4,0.8-0.7,1 c-1,0.6-1.7,1.4-2.2,2.3c-0.5,0.9-1.1,1.8-1.8,2.7c-0.5,0.6-1.1,1.1-1.7,1.7c-0.7,0.6-1.3,1.2-1.9,1.7c-0.5,0.5-0.9,0.9-1.4,1.4 c-0.4,0.5-0.9,0.9-1.4,1.4c-0.6,0.6-1.2,1.1-1.8,1.6c-0.6,0.5-1.3,1-1.9,1.6c-0.2,0-0.3,0.1-0.4,0.2c-1.3,1.3-2.8,2.2-4.3,2.9 c-1.5,0.7-3.1,1.3-4.6,2c-0.6,0.3-1,0.4-1.3,0.5l-0.1,0c-1.2,0.5-2.9,0.9-5,1.3c-2.1,0.4-3.8,0.5-5,0.4l-0.1-0.1l-0.9,0.6 c0.2,0.9-0.2,1.8-1.3,2.5c-0.2,0.1-0.3,0.3-0.4,0.5c0,0.2-0.1,0.4-0.2,0.6c-0.2,0.2-0.3,0.4-0.4,0.6c0,0.2-0.2,0.3-0.4,0.6 c-0.5,0.6-0.6,0.9-0.2,1c0.3,0.1,0.6,0.2,0.8,0.4c-0.2,0.5-0.3,1-0.4,1.5c-0.1,0.5-0.2,1-0.3,1.5c-0.2,0.4-0.4,0.7-0.6,0.8 c-0.9,1-1,2-0.3,3.1c0.3,0.4,0.2,1-0.1,1.6c-0.4,0.7-0.3,1.3,0.3,1.7c0.3,0.1,0.5,0.4,0.7,1.1l0.4,0.8c0.1,0.5,0.2,1,0.2,1.5 c0,0.5,0.2,1,0.5,1.5c0.6,0.8,1.4,1.2,2.4,1.2c1.9,0,4.1-0.5,6.5-1.4c2.4-1,4.4-2.1,6-3.4c0.9-0.7,1.9-1.6,3.2-2.6 c1.2-1,2.5-2.1,3.9-3.2c1.3-1.1,2.6-2.2,3.8-3.3c1.2-1.1,2.2-2,3.1-2.7c2.1-2,4.2-4,6.2-6c2-2,4-4.1,6-6.1c1.7-1.8,3.4-3.6,5-5.4 c1.6-1.8,3.3-3.6,4.9-5.5c1.4-1.5,2.8-2.9,4.2-4.4c1.4-1.5,2.8-3,4.1-4.5c0.4-0.3,0.7-0.7,1-1.2c0.3-0.4,0.6-0.9,0.9-1.3 c0.1,0.1,0.2,0.1,0.3,0.2c0.1,0,0.2,0.1,0.3,0.3c-2.3,2.9-4.6,5.7-7,8.4c-2.3,2.8-4.6,5.5-6.8,8.3c-0.2,0.3-0.4,0.6-0.5,0.9 c-0.1,0.3-0.3,0.5-0.5,0.7c-0.6,0.8-1.2,1.5-1.8,2.2c-0.6,0.7-1.2,1.4-1.8,2.1c-0.1,0.1-0.2,0.2-0.3,0.3c-0.1,0.1-0.2,0.2-0.3,0.3 c-0.2,0.1-0.3,0.2-0.4,0.3c0,0.1-0.2,0.3-0.4,0.5c0.2,0,0.4,0,0.6,0.1c0.2,0.1,0.5,0,0.6-0.1c0.3-0.2,0.5-0.5,0.8-0.8 c0.2-0.3,0.5-0.5,0.8-0.8c1.4-1.4,2.8-2.8,4.2-4.2C780.5,139.9,781.8,138.3,783,136.7z M722.5,143.8c0-0.1,0-0.1,0.1-0.2 c0,0,0.1-0.1,0.1-0.2c-0.2-0.6-0.4-1-0.6-1.4c-0.1-0.1-0.2-0.1-0.4-0.1c0,0.2,0,0.4-0.1,0.6c-0.1,0.2-0.1,0.4,0,0.6 C721.5,143.3,721.9,143.5,722.5,143.8z M723,140.7c0.3-0.2,0.7-0.5,1.2-0.9c-0.8-0.7-0.7-1.5,0.3-2.4c0.1-0.1,0.1-0.3,0.1-0.4 c0-0.2,0-0.4,0.1-0.6c-0.1,0-0.2,0-0.2,0c0,0-0.1-0.1-0.2,0c-0.5,0.8-0.9,1.7-1.3,2.4c-0.4,0.8-0.8,1.6-1.3,2.4l0.3,0.2 C722.3,141.2,722.7,140.9,723,140.7z M724.3,153.9c0.3-0.2,0.5-0.6,0.5-1.2c0-0.5,0-1-0.2-1.4c-0.2,0.4-0.3,0.8-0.4,1.1 c-0.1,0.3-0.2,0.7-0.4,1.1c0,0.1,0,0.2,0.1,0.3c0,0.1,0.1,0.2,0.1,0.3C724.1,154.1,724.3,154,724.3,153.9z M724.3,135.2 c0.2,0.2,0.4,0.3,0.7,0.4s0.6,0.2,0.9,0.4c0.2-0.3,0.4-0.6,0.5-0.9c0.1-0.3,0.3-0.7,0.4-1.1c0.1-0.2,0.1-0.5,0.1-0.8 c0-0.3-0.1-0.6-0.1-0.9c0.2,0.1,0.3,0.1,0.4,0.2c0,0,0.2,0.1,0.4,0.2c0.5-0.6,0.9-1.1,1.2-1.6c0.3-0.5,0.7-1,1.1-1.5 c0.1-0.2,0.2-0.3,0.2-0.4c0-0.1,0.1-0.2,0.2-0.4c0-0.1-0.1-0.2-0.2-0.3c-0.1-0.1-0.3-0.1-0.4,0.1c-0.2,0-0.4,0.2-0.7,0.5 c-0.1,0.2-0.2,0.4-0.2,0.5c0,0.2-0.1,0.3-0.2,0.5c-0.1,0-0.2-0.1-0.4-0.2c0.2-0.4,0.4-0.8,0.6-1.3c0.2-0.4,0.5-0.8,0.9-1 c0.9-0.5,1.4-0.9,1.5-1.1c0.1-0.2,0-0.7-0.5-1.5l0.9-0.6c0.4-0.2,0.8-0.5,1.2-0.8c0.4-0.3,0.7-0.5,0.8-0.7c0.1-1,0.4-1.7,1-2.1 c0.6-0.4,1.1-0.9,1.6-1.5c-0.2-0.9-0.3-1.6-0.4-1.8c0.7-0.5,1.2-1,1.7-1.6c0.4-0.3,0.7-0.7,1-1.2c0.3-0.4,0.6-0.9,0.9-1.3 c0.7-0.9,0.5-1.5-0.6-1.8c-3.1,3.6-5.7,7.3-7.9,11.3C728.5,127.1,726.4,131.2,724.3,135.2z M725.7,149.5c0.5-0.9,0.9-1.9,1.2-2.8 c0.3-0.9,0.7-1.9,1.2-2.8c-0.2,0-0.3-0.1-0.3-0.2c-0.4,0.3-0.6,0.5-0.6,0.7c-0.2,0.6-0.5,1.2-0.8,1.8c-0.3,0.6-0.6,1.2-0.9,1.8 c-0.2,0.3-0.3,0.9-0.3,1.6L725.7,149.5z M729.9,132.4c0.3-0.5,0.7-1,1.3-1.4c0.6-0.4,0.7-1,0.4-1.8c-0.5,0.1-0.8,0.2-0.9,0.3 c-0.4,0.4-0.7,0.9-0.9,1.3c-0.2,0.4-0.5,0.9-0.8,1.3c-0.3,0.3-0.2,0.5,0.1,0.4C729.3,132.8,729.6,132.7,729.9,132.4z M731.4,136.5 c0.6-0.9,1.1-1.6,1.6-2.3c0.5-0.7,1-1.5,1.6-2.3c-0.9,0.2-1.6,0.8-2.3,1.7C731.6,134.5,731.3,135.5,731.4,136.5z M748.5,121 c-0.7,1-1.3,2-1.9,3c-0.6,1-1.2,2-1.9,3c-0.1,0.1-0.2,0.2-0.4,0.4c-0.2,0.1-0.3,0.1-0.4,0.1c-0.5,0-0.8,0.1-0.9,0.3 c-0.1,0.3-0.2,0.6-0.3,1c0,0.3-0.1,0.7-0.3,1.4c-0.2,0.4-0.4,0.8-0.6,1.2c-0.2,0.4-0.4,0.8-0.6,1.2l-0.7,0.8 c-0.2,0.3-0.4,0.6-0.7,1c-0.3,0.3-0.5,0.7-0.7,1.1c-0.5,1-0.9,2.1-1.2,3.1c-0.3,1-0.9,2-1.8,2.9l-0.3,0.3l-1.9,3 c0.8-0.1,1.6-0.1,2.4-0.1c0.9,0.1,1.7-0.1,2.4-0.5c0.5-0.3,0.9-0.5,1.3-0.6c0.4-0.2,0.8-0.4,1.3-0.6c0.6-0.2,1-0.3,1.3-0.4 c0.3-0.1,0.6-0.3,1-0.5c0.3-0.2,0.6-0.4,0.9-0.6c0.3-0.1,0.7-0.3,1.1-0.6c0.2,0,0.4-0.1,0.6-0.4l4.3-3.7c0.5-0.4,1-0.7,1.4-1 c0.5-0.3,1-0.7,1.4-1.2c1.3-1.2,2.6-2.4,3.7-3.7c1.1-1.3,2.1-2.7,2.9-4.1l0.6-0.7c0.7-0.9,1.3-1.7,1.9-2.6c0.6-0.9,1.2-1.7,1.8-2.6 c0.8-1.1,1.5-2.2,2.3-3.2c0.8-1.1,1.5-2.2,2.3-3.2c0.2-0.2,0.3-0.5,0.3-0.8c0.1-0.2,0.2-0.5,0.2-0.8c0-0.3,0.2-0.6,0.4-0.8 c1.4-2.5,2.7-5.1,3.7-7.7c1.1-2.6,1.8-5.3,2.2-8.2c0.2-1,0.3-2,0.2-2.9c0-1-0.1-1.9-0.1-2.9c0-0.2-0.1-0.4-0.2-0.7 c-0.1-0.3-0.3-0.4-0.5-0.4c-0.5,0.1-0.9,0.3-1.3,0.8c-0.2,0.2-0.6,0.7-1.1,1.3s-1,1.1-1.1,1.2c-0.4,0.4-0.7,0.8-1.1,1.2 c-0.3,0.3-0.7,0.7-1.1,1c-0.6,0.5-1.1,1-1.6,1.5c-0.5,0.6-1.1,1.1-1.7,1.6c-0.8,0.6-1.4,1.3-2,2.2c-0.6,0.9-1.2,1.7-1.9,2.5 c-0.3,0.3-0.6,0.6-1,0.9c-0.4,0.3-0.8,0.6-1.2,0.8c-0.4,0.4-0.6,0.8-0.7,1c-0.5,0.7-0.9,1.5-1.2,2.2c-0.3,0.7-0.7,1.5-1.2,2.2 c-0.5,0.8-1,1.5-1.7,2.2c-0.6,0.7-1.2,1.4-1.8,2.1c-0.8,1-1.5,2-2.2,3.1c-0.7,1.1-1.6,1.9-2.9,2.5c0,0.3,0,0.6,0.1,0.8 C748.7,120.5,748.6,120.8,748.5,121z M741.4,108.7c-1,0-1.7,0.7-2.3,2.1c0.4,0.1,0.9,0.4,1.4,0.7c-0.1-0.2-0.2-0.4-0.2-0.6 c0-0.2-0.1-0.4-0.2-0.7c0.2,0,0.4,0,0.6,0c0.2,0,0.4,0,0.6-0.2c0.2,0,0.5-0.3,0.9-0.8c-0.2-0.1-0.3-0.2-0.4-0.4 C741.7,108.8,741.5,108.7,741.4,108.7z M742.5,106.4c-0.2,0.1-0.4,0.3-0.6,0.6c-0.2,0.3-0.5,0.5-0.6,0.7c0.3,0.3,0.7,0.5,1.3,0.8 c0,0.2,0.1,0.3,0.3,0.2c0.2-0.3,0.4-0.6,0.5-0.9c0.1-0.3,0.3-0.6,0.5-1c-0.1-0.1-0.2-0.2-0.4-0.2c-0.2-0.1-0.4-0.1-0.5-0.2 C742.7,106.4,742.6,106.4,742.5,106.4z M745.1,103.8c-0.2,0.2-0.4,0.5-0.6,0.8c-0.2,0.3-0.5,0.6-0.6,0.8c0,0.2,0,0.3,0.1,0.4 c0.2-0.1,0.4-0.2,0.6-0.2c0.2,0,0.3-0.1,0.4-0.4c0.2-0.2,0.3-0.5,0.3-0.7c0-0.2,0-0.5,0.1-0.7C745.3,103.9,745.2,103.8,745.1,103.8 z M756.1,135c0.2-0.2,0.3-0.6,0.4-1c0-0.4,0.1-0.9,0.2-1.3c-0.8,0.1-1.3,0.6-1.6,1.4c-0.2,0.3-0.4,0.6-0.7,1 c-0.3,0.3-0.5,0.7-0.7,1l-1.7,1.6l0.4,0.4c0.7-0.5,1.3-1,1.9-1.4C755,136.1,755.6,135.6,756.1,135z M758.2,132.3 c0.2,0,0.4-0.2,0.6-0.7c0.1-0.1,0.1-0.2,0-0.3c-0.1-0.1-0.2-0.1-0.3-0.1c-0.4-0.1-0.7,0-1,0.3c-0.2,0.2-0.3,0.4-0.4,0.6 c0,0.2-0.2,0.3-0.4,0.6C757.4,132.5,757.9,132.4,758.2,132.3z M806.4,107.1v0.6c-0.3,0.5-0.6,1.1-0.9,1.8c-0.3,0.7-0.7,1.1-1.1,1.4 c-0.6,0.4-1,0.8-1.2,1.2c-0.2,0.4-0.6,0.9-0.9,1.4c-0.5,0.7-1,1.4-1.4,2.1c-0.5,0.8-1,1.5-1.4,2.2c-0.2,0.4-0.4,0.9-0.5,1.3 c-0.1,0.5-0.3,0.8-0.5,1.2c-0.5,0.8-1,1.6-1.7,2.3c-0.6,0.7-1.2,1.4-1.7,2.3c-0.5,0.6-0.9,1.1-1.4,1.5c-0.4,0.5-0.8,1-1.2,1.6 c-0.2,0.5-0.5,1-1,1.5c-0.5,0.5-0.9,1-1.3,1.5l-0.4,0.5c-0.2,0.9-0.6,1.6-1.2,2c-0.6,0.4-1.3,0.9-1.9,1.4c-0.6-0.5-0.9-0.8-0.9-1 s0.3-0.5,1-1.1c0.2-0.2,0.4-0.5,0.6-0.8c0.2-0.3,0.4-0.6,0.7-0.8c0.3-0.3,0.6-0.7,0.9-1c0.3-0.3,0.7-0.7,1.1-1 c0.5-0.7,1-1.3,1.6-1.9c0.6-0.6,1.1-1.3,1.6-1.9c0.5-0.7,0.9-1.3,1.4-1.9c0.4-0.6,0.9-1.2,1.4-1.9c0.5-0.8,0.9-1.7,1.3-2.4 c0.4-0.8,0.8-1.5,1.3-2.3c0.4-0.5,0.8-1,1.3-1.5c0.5-0.5,1-1,1.4-1.5l-0.4-0.2c0.1-0.2,0.2-0.5,0.2-0.8c0-0.4,0.1-0.5,0.2-0.6 c1.1-0.2,1.5-0.5,1.4-1.2c-0.1-0.6-0.1-1.2,0.1-1.7c0.2-0.4,0.3-0.8,0.3-1.1c0.1,0,0.2,0,0.2,0c0,0,0.1,0.1,0.2,0 c-0.2-0.2-0.3-0.3-0.4-0.4c-0.1-0.1-0.2-0.3-0.4-0.4c-1.6,2.6-3.3,5.1-4.9,7.5c-1.6,2.4-3.4,4.8-5.3,7.1l-0.3-0.2 c0.2-0.2,0.3-0.4,0.4-0.6c0-0.2,0.2-0.4,0.4-0.6c1.1-1.5,2.1-3,3.1-4.4c1-1.5,2-2.9,3.1-4.3c0.8-1.3,1.4-2.5,2-3.6 c0.2-0.5,0.5-1,0.8-1.5c0.3-0.5,0.6-0.9,0.9-1.4c0.4-0.4,0.8-0.9,1.2-1.3l0.9,0.8c0.2,0.2,0.4,0.4,0.7,0.6c0.3,0.2,0.5,0.4,0.7,0.6 c0,0.2,0,0.4,0.1,0.6C806.4,106.7,806.4,106.9,806.4,107.1z"></path> </g> <g> </g> <g> </g> <g> </g> <g> </g> <g> </g> <g> </g> <g> </g> <g> </g> <g> </g> <g> </g> <g> </g> <g> </g> <g> </g> <g> </g> <g> </g> </svg> 