<?xml version="1.0" encoding="UTF-8"?> <!-- Generator: Adobe Illustrator 22.1.0, SVG Export Plug-In . SVG Version: 6.00 Build 0) --> <svg xmlns="http://www.w3.org/2000/svg" xmlns:xlink="http://www.w3.org/1999/xlink" id="Layer_1" x="0px" y="0px" viewBox="0 0 332.8 149.4" style="enable-background:new 0 0 332.8 149.4;" xml:space="preserve"> <style type="text/css"> .st0{fill:#FFFFFF;} .st1{fill:none;} .st2{enable-background:new ;} </style> <g> <g> <g> <path class="st0" d="M14.1,5.7h14.8c3.8,0,6.6,1,8.5,2.9s2.9,4.5,2.9,7.7c0,1.6-0.3,3.2-1.1,4.7c-0.4,0.7-1,1.4-1.7,2 c-0.8,0.7-1.7,1.3-2.8,1.8v0.1c2.1,0.6,3.6,1.7,4.7,3.4c1,1.8,1.5,3.7,1.5,5.7c0,3.4-1.1,6.1-3.1,8.1c-2,2.1-4.5,3.1-7.5,3.1 H14.1V5.7z M19.9,11v11.4h8.4c2.1,0,3.7-0.6,4.7-1.7s1.5-2.4,1.5-4s-0.5-3-1.5-4.1c-1-1-2.6-1.6-4.7-1.6C28.3,11,19.9,11,19.9,11 z M19.9,27.6v11.9h9c2.2,0,3.7-0.6,4.7-1.8s1.5-2.5,1.5-4.1s-0.5-3-1.5-4.2c-1-1.1-2.6-1.7-4.7-1.8 C28.9,27.6,19.9,27.6,19.9,27.6z"></path> <path class="st0" d="M47.5,5.7h5.4V38c0,1.3,0.7,1.9,2.1,1.9h1.9v5.3h-2.4c-2,0-3.6-0.5-4.9-1.5c-1.4-1-2-2.8-2-5.2L47.5,5.7 L47.5,5.7z"></path> <path class="st0" d="M61.8,17h5.4v16.8c0,1.9,0.5,3.4,1.6,4.5c1,1.1,2.3,1.6,3.9,1.6s2.9-0.5,3.9-1.6s1.5-2.6,1.5-4.5V17h5.4 v28.2h-5.4v-3H78c-1.8,2.2-4.1,3.3-7,3.3c-2.3,0-4.3-0.9-6.1-2.5c-2-1.6-3-4-3-7.2V17H61.8z"></path> <path class="st0" d="M94.8,33.2c0,2.3,0.6,4,1.9,5.2c1.2,1.2,2.7,1.8,4.6,1.8c2.2,0,4.2-0.9,5.9-2.8l3.9,3.5 c-2.8,3.1-6,4.6-9.8,4.5c-1.4,0-2.8-0.2-4.2-0.7c-0.7-0.2-1.3-0.5-2-0.9c-0.7-0.3-1.3-0.8-1.9-1.3c-1.2-1-2.1-2.5-2.8-4.4 c-0.8-1.8-1.2-4.2-1.2-7.1c0-2.8,0.3-5.1,1-6.9c0.7-1.9,1.5-3.4,2.6-4.4c1.1-1.1,2.3-1.9,3.6-2.4c1.3-0.5,2.6-0.7,3.9-0.7 c3.1,0,5.7,1.1,7.9,3.2c2.2,2.1,3.3,5,3.3,8.7v4.6H94.8V33.2z M106.3,28.6c-0.1-2.2-0.6-3.9-1.7-5s-2.4-1.6-4-1.6s-3,0.5-4,1.6 s-1.6,2.8-1.7,5H106.3z"></path> <path class="st0" d="M121.2,35.6c3.1,2.6,6.7,3.9,10.9,3.9c5-0.1,7.5-1.9,7.6-5.5c0-2.9-1.6-4.7-5-5.3c-1.5-0.2-3.2-0.5-5.1-0.7 c-3.3-0.6-5.8-1.8-7.5-3.8c-1.8-2-2.7-4.4-2.7-7.3c0-3.5,1.1-6.2,3.3-8.4c2.2-2.1,5.2-3.2,9.2-3.2c4.8,0.1,8.9,1.5,12.4,4.1 l-3.2,4.9c-2.9-2-6-3-9.5-3c-1.8,0-3.3,0.5-4.5,1.4c-1.2,1-1.9,2.4-1.9,4.3c0,1.1,0.4,2.2,1.3,3.1s2.2,1.6,4.1,2 c1.1,0.2,2.5,0.4,4.3,0.6c3.6,0.5,6.2,1.8,8,4c1.7,2.1,2.6,4.6,2.6,7.4c-0.2,7.6-4.7,11.4-13.4,11.5c-5.7,0-10.5-1.8-14.6-5.4 L121.2,35.6z"></path> <polygon class="st0" points="151.2,5.7 156.6,5.7 156.6,30.2 156.7,30.2 167.2,17 173.8,17 164.4,28 175.1,45.2 168.2,45.2 160.9,32 156.6,37 156.6,45.2 151.2,45.2 "></polygon> <path class="st0" d="M176,17h5.8l6.5,19.7h0.1l6.4-19.7h5.8l-11.7,34c-0.8,2.1-1.8,3.6-3.1,4.4c-1.3,0.8-2.9,1.2-4.6,1.2h-1.8 v-5.3h1.6c0.7,0,1.4-0.2,2-0.6c0.6-0.4,1-1,1.3-1.9l1.5-4.7L176,17z"></path> </g> </g> </g> <rect x="11.6" y="68.4" class="st1" width="216.9" height="32.9"></rect> <g class="st2"> <path class="st0" d="M27.1,70.2H16.5c-0.1,0-0.1,0-0.1,0.1v7.1c0,0.1,0,0.1,0.1,0.1h7.3c0.3,0,0.4,0.1,0.4,0.4v1 c0,0.3-0.1,0.4-0.4,0.4h-7.3c-0.1,0-0.1,0-0.1,0.1v7.2c0,0.1,0,0.1,0.1,0.1h10.5c0.3,0,0.4,0.1,0.4,0.4v1c0,0.3-0.1,0.4-0.4,0.4 H14.7c-0.3,0-0.4-0.1-0.4-0.4V68.7c0-0.3,0.1-0.4,0.4-0.4h12.3c0.3,0,0.4,0.1,0.4,0.4v1C27.5,70,27.3,70.2,27.1,70.2z"></path> <path class="st0" d="M30.3,88.5c0-0.1,0-0.2,0-0.3l6-9.6c0-0.1,0-0.1,0-0.2l-6-9.6c0-0.1-0.1-0.2-0.1-0.2c0-0.1,0-0.1,0.1-0.2 c0.1,0,0.1-0.1,0.2-0.1H32c0.2,0,0.3,0.1,0.4,0.3l5.1,8.1c0.1,0.1,0.1,0.1,0.2,0l5.1-8.1c0.1-0.2,0.3-0.3,0.4-0.3h1.4 c0.2,0,0.3,0.1,0.3,0.2c0,0.1,0,0.2-0.1,0.2l-6,9.6c0,0.1,0,0.1,0,0.2l6,9.5c0,0.1,0.1,0.2,0.1,0.2c0,0.1,0,0.1-0.1,0.2 c-0.1,0-0.1,0.1-0.2,0.1h-1.4c-0.2,0-0.3-0.1-0.4-0.3l-5.1-8.1c-0.1-0.1-0.1-0.1-0.2,0l-5.1,8.1c-0.1,0.2-0.3,0.3-0.4,0.3h-1.4 C30.4,88.6,30.3,88.6,30.3,88.5z"></path> <path class="st0" d="M60.5,69.9c1,1,1.5,2.4,1.5,4.1c0,1.7-0.5,3-1.6,4c-1.1,1-2.4,1.5-4.1,1.5h-5.6c-0.1,0-0.1,0-0.1,0.1v8.5 c0,0.3-0.1,0.4-0.4,0.4h-1.3c-0.3,0-0.4-0.1-0.4-0.4V68.7c0-0.2,0.1-0.4,0.4-0.4h7.5C58.1,68.3,59.4,68.9,60.5,69.9z M58.9,76.8 c0.7-0.7,1.1-1.6,1.1-2.8c0-1.2-0.4-2.1-1.1-2.8c-0.7-0.7-1.6-1.1-2.8-1.1h-5.5c-0.1,0-0.1,0-0.1,0.1v7.5c0,0.1,0,0.1,0.1,0.1h5.5 C57.3,77.9,58.2,77.5,58.9,76.8z"></path> <path class="st0" d="M78.5,70.2H68c-0.1,0-0.1,0-0.1,0.1v7.1c0,0.1,0,0.1,0.1,0.1h7.3c0.3,0,0.4,0.1,0.4,0.4v1 c0,0.3-0.1,0.4-0.4,0.4H68c-0.1,0-0.1,0-0.1,0.1v7.2c0,0.1,0,0.1,0.1,0.1h10.5c0.3,0,0.4,0.1,0.4,0.4v1c0,0.3-0.1,0.4-0.4,0.4H66.2 c-0.3,0-0.4-0.1-0.4-0.4V68.7c0-0.3,0.1-0.4,0.4-0.4h12.3c0.3,0,0.4,0.1,0.4,0.4v1C78.9,70,78.8,70.2,78.5,70.2z"></path> <path class="st0" d="M94.7,88.3l-4.2-8.9c0-0.1-0.1-0.1-0.2-0.1h-4.8c-0.1,0-0.1,0-0.1,0.1v8.8c0,0.3-0.1,0.4-0.4,0.4h-1.3 c-0.3,0-0.4-0.1-0.4-0.4V68.7c0-0.2,0.1-0.4,0.4-0.4h7.4c1.7,0,3,0.5,4,1.5c1,1,1.5,2.4,1.5,4c0,1.3-0.4,2.5-1.1,3.4 c-0.7,0.9-1.7,1.5-3,1.8c-0.1,0-0.1,0.1-0.1,0.2l4.3,8.8c0,0.1,0.1,0.1,0.1,0.2c0,0.2-0.1,0.3-0.3,0.3h-1.3 C95,88.6,94.8,88.5,94.7,88.3z M85.4,70.3v7.2c0,0.1,0,0.1,0.1,0.1h5.4c1.1,0,2-0.3,2.7-1c0.7-0.7,1-1.6,1-2.7s-0.3-2-1-2.7 c-0.7-0.7-1.6-1.1-2.7-1.1h-5.4C85.4,70.1,85.4,70.2,85.4,70.3z"></path> <path class="st0" d="M113.5,68.7v1.1c0,0.2-0.1,0.4-0.4,0.4h-5.6c-0.1,0-0.1,0-0.1,0.1v17.9c0,0.3-0.1,0.4-0.4,0.4h-1.3 c-0.3,0-0.4-0.1-0.4-0.4V70.3c0-0.1,0-0.1-0.1-0.1h-5.3c-0.3,0-0.4-0.1-0.4-0.4v-1.1c0-0.3,0.1-0.4,0.4-0.4h13.2 C113.3,68.4,113.5,68.5,113.5,68.7z"></path> <path class="st0" d="M119.6,88.2c-1.1-0.4-1.9-1.1-2.4-1.9s-0.9-1.8-0.9-2.8v-0.8c0-0.3,0.1-0.4,0.4-0.4h1.2c0.3,0,0.4,0.1,0.4,0.4 v0.7c0,1.1,0.5,2,1.4,2.7c0.9,0.7,2.2,1,3.7,1c1.5,0,2.6-0.3,3.4-0.9c0.8-0.6,1.2-1.5,1.2-2.5c0-0.7-0.2-1.3-0.5-1.7 c-0.4-0.5-0.9-0.9-1.6-1.4c-0.7-0.4-1.8-0.9-3.2-1.5c-1.4-0.6-2.6-1.1-3.4-1.5c-0.8-0.4-1.4-1-1.9-1.7c-0.5-0.7-0.7-1.5-0.7-2.6 c0-1.6,0.6-2.9,1.7-3.8s2.7-1.3,4.7-1.3c2.1,0,3.8,0.5,5,1.5c1.2,1,1.9,2.3,1.9,4v0.5c0,0.3-0.1,0.4-0.4,0.4h-1.3 c-0.3,0-0.4-0.1-0.4-0.4v-0.4c0-1.1-0.4-2-1.3-2.7s-2.1-1.1-3.7-1.1c-1.4,0-2.4,0.3-3.1,0.8c-0.7,0.6-1.1,1.4-1.1,2.4 c0,0.7,0.2,1.3,0.5,1.7c0.4,0.5,0.9,0.8,1.5,1.2c0.7,0.3,1.7,0.8,3.1,1.3c1.4,0.6,2.5,1.1,3.4,1.6c0.9,0.5,1.6,1.1,2.1,1.8 c0.5,0.7,0.8,1.6,0.8,2.6c0,1.6-0.6,2.9-1.8,3.9c-1.2,1-2.8,1.5-5,1.5C121.9,88.8,120.6,88.6,119.6,88.2z"></path> <path class="st0" d="M140.1,88.2V68.7c0-0.3,0.1-0.4,0.4-0.4h1.3c0.3,0,0.4,0.1,0.4,0.4v19.5c0,0.3-0.1,0.4-0.4,0.4h-1.3 C140.2,88.6,140.1,88.5,140.1,88.2z"></path> <path class="st0" d="M147.6,88.2V68.7c0-0.3,0.1-0.4,0.4-0.4h1.3c0.2,0,0.3,0.1,0.4,0.3l9.7,15.7c0,0.1,0.1,0.1,0.1,0.1 s0.1-0.1,0.1-0.1V68.7c0-0.3,0.1-0.4,0.4-0.4h1.3c0.3,0,0.4,0.1,0.4,0.4v19.5c0,0.3-0.1,0.4-0.4,0.4H160c-0.2,0-0.3-0.1-0.4-0.3 l-9.7-15.8c0-0.1-0.1-0.1-0.1-0.1c0,0-0.1,0.1-0.1,0.1l0,15.6c0,0.3-0.1,0.4-0.4,0.4H148C147.7,88.6,147.6,88.5,147.6,88.2z"></path> </g> <polygon class="st1" points="322.7,113 90.4,155.3 90.4,99.7 322.7,57.5 "></polygon> <g class="st2"> <path class="st0" d="M125.4,126.2c-0.1,0.1-0.1,0.1-0.2,0.2c-0.1,0.1-0.1,0.2-0.2,0.3c0,0.2-0.2,0.5-0.5,0.8 c-0.1,0.1-0.2,0.3-0.4,0.5c0,0.1-0.1,0.2-0.1,0.3v0l-0.1,0.3l0,0l0,0.1c-0.1,0.1-0.2,0.2-0.3,0.3s-0.2,0.2-0.3,0.3 c-0.2,0.2-0.4,0.4-0.5,0.5c-0.2,0.2-0.4,0.3-0.5,0.5c-0.1,0.1-0.1,0.1-0.2,0.2s-0.1,0.1-0.2,0.2c-0.1,0.1-0.2,0.2-0.2,0.2 c-0.1,0.1-0.2,0.2-0.3,0.2c-0.2,0.2-0.5,0.4-0.8,0.6c-0.3,0.2-0.6,0.4-0.8,0.6c-0.2,0.1-0.3,0.3-0.5,0.4c-0.2,0.1-0.3,0.2-0.5,0.4 c-0.1,0.1-0.1,0.1-0.1,0.1c0,0-0.1,0.1-0.1,0.1l-0.2,0.1c-0.1,0.1-0.2,0.2-0.4,0.3c-0.1,0.1-0.3,0.2-0.4,0.3 c-0.3,0.2-0.6,0.5-0.9,0.7c-0.3,0.2-0.6,0.5-0.9,0.8c-0.1,0.1-0.2,0.2-0.3,0.3c-0.1,0.1-0.3,0.2-0.4,0.3c-0.2,0.2-0.5,0.4-0.7,0.6 c-0.2,0.2-0.4,0.4-0.6,0.6c-0.3,0.3-0.7,0.6-1.3,0.8c-0.2,0.1-0.3,0.2-0.4,0.2c-0.1,0.1-0.2,0.1-0.3,0.2l-0.1,0 c-0.1,0-0.1,0.1-0.2,0.2c-0.1,0.1-0.2,0.2-0.2,0.3c-0.1,0.2-0.2,0.4-0.4,0.5c-0.2,0.1-0.4,0.2-0.7,0.4c-0.1,0-0.1,0.1-0.2,0.1 c-0.1,0-0.1,0.1-0.2,0.1c0,0-0.1,0.1-0.1,0.1c-0.1,0-0.1,0.1-0.2,0.1c-0.1,0-0.2,0.1-0.3,0.2c-0.5,0.5-1,0.7-1.6,0.7 c-0.1,0-0.2-0.1-0.4,0c-0.2,0-0.3,0.1-0.5,0.3c-0.2,0.1-0.3,0.2-0.5,0.3c-0.2,0-0.4,0.1-0.6,0.1c-0.2,0-0.3,0.1-0.5,0.1 c-0.2,0-0.3,0.1-0.5,0.2c-0.3,0.2-0.8,0.3-1.4,0.3l-0.5,0.1l-0.2,0l-0.1,0c-0.2,0-0.5-0.1-0.7-0.1c-0.2,0-0.5-0.1-0.7-0.1 c-0.5-0.1-1.1-0.1-1.6-0.2c-0.5-0.1-1-0.2-1.5-0.3c-0.5-0.1-1-0.3-1.4-0.6c-0.2,0-0.3-0.1-0.4-0.2c-0.1-0.1-0.2-0.2-0.4-0.3 c-0.1,0-0.1-0.1-0.2-0.1c0,0-0.1-0.1-0.2-0.1l0,0c0,0-0.1-0.1-0.1-0.1c0-0.1-0.1-0.1-0.2-0.1c-0.3,0-0.5-0.1-0.7-0.3 c-0.2-0.1-0.4-0.3-0.5-0.5c-0.2-0.2-0.4-0.4-0.8-0.6c0,0,0,0,0,0c0-0.3-0.1-0.5-0.3-0.7c-0.2-0.2-0.3-0.3-0.5-0.4l0,0 c-0.1,0-0.1-0.1-0.2-0.2c0-0.1-0.1-0.2-0.1-0.3c-0.1-0.1-0.1-0.2-0.1-0.2c0-0.1-0.1-0.2-0.1-0.2c-0.2-0.4-0.4-0.9-0.6-1.3 c-0.2-0.5-0.3-1.1-0.3-1.7c0-0.1,0-0.2,0-0.4c0-0.1,0-0.2,0-0.4c-0.1-0.4-0.1-0.8-0.2-1.2c0-0.4-0.1-0.8,0-1.3l0-0.1 c0.1-0.5,0.1-0.9,0.2-1.4c0-0.5,0.1-0.9,0.2-1.4c0.2-0.8,0.3-1.5,0.5-2.3c0.2-0.8,0.4-1.6,0.6-2.4c0.1-0.3,0.2-0.7,0.4-1 c0.2-0.3,0.3-0.7,0.5-1c0.1-0.2,0.2-0.4,0.3-0.6s0.2-0.4,0.2-0.6c0.1-0.2,0.1-0.3,0.1-0.4c0-0.1,0.1-0.3,0.1-0.4c0-0.1,0-0.1,0-0.2 c0,0,0-0.1,0-0.2c0,0,0-0.1,0-0.1c0,0,0,0,0-0.1c0.2-0.4,0.4-0.8,0.6-1.3c0.3-0.5,0.6-1,0.8-1.5c0.3-0.5,0.6-1,0.9-1.5 c0.7-1.1,1.4-2.3,2.2-3.5c0.8-1.2,1.6-2.4,2.5-3.7c0.2-0.4,0.5-0.7,0.8-1.1c0.3-0.3,0.6-0.7,0.9-1.1c0-0.1,0.1-0.1,0.1-0.2 c0-0.1,0.1-0.1,0.2-0.2c0.3-0.3,0.6-0.7,0.9-1c0.3-0.3,0.6-0.6,0.9-1c0.5-0.5,0.9-1,1.4-1.5c0.5-0.5,0.9-1.1,1.4-1.6 c0.3-0.4,0.6-0.7,1-1.1c0.3-0.3,0.7-0.7,1-1l1.1-1.2c0.4-0.4,0.8-0.7,1.2-1.1c0.4-0.4,0.7-0.7,1.1-1.1c0.1-0.1,0.2-0.2,0.3-0.3 c0.1-0.1,0.2-0.2,0.3-0.3c0.1-0.1,0.2-0.2,0.3-0.3c0.1-0.1,0.2-0.3,0.2-0.5v-0.1c0.2,0,0.3,0.1,0.4,0.1c0.1,0,0.3,0,0.4,0 c0.5-0.1,1.1,0,1.7,0.3c0.2,0.1,0.4,0.2,0.5,0.4c0.2,0.1,0.4,0.2,0.5,0.4c0.2,0.1,0.4,0.2,0.5,0.4c0.2,0.1,0.4,0.3,0.5,0.4 c0.1,0.3,0.3,0.5,0.5,0.7c0.2,0.2,0.4,0.4,0.6,0.6c0.2,0.1,0.3,0.2,0.4,0.4c0.1,0.1,0.2,0.3,0.3,0.4c0,0,0,0.1,0,0.1 c0,0,0,0.1,0,0.1c0.2,0.3,0.3,0.6,0.5,0.8c0.1,0.2,0.2,0.5,0.3,0.8c0,0.2,0,0.3,0,0.4c0,0.1,0.1,0.2,0.2,0.4 c0.1,0.1,0.1,0.2,0.1,0.2c0,0.1,0.1,0.1,0.1,0.2c0,0.3,0,0.5,0,0.8c0,0.3,0,0.5,0,0.8c0,0.1,0,0.2,0,0.3c0,0.1,0,0.2,0,0.3 c-0.1,0.1-0.1,0.2,0,0.3s0.1,0.1,0.1,0.2c0.1,0.1,0.1,0.3,0,0.6c0,0.1-0.1,0.2-0.1,0.3c0,0.1,0,0.2,0,0.3v0c0,0.1-0.1,0.2-0.1,0.3 c0,0.1,0,0.2,0.1,0.4c0,0,0,0.1,0,0.1c-0.2,0.1-0.4,0.3-0.4,0.5c-0.1,0.2-0.1,0.4-0.2,0.5c0,0,0,0.1,0,0.1s0,0,0,0.1 c-0.1,0.2-0.1,0.4-0.2,0.6c-0.1,0.2-0.2,0.4-0.2,0.7c-0.2,0.4-0.3,0.7-0.4,1c-0.1,0.3-0.2,0.6-0.4,1c-0.1,0.1-0.1,0.2-0.2,0.4 c-0.1,0.1-0.1,0.2-0.2,0.3c-0.1,0-0.1,0.1-0.1,0.1c0,0-0.1,0.1-0.1,0.1c-0.6,0-1,0.4-1.4,1.2c0,0,0,0.1-0.1,0.2 c-0.1,0.1-0.2,0.2-0.5,0.2c0,0-0.1,0-0.1,0c0,0-0.1,0-0.2-0.1c0.2-1,0.5-1.9,0.7-2.9c0.2-0.9,0.4-1.9,0.5-2.9 c0.1-0.5,0.1-1.1,0.1-1.8c0-0.7,0-1.2,0-1.8c0-0.2,0-0.4,0-0.6s0-0.4,0-0.6c0-0.3,0-0.5-0.1-0.7c-0.1-0.1-0.1-0.2-0.1-0.2 c0-0.1-0.1-0.1-0.1-0.2c0,0-0.1,0-0.2,0c-0.1,0-0.2,0-0.2,0l-0.2-0.4l-0.4,0.2c-0.1,0-0.1,0-0.1,0.1c-0.2,0.1-0.3,0.2-0.4,0.3 c-0.1,0.1-0.2,0.2-0.3,0.2s-0.2,0.2-0.3,0.2c-0.6,0.5-1.1,0.9-1.6,1.4c-0.5,0.5-1.1,1.1-1.6,1.6c-0.6,0.6-1.1,1.1-1.7,1.8 c-0.8,0.9-1.6,1.8-2.5,2.8c-0.2,0.2-0.4,0.5-0.5,0.8c-0.2,0.2-0.3,0.4-0.3,0.5c-0.1,0.1-0.1,0.1-0.2,0.2c-0.1,0.1-0.2,0.1-0.2,0.2 c-0.1,0.1-0.1,0.1-0.2,0.2s-0.2,0.2-0.3,0.3c-0.2,0.3-0.5,0.6-0.7,0.9c-0.2,0.3-0.5,0.6-0.7,0.9c-0.4,0.5-0.8,1.1-1.2,1.6 c-0.4,0.5-0.8,1.1-1.2,1.6l-0.1,0.1c-0.1,0.1-0.1,0.2-0.2,0.3l0,0.1c-0.1,0.1-0.1,0.2-0.1,0.3c-0.1,0.1-0.1,0.1-0.2,0.2 c0,0.1-0.1,0.1-0.2,0.2l0,0c-0.1,0.1-0.1,0.2-0.2,0.4c-0.1,0.2,0,0.3,0,0.4l0,0.1v0c-0.1,0.1-0.1,0.1-0.1,0.2c0,0-0.1,0.1-0.1,0.2 c-0.1,0.2-0.2,0.3-0.3,0.3c-0.2,0-0.4,0.1-0.5,0.3c-0.1,0.2-0.2,0.4-0.2,0.4c-0.1,0.2-0.1,0.3-0.1,0.4c0,0.1-0.1,0.3-0.1,0.4 c0,0.1-0.1,0.2-0.1,0.3c0,0.1-0.1,0.2-0.1,0.3v0c0,0,0,0,0,0.1c0,0,0,0,0,0.1c-0.2,0.2-0.4,0.3-0.5,0.5c-0.1,0.2-0.2,0.3-0.3,0.5 c-0.1,0.2-0.2,0.4-0.3,0.5c-0.1,0.1-0.1,0.2-0.2,0.3c-0.1,0.1-0.1,0.3,0,0.4c0,0.2-0.1,0.3-0.2,0.5c-0.1,0.1-0.1,0.3-0.2,0.4 c-0.1,0.1-0.1,0.3-0.1,0.4c0,0-0.1,0-0.1,0.1s-0.1,0.1-0.1,0.1c-0.1,0.1-0.1,0.1-0.1,0.2c0,0.1-0.1,0.2-0.1,0.2 c-0.1,0.2-0.1,0.3-0.1,0.4c0,0.1-0.1,0.2-0.1,0.4c-0.1,0.1-0.1,0.3-0.2,0.6c-0.1,0.2-0.1,0.3-0.2,0.5s-0.1,0.3-0.2,0.4 c-0.1,0.1-0.1,0.1-0.1,0.2c0,0.1-0.1,0.1-0.1,0.2c-0.2,0.3-0.3,0.6-0.5,0.9c-0.2,0.3-0.2,0.7-0.3,1.1c0,0.3-0.1,0.6-0.2,1 c-0.1,0.2-0.1,0.3-0.1,0.5c0,0.1-0.1,0.3-0.1,0.4c-0.3,1.5-0.5,2.9-0.7,4.2c0,0.2,0.1,0.5,0.2,0.9c0.2,0.4,0.2,0.7,0.3,0.9 c0.1,0.1,0.1,0.3,0.1,0.4c0,0.1,0,0.2,0,0.3c0.1,0.6,0.4,0.9,1,1c0.8,0,1.6,0.1,2.4,0c0.8,0,1.6-0.2,2.5-0.6 c0.2-0.1,0.4-0.2,0.6-0.2c0.2-0.1,0.4-0.1,0.5-0.2c0.3-0.1,0.5-0.2,0.8-0.3s0.5-0.2,0.8-0.3c0.2-0.1,0.3-0.2,0.5-0.2 c0.2-0.1,0.4-0.1,0.5-0.2c0.5-0.2,1-0.5,1.5-0.7c0.5-0.3,1-0.6,1.4-1c0.2-0.1,0.3-0.2,0.5-0.3c0.2-0.1,0.4-0.2,0.6-0.3 c0.1-0.1,0.2-0.2,0.4-0.2c0.1-0.1,0.2-0.1,0.4-0.2l0.2-0.1c0.6-0.3,1.1-0.7,1.7-1.1c0.6-0.4,1.1-0.7,1.7-1.1c0.7-0.5,1.4-1,2-1.5 c0.6-0.5,1.2-0.9,1.8-1.4c0.1-0.1,0.2-0.2,0.3-0.3c0.1-0.1,0.2-0.2,0.2-0.2c0.2,0.3,0.4,0.4,0.4,0.4c0.1,0,0.2-0.1,0.4-0.3 c0.1-0.1,0.1-0.1,0.2-0.1c0.1,0,0.1-0.1,0.2-0.1c0.1-0.1,0.2-0.2,0.4-0.2s0.2-0.1,0.3-0.2c0.2-0.3,0.5-0.5,0.8-0.7 c0.3-0.2,0.6-0.4,0.9-0.6c0.5-0.3,0.9-0.6,1.3-0.9c0.4-0.3,0.8-0.7,1.1-1c0-0.1,0-0.2,0-0.3c0.4,0.2,0.8,0.1,1.2-0.3 c0.2-0.2,0.3-0.2,0.3-0.3c-0.1,0-0.1,0,0,0.1c-0.2,0.3-0.5,0.5-0.8,0.8c-0.3,0.2-0.6,0.4-0.8,0.6c-0.1,0.1-0.2,0.1-0.2,0.2 c-0.1,0-0.2,0.1-0.2,0.2c-0.3,0.2-0.5,0.4-0.8,0.7c-0.3,0.2-0.5,0.5-0.8,0.7c-0.1,0.1-0.2,0.2-0.3,0.3c-0.1,0.1-0.2,0.2-0.3,0.3 c0,0-0.1,0-0.1,0.1c-0.3,0.2-0.6,0.3-0.9,0.5c-0.3,0.2-0.5,0.4-0.8,0.7c-0.4,0.3-0.7,0.6-1.1,0.9c-0.2,0.1-0.3,0.2-0.4,0.3 c-0.5,0.3-0.9,0.6-1.4,0.9c-0.3,0.2-0.5,0.4-0.8,0.6c-0.1,0.1-0.2,0.2-0.3,0.2c-0.1,0.1-0.2,0.2-0.3,0.2c-0.2,0.2-0.4,0.3-0.7,0.4 c0,0.1-0.1,0.1-0.3,0.2l-0.3,0.2l0.4,0.9l0.4-0.1l0.2,0c0.2,0,0.4-0.1,0.5-0.1c0.2-0.1,0.4-0.2,0.6-0.3s0.4-0.2,0.5-0.3 c0.1-0.1,0.3-0.2,0.4-0.3c0.2-0.1,0.2-0.3,0.2-0.5l0.1,0c0,0,0.1-0.1,0.1-0.1c0,0,0.1,0,0.1-0.1c0.5-0.3,1-0.6,1.4-0.9 c0.1-0.1,0.1-0.1,0.2-0.2c0.1,0,0.1-0.1,0.2-0.2c0.1-0.1,0.3-0.2,0.4-0.3c0.2-0.1,0.3-0.2,0.5-0.3c0.2-0.2,0.4-0.3,0.5-0.4 c0.2-0.1,0.4-0.3,0.6-0.4c0.3-0.2,0.6-0.5,0.9-0.7c0.3-0.2,0.6-0.5,0.9-0.7c0.1-0.1,0.1-0.1,0.2-0.2s0.1-0.1,0.2-0.2 c0,0,0.1,0,0.1,0c0,0,0,0,0.1,0c-0.1,0.1-0.2,0.2-0.3,0.3c-0.1,0.1-0.2,0.2-0.3,0.3c0,0,0,0.1,0,0.1c0.1,0,0.1,0,0.2,0 c0.1,0,0.1,0,0.1,0c0.2-0.2,0.5-0.4,0.7-0.6c0.2-0.2,0.5-0.4,0.7-0.6c0.2-0.1,0.3-0.2,0.4-0.3c0.1-0.1,0.2-0.2,0.4-0.3 c0.2-0.2,0.3-0.4,0.3-0.7c0.1,0,0.2-0.1,0.3-0.1c0.1,0,0.2-0.1,0.3-0.2c0.1-0.1,0.1-0.1,0.2-0.2c0.1-0.1,0.2-0.2,0.3-0.2l-0.1,0.1 c0.3-0.1,0.5-0.2,0.8-0.4c0.3-0.2,0.4-0.4,0.5-0.7c0.1-0.1,0.2-0.1,0.2-0.2l0.1,0.1c0.3,0,0.5-0.1,0.6-0.3s0.2-0.2,0.1-0.2 c0,0-0.1,0.1-0.3,0.3c-0.2,0.2-0.5,0.7-0.9,1.4c-0.3,0.4-0.7,0.7-1.1,1c-0.1,0.1-0.2,0.2-0.3,0.2 C125.7,126,125.6,126.1,125.4,126.2L125.4,126.2z M91.2,132c0.3-0.2,0.4-0.4,0.5-0.7c0-0.3-0.1-0.6-0.3-0.8c0,0.2-0.1,0.5-0.1,0.7 C91.3,131.4,91.2,131.7,91.2,132z M91.8,129.8c0.1-0.1,0.1-0.1,0.2-0.2c0-0.1,0.1-0.2,0.2-0.4l-0.5-0.1c-0.1,0.1-0.1,0.2-0.1,0.2 c0,0.1-0.1,0.2-0.1,0.2C91.5,129.7,91.6,129.8,91.8,129.8z M94.5,121.6c-0.3,0.2-0.5,0.4-0.6,0.6c-0.1,0.2,0,0.4,0.1,0.6 c0.3-0.3,0.4-0.5,0.5-0.6C94.6,122,94.5,121.8,94.5,121.6z M95.1,119.8c-0.1,0.2-0.2,0.4-0.2,0.6c-0.1,0.2-0.1,0.4-0.2,0.7 c0,0,0,0.1,0.1,0.1c0.3-0.6,0.7-1.2,1-1.8c0.3-0.6,0.6-1.2,1-1.8c0,0-0.1,0-0.1-0.1c0,0-0.1,0-0.1-0.1c-0.2,0.1-0.4,0.2-0.5,0.4 c-0.1,0.2-0.2,0.4-0.2,0.6c-0.1,0.2-0.2,0.4-0.4,0.6C95.3,119.4,95.2,119.6,95.1,119.8z M96.7,117.1c0,0,0,0.1,0,0.1 c0,0,0.1,0.1,0.1,0.1c0.1,0,0.1-0.1,0.2-0.1c0.1,0,0.1,0,0.1-0.1c0.2-0.3,0.3-0.5,0.4-0.8c0.1-0.1,0.1-0.2,0.1-0.2 c0-0.1,0-0.2,0-0.2c0,0-0.1,0-0.1-0.1c0,0-0.1,0-0.1-0.1c-0.2,0.2-0.3,0.5-0.4,0.7C96.9,116.7,96.8,116.9,96.7,117.1z M98.4,114.8 c-0.5,0.2-0.7,0.4-0.8,0.5c-0.1,0.1,0,0.3,0.2,0.6C98,115.4,98.2,115.1,98.4,114.8z M119.5,126.4c-0.1,0.2-0.2,0.3-0.4,0.5 c-0.1,0.1-0.3,0.3-0.4,0.4c-0.2,0.1-0.3,0.2-0.5,0.3c-0.2,0.1-0.3,0.2-0.5,0.3c0.1-0.1,0.1-0.1,0.2-0.2c0.1-0.1,0.1-0.1,0.2-0.2 c0.2-0.1,0.3-0.3,0.5-0.4c0.2-0.1,0.3-0.3,0.5-0.4c0.2-0.2,0.5-0.4,0.7-0.6c0.2-0.2,0.5-0.4,0.7-0.6c0.2-0.1,0.3-0.2,0.5-0.4 s0.3-0.3,0.5-0.4c0.2-0.2,0.3-0.3,0.3-0.3c0.1-0.1,0.3-0.3,0.4-0.3c0.2-0.1,0.4-0.3,0.6-0.5l0.2,0.2c-0.2,0-0.3,0.1-0.3,0.1 c-0.2,0.1-0.4,0.3-0.6,0.4c-0.2,0.1-0.4,0.3-0.6,0.5c-0.2,0.3-0.5,0.5-0.8,0.8c-0.3,0.3-0.5,0.5-0.8,0.8 C119.9,126,119.7,126.1,119.5,126.4z M125.6,122.6c-0.1,0.1-0.2,0.1-0.2,0.2c-0.1,0.1-0.1,0.1-0.2,0.2 C125.3,122.9,125.4,122.7,125.6,122.6z"></path> <path class="st0" d="M144.7,111.6c0.1,0.4,0.1,0.7,0,1.1c0,0.4-0.1,0.7-0.1,1.1c0,0.1,0,0.2,0,0.3c0,0.1,0,0.2,0,0.3 c-0.1,0.3-0.1,0.5-0.2,0.8c0,0.3-0.1,0.5-0.3,0.8c-0.1,0.3-0.2,0.5-0.3,0.7c-0.1,0.2-0.1,0.5,0,0.7c0.2,0.3,0.1,0.5,0,0.8 c-0.2,0.2-0.3,0.5-0.5,0.8c-0.2,0.3-0.3,0.7-0.4,1c-0.1,0.3-0.3,0.7-0.4,1c-0.1,0.1-0.1,0.1-0.2,0.2c0,0.1-0.1,0.1-0.2,0.2 c-0.2,0.3-0.4,0.7-0.6,1c-0.2,0.3-0.4,0.7-0.6,1c-0.2,0.3-0.4,0.6-0.6,0.8c-0.2,0.3-0.4,0.6-0.6,0.8c-0.1,0.1-0.1,0.2-0.1,0.2 c0,0.1-0.1,0.2-0.1,0.3c0,0-0.2,0.1-0.4,0.3c0.2,0.1,0.3,0.2,0.4,0.3c-0.3,0.4-0.7,0.8-1,1.2c-0.3,0.4-0.6,0.8-1,1.2 c-0.3,0.4-0.5,0.8-0.8,1.2c-0.3,0.4-0.5,0.8-0.8,1.2c-0.2,0.3-0.4,0.5-0.6,0.7c-0.2,0.2-0.4,0.5-0.7,0.7c-0.2,0.2-0.4,0.4-0.5,0.6 s-0.4,0.4-0.6,0.6c-0.3,0.3-0.7,0.6-1,0.9c-0.4,0.3-0.7,0.6-1,1c-0.3,0.4-0.7,0.6-1.1,0.7c-0.4,0.1-0.7,0.3-1.1,0.6 c-0.1,0.1-0.3,0.1-0.4,0.1c-0.2,0-0.3,0-0.5,0c-0.4-0.1-0.7-0.2-1-0.4c-0.2-0.1-0.3-0.1-0.5-0.1c-0.2,0-0.4,0-0.5-0.2 c-0.2-0.2-0.4-0.4-0.7-0.6c-0.2-0.2-0.5-0.4-0.7-0.6c-0.3-0.3-0.5-0.6-0.7-1c-0.2-0.3-0.4-0.7-0.5-1c-0.2-0.3-0.3-0.7-0.5-1.1 c-0.1-0.2-0.1-0.4-0.1-0.5c0-0.2-0.1-0.4-0.1-0.6c0-0.4,0-0.8,0-1.2c0-0.4,0-0.8,0.1-1.3s0.1-0.9,0.2-1.4c0.1-0.5,0.2-0.9,0.3-1.4 c0-0.1,0-0.1,0.1-0.2c0.1-0.1,0.1-0.1,0.1-0.1c0-0.2,0-0.3,0-0.4s0-0.2,0-0.3c0.3-1,0.6-1.9,0.9-2.8c0.1-0.3,0.2-0.6,0.3-0.9 c0.1-0.3,0.2-0.6,0.4-0.8c0.1-0.3,0.2-0.5,0.3-0.8s0.2-0.5,0.4-0.8c0.2-0.4,0.4-0.8,0.5-1.2c0.2-0.4,0.4-0.8,0.6-1.2 c0.5-1.1,1-2.2,1.6-3.2c0.2-0.3,0.3-0.5,0.4-0.8c0.1-0.3,0.3-0.5,0.4-0.8c0.1-0.1,0.1-0.2,0.1-0.3c0-0.1,0-0.2,0-0.2 c-0.2-0.2-0.3-0.3-0.5-0.2c-0.2,0.1-0.3,0.1-0.5,0.2c-0.2,0.1-0.3,0.2-0.5,0.2c-0.2-0.2-0.3-0.3-0.5-0.3c-0.2,0-0.5,0.1-0.8,0.3 c-0.3,0.2-0.6,0.3-1,0.3c-0.4,0.1-0.7,0.1-1,0c0.1-0.1,0.2-0.1,0.3-0.2c0.1-0.1,0.1-0.1,0.2-0.1c0.3,0,0.5-0.1,0.7-0.3 c0.2-0.2,0.3-0.4,0.5-0.6c0.1-0.1,0.1-0.1,0.2-0.2c0,0,0.1-0.1,0.2-0.2c0.6-0.4,1.2-0.7,1.7-1c0.6-0.3,1.1-0.6,1.7-0.9 c0.3-0.2,0.7-0.3,1-0.5c0.3-0.1,0.6-0.3,1-0.5c0.2-0.1,0.3-0.2,0.5-0.4s0.2-0.3,0.1-0.6c0.5-0.3,0.8-0.7,1.1-1.2 c0.3-0.5,0.6-0.9,0.9-1.3c0.2-0.3,0.5-0.6,0.7-0.8c0.2-0.3,0.4-0.6,0.7-0.9c0.2-0.1,0.3-0.2,0.5-0.2c0.2,0,0.3,0.1,0.4,0.2 c0,0.1,0.2,0.1,0.4,0.1c0.2,0,0.3,0,0.5,0c0.2,0,0.3,0,0.5,0c0,0,0,0.1-0.1,0.2c0.1,0.1,0.3,0.2,0.5,0.3c0.2,0.1,0.4,0.2,0.6,0.3 c0.2,0.1,0.3,0.3,0.4,0.6c0,0.1,0,0.1,0.1,0.2c0.2,0.1,0.3,0.2,0.3,0.4c0,0.2-0.1,0.3-0.1,0.5c-0.1,0.2-0.2,0.5-0.3,0.7 c-0.1,0.2-0.2,0.5-0.2,0.7c-0.1,0.1,0,0.2,0.2,0.3c0.4,0.2,0.8,0.4,1.2,0.6s0.8,0.4,1.2,0.6c0.3,0.1,0.5,0.3,0.7,0.5 c0.2,0.2,0.4,0.4,0.5,0.6c0.1,0,0.1,0.1,0.1,0.2s0,0.2,0,0.3c0.2-0.1,0.2-0.1,0.3,0c0,0.1,0.1,0.3,0.1,0.4c0.1,0.3,0.2,0.7,0.3,1 S144.7,111.2,144.7,111.6z M143,113.4c0-0.2,0-0.4,0.1-0.7s0-0.4-0.3-0.4c-0.1-0.4-0.1-0.7-0.2-1.1c-0.1-0.3-0.1-0.7-0.2-1 c0-0.2-0.1-0.4-0.2-0.6c-0.1-0.2-0.3-0.3-0.5-0.5v0.8c-0.1-0.1-0.2-0.2-0.2-0.2c-0.1-0.2-0.2-0.4-0.2-0.6c-0.1-0.2-0.2-0.4-0.4-0.6 c-0.2-0.2-0.4-0.3-0.6-0.4c-0.3-0.1-0.5-0.2-0.8-0.2c-0.3-0.1-0.6-0.1-0.9,0c-0.3,0-0.5,0.1-0.8,0.2c-0.1,0-0.2,0.1-0.2,0.2 c-0.3,0.4-0.5,0.8-0.8,1.1c-0.3,0.4-0.5,0.7-0.8,1.1c-0.3,0.4-0.6,0.9-0.9,1.3c-0.3,0.4-0.6,0.9-0.9,1.3c-0.2,0.2-0.3,0.4-0.4,0.5 c-0.1,0.2-0.2,0.4-0.3,0.5c-0.2,0.3-0.3,0.6-0.5,0.9c-0.2,0.3-0.3,0.6-0.5,0.9c-0.2,0.4-0.5,0.9-0.7,1.3c-0.2,0.4-0.4,0.9-0.7,1.3 c-0.1,0.2-0.2,0.4-0.3,0.6c-0.1,0.2-0.2,0.4-0.3,0.6c-0.2,0.5-0.5,1-0.7,1.5s-0.4,0.9-0.6,1.4c-0.2,0.3-0.3,0.7-0.4,1 c-0.1,0.3-0.2,0.7-0.4,1c-0.1,0.2-0.2,0.4-0.2,0.6c0,0.2-0.2,0.3-0.5,0.3c-0.1,0.4-0.1,0.7,0,1.1c0,0.4-0.1,0.7-0.6,1v0.1 c-0.1,0.3-0.1,0.7-0.2,1.1c-0.1,0.4-0.1,0.7-0.2,1.1c0,0.2-0.1,0.3-0.1,0.5c0,0.2-0.1,0.3-0.1,0.5c0,0.4,0,0.7,0,1.1 c0,0.4,0,0.7,0.1,1.1c0.1,0.3,0.2,0.4,0.5,0.3c0.3-0.2,0.7-0.4,1-0.6c0.3-0.2,0.6-0.4,0.9-0.6c0.4-0.3,0.7-0.6,1.1-1 c0.4-0.3,0.7-0.7,1-1c0.3-0.3,0.7-0.6,1-0.9c0.3-0.3,0.6-0.6,0.9-0.9c0.2-0.2,0.3-0.3,0.4-0.5c0.1-0.2,0.3-0.3,0.4-0.6 c0-0.1,0.1-0.3,0.2-0.4c0.1-0.1,0.3-0.2,0.4-0.2l0.5-0.1c0-0.1-0.1-0.2-0.1-0.2c0-0.1,0-0.2-0.1-0.2c0.1-0.1,0.1-0.2,0.2-0.3 c0.1-0.1,0.2-0.2,0.3-0.3c0.1-0.1,0.2-0.2,0.4-0.3c0.2-0.1,0.2-0.2,0.2-0.3c0-0.3,0.1-0.5,0.2-0.5c0.2,0,0.3,0,0.5-0.1 c-0.2,0.3-0.4,0.6-0.5,0.9c0.1,0.1,0.1,0.1,0.1,0.1c0.2-0.1,0.3-0.3,0.4-0.4c0.1-0.1,0.2-0.3,0.3-0.4c0.2-0.4,0.5-0.8,0.8-1.1 c0.3-0.3,0.6-0.7,0.8-1.1c0.2-0.3,0.3-0.5,0.6-0.7c0.2-0.2,0.4-0.5,0.5-0.8c0-0.1,0.1-0.3,0.2-0.4c0.2-0.3,0.3-0.5,0.5-0.8 c0.2-0.3,0.3-0.5,0.5-0.8c0.1-0.2,0.2-0.3,0.2-0.5c0.1-0.2,0.1-0.4,0.2-0.5c0.1-0.3,0.2-0.6,0.3-0.8c0,0,0.1-0.1,0.3-0.1 c0,0-0.1,0-0.1,0c0,0,0,0-0.1,0c0-0.1,0-0.2,0-0.3c0-0.1,0-0.2,0.1-0.3c0-0.1,0.1-0.2,0.1-0.3c0.1-0.1,0.1-0.2,0.2-0.4 c0.1-0.3,0.1-0.7,0.2-1C143,114,143,113.7,143,113.4z M128.3,109.9c0.3-0.2,0.7-0.5,1-0.7c-0.2,0-0.5,0-0.7,0.2 C128.4,109.6,128.3,109.8,128.3,109.9z M136.9,124.2c0.2-0.3,0.5-0.7,0.8-1c0.3-0.3,0.5-0.7,0.7-1c0,0,0.1,0,0.1,0c0,0,0,0,0.1,0 c-0.1,0.2-0.1,0.3-0.2,0.5c-0.1,0.2-0.2,0.3-0.3,0.5c-0.2,0.2-0.3,0.4-0.5,0.6C137.3,124,137.2,124.1,136.9,124.2 C137,124.3,136.9,124.3,136.9,124.2z M140.4,118.7c0,0.1-0.1,0.3-0.2,0.6c-0.1,0.3-0.3,0.6-0.5,1c-0.2,0.4-0.4,0.7-0.6,1 c-0.2,0.3-0.4,0.5-0.6,0.6c0.3-0.5,0.7-1.1,1-1.6S140.1,119.2,140.4,118.7z M141.8,113.2c0-0.2,0-0.4,0-0.5c0-0.2,0-0.4,0-0.6 c0,0,0.1,0,0.2,0c0,0.2,0,0.4,0,0.6s0,0.4,0,0.6L141.8,113.2z"></path> <path class="st0" d="M156.5,115.1c0.1,0,0.2,0,0.5,0.1c-0.2,0.3-0.4,0.6-0.6,0.9c-0.2,0.3-0.4,0.6-0.6,0.9 c-0.1,0.1-0.1,0.2-0.1,0.3c0,0.1,0,0.2-0.1,0.3c-0.2,0.4-0.4,0.7-0.5,1c-0.2,0.3-0.4,0.7-0.6,1.1c-0.1,0.2-0.1,0.3-0.2,0.5 c-0.1,0.1-0.2,0.3-0.3,0.5c-0.2,0.2-0.3,0.5-0.4,0.7s-0.2,0.4-0.3,0.7c-0.4,0.8-0.8,1.5-1.3,2.3c-0.4,0.8-0.8,1.5-1.3,2.3 c-0.2,0.5-0.4,0.8-0.7,1.1c-0.2,0.3-0.6,0.6-1,0.9c-0.1,0-0.1,0.1-0.2,0c-0.1,0-0.1,0-0.2-0.1c-0.1,0-0.2,0-0.3,0 c-0.1,0-0.2,0-0.3-0.1c-0.2,0-0.4-0.2-0.5-0.4c-0.1-0.2-0.2-0.4-0.2-0.6c-0.1-0.2-0.2-0.4-0.4-0.5c-0.1-0.1-0.1-0.2-0.1-0.4 s0-0.4,0-0.6c-0.1,0-0.2-0.1-0.2-0.3c-0.1-0.2-0.2-0.2-0.5,0l-0.1-0.1c0,0-0.1-0.1-0.1-0.2c-0.1-0.1-0.1-0.2-0.1-0.3 c0-0.1-0.1-0.2-0.1-0.3c0-0.1-0.1-0.2-0.1-0.3c0-0.1-0.1-0.2,0-0.2c0.2-0.5,0.4-1.1,0.5-1.6c0.2-0.5,0.3-1,0.5-1.6 c0.2-0.5,0.3-1.1,0.5-1.6c0.2-0.5,0.3-1,0.5-1.6c0.2-0.5,0.3-1.1,0.4-1.6c0.1-0.5,0.2-1,0.4-1.6c0.2-1,0.4-2,0.5-3 c0.2-1,0.3-2,0.5-3c0.2-1.3,0.2-2.6,0.2-4c0-0.5-0.1-1-0.2-1.4c-0.1-0.4-0.4-0.8-0.9-1c-0.3-0.2-0.4-0.5-0.2-0.9 c0.2,0,0.4-0.1,0.5-0.1c0.2,0,0.4,0,0.6,0c0.2,0,0.4-0.1,0.6-0.1c0.2,0,0.5,0.1,0.7,0.2c0.2,0.1,0.5,0.2,0.7,0.3 c0.1,0,0.3,0.1,0.5,0.2c0.1,0,0.1,0,0.1,0c0.2,0.3,0.5,0.7,0.9,0.9c0.3,0.3,0.6,0.7,0.6,1.2c0,0.2,0,0.5,0.1,0.7 c0.1,0.2,0.1,0.4,0.2,0.7c0.1,0.3,0.1,0.7,0.1,1c0,0.3,0.1,0.7,0.1,1c0,0.3,0,0.5,0,0.8c0,0.3,0,0.5,0,0.8c0,0.2,0,0.3,0,0.4 c0,0.1,0,0.3-0.1,0.4c-0.1,0.3-0.1,0.6-0.1,0.9c0,0.3-0.1,0.6-0.1,0.9c0,0.1,0,0.2-0.1,0.2c-0.3,0.1-0.4,0.2-0.4,0.3 c0,0.1,0.1,0.2,0.1,0.4c0,0.2,0,0.4,0,0.7c0,0,0,0.1,0,0.1c0,0,0,0,0,0.1c0.1,0.2,0.1,0.4-0.1,0.5s-0.3,0.2-0.5,0.3 c0.2,0.2,0.4,0.3,0.4,0.5s-0.1,0.4-0.2,0.7c-0.1,0.1-0.1,0.2-0.1,0.3c0,0.1,0,0.2-0.1,0.3c-0.1,0.1-0.1,0.3-0.2,0.4 s-0.1,0.3-0.2,0.5c-0.1,0.2-0.1,0.4-0.1,0.7c0,0.5-0.1,0.9-0.3,1.4c-0.2,0.2-0.2,0.5-0.3,0.8c0,0.3-0.1,0.5-0.1,0.8 c0,0,0.1,0,0.1,0c0,0,0.1,0,0.1,0c0.2-0.3,0.4-0.6,0.6-0.9c0.3-0.6,0.7-1.2,1-1.7c0.3-0.6,0.7-1.2,1-1.7c0.2-0.4,0.5-0.9,0.7-1.3 c0.2-0.4,0.5-0.9,0.7-1.3c0.2-0.3,0.4-0.7,0.6-1c0.2-0.3,0.4-0.7,0.6-1c0.1-0.1,0.1-0.1,0.1-0.2c0,0,0.1-0.1,0.1-0.2l0.1,0.1 c-0.3,0.6-0.7,1.2-1,1.7c-0.3,0.6-0.7,1.2-1,1.8c0.1-0.1,0.3-0.2,0.4-0.3c0.2-0.2,0.3-0.3,0.5-0.5c0.1-0.2,0.3-0.4,0.4-0.5 c0.1-0.2,0.2-0.3,0.2-0.4c0.1-0.1,0.1-0.2,0.2-0.3c0.1-0.1,0.1-0.2,0.2-0.3c0.2-0.3,0.4-0.5,0.5-0.7c0.2-0.2,0.3-0.5,0.5-0.7 c0.2-0.2,0.3-0.5,0.5-0.7c0.2-0.2,0.3-0.5,0.5-0.7c0.1-0.1,0.1-0.2,0.2-0.3c0.1-0.1,0.2-0.2,0.3-0.3c0.1-0.2,0.2-0.3,0.3-0.5 c0.1-0.2,0.2-0.3,0.3-0.5c0.2-0.3,0.5-0.7,0.7-1c0.2-0.3,0.4-0.6,0.7-1c0.3-0.4,0.5-0.8,0.8-1.2c0.3-0.4,0.5-0.8,0.7-1.2 c0.1-0.1,0.2-0.2,0.3-0.2c0.1-0.1,0.2-0.2,0.3-0.3c0.2-0.3,0.5-0.7,0.7-1s0.5-0.7,0.8-1l0.7-0.9c0.1-0.1,0.1-0.1,0.2-0.1 c0.1,0,0.1,0,0.2-0.1c0,0.1,0,0.1,0.1,0.1c-0.1,0.2-0.2,0.3-0.3,0.5c-0.1,0.1-0.2,0.3-0.3,0.4c-0.3,0.4-0.6,0.8-0.8,1.2 c-0.3,0.4-0.6,0.8-0.8,1.2c-0.3,0.4-0.5,0.8-0.8,1.2c-0.3,0.4-0.6,0.8-0.9,1.2c-0.2,0.3-0.3,0.5-0.5,0.8s-0.3,0.5-0.5,0.8 c-0.3,0.5-0.6,0.9-0.8,1.4c-0.3,0.4-0.5,0.9-0.8,1.4c-0.2,0.3-0.4,0.6-0.6,0.9c-0.2,0.3-0.4,0.6-0.6,0.9c-0.1,0.1-0.2,0.3-0.3,0.5 c-0.3,0.5-0.6,0.9-0.8,1.4C157.1,114.2,156.8,114.7,156.5,115.1z M182.9,106.6c-0.1,0.2-0.1,0.5-0.2,0.7c0,0.1,0,0.1,0,0.1 c0,0-0.1,0.1-0.1,0.2l-1.1,2c-0.2,0.4-0.4,0.7-0.6,1.1c-0.2,0.3-0.4,0.7-0.6,1.1c-0.2,0.3-0.4,0.7-0.5,1c-0.2,0.3-0.3,0.6-0.5,1 c-0.2,0.3-0.3,0.6-0.5,0.9c-0.2,0.3-0.3,0.6-0.5,1c-0.1,0.2-0.2,0.3-0.2,0.5s-0.1,0.4-0.2,0.6c-0.1,0.1-0.2,0.1-0.4,0.1 c0,0.1,0.1,0.3,0.1,0.4c0,0.1,0,0.3,0,0.4c0,0.1,0,0.1-0.1,0.2c-0.1,0.1-0.2,0.1-0.2,0.2c-0.1,0.2-0.2,0.5-0.3,0.7 c-0.1,0.2-0.2,0.4-0.5,0.6c-0.1,0-0.1,0.1-0.1,0.2c0,0.1,0,0.2,0,0.3c-0.2,0.4-0.4,0.8-0.5,1.2s-0.3,0.8-0.5,1.2 c-0.1,0.2-0.2,0.4-0.2,0.7c-0.1,0.2-0.1,0.4-0.2,0.6v0.2c-0.2,0.2-0.4,0.5-0.4,0.8c0,0.3-0.1,0.5-0.2,0.8c-0.1,0.4-0.2,0.7-0.4,1.1 c-0.1,0.4-0.3,0.7-0.4,1.1c-0.1,0.3-0.2,0.6-0.2,1c-0.1,0.3-0.1,0.6-0.2,1c0,0.2-0.1,0.3-0.1,0.5c0,0.2,0,0.3,0,0.5 c0,0.1,0,0.3,0,0.5c-0.1,0-0.1,0.1-0.2,0.1s-0.1,0.1-0.2,0.1c0.1,0.4,0.1,0.8,0.2,1.3c0,0.4-0.1,0.9-0.3,1.3 c0.1,0.1,0.2,0.2,0.2,0.3c0.1,0.1,0,0.3-0.1,0.5c-0.1,0.1-0.1,0.2,0,0.3c0,0.1,0.2,0.2,0.4,0.2c0.1,0,0.2,0.1,0.3,0.1 c0.1,0.1,0.2,0.1,0.2,0.2c0,0.1,0,0.2-0.1,0.3c-0.1,0.1-0.2,0.1-0.2,0.2c-0.1,0.1-0.1,0.1-0.2,0.2c0,0.1,0,0.2,0,0.4 c-0.3,0-0.6,0-0.8,0c-0.3,0-0.5-0.1-0.7-0.2c-0.3-0.2-0.6-0.5-0.9-0.8c-0.3-0.3-0.5-0.6-0.7-0.9c-0.2-0.3-0.3-0.6-0.4-1 s-0.2-0.7-0.3-1c-0.1-0.4-0.1-0.8-0.1-1.2c0-0.7,0-1.4,0.1-2c0-0.7,0.1-1.3,0.3-2c0-0.1,0-0.3,0-0.4c-0.1-0.1-0.1-0.3,0-0.4 c0.1-0.3,0.2-0.5,0.3-0.8c0.1-0.3,0.2-0.6,0.3-0.8c0.1-0.2,0.1-0.4,0.2-0.6s0.1-0.4,0.2-0.6c0.2-0.7,0.5-1.4,0.7-2.1 c0.2-0.7,0.4-1.4,0.7-2.1c0.3-0.8,0.6-1.6,0.8-2.4c0.3-0.8,0.6-1.6,0.9-2.5c0.6-1.7,1.2-3.4,1.9-5.1c0.3-0.7,0.6-1.4,0.9-2.1 s0.6-1.4,1-2.2c0.1-0.1,0.1-0.2,0.1-0.3c0-0.2,0-0.2-0.1-0.3c-0.1,0-0.2,0-0.3,0.1c-0.3,0.4-0.7,0.7-1,1.1s-0.7,0.7-1,1.1 c-0.6,0.6-1.1,1.3-1.6,2.1c0,0-0.1,0.1-0.1,0.1c0,0-0.1,0-0.1,0.1c-0.3,0.2-0.6,0.5-0.8,0.8c-0.2,0.3-0.4,0.6-0.6,0.9 c-0.1,0.2-0.2,0.3-0.3,0.4c-0.1,0.1-0.2,0.3-0.4,0.4c-0.2,0.2-0.3,0.5-0.5,0.7c-0.2,0.2-0.3,0.5-0.5,0.7c-0.1,0.1-0.1,0.2,0,0.2 c0.1,0.2,0.1,0.4-0.1,0.6c-0.2,0.2-0.3,0.4-0.4,0.5c-0.2,0.2-0.3,0.5-0.5,0.7c-0.2,0.2-0.3,0.4-0.5,0.7c-0.2,0.2-0.3,0.4-0.4,0.7 c-0.1,0.2-0.2,0.5-0.4,0.7c-0.2,0.4-0.4,0.7-0.6,1.1c-0.2,0.4-0.4,0.7-0.6,1.1c-0.2,0.2-0.3,0.5-0.4,0.7c-0.1,0.2-0.3,0.5-0.4,0.8 c0,0,0,0.1,0,0.1s0,0,0,0.1c-0.3,0.4-0.5,0.7-0.7,1.1s-0.3,0.8-0.5,1.2c-0.2,0.4-0.4,0.8-0.6,1.2c-0.2,0.4-0.4,0.8-0.6,1.2 c-0.2,0.4-0.4,0.8-0.6,1.2c-0.2,0.4-0.4,0.8-0.6,1.2c-0.1,0.3-0.2,0.5-0.3,0.8c-0.1,0.3-0.2,0.5-0.4,0.7c-0.2,0.2-0.3,0.5-0.5,0.7 c-0.2,0.2-0.3,0.4-0.5,0.6c0,0.1-0.1,0.1-0.1,0.2c0,0-0.1,0.1-0.1,0.2v0c-0.1,0.1-0.1,0.2-0.2,0.3c-0.1,0.1-0.2,0.2-0.2,0.4 c-0.1,0-0.3,0-0.5,0c-0.2,0-0.3,0-0.5-0.1c-0.2-0.1-0.5-0.2-0.7-0.4c-0.2-0.2-0.4-0.4-0.5-0.6c-0.1-0.3-0.3-0.6-0.4-0.9 c-0.2-0.3-0.1-0.6,0.1-1l-0.4,0.1c0-0.1-0.1-0.3-0.1-0.4c0-0.1,0-0.3,0-0.4c0-0.2,0-0.3,0-0.5s0-0.3,0-0.5c0-0.2,0.1-0.4,0.1-0.6 c0-0.2,0.1-0.4,0.1-0.6c0.1-0.2,0.1-0.4,0.1-0.6c0-0.2,0-0.4,0.1-0.6c0.3-1,0.5-2,0.8-3c0.3-1,0.5-2,0.8-3c0.1-0.1,0.2-0.4,0.3-0.7 c0.2-0.7,0.5-1.3,0.7-1.9c0.2-0.6,0.5-1.3,0.7-1.9c0.2-0.6,0.4-1.1,0.6-1.6c0.2-0.5,0.4-1.1,0.7-1.6c0.3-0.8,0.7-1.6,1-2.4 c0.3-0.8,0.7-1.6,1-2.4c0.3-0.6,0.5-1.2,0.8-1.8c0.3-0.6,0.5-1.2,0.8-1.8c0.3-0.6,0.6-1.2,0.8-1.8c0.3-0.6,0.6-1.2,0.8-1.8 c0.1-0.1,0.1-0.3,0.2-0.4c0.1-0.1,0.2-0.3,0.2-0.4c0.1-0.3,0.2-0.5,0.2-0.6c-0.3,0.2-0.6,0.5-0.8,0.8c-0.2,0.3-0.5,0.6-0.7,1 c0,0-0.1,0-0.1,0c0,0,0,0-0.1,0c0.1-0.1,0.1-0.3,0.2-0.4c0.1-0.1,0.1-0.3,0.2-0.4c0.4-0.4,0.7-0.8,1.1-1.2c0.4-0.4,0.7-0.8,1.1-1.3 c0.2-0.2,0.3-0.4,0.4-0.6c0.1-0.2,0.2-0.4,0.3-0.6c0.2-0.3,0.3-0.5,0.6-0.5c0.2,0,0.4,0,0.5,0.1c0.2,0,0.4,0,0.6,0 c0.2-0.2,0.4-0.2,0.6-0.1c0.2,0.2,0.3,0.3,0.5,0.5c0.2,0.2,0.5,0.4,0.8,0.6c0.1,0.1,0.1,0.1,0.1,0.2c0.1,0.4,0.2,0.8,0.5,1.2 c0.2,0.4,0.3,0.8,0.2,1.3c-0.1,0.3-0.2,0.6-0.5,1c-0.2,0.3-0.4,0.6-0.6,0.8c-0.2,0.3-0.4,0.6-0.5,0.8c-0.2,0.2-0.3,0.5-0.4,0.7 c-0.1,0.2-0.3,0.5-0.4,0.7c-0.1,0.1-0.1,0.2-0.2,0.3c0,0.1-0.1,0.2-0.2,0.3c-0.3,0.2-0.5,0.4-0.6,0.7c-0.1,0.3-0.1,0.5-0.2,0.8 c0,0.1,0,0.2-0.1,0.3c-0.2,0.2-0.4,0.4-0.5,0.6c-0.1,0.2-0.2,0.4-0.3,0.7c-0.1,0.3-0.3,0.5-0.5,0.8c-0.2,0.3-0.3,0.5-0.5,0.8 c-0.2,0.3-0.3,0.5-0.4,0.8c-0.1,0.3-0.2,0.6-0.4,0.9c-0.2,0.3-0.3,0.6-0.4,0.9c-0.1,0.3-0.3,0.6-0.4,1c0,0.1-0.1,0.1-0.1,0.2 c0,0,0,0.1-0.1,0.1c-0.2,0.2-0.4,0.4-0.5,0.6c-0.1,0.2-0.1,0.4-0.2,0.6c0,0.1-0.2,0.2-0.4,0.4c0,0.1,0.1,0.1,0.1,0.1 c0,0,0,0.1,0.1,0.1c-0.1,0.1-0.1,0.2-0.2,0.3c-0.1,0.1-0.2,0.3-0.2,0.4c0,0.1-0.1,0.1-0.1,0.2c0,0.1,0,0.2,0,0.2 c-0.1,0.2-0.1,0.3-0.2,0.5s-0.2,0.2-0.4,0.2c0.2,0.4,0.1,0.8-0.3,1.1c-0.1,0.1-0.1,0.2-0.1,0.3s0,0.3-0.1,0.4 c-0.1,0.1-0.1,0.2-0.2,0.3c-0.1,0.1-0.1,0.2-0.2,0.2c-0.2,0-0.4,0-0.4,0.1c0,0.1,0,0.2,0.1,0.3c-0.1,0.1-0.2,0.2-0.3,0.2 c-0.1,0.1-0.2,0.2-0.3,0.2c0.1,0,0.2,0.1,0.2,0.2c0.1,0.1,0.2,0.1,0.2,0.2c0,0.1-0.1,0.2-0.1,0.3c0,0.1-0.1,0.2-0.1,0.4l0,0 c0,0-0.1,0-0.1,0c0,0,0,0-0.1,0c-0.2,0.1-0.2,0.2-0.3,0.2c0,0,0,0.1,0,0.1c0,0.1,0.1,0.1,0.1,0.1c0.2,0.1,0.2,0.3,0,0.6 c-0.2,0.2-0.4,0.5-0.4,0.8c0,0.3-0.1,0.6-0.2,0.8c0,0.1-0.1,0.1-0.1,0.2c0,0.1-0.1,0.2-0.1,0.2c-0.2,0.2-0.4,0.5-0.5,0.7 c-0.1,0.3-0.2,0.5-0.3,0.8c0,0,0,0.1,0.1,0.3c0.1-0.2,0.2-0.3,0.2-0.4c0.1-0.1,0.1-0.2,0.2-0.4c0.2-0.2,0.3-0.5,0.4-0.7 c0.1-0.2,0.2-0.4,0.4-0.7c0.2-0.3,0.3-0.5,0.5-0.8c0.2-0.3,0.3-0.5,0.5-0.8c0.1-0.2,0.2-0.3,0.3-0.5c0.1-0.1,0.2-0.3,0.2-0.5 c0.2-0.3,0.3-0.6,0.4-0.9s0.3-0.6,0.5-0.8c0.2-0.3,0.4-0.5,0.5-0.8c0.1-0.3,0.2-0.5,0.4-0.8c0.2-0.3,0.4-0.5,0.5-0.8 c0.2-0.3,0.3-0.5,0.5-0.8c0.1-0.1,0.2-0.2,0.3-0.3s0.3-0.1,0.4,0c0.1,0,0.1,0,0.2,0s0.1-0.1,0.1-0.2c0.1-0.2,0.2-0.4,0.3-0.5 s0.3-0.3,0.4-0.4c0.2-0.2,0.3-0.4,0.5-0.6c0.1-0.2,0.3-0.4,0.4-0.6c0,0,0.1-0.1,0.1-0.1c0,0,0.1-0.1,0.1-0.2 c0.1-0.2,0.2-0.3,0.3-0.4s0.3,0,0.5,0.2c-0.2-0.2-0.3-0.4-0.2-0.6c0.1-0.2,0.3-0.3,0.4-0.5c0.4-0.4,0.7-0.8,1.1-1.2 s0.7-0.8,1.1-1.3c0.2-0.3,0.4-0.5,0.6-0.8c0.2-0.2,0.4-0.5,0.7-0.8c0.1-0.1,0.2-0.2,0.3-0.3c0.1-0.1,0.2-0.2,0.4-0.3 c0.1-0.1,0.2-0.2,0.4-0.4c0.1-0.1,0.1-0.1,0.2-0.2c0.1-0.1,0.2-0.1,0.3,0l0.3-0.1c-0.1,0-0.1-0.1-0.2-0.1c-0.1,0-0.1-0.1-0.2-0.1 c0.1-0.1,0.2-0.2,0.3-0.4c-0.1,0-0.1,0-0.2,0c-0.1,0-0.1,0-0.2-0.1l1-0.2c0,0,0-0.1,0-0.1c-0.2-0.1-0.3-0.2-0.5-0.2 c0.1,0,0.1-0.1,0.2-0.1c0-0.1,0.1-0.1,0.2-0.1c0.2,0,0.4-0.1,0.6-0.2s0.3-0.3,0.4-0.5c0.3-0.4,0.7-0.6,1-0.5c0.1,0,0.3,0,0.6,0 c0.1,0,0.1,0,0.2,0c0.1,0,0.1,0.1,0.1,0.2c0,0,0,0.1,0.1,0.1c0.1,0,0.1,0,0.2,0c0.3-0.1,0.6-0.1,0.7,0c0.2,0.2,0.4,0.3,0.6,0.4 c0.2,0.1,0.3,0.3,0.4,0.5c0.1,0.2,0.2,0.3,0.4,0.5c0.3,0.2,0.4,0.5,0.5,0.8c0,0.3,0.1,0.6,0.1,0.9v0.2 C182.9,106.1,183,106.3,182.9,106.6z M157.5,110.8C157.5,110.8,157.5,110.8,157.5,110.8c0-0.1-0.1-0.1-0.1-0.1 c0.1-0.1,0.2-0.3,0.3-0.4c0.1-0.1,0.2-0.3,0.3-0.5l0.1,0.1L157.5,110.8z M158.3,127.2c0.1-0.4,0.2-0.8,0.3-1.1 c-0.2,0-0.4,0.1-0.5,0.1c0,0-0.1,0-0.1,0.1s0,0.1,0,0.2c-0.1,0.3-0.1,0.5-0.1,0.8c0,0.3,0,0.5-0.1,0.9c0.2-0.1,0.3-0.2,0.3-0.4 C158.2,127.5,158.2,127.3,158.3,127.2z M159.3,123c0.2-0.2,0.2-0.4-0.1-0.6c-0.1,0.2-0.2,0.3-0.2,0.4c0.1,0.1,0,0.3,0,0.3 c-0.1,0.1-0.2,0.2-0.2,0.3c-0.2,0.2-0.2,0.4-0.2,0.7c0,0.2,0,0.4-0.1,0.6c-0.1,0.2-0.1,0.4-0.2,0.6c0,0.1,0,0.1,0,0.2 c0,0.1,0.1,0.2,0.1,0.3c0.2-0.2,0.3-0.4,0.3-0.6c0.1-0.2,0.1-0.3,0.2-0.5v-0.2c0-0.2,0-0.5,0-0.8C158.9,123.6,159,123.3,159.3,123z M159.7,120.8c0.2-0.1,0.2-0.2,0.3-0.2c0.1-0.2,0.2-0.5,0.2-0.7c0,0,0-0.1-0.1-0.3c-0.1,0-0.1,0-0.1,0.1l-0.4,0.9 C159.6,120.5,159.6,120.6,159.7,120.8z M160.3,124.8c0.1-0.2,0.1-0.3,0.2-0.4c0.1-0.1,0.1-0.2,0.2-0.3l-0.2-0.2 c-0.1,0.1-0.1,0.2-0.2,0.3c0,0.1-0.1,0.2-0.2,0.3C160.2,124.6,160.2,124.6,160.3,124.8z M161.4,121.3c0.1-0.2,0.2-0.4,0.3-0.5 c0.1-0.2,0.1-0.3,0.2-0.5C161.3,120.5,161.2,120.9,161.4,121.3z M169.1,111.9c0.1-0.2,0.2-0.3,0.4-0.5c0.1-0.1,0.3-0.3,0.5-0.5 c0,0.1,0,0.2,0,0.3s0,0.2-0.1,0.2c-0.1,0.2-0.3,0.3-0.4,0.5c-0.2,0.1-0.3,0.3-0.4,0.5c-0.2,0.2-0.3,0.5-0.5,0.7 c-0.2,0.2-0.3,0.5-0.5,0.7c-0.1,0.1-0.2,0.2-0.3,0.3v-0.2c0.2-0.3,0.5-0.7,0.7-1C168.6,112.5,168.8,112.2,169.1,111.9z M170.8,109.5c-0.1,0.6-0.3,1-0.9,1.1c0.2-0.2,0.3-0.4,0.5-0.6C170.5,109.9,170.7,109.7,170.8,109.5z M172,108.4 c-0.1,0-0.1-0.1-0.1-0.2c0.2-0.1,0.3-0.2,0.4-0.4c0.1-0.1,0.2-0.2,0.3-0.4l0.1,0.1c-0.1,0.1-0.2,0.3-0.3,0.4S172.2,108.3,172,108.4 z"></path> <path class="st0" d="M193.6,108.4c0.1,0,0.2,0,0.5,0.1c-0.2,0.3-0.4,0.6-0.6,0.9c-0.2,0.3-0.4,0.6-0.6,0.9 c-0.1,0.1-0.1,0.2-0.1,0.3c0,0.1,0,0.2-0.1,0.3c-0.2,0.4-0.4,0.7-0.5,1c-0.2,0.3-0.4,0.7-0.6,1.1c-0.1,0.2-0.1,0.3-0.2,0.5 c-0.1,0.1-0.2,0.3-0.3,0.5c-0.2,0.2-0.3,0.5-0.4,0.7c-0.1,0.2-0.2,0.4-0.3,0.7c-0.4,0.8-0.8,1.5-1.3,2.3c-0.4,0.8-0.8,1.5-1.3,2.3 c-0.2,0.5-0.4,0.8-0.7,1.1s-0.6,0.6-1,0.9c-0.1,0-0.1,0.1-0.2,0s-0.1,0-0.2-0.1c-0.1,0-0.2,0-0.3,0c-0.1,0-0.2,0-0.3-0.1 c-0.2,0-0.4-0.2-0.5-0.4c-0.1-0.2-0.2-0.4-0.2-0.6c-0.1-0.2-0.2-0.4-0.4-0.5c-0.1-0.1-0.1-0.2-0.1-0.4c0-0.2,0-0.4,0-0.6 c-0.1,0-0.2-0.1-0.2-0.3c-0.1-0.2-0.2-0.2-0.5,0l-0.1-0.1c0,0-0.1-0.1-0.1-0.2c-0.1-0.1-0.1-0.2-0.1-0.3c0-0.1-0.1-0.2-0.1-0.3 c0-0.1-0.1-0.2-0.1-0.3c0-0.1-0.1-0.2,0-0.2c0.2-0.5,0.4-1.1,0.5-1.6c0.2-0.5,0.3-1,0.5-1.6c0.2-0.5,0.3-1.1,0.5-1.6 c0.2-0.5,0.3-1,0.5-1.6s0.3-1.1,0.4-1.6c0.1-0.5,0.2-1,0.4-1.6c0.2-1,0.4-2,0.5-3c0.2-1,0.3-2,0.5-3c0.2-1.3,0.2-2.6,0.2-4 c0-0.5-0.1-1-0.2-1.4c-0.1-0.4-0.4-0.8-0.9-1c-0.3-0.2-0.4-0.5-0.2-0.9c0.2,0,0.4-0.1,0.5-0.1c0.2,0,0.4,0,0.6,0 c0.2,0,0.4-0.1,0.6-0.1c0.2,0,0.5,0.1,0.7,0.2c0.2,0.1,0.5,0.2,0.7,0.3c0.1,0,0.3,0.1,0.5,0.2c0.1,0,0.1,0,0.1,0 c0.2,0.3,0.5,0.7,0.9,0.9c0.3,0.3,0.6,0.7,0.6,1.2c0,0.2,0,0.5,0.1,0.7c0.1,0.2,0.1,0.4,0.2,0.7c0.1,0.3,0.1,0.7,0.1,1 c0,0.3,0.1,0.7,0.1,1c0,0.3,0,0.5,0,0.8s0,0.5,0,0.8c0,0.2,0,0.3,0,0.4c0,0.1,0,0.3-0.1,0.4c-0.1,0.3-0.1,0.6-0.1,0.9 c0,0.3-0.1,0.6-0.1,0.9c0,0.1,0,0.2-0.1,0.2c-0.3,0.1-0.4,0.2-0.4,0.3c0,0.1,0.1,0.2,0.1,0.4c0,0.2,0,0.4,0,0.7c0,0,0,0.1,0,0.1 c0,0,0,0,0,0.1c0.1,0.2,0.1,0.4-0.1,0.5c-0.1,0.1-0.3,0.2-0.5,0.3c0.2,0.2,0.4,0.4,0.4,0.5s-0.1,0.4-0.2,0.7 c-0.1,0.1-0.1,0.2-0.1,0.3c0,0.1,0,0.2-0.1,0.3c-0.1,0.1-0.1,0.3-0.2,0.4c0,0.1-0.1,0.3-0.2,0.5c-0.1,0.2-0.1,0.4-0.1,0.7 c0,0.5-0.1,0.9-0.3,1.4c-0.2,0.2-0.2,0.5-0.3,0.8c0,0.3-0.1,0.5-0.1,0.8c0,0,0.1,0,0.1,0c0,0,0.1,0,0.1,0c0.2-0.3,0.4-0.6,0.6-0.9 c0.3-0.6,0.7-1.2,1-1.7c0.3-0.6,0.7-1.2,1-1.7c0.2-0.4,0.5-0.9,0.7-1.3c0.2-0.4,0.5-0.9,0.7-1.3c0.2-0.3,0.4-0.7,0.6-1 c0.2-0.3,0.4-0.7,0.6-1c0.1-0.1,0.1-0.1,0.1-0.2c0,0,0.1-0.1,0.1-0.2l0.1,0.1c-0.3,0.6-0.7,1.2-1,1.7c-0.3,0.6-0.7,1.2-1,1.8 c0.1-0.1,0.3-0.2,0.4-0.3c0.2-0.2,0.3-0.3,0.5-0.5c0.1-0.2,0.3-0.4,0.4-0.5c0.1-0.2,0.2-0.3,0.2-0.4c0.1-0.1,0.1-0.2,0.2-0.3 c0.1-0.1,0.1-0.2,0.2-0.3c0.2-0.3,0.4-0.5,0.5-0.7c0.2-0.2,0.3-0.5,0.5-0.7c0.2-0.2,0.3-0.5,0.5-0.7s0.3-0.5,0.5-0.7 c0.1-0.1,0.1-0.2,0.2-0.3c0.1-0.1,0.2-0.2,0.3-0.3c0.1-0.2,0.2-0.3,0.3-0.5c0.1-0.2,0.2-0.3,0.3-0.5c0.2-0.3,0.5-0.7,0.7-1 c0.2-0.3,0.4-0.6,0.7-1c0.3-0.4,0.5-0.8,0.8-1.2c0.3-0.4,0.5-0.8,0.8-1.2c0.1-0.1,0.2-0.2,0.3-0.2c0.1-0.1,0.2-0.2,0.3-0.3 c0.2-0.3,0.5-0.7,0.8-1s0.5-0.7,0.8-1l0.7-0.9c0.1-0.1,0.1-0.1,0.2-0.1c0.1,0,0.1,0,0.2-0.1c0,0.1,0,0.1,0.1,0.1 c-0.1,0.2-0.2,0.3-0.3,0.5c-0.1,0.1-0.2,0.3-0.3,0.4c-0.3,0.4-0.6,0.8-0.8,1.2c-0.3,0.4-0.6,0.8-0.8,1.2c-0.3,0.4-0.5,0.8-0.8,1.2 c-0.3,0.4-0.6,0.8-0.9,1.2c-0.2,0.3-0.3,0.5-0.5,0.8c-0.2,0.3-0.3,0.5-0.5,0.8c-0.3,0.5-0.6,0.9-0.8,1.4c-0.3,0.4-0.5,0.9-0.8,1.4 c-0.2,0.3-0.4,0.6-0.6,0.9c-0.2,0.3-0.4,0.6-0.6,0.9c-0.1,0.1-0.2,0.3-0.3,0.5c-0.3,0.5-0.6,0.9-0.8,1.4 C194.2,107.4,193.9,107.9,193.6,108.4z M220,99.8c-0.1,0.2-0.1,0.5-0.2,0.7c0,0.1,0,0.1,0,0.1c0,0-0.1,0.1-0.1,0.2l-1.1,2 c-0.2,0.4-0.4,0.7-0.6,1.1c-0.2,0.3-0.4,0.7-0.6,1.1c-0.2,0.3-0.4,0.7-0.5,1c-0.2,0.3-0.3,0.6-0.5,1c-0.2,0.3-0.3,0.6-0.5,0.9 c-0.2,0.3-0.3,0.6-0.5,1c-0.1,0.2-0.2,0.3-0.2,0.5c0,0.2-0.1,0.4-0.2,0.6c-0.1,0.1-0.2,0.1-0.4,0.1c0,0.1,0.1,0.3,0.1,0.4 c0,0.1,0,0.3,0,0.4c0,0.1,0,0.1-0.1,0.2c-0.1,0.1-0.2,0.1-0.2,0.2c-0.1,0.2-0.2,0.5-0.3,0.7c-0.1,0.2-0.2,0.4-0.5,0.6 c-0.1,0-0.1,0.1-0.1,0.2s0,0.2,0,0.3c-0.2,0.4-0.4,0.8-0.5,1.2c-0.2,0.4-0.3,0.8-0.5,1.2c-0.1,0.2-0.2,0.4-0.2,0.7 c-0.1,0.2-0.1,0.4-0.2,0.6v0.2c-0.2,0.2-0.4,0.5-0.4,0.8s-0.1,0.5-0.2,0.8c-0.1,0.4-0.2,0.7-0.4,1.1s-0.3,0.7-0.4,1.1 c-0.1,0.3-0.2,0.6-0.2,1c-0.1,0.3-0.1,0.6-0.2,1c0,0.2-0.1,0.3-0.1,0.5c0,0.2,0,0.3,0,0.5c0,0.1,0,0.3,0,0.5 c-0.1,0-0.1,0.1-0.2,0.1c-0.1,0-0.1,0.1-0.2,0.1c0.1,0.4,0.1,0.8,0.2,1.3c0,0.4-0.1,0.9-0.3,1.3c0.1,0.1,0.2,0.2,0.2,0.3 c0.1,0.1,0,0.3-0.1,0.5c-0.1,0.1-0.1,0.2,0,0.3c0,0.1,0.2,0.2,0.4,0.2c0.1,0,0.2,0,0.3,0.1c0.1,0.1,0.2,0.1,0.2,0.2 c0,0.1,0,0.2-0.1,0.3s-0.2,0.1-0.2,0.2c-0.1,0.1-0.1,0.1-0.2,0.2c0,0.1,0,0.2,0,0.4c-0.3,0-0.6,0-0.8,0c-0.3,0-0.5-0.1-0.7-0.2 c-0.3-0.2-0.6-0.5-0.9-0.8c-0.3-0.3-0.5-0.6-0.7-0.9c-0.2-0.3-0.3-0.6-0.4-1c-0.1-0.3-0.2-0.7-0.3-1c-0.1-0.4-0.1-0.8-0.1-1.2 c0-0.7,0-1.4,0.1-2c0-0.7,0.1-1.3,0.3-2c0-0.1,0-0.3,0-0.4s-0.1-0.3,0-0.4c0.1-0.3,0.2-0.5,0.3-0.8c0.1-0.3,0.2-0.6,0.3-0.8 c0.1-0.2,0.1-0.4,0.2-0.6c0-0.2,0.1-0.4,0.2-0.6c0.2-0.7,0.5-1.4,0.7-2.1c0.2-0.7,0.4-1.4,0.7-2.1c0.3-0.8,0.6-1.6,0.8-2.4 c0.3-0.8,0.6-1.6,0.9-2.5c0.6-1.7,1.2-3.4,1.9-5.1c0.3-0.7,0.6-1.4,0.9-2.1s0.6-1.4,1-2.2c0.1-0.1,0.1-0.2,0.1-0.3 c0-0.2,0-0.2-0.1-0.3c-0.1,0-0.2,0-0.3,0.1c-0.3,0.4-0.7,0.7-1,1.1c-0.3,0.4-0.7,0.7-1,1.1c-0.6,0.6-1.1,1.3-1.6,2.1 c0,0-0.1,0.1-0.1,0.1c0,0-0.1,0-0.1,0.1c-0.3,0.2-0.6,0.5-0.8,0.8c-0.2,0.3-0.4,0.6-0.6,0.9c-0.1,0.2-0.2,0.3-0.3,0.4 c-0.1,0.1-0.2,0.3-0.4,0.4c-0.2,0.2-0.3,0.5-0.5,0.7s-0.3,0.5-0.5,0.7c-0.1,0.1-0.1,0.2,0,0.2c0.1,0.2,0.1,0.4-0.1,0.6 c-0.2,0.2-0.3,0.4-0.4,0.5c-0.2,0.2-0.3,0.5-0.5,0.7c-0.2,0.2-0.3,0.4-0.5,0.7c-0.2,0.2-0.3,0.4-0.4,0.7c-0.1,0.2-0.2,0.5-0.4,0.7 c-0.2,0.4-0.4,0.7-0.6,1.1c-0.2,0.4-0.4,0.7-0.6,1.1c-0.2,0.2-0.3,0.5-0.4,0.7c-0.1,0.2-0.3,0.5-0.4,0.8c0,0,0,0.1,0,0.1 c0,0,0,0,0,0.1c-0.3,0.4-0.5,0.7-0.7,1.1c-0.2,0.4-0.3,0.8-0.5,1.2c-0.2,0.4-0.4,0.8-0.6,1.2c-0.2,0.4-0.4,0.8-0.6,1.2 c-0.2,0.4-0.4,0.8-0.6,1.2c-0.2,0.4-0.4,0.8-0.6,1.2c-0.1,0.3-0.2,0.5-0.3,0.8c-0.1,0.3-0.2,0.5-0.4,0.7c-0.2,0.2-0.3,0.5-0.5,0.7 c-0.2,0.2-0.3,0.4-0.5,0.6c0,0.1-0.1,0.1-0.1,0.2c0,0-0.1,0.1-0.1,0.2v0c-0.1,0.1-0.1,0.2-0.2,0.3c-0.1,0.1-0.2,0.2-0.2,0.4 c-0.1,0-0.3,0-0.5,0s-0.3,0-0.5-0.1c-0.2-0.1-0.5-0.2-0.7-0.4c-0.2-0.2-0.4-0.4-0.5-0.6c-0.1-0.3-0.3-0.6-0.4-0.9 c-0.2-0.3-0.1-0.6,0.1-1l-0.4,0.1c0-0.1-0.1-0.3-0.1-0.4c0-0.1,0-0.3,0-0.4c0-0.2,0-0.3,0-0.5c0-0.2,0-0.3,0-0.5 c0-0.2,0.1-0.4,0.1-0.6c0-0.2,0.1-0.4,0.1-0.6c0.1-0.2,0.1-0.4,0.1-0.6c0-0.2,0-0.4,0.1-0.6c0.3-1,0.5-2,0.8-3c0.3-1,0.5-2,0.8-3 c0.1-0.1,0.2-0.4,0.3-0.7c0.2-0.7,0.5-1.3,0.7-1.9c0.2-0.6,0.5-1.3,0.7-1.9c0.2-0.6,0.4-1.1,0.6-1.6c0.2-0.5,0.4-1.1,0.7-1.6 c0.3-0.8,0.7-1.6,1-2.4c0.3-0.8,0.7-1.6,1-2.4c0.3-0.6,0.5-1.2,0.8-1.8c0.3-0.6,0.5-1.2,0.8-1.8c0.3-0.6,0.6-1.2,0.8-1.8 c0.3-0.6,0.6-1.2,0.8-1.8c0.1-0.1,0.1-0.3,0.2-0.4c0.1-0.1,0.2-0.3,0.2-0.4c0.1-0.3,0.2-0.5,0.2-0.6c-0.3,0.2-0.6,0.5-0.8,0.8 c-0.2,0.3-0.5,0.6-0.7,1c0,0-0.1,0-0.1,0c0,0,0,0-0.1,0c0.1-0.1,0.1-0.3,0.2-0.4c0.1-0.1,0.1-0.3,0.2-0.4c0.4-0.4,0.7-0.8,1.1-1.2 c0.4-0.4,0.7-0.8,1.1-1.3c0.2-0.2,0.3-0.4,0.4-0.6c0.1-0.2,0.2-0.4,0.3-0.6c0.2-0.3,0.3-0.5,0.6-0.5c0.2,0,0.4,0,0.5,0.1 c0.2,0,0.4,0,0.6,0c0.2-0.2,0.4-0.2,0.6-0.1c0.2,0.2,0.3,0.3,0.5,0.5c0.2,0.2,0.5,0.4,0.8,0.6c0.1,0.1,0.1,0.1,0.1,0.2 c0.1,0.4,0.2,0.8,0.5,1.2c0.2,0.4,0.3,0.8,0.2,1.3c-0.1,0.3-0.2,0.6-0.5,1c-0.2,0.3-0.4,0.6-0.6,0.8c-0.2,0.3-0.4,0.6-0.5,0.8 c-0.2,0.2-0.3,0.5-0.4,0.7c-0.1,0.2-0.3,0.5-0.4,0.7c-0.1,0.1-0.1,0.2-0.2,0.3c0,0.1-0.1,0.2-0.2,0.3c-0.3,0.2-0.5,0.4-0.6,0.7 c-0.1,0.3-0.1,0.5-0.2,0.8c0,0.1,0,0.2-0.1,0.3c-0.2,0.2-0.4,0.4-0.5,0.6c-0.1,0.2-0.2,0.4-0.3,0.7c-0.1,0.3-0.3,0.5-0.5,0.8 c-0.2,0.3-0.3,0.5-0.5,0.8c-0.2,0.3-0.3,0.5-0.4,0.8s-0.2,0.6-0.4,0.9c-0.2,0.3-0.3,0.6-0.4,0.9s-0.3,0.6-0.4,1 c0,0.1-0.1,0.1-0.1,0.2c0,0,0,0.1-0.1,0.1c-0.2,0.2-0.4,0.4-0.5,0.6c-0.1,0.2-0.1,0.4-0.2,0.6c0,0.1-0.2,0.2-0.4,0.4 c0,0.1,0.1,0.1,0.1,0.1s0,0.1,0.1,0.1c-0.1,0.1-0.1,0.2-0.2,0.3c-0.1,0.1-0.2,0.2-0.2,0.4c0,0.1-0.1,0.1-0.1,0.2c0,0.1,0,0.2,0,0.2 c-0.1,0.2-0.1,0.3-0.2,0.5c0,0.2-0.2,0.2-0.4,0.2c0.2,0.4,0.1,0.8-0.3,1.1c-0.1,0.1-0.1,0.2-0.1,0.3s0,0.3-0.1,0.4 c-0.1,0.1-0.1,0.2-0.2,0.3s-0.1,0.2-0.2,0.2c-0.2,0-0.4,0-0.4,0.1c0,0.1,0,0.2,0.1,0.3c-0.1,0.1-0.2,0.2-0.3,0.2 c-0.1,0.1-0.2,0.2-0.3,0.2c0.1,0,0.2,0.1,0.2,0.2c0.1,0.1,0.2,0.1,0.2,0.2c0,0.1-0.1,0.2-0.1,0.3c0,0.1-0.1,0.2-0.1,0.4l0,0 c0,0-0.1,0-0.1,0c0,0,0,0-0.1,0c-0.2,0.1-0.2,0.2-0.3,0.2c0,0,0,0.1,0,0.1s0.1,0.1,0.1,0.1c0.2,0.1,0.2,0.3,0,0.6 c-0.2,0.2-0.4,0.5-0.4,0.8c0,0.3-0.1,0.6-0.2,0.8c0,0.1-0.1,0.1-0.1,0.2c0,0.1-0.1,0.2-0.1,0.2c-0.2,0.2-0.4,0.5-0.5,0.7 c-0.1,0.3-0.2,0.5-0.3,0.8c0,0,0,0.1,0.1,0.3c0.1-0.2,0.2-0.3,0.2-0.4c0.1-0.1,0.1-0.2,0.2-0.4c0.2-0.2,0.3-0.5,0.4-0.7 c0.1-0.2,0.2-0.4,0.4-0.7c0.2-0.3,0.3-0.5,0.5-0.8s0.3-0.5,0.5-0.8c0.1-0.2,0.2-0.3,0.3-0.5c0.1-0.1,0.2-0.3,0.2-0.5 c0.2-0.3,0.3-0.6,0.4-0.9c0.1-0.3,0.3-0.6,0.5-0.8c0.2-0.3,0.4-0.5,0.5-0.8c0.1-0.3,0.2-0.5,0.4-0.8c0.2-0.3,0.4-0.6,0.5-0.8 c0.2-0.3,0.3-0.5,0.5-0.8c0.1-0.1,0.2-0.2,0.3-0.3c0.1-0.1,0.3-0.1,0.4,0c0.1,0,0.1,0,0.2,0c0.1,0,0.1-0.1,0.1-0.2 c0.1-0.2,0.2-0.4,0.3-0.5c0.1-0.1,0.3-0.3,0.4-0.4c0.2-0.2,0.3-0.4,0.5-0.6c0.1-0.2,0.3-0.4,0.4-0.6c0,0,0.1-0.1,0.1-0.1 c0,0,0.1-0.1,0.1-0.2c0.1-0.2,0.2-0.3,0.3-0.4c0.1-0.1,0.3,0,0.5,0.2c-0.2-0.2-0.3-0.4-0.2-0.6c0.1-0.2,0.3-0.4,0.4-0.5 c0.4-0.4,0.7-0.8,1.1-1.2c0.3-0.4,0.7-0.8,1.1-1.3c0.2-0.3,0.4-0.5,0.6-0.8c0.2-0.2,0.4-0.5,0.7-0.8c0.1-0.1,0.2-0.2,0.3-0.3 c0.1-0.1,0.2-0.2,0.4-0.3c0.1-0.1,0.2-0.2,0.4-0.4c0.1-0.1,0.1-0.1,0.2-0.2c0.1-0.1,0.2-0.1,0.3,0l0.3-0.1c-0.1,0-0.1-0.1-0.2-0.1 c-0.1,0-0.1-0.1-0.2-0.1c0.1-0.1,0.2-0.2,0.3-0.4c-0.1,0-0.1,0-0.2,0c-0.1,0-0.1,0-0.2-0.1l1-0.2c0,0,0-0.1,0-0.1 c-0.2-0.1-0.3-0.2-0.5-0.2c0.1,0,0.1-0.1,0.2-0.1c0-0.1,0.1-0.1,0.2-0.1c0.2,0,0.4-0.1,0.6-0.2c0.1-0.2,0.3-0.3,0.4-0.5 c0.3-0.4,0.7-0.6,1-0.5c0.1,0,0.3,0,0.6,0c0.1,0,0.1,0,0.2,0c0.1,0,0.1,0.1,0.1,0.2c0,0,0,0.1,0.1,0.1c0.1,0,0.1,0,0.2,0 c0.3-0.1,0.6-0.1,0.7,0c0.2,0.2,0.4,0.3,0.6,0.4c0.2,0.1,0.3,0.3,0.4,0.5c0.1,0.2,0.2,0.3,0.4,0.5c0.3,0.2,0.4,0.5,0.5,0.8 c0,0.3,0.1,0.6,0.1,0.9v0.2C220.1,99.3,220.1,99.6,220,99.8z M194.6,104.1C194.6,104.1,194.6,104,194.6,104.1 c0-0.1-0.1-0.1-0.1-0.1c0.1-0.1,0.2-0.3,0.3-0.4c0.1-0.1,0.2-0.3,0.3-0.5l0.1,0.1L194.6,104.1z M195.4,120.4 c0.1-0.4,0.2-0.8,0.3-1.1c-0.2,0-0.4,0.1-0.5,0.1c0,0-0.1,0-0.1,0.1c0,0.1,0,0.1,0,0.2c-0.1,0.3-0.1,0.5-0.1,0.8 c0,0.3,0,0.5-0.1,0.9c0.2-0.1,0.3-0.2,0.3-0.4C195.3,120.8,195.3,120.6,195.4,120.4z M196.4,116.3c0.2-0.2,0.2-0.4-0.1-0.6 c-0.1,0.2-0.2,0.3-0.2,0.4c0.1,0.1,0,0.3,0,0.3c-0.1,0.1-0.2,0.2-0.2,0.3c-0.2,0.2-0.2,0.4-0.2,0.7c0,0.2,0,0.4-0.1,0.6 c-0.1,0.2-0.1,0.4-0.2,0.6c0,0.1,0,0.1,0,0.2c0,0.1,0.1,0.2,0.1,0.3c0.2-0.2,0.3-0.4,0.3-0.6s0.1-0.3,0.2-0.5v-0.2 c0-0.2,0-0.5,0-0.8C196,116.8,196.2,116.6,196.4,116.3z M196.9,114c0.2-0.1,0.2-0.2,0.3-0.2c0.1-0.2,0.2-0.5,0.2-0.7 c0,0,0-0.1-0.1-0.3c-0.1,0-0.1,0-0.1,0.1l-0.4,0.9C196.7,113.8,196.8,113.9,196.9,114z M197.4,118.1c0.1-0.2,0.1-0.3,0.2-0.4 s0.1-0.2,0.2-0.3l-0.2-0.2c-0.1,0.1-0.1,0.2-0.2,0.3c0,0.1-0.1,0.2-0.2,0.3C197.3,117.8,197.4,117.9,197.4,118.1z M198.5,114.6 c0.1-0.2,0.2-0.4,0.3-0.5c0.1-0.2,0.1-0.3,0.2-0.5C198.4,113.8,198.3,114.1,198.5,114.6z M206.2,105.1c0.1-0.2,0.2-0.3,0.4-0.5 c0.1-0.1,0.3-0.3,0.5-0.5c0,0.1,0,0.2,0,0.3c0,0.1,0,0.2-0.1,0.2c-0.1,0.2-0.3,0.3-0.4,0.5c-0.2,0.1-0.3,0.3-0.4,0.5 c-0.2,0.2-0.3,0.5-0.5,0.7c-0.2,0.2-0.3,0.5-0.5,0.7c-0.1,0.1-0.2,0.2-0.3,0.3v-0.2c0.2-0.3,0.5-0.7,0.7-1 C205.8,105.8,206,105.5,206.2,105.1z M207.9,102.8c-0.1,0.6-0.3,1-0.9,1.1c0.2-0.2,0.3-0.4,0.5-0.6 C207.7,103.1,207.8,103,207.9,102.8z M209.2,101.7c-0.1,0-0.1-0.1-0.1-0.2c0.2-0.1,0.3-0.2,0.4-0.4c0.1-0.1,0.2-0.2,0.3-0.4 l0.1,0.1c-0.1,0.1-0.2,0.3-0.3,0.4C209.4,101.4,209.3,101.5,209.2,101.7z"></path> <path class="st0" d="M240.6,106.2c0.1-0.2,0.3-0.3,0.5-0.4c0.2-0.1,0.4-0.1,0.7,0l-0.8,0.9c-0.3,0.4-0.6,0.8-0.9,1.1 c-0.3,0.4-0.6,0.7-0.9,1.1c-0.1,0.1-0.1,0.1-0.2,0.2c-0.1,0-0.1,0.1-0.2,0.2s-0.1,0.1-0.2,0.2c0,0.1-0.1,0.1-0.2,0.2l-0.4,0.5 c0,0,0,0-0.1,0.1c-0.2,0.5-0.6,1-1,1.3c-0.4,0.4-0.8,0.8-1.2,1.2c-0.4,0.4-0.7,0.8-1.1,1.2c-0.4,0.4-0.8,0.8-1.2,1.2 c-0.1,0-0.1,0.1-0.2,0.1c0,0-0.1,0.1-0.2,0.1c-0.2,0.1-0.4,0.3-0.7,0.5s-0.6,0.5-0.9,0.8c-0.3,0.3-0.6,0.5-0.9,0.8 s-0.5,0.4-0.7,0.6c-0.3,0.3-0.7,0.5-1,0.7s-0.7,0.3-1.1,0.5c-0.4,0.1-0.8,0.2-1.2,0.3c-0.4,0.1-0.8,0-1.1-0.2 c-0.2-0.1-0.4-0.1-0.6,0.2c-0.1,0.2-0.2,0.4-0.4,0.4s-0.3,0-0.5,0c-0.2,0-0.3,0-0.5,0c-0.1-0.1-0.2-0.2-0.2-0.4c0,0-0.1,0-0.1,0 s0,0-0.1,0c0,0.1,0,0.1,0,0.2s0,0.2,0,0.3c-0.2-0.1-0.3-0.2-0.4-0.4c-0.1-0.1-0.2-0.2-0.3-0.4c0,0,0-0.1,0-0.1c0,0,0-0.1,0-0.1v0 l-0.1-0.2c-0.2-0.5-0.4-0.9-0.7-1.1c-0.1-0.1-0.2-0.2-0.2-0.3c0-0.1-0.1-0.3-0.2-0.4c-0.1-0.1-0.2-0.3-0.3-0.4 c-0.1-0.1-0.2-0.3-0.3-0.4c-0.1-0.1-0.2-0.3-0.2-0.4c0-0.1-0.1-0.3-0.2-0.5c-0.1-0.4-0.2-0.8-0.3-1.2c-0.1-0.4-0.1-0.8,0-1.2 c0-0.3,0.1-0.6,0.1-0.9c0-0.3,0.1-0.6,0.1-0.9c0,0,0-0.1,0-0.1c0-0.5,0-1,0.2-1.5c0.2-0.5,0.3-0.9,0.5-1.4c0-0.1,0.1-0.2,0.3-0.3 c-0.3-0.3-0.2-0.6,0.3-0.8c0.1-0.1,0.1-0.2,0.1-0.3c-0.1-0.3,0-0.6,0.3-0.7l0.1-0.4c0.1-0.1,0.2-0.1,0.3-0.2 c0.1-0.1,0.1-0.2-0.1-0.4c0,0,0-0.1,0.1-0.3c0.1-0.2,0.2-0.3,0.3-0.3c0.1-0.1,0.1-0.1,0.2-0.2c0,0,0-0.1,0-0.2l0.4-0.3 c-0.1-0.1-0.2-0.2-0.3-0.3c0.4-0.1,0.6-0.2,0.4-0.4c0.2-0.2,0.3-0.3,0.4-0.5c0.1-0.2,0.2-0.3,0.3-0.5c0.1-0.1,0.1-0.3,0.2-0.4 c0.1-0.1,0.1-0.3,0.2-0.4c0,0,0.1,0,0.1,0c0,0,0,0,0.1,0c0.3-0.2,0.5-0.4,0.6-0.4c0.1-0.1,0.1-0.3,0-0.6c0.1,0,0.1-0.1,0.2-0.1 c0.1,0,0.1,0,0.2-0.1c-0.1,0-0.1-0.1-0.2-0.2c-0.1-0.1-0.1-0.1-0.2-0.2c0.5-0.7,1-1.4,1.5-2.2c-0.1,0.2-0.1,0.3-0.1,0.4 c0,0,0.1,0,0.1,0c0,0,0,0,0.1,0c0.1-0.1,0.1-0.2,0.2-0.3c0.1-0.1,0.1-0.2,0.2-0.4c0.2-0.1,0.3-0.3,0.3-0.6c0-0.2,0.1-0.4,0.3-0.7 c0.2-0.3,0.5-0.5,0.7-0.6l0.2,0c-0.1-0.3-0.1-0.5,0.1-0.6s0.3-0.3,0.4-0.5c0.2-0.4,0.5-0.8,0.8-1.1c0.3-0.4,0.6-0.7,0.9-1.1 c0.3-0.4,0.6-0.8,1-1.2c0.3-0.4,0.6-0.8,0.9-1.2c0.3-0.5,0.6-1,1-1.4c0.4-0.4,0.8-0.8,1.2-1.2c0.1-0.1,0.1-0.1,0.2-0.2 c0.1-0.1,0.2-0.1,0.3-0.2c0.1-0.1,0.2-0.1,0.3-0.1l1.2,0.3c0,0,0.1,0,0.1,0c0,0,0.1,0,0.1,0c0.2,0,0.3,0.1,0.4,0.1 c0.1,0,0.2,0.1,0.3,0.3c0.1,0.1,0.2,0.2,0.3,0.3c0.1,0.1,0.2,0.1,0.4,0.2c0.3,0.2,0.6,0.3,0.7,0.6s0.3,0.5,0.5,0.8c0,0,0,0.1,0,0.1 c0.1,0.2,0.1,0.4,0.1,0.6c0,0.2,0.1,0.4,0.2,0.6c0.2,0.3,0.3,0.6,0.3,0.9c0.1,0.3,0.2,0.6,0.3,0.8c0.2,0.3,0.2,0.6,0,1 c-0.1,0.4-0.1,0.7,0,1c0,0,0,0.1,0,0.1s-0.1,0.1-0.1,0.2c0.3,0.1,0.3,0.3,0.2,0.5c-0.1,0.2-0.2,0.4-0.3,0.6c0,0.2-0.1,0.4-0.1,0.5 c0,0.2-0.1,0.4-0.1,0.5c-0.1,0.2-0.1,0.3-0.1,0.5c0,0.1-0.1,0.3-0.2,0.4c-0.1,0.1-0.1,0.1-0.1,0.2c0,0.1,0,0.1,0,0.2 c-0.2,0.3-0.3,0.6-0.5,1c-0.3,0.5-0.6,1-0.9,1.4c-0.2,0.3-0.4,0.6-0.5,0.9c-0.2,0.3-0.4,0.6-0.5,0.9c-0.2,0.3-0.3,0.5-0.5,0.7 c-0.2,0.2-0.3,0.5-0.5,0.7c-0.1,0.2-0.2,0.4-0.3,0.6c-0.1,0.2-0.1,0.3-0.2,0.3c-0.3,0.2-0.5,0.5-0.7,0.7c-0.2,0.3-0.4,0.6-0.6,0.9 c-0.2,0.2-0.3,0.4-0.5,0.6c-0.2,0.2-0.4,0.4-0.6,0.6c-0.2,0.1-0.3,0.3-0.4,0.4c-0.1,0.1-0.3,0.3-0.4,0.4c-0.2,0.2-0.4,0.4-0.6,0.5 c-0.2,0.2-0.4,0.3-0.6,0.5c-0.1,0-0.1,0-0.1,0.1c-0.4,0.4-0.9,0.7-1.4,1c-0.5,0.2-1,0.5-1.5,0.7c-0.2,0.1-0.3,0.1-0.4,0.2l0,0 c-0.4,0.2-0.9,0.3-1.6,0.5c-0.7,0.2-1.2,0.2-1.6,0.2l0,0l-0.3,0.2c0.1,0.3-0.1,0.6-0.4,0.8c-0.1,0-0.1,0.1-0.1,0.2s0,0.1-0.1,0.2 c-0.1,0.1-0.1,0.1-0.1,0.2c0,0-0.1,0.1-0.1,0.2c-0.2,0.2-0.2,0.3-0.1,0.3s0.2,0.1,0.2,0.1c-0.1,0.2-0.1,0.3-0.1,0.5 c0,0.2-0.1,0.3-0.1,0.5c-0.1,0.1-0.1,0.2-0.2,0.3c-0.3,0.3-0.3,0.6-0.1,1c0.1,0.1,0.1,0.3,0,0.5c-0.1,0.2-0.1,0.4,0.1,0.5 c0.1,0,0.2,0.1,0.2,0.3l0.1,0.2c0,0.1,0.1,0.3,0.1,0.5c0,0.2,0.1,0.3,0.2,0.4c0.2,0.2,0.4,0.4,0.8,0.4c0.6,0,1.3-0.2,2-0.5 s1.4-0.7,1.9-1.1c0.3-0.2,0.6-0.5,1-0.8c0.4-0.3,0.8-0.7,1.2-1s0.8-0.7,1.2-1.1c0.4-0.4,0.7-0.7,1-0.9c0.7-0.6,1.3-1.3,2-1.9 c0.6-0.7,1.3-1.3,1.9-2c0.5-0.6,1.1-1.2,1.6-1.7c0.5-0.6,1-1.2,1.5-1.8c0.5-0.5,0.9-1,1.3-1.4c0.4-0.5,0.9-1,1.3-1.5 c0.1-0.1,0.2-0.2,0.3-0.4c0.1-0.1,0.2-0.3,0.3-0.4c0,0,0.1,0,0.1,0.1c0,0,0.1,0,0.1,0.1c-0.7,0.9-1.5,1.8-2.2,2.7 c-0.7,0.9-1.5,1.8-2.2,2.7c-0.1,0.1-0.1,0.2-0.2,0.3c0,0.1-0.1,0.2-0.2,0.2c-0.2,0.2-0.4,0.5-0.6,0.7c-0.2,0.2-0.4,0.5-0.6,0.7 c0,0-0.1,0.1-0.1,0.1c0,0-0.1,0-0.1,0.1c-0.1,0-0.1,0.1-0.1,0.1c0,0-0.1,0.1-0.1,0.2c0.1,0,0.1,0,0.2,0c0.1,0,0.1,0,0.2,0 c0.1-0.1,0.2-0.2,0.2-0.3c0.1-0.1,0.2-0.2,0.2-0.2c0.5-0.4,0.9-0.9,1.3-1.4C239.8,107.2,240.2,106.7,240.6,106.2z M221.5,109.2 C221.5,109.2,221.5,109.1,221.5,109.2C221.5,109.1,221.5,109.1,221.5,109.2c0-0.3-0.1-0.4-0.1-0.5c0,0-0.1,0-0.1,0 c0,0.1,0,0.1,0,0.2s0,0.1,0,0.2C221.2,109.1,221.3,109.1,221.5,109.2z M221.6,108.2c0.1-0.1,0.2-0.2,0.4-0.3 c-0.2-0.2-0.2-0.4,0.1-0.7c0,0,0-0.1,0-0.1c0-0.1,0-0.1,0-0.2c0,0-0.1,0-0.1,0c0,0,0,0-0.1,0c-0.2,0.3-0.3,0.5-0.4,0.8 c-0.1,0.2-0.3,0.5-0.4,0.8l0.1,0.1C221.4,108.4,221.5,108.3,221.6,108.2z M222,112.3c0.1-0.1,0.1-0.2,0.2-0.4c0-0.2,0-0.3-0.1-0.4 c-0.1,0.1-0.1,0.2-0.1,0.3c0,0.1-0.1,0.2-0.1,0.3c0,0,0,0.1,0,0.1c0,0,0,0.1,0,0.1C222,112.4,222,112.3,222,112.3z M222,106.5 c0.1,0.1,0.1,0.1,0.2,0.1c0.1,0,0.2,0.1,0.3,0.1c0.1-0.1,0.1-0.2,0.2-0.3c0-0.1,0.1-0.2,0.1-0.3c0-0.1,0-0.2,0-0.3 c0-0.1,0-0.2,0-0.3c0.1,0,0.1,0,0.1,0c0,0,0.1,0,0.1,0c0.2-0.2,0.3-0.3,0.4-0.5c0.1-0.2,0.2-0.3,0.3-0.5c0-0.1,0.1-0.1,0.1-0.1 c0,0,0-0.1,0.1-0.1c0,0,0-0.1-0.1-0.1c0,0-0.1,0-0.1,0c-0.1,0-0.1,0.1-0.2,0.2c0,0.1-0.1,0.1-0.1,0.2s0,0.1-0.1,0.2 c0,0-0.1,0-0.1-0.1c0.1-0.1,0.1-0.3,0.2-0.4s0.2-0.2,0.3-0.3c0.3-0.2,0.4-0.3,0.5-0.4c0-0.1,0-0.2-0.2-0.5l0.3-0.2 c0.1-0.1,0.2-0.2,0.4-0.3c0.1-0.1,0.2-0.2,0.2-0.2c0-0.3,0.1-0.5,0.3-0.7c0.2-0.1,0.3-0.3,0.5-0.5c-0.1-0.3-0.1-0.5-0.1-0.6 c0.2-0.2,0.4-0.3,0.5-0.5c0.1-0.1,0.2-0.2,0.3-0.4c0.1-0.1,0.2-0.3,0.3-0.4c0.2-0.3,0.2-0.5-0.2-0.6c-1,1.1-1.8,2.4-2.5,3.6 C223.4,103.9,222.7,105.2,222,106.5z M222.5,110.9c0.2-0.3,0.3-0.6,0.4-0.9c0.1-0.3,0.2-0.6,0.4-0.9c-0.1,0-0.1,0-0.1-0.1 c-0.1,0.1-0.2,0.2-0.2,0.2c-0.1,0.2-0.1,0.4-0.2,0.6s-0.2,0.4-0.3,0.6c-0.1,0.1-0.1,0.3-0.1,0.5L222.5,110.9z M223.8,105.5 c0.1-0.2,0.2-0.3,0.4-0.4c0.2-0.1,0.2-0.3,0.1-0.6c-0.2,0-0.2,0.1-0.3,0.1c-0.1,0.1-0.2,0.3-0.3,0.4c-0.1,0.1-0.2,0.3-0.3,0.4 c-0.1,0.1-0.1,0.2,0,0.1C223.6,105.7,223.7,105.7,223.8,105.5z M224.3,106.8c0.2-0.3,0.3-0.5,0.5-0.8c0.2-0.2,0.3-0.5,0.5-0.8 c-0.3,0.1-0.5,0.3-0.7,0.6C224.4,106.2,224.3,106.5,224.3,106.8z M229.7,101.7c-0.2,0.3-0.4,0.6-0.6,0.9c-0.2,0.3-0.4,0.6-0.6,0.9 c0,0-0.1,0.1-0.1,0.1c-0.1,0-0.1,0-0.1,0c-0.2,0-0.2,0-0.3,0.1c0,0.1-0.1,0.2-0.1,0.3c0,0.1,0,0.2-0.1,0.4 c-0.1,0.1-0.1,0.3-0.2,0.4c-0.1,0.1-0.1,0.2-0.2,0.4l-0.2,0.3c-0.1,0.1-0.1,0.2-0.2,0.3s-0.2,0.2-0.2,0.4c-0.2,0.3-0.3,0.7-0.4,1 c-0.1,0.3-0.3,0.6-0.6,0.9l-0.1,0.1l-0.6,1c0.2,0,0.5-0.1,0.8,0c0.3,0,0.5-0.1,0.8-0.2c0.2-0.1,0.3-0.2,0.4-0.2 c0.1-0.1,0.3-0.1,0.4-0.2c0.2-0.1,0.3-0.1,0.4-0.1c0.1,0,0.2-0.1,0.3-0.2c0.1-0.1,0.2-0.1,0.3-0.2c0.1,0,0.2-0.1,0.3-0.2 c0.1,0,0.1-0.1,0.2-0.1l1.4-1.2c0.2-0.1,0.3-0.2,0.5-0.3c0.2-0.1,0.3-0.2,0.5-0.4c0.4-0.4,0.8-0.8,1.2-1.2c0.3-0.4,0.7-0.9,0.9-1.3 l0.2-0.2c0.2-0.3,0.4-0.6,0.6-0.8c0.2-0.3,0.4-0.6,0.6-0.8c0.2-0.3,0.5-0.7,0.7-1c0.2-0.3,0.5-0.7,0.7-1c0.1-0.1,0.1-0.2,0.1-0.2 c0-0.1,0.1-0.1,0.1-0.2c0-0.1,0.1-0.2,0.1-0.2c0.5-0.8,0.8-1.6,1.2-2.4c0.3-0.8,0.6-1.7,0.7-2.6c0.1-0.3,0.1-0.6,0.1-0.9 c0-0.3,0-0.6,0-0.9c0-0.1,0-0.1-0.1-0.2c0-0.1-0.1-0.1-0.2-0.1c-0.2,0-0.3,0.1-0.4,0.3c-0.1,0.1-0.2,0.2-0.4,0.4 c-0.2,0.2-0.3,0.3-0.4,0.4c-0.1,0.1-0.2,0.3-0.3,0.4c-0.1,0.1-0.2,0.2-0.3,0.3c-0.2,0.2-0.3,0.3-0.5,0.5c-0.2,0.2-0.3,0.3-0.5,0.5 c-0.2,0.2-0.5,0.4-0.6,0.7s-0.4,0.5-0.6,0.8c-0.1,0.1-0.2,0.2-0.3,0.3c-0.1,0.1-0.2,0.2-0.4,0.3c-0.1,0.1-0.2,0.2-0.2,0.3 c-0.2,0.2-0.3,0.5-0.4,0.7c-0.1,0.2-0.2,0.5-0.4,0.7c-0.2,0.2-0.3,0.5-0.5,0.7s-0.4,0.5-0.6,0.7c-0.2,0.3-0.5,0.6-0.7,1 c-0.2,0.3-0.5,0.6-0.9,0.8c0,0.1,0,0.2,0,0.2C229.7,101.6,229.7,101.7,229.7,101.7z M227.4,98c-0.3,0-0.5,0.3-0.7,0.7 c0.1,0,0.3,0.1,0.5,0.2c0-0.1-0.1-0.1-0.1-0.2c0-0.1,0-0.1-0.1-0.2c0.1,0,0.1,0,0.2,0c0.1,0,0.1,0,0.2-0.1c0.1,0,0.2-0.1,0.3-0.3 c-0.1,0-0.1-0.1-0.1-0.1C227.5,98,227.5,98,227.4,98z M227.8,97.3c-0.1,0-0.1,0.1-0.2,0.2c-0.1,0.1-0.1,0.2-0.2,0.2 c0.1,0.1,0.2,0.2,0.4,0.2c0,0.1,0,0.1,0.1,0.1c0.1-0.1,0.1-0.2,0.2-0.3c0-0.1,0.1-0.2,0.2-0.3c0,0-0.1,0-0.1-0.1 c-0.1,0-0.1,0-0.2-0.1C227.9,97.3,227.8,97.3,227.8,97.3z M228.6,96.4c-0.1,0.1-0.1,0.2-0.2,0.3c-0.1,0.1-0.1,0.2-0.2,0.3 c0,0.1,0,0.1,0,0.1c0.1,0,0.1-0.1,0.2-0.1c0.1,0,0.1,0,0.1-0.1c0.1-0.1,0.1-0.1,0.1-0.2C228.7,96.6,228.7,96.5,228.6,96.4 C228.7,96.4,228.6,96.4,228.6,96.4z M232.1,106c0.1-0.1,0.1-0.2,0.1-0.3c0-0.1,0-0.3,0.1-0.4c-0.2,0-0.4,0.2-0.5,0.5 c-0.1,0.1-0.1,0.2-0.2,0.3c-0.1,0.1-0.2,0.2-0.2,0.3l-0.5,0.5l0.1,0.1c0.2-0.2,0.4-0.3,0.6-0.5C231.7,106.4,231.9,106.2,232.1,106z M232.7,105.1c0.1,0,0.1-0.1,0.2-0.2c0,0,0-0.1,0-0.1c0,0-0.1,0-0.1,0c-0.1,0-0.2,0-0.3,0.1c-0.1,0.1-0.1,0.1-0.1,0.2 c0,0-0.1,0.1-0.1,0.2C232.5,105.2,232.7,105.2,232.7,105.1z M248,96.7v0.2c-0.1,0.2-0.2,0.4-0.3,0.6s-0.2,0.4-0.4,0.5 c-0.2,0.1-0.3,0.3-0.4,0.4c-0.1,0.1-0.2,0.3-0.3,0.5c-0.2,0.2-0.3,0.4-0.5,0.7c-0.2,0.2-0.3,0.5-0.5,0.7c-0.1,0.1-0.1,0.3-0.2,0.4 c0,0.1-0.1,0.3-0.2,0.4c-0.2,0.3-0.3,0.5-0.5,0.7c-0.2,0.2-0.4,0.5-0.5,0.7c-0.2,0.2-0.3,0.3-0.4,0.5c-0.1,0.1-0.3,0.3-0.4,0.5 c-0.1,0.2-0.2,0.3-0.3,0.5c-0.2,0.2-0.3,0.3-0.4,0.5l-0.1,0.2c-0.1,0.3-0.2,0.5-0.4,0.6c-0.2,0.1-0.4,0.3-0.6,0.5 c-0.2-0.1-0.3-0.2-0.3-0.3c0,0,0.1-0.2,0.3-0.4c0.1-0.1,0.1-0.2,0.2-0.3c0.1-0.1,0.1-0.2,0.2-0.3c0.1-0.1,0.2-0.2,0.3-0.3 c0.1-0.1,0.2-0.2,0.3-0.3c0.2-0.2,0.3-0.4,0.5-0.6c0.2-0.2,0.3-0.4,0.5-0.6c0.2-0.2,0.3-0.4,0.4-0.6c0.1-0.2,0.3-0.4,0.4-0.6 c0.2-0.3,0.3-0.5,0.4-0.8c0.1-0.2,0.3-0.5,0.4-0.7c0.1-0.2,0.3-0.3,0.4-0.5c0.2-0.1,0.3-0.3,0.5-0.5l-0.1-0.1 c0-0.1,0.1-0.1,0.1-0.3s0-0.2,0.1-0.2c0.3-0.1,0.5-0.2,0.5-0.4c0-0.2,0-0.4,0-0.5c0.1-0.1,0.1-0.2,0.1-0.3c0,0,0.1,0,0.1,0 c0,0,0,0,0.1,0c-0.1,0-0.1-0.1-0.1-0.1c0,0-0.1-0.1-0.1-0.1c-0.5,0.8-1,1.6-1.5,2.4c-0.5,0.8-1.1,1.5-1.7,2.3l-0.1-0.1 c0.1-0.1,0.1-0.1,0.1-0.2c0-0.1,0.1-0.1,0.1-0.2c0.3-0.5,0.7-1,1-1.4c0.3-0.5,0.6-0.9,1-1.4c0.2-0.4,0.5-0.8,0.6-1.2 c0.1-0.2,0.1-0.3,0.2-0.5c0.1-0.2,0.2-0.3,0.3-0.4c0.1-0.1,0.2-0.3,0.4-0.4l0.3,0.2c0.1,0,0.1,0.1,0.2,0.2c0.1,0.1,0.2,0.1,0.2,0.2 c0,0.1,0,0.1,0,0.2C248,96.6,248,96.6,248,96.7z"></path> <path class="st0" d="M255.5,92.2c0.2,0.5,0.2,0.9-0.2,1.3c-0.1,0.1-0.2,0.2-0.2,0.3s-0.1,0.2-0.2,0.4c-0.2,0.2-0.3,0.3-0.5,0.5 c-0.2,0.2-0.3,0.4-0.5,0.6c0.1,0.1,0.2,0.3,0.2,0.4s-0.1,0.2-0.4,0.4c-0.1,0.1-0.2,0.2-0.2,0.4c0,0.2-0.1,0.4-0.2,0.6 c0.4-0.1,0.6-0.2,0.6-0.3c0.2-0.4,0.5-0.8,0.7-1.1c0.2-0.4,0.4-0.8,0.7-1.1c0.2-0.3,0.4-0.5,0.5-0.8c0.2-0.3,0.4-0.6,0.6-0.8 c0.1-0.1,0.2-0.3,0.3-0.4s0.2-0.3,0.2-0.4c0-0.3,0.1-0.6,0.3-0.8c0.2-0.2,0.4-0.4,0.6-0.6c0.2-0.3,0.3-0.5,0.5-0.7 c0.2-0.2,0.3-0.5,0.5-0.7c0.2-0.3,0.3-0.5,0.5-0.8c0.2-0.3,0.3-0.5,0.5-0.8c0.5-0.6,1-1.3,1.5-1.9c0.5-0.6,1-1.2,1.5-1.8 c0.1-0.1,0.2-0.3,0.3-0.4c0.1-0.1,0.2-0.2,0.3-0.3l0.1,0.1c-0.4,0.5-0.8,1-1.2,1.5c-0.4,0.5-0.8,1-1.2,1.5c0,0,0,0.1,0.1,0.1 c0.2-0.1,0.4-0.2,0.5-0.3c0.4-0.4,0.7-0.8,1.1-1.2c0.3-0.4,0.7-0.8,1-1.2c0.3-0.3,0.4-0.6,0.2-0.9c0.2-0.2,0.3-0.4,0.4-0.6 c0.1-0.2,0.3-0.4,0.4-0.6c0.1-0.1,0.1-0.1,0.1-0.2c0-0.1,0-0.1,0-0.2c-0.2,0-0.3,0.1-0.4,0.2c-0.3,0.3-0.5,0.5-0.8,0.7 c-0.3,0.2-0.5,0.4-0.8,0.7c0,0,0.1-0.1,0.1-0.1c0,0,0-0.1,0.1-0.1c0.5-0.4,0.9-0.9,1.3-1.3c0.4-0.4,0.9-0.9,1.3-1.3 c0.1-0.1,0.2-0.2,0.2-0.4c0-0.2,0.1-0.3,0.2-0.4c0.1-0.2,0.2-0.3,0.4-0.5c0.1-0.1,0.3-0.3,0.4-0.4c0.1,0,0.1-0.1,0.2-0.1 s0.1,0,0.1,0c0.1,0.3,0.3,0.3,0.5,0.2c0.2-0.1,0.4-0.2,0.5-0.1c0.2,0.1,0.4,0.1,0.6,0.2s0.4,0.2,0.6,0.2c0.1,0,0.2,0.1,0.3,0.2 c0.1,0.1,0.2,0.2,0.4,0.2c0,0.3,0.2,0.5,0.6,0.7c0.2,0,0.3,0.1,0.3,0.3c0.1,0.2,0.1,0.4,0.2,0.5c0.1,0.1,0.1,0.3,0.2,0.4 c0,0.2,0,0.3,0,0.6c-0.1,0.3-0.1,0.5-0.1,0.8c0,0.3-0.1,0.5-0.1,0.8c0,0.1-0.1,0.3-0.2,0.4c-0.1,0.1-0.1,0.3-0.2,0.4 c-0.4,0.7-0.8,1.4-1.3,2c-0.4,0.7-0.8,1.4-1.3,2c-0.1,0.1-0.2,0.3-0.2,0.4c0,0.1-0.1,0.3-0.1,0.4c-0.1,0.3-0.2,0.5-0.3,0.7 c-0.1,0.2-0.3,0.4-0.5,0.6c-0.1,0.1-0.2,0.3-0.2,0.5c0,0.2-0.1,0.4-0.2,0.6c-0.1,0.3-0.2,0.5-0.3,0.7c-0.1,0.2-0.2,0.4-0.4,0.7 c-0.2,0.2-0.2,0.5-0.3,0.7c0,0.2-0.1,0.5-0.2,0.7c-0.2,0.4-0.2,0.7-0.2,1.1c0.1,0.4,0,0.8-0.3,1.2c-0.1,0.2-0.2,0.5-0.1,0.7 c0,0.3,0.1,0.6,0,0.9c0,0.1,0,0.2,0,0.3c0,0.1,0,0.2,0,0.3c0.1,0.2,0.2,0.5,0.3,0.7s0.2,0.5,0.3,0.7c-0.5,0.5-1,0.6-1.5,0.3 c-1.2-0.6-2-1.4-2.4-2.4c-0.5-1.1-0.7-2.2-0.7-3.6c0-2.2,0.5-4.3,1.4-6.6c0.1-0.3,0.2-0.5,0.3-0.8c0.1-0.3,0.2-0.6,0.2-0.9 l-0.1-0.1c-0.1,0.1-0.1,0.1-0.2,0.2c-0.1,0.1-0.2,0.2-0.2,0.2c-0.3,0.4-0.7,0.8-1,1.3c-0.3,0.4-0.6,0.9-1,1.3 c-0.2,0.2-0.3,0.5-0.4,0.7s-0.3,0.5-0.4,0.8c-0.1,0.2-0.2,0.3-0.3,0.5c-0.1,0.1-0.2,0.3-0.3,0.5c-0.3,0.4-0.6,0.9-0.8,1.3 c-0.3,0.4-0.6,0.9-0.8,1.3c-0.6,1.1-1.3,2.2-1.9,3.3c-0.6,1.1-1.2,2.2-1.8,3.3c-0.5,1-1,2-1.5,2.9c-0.5,1-0.9,2-1.4,2.9 c-0.4,0.8-0.8,1.6-1.1,2.4c-0.3,0.8-0.7,1.6-1.1,2.4c-0.2,0.4-0.4,0.8-0.6,1.1c-0.2,0.4-0.4,0.7-0.6,1.1c-0.2,0.4-0.4,0.8-0.7,1.1 c-0.3,0.3-0.5,0.7-0.8,1.1c-0.4,0.8-1,1-1.7,0.6c-0.2-0.1-0.4-0.1-0.6-0.2c-0.2,0-0.4-0.1-0.5-0.4c-0.4-0.4-0.6-0.9-0.8-1.5 c-0.2-0.5-0.3-1.1-0.4-1.7c-0.1-1.6,0-3.1,0.3-4.7c0.4-2.2,1-4.4,1.8-6.5c0.2-0.7,0.5-1.4,0.7-2.1c0.3-0.7,0.5-1.4,0.8-2.1 c0.3-0.8,0.6-1.5,0.9-2.2c0.3-0.7,0.6-1.5,0.9-2.2c0.2-0.3,0.3-0.6,0.4-0.9s0.2-0.6,0.3-0.9c0.2-0.6,0.4-1.1,0.7-1.7 c0.3-0.5,0.6-1.1,0.8-1.6c0.2-0.6,0.5-1.2,0.7-1.7c0.3-0.5,0.5-1.1,0.8-1.7c0.2-0.7,0.7-1.2,1.5-1.5c0.1,0.2,0.1,0.3,0.3,0.3 c0.1,0,0.2,0,0.3,0c0.1,0,0.2-0.1,0.4-0.1c0.1,0,0.2-0.1,0.3,0v0.4c0.3-0.2,0.6-0.2,0.8-0.1c0.2,0.1,0.4,0.2,0.6,0.4 c0.2,0.2,0.5,0.4,0.8,0.6c0.3,0.2,0.5,0.5,0.6,0.8c0,0.1,0.1,0.1,0.1,0.2s0,0.2,0,0.2c-0.1,0.5-0.2,1-0.3,1.5 c-0.1,0.5-0.3,1-0.6,1.4c-0.3,0.4-0.5,0.8-0.8,1.1c-0.3,0.4-0.5,0.8-0.6,1.2c0,0.2-0.1,0.3-0.2,0.4c-0.1,0.1-0.2,0.3-0.3,0.4 c-0.2,0.4-0.4,0.8-0.5,1.2c-0.2,0.4-0.3,0.8-0.5,1.2c-0.1,0.2-0.2,0.4-0.3,0.6c-0.1,0.2-0.3,0.4-0.4,0.5c-0.4,0.3-0.7,0.7-0.9,1.2 s-0.4,0.9-0.5,1.3c-0.1,0.3-0.2,0.6-0.3,0.8c-0.1,0.3-0.4,0.4-0.7,0.6c0.2,0.3,0.2,0.6,0.1,0.9c-0.1,0.3-0.3,0.6-0.5,0.9 c-0.1,0.2-0.2,0.4-0.4,0.5c-0.1,0.2-0.2,0.4-0.1,0.7c0,0.1,0,0.3-0.2,0.4c-0.1,0.2-0.2,0.3-0.3,0.5c-0.2,0.4-0.4,0.7-0.6,1.1 c-0.2,0.4-0.4,0.8-0.5,1.1c-0.1,0.3-0.2,0.7-0.3,1c-0.2,0.3-0.2,0.7,0,1c0.1,0.1,0,0.2-0.1,0.4s-0.2,0.3-0.3,0.5 c-0.1,0.2-0.2,0.4-0.2,0.6c-0.1,0.2-0.1,0.5-0.2,0.8c0.1-0.1,0.2-0.1,0.2-0.2c0.1,0,0.1-0.1,0.2-0.2l3.3-6.6 c0.4-0.7,0.7-1.4,1.1-2.1s0.7-1.4,1.1-2.1c0.3-0.5,0.6-1,0.9-1.5c0.3-0.5,0.6-1,0.9-1.6c0.2-0.3,0.3-0.6,0.5-0.9 c0.2-0.3,0.3-0.6,0.5-0.9c0.1-0.1,0.1-0.3,0.2-0.4C255.2,92.6,255.3,92.4,255.5,92.2z M245,105.7c0.1,0,0.1,0,0.1,0 c0,0,0.1,0,0.1,0c0.1-0.1,0.1-0.3,0.2-0.4s0.1-0.2,0.2-0.3c0,0-0.1,0-0.1,0c0,0-0.1,0-0.1,0c0,0,0,0-0.1,0 C245.2,105.2,245.1,105.4,245,105.7z M253.5,97.5C253.5,97.5,253.5,97.5,253.5,97.5c-0.1-0.1-0.2-0.1-0.2-0.1 c-0.1,0.1-0.1,0.1-0.2,0.2s-0.2,0.1-0.2,0.2c-0.1,0.1-0.1,0.2-0.1,0.2c0,0.1-0.1,0.2-0.1,0.2c0.1,0,0.2,0,0.3,0 c0.1,0,0.2,0,0.2-0.1c0.1-0.1,0.1-0.2,0.2-0.3C253.4,97.7,253.5,97.6,253.5,97.5z M262.4,83.2c-0.4,0.5-0.8,0.9-1.2,1.4 c-0.4,0.4-0.8,0.9-1.1,1.4c-0.2,0.2-0.3,0.4-0.5,0.7c-0.1,0.2-0.3,0.5-0.4,0.8c0,0-0.1,0.1-0.1,0.1c0,0-0.1,0.1-0.1,0.1 c-0.6,0.4-1,0.8-1.3,1.4c-0.3,0.6-0.6,1.1-1,1.6c-0.1,0.2-0.2,0.3-0.4,0.5c-0.1,0.2-0.2,0.4-0.1,0.6c0,0.1-0.1,0.1-0.2,0.2 c-0.2,0.1-0.3,0.1-0.5,0.1c1.9-3.2,4.1-6.3,6.6-9.1C262.3,83.1,262.3,83.2,262.4,83.2z"></path> <path class="st0" d="M291.7,94.4c0.2,0.4,0.1,0.9-0.5,1.5c0.1,0.1,0.1,0.3,0.1,0.4c-0.1,0.2-0.2,0.3-0.3,0.4 c-0.3,0.4-0.5,0.7-0.8,1.1c-0.2,0.4-0.5,0.7-0.8,1.1c-0.5,0.6-1,1.2-1.5,1.8c-0.5,0.6-1,1.1-1.6,1.7c-0.4,0.4-0.8,0.9-1.3,1.3 c-0.4,0.4-0.8,0.8-1.1,1.3c-0.2,0.3-0.4,0.5-0.6,0.6c-0.2,0.1-0.4,0.3-0.6,0.5c-0.1,0.1-0.1,0.2-0.1,0.3s-0.1,0.2-0.1,0.4 c-0.3,0.3-0.7,0.6-1,0.9c-0.4,0.3-0.8,0.6-1.2,1c-0.3,0.3-0.7,0.6-1.1,0.8c-0.4,0.2-0.8,0.4-1.1,0.7c-0.2,0.1-0.5,0.3-0.6,0.4 c-0.2,0.1-0.4,0.3-0.6,0.4c-0.1,0.1-0.2,0.1-0.4,0.1c-0.2,0-0.3,0.1-0.4,0.1c-0.2,0.2-0.5,0.3-0.7,0.3c-0.2,0-0.5,0-0.7,0.2 c-0.4,0.2-0.8,0.3-1.2,0.2c-0.4-0.1-0.7-0.2-1-0.4c-0.2-0.1-0.3-0.2-0.5-0.4c-0.2-0.1-0.3-0.3-0.5-0.4c-0.1-0.1-0.2-0.1-0.3-0.1 c-0.1,0-0.2,0-0.4-0.1c-0.2-0.1-0.4-0.1-0.4-0.2c-0.1-0.2-0.1-0.3-0.3-0.4s-0.2-0.1-0.3-0.1c-0.3-0.1-0.4-0.2-0.5-0.4 c-0.1-0.3-0.2-0.5-0.2-0.8c-0.1-0.3-0.2-0.5-0.3-0.7c-0.1-0.2-0.2-0.4-0.3-0.6c-0.1-0.2-0.2-0.4-0.3-0.7c-0.2-0.5-0.3-0.9-0.4-1.4 c-0.1-0.5-0.2-1-0.2-1.5c0-0.4,0.1-0.9,0.2-1.3c0.1-0.4,0.2-0.9,0.4-1.3c0.3-1.1,0.7-2.2,1.1-3.3c0.3-0.7,0.6-1.4,0.9-2.1 c0.3-0.7,0.6-1.4,1-2c0.4-0.9,0.9-1.8,1.5-2.7c0.6-1,1.2-1.9,1.8-2.8c0.6-0.9,1.2-1.9,1.8-2.8c0.4-0.6,0.9-1.2,1.4-1.8 c0.5-0.6,0.9-1.2,1.4-1.8c0.2-0.3,0.5-0.6,0.7-1c0.2-0.3,0.5-0.6,0.8-0.9c0.6-0.5,1.1-1.1,1.7-1.7s1.2-1.1,1.9-1.5 c0.5-0.2,0.9-0.4,1.4-0.5c0.5-0.1,0.9,0,1.3,0.3c0.2,0.1,0.3,0.3,0.5,0.4c0.2,0.2,0.3,0.3,0.5,0.5c0.2,0.2,0.3,0.4,0.4,0.5 c0.1,0.2,0.3,0.4,0.3,0.6c0.1,0.3,0.3,0.5,0.5,0.7c0.2,0.2,0.4,0.4,0.5,0.6c0.1,0.3,0.2,0.6,0.2,0.9s0,0.6,0.1,1 c0,0.1,0.1,0.3,0.1,0.4c0,0.1,0,0.3,0,0.4c-0.1,0.4-0.1,0.9-0.2,1.3c-0.1,0.4-0.2,0.9-0.3,1.3c-0.1,0.6-0.3,1.2-0.5,1.8 c-0.2,0.5-0.4,1.1-0.7,1.7c-0.1,0.2-0.1,0.3-0.2,0.5c-0.1,0.2-0.2,0.3-0.3,0.5c-0.1,0.1-0.1,0.2-0.2,0.3c-0.2,0.2-0.3,0.3-0.5,0.5 c-0.2,0.2-0.3,0.4-0.5,0.6c-0.2,0.2-0.3,0.4-0.3,0.6c-0.1,0.2-0.2,0.4-0.3,0.6c-0.2,0.4-0.5,0.8-0.8,1.2c-0.3,0.4-0.6,0.7-1.1,1.1 c-0.2,0.1-0.3,0.2-0.3,0.3s-0.2,0.2-0.3,0.3c-0.3,0.3-0.6,0.4-0.9,0.4c-0.3,0-0.6-0.2-0.7-0.5c-0.1-0.1,0-0.3,0.1-0.5 c0.5-0.5,1-1.1,1.3-1.7s0.8-1.2,1.1-1.8c0.6-0.9,1.1-1.8,1.5-2.8c0.4-0.9,0.8-1.9,1.2-2.9c0.5-1.5,0.8-2.8,0.9-4.2 c0-0.1,0-0.3-0.1-0.4c-0.1,0-0.1,0.1-0.2,0.1c-0.1,0-0.1,0-0.2,0.1c-0.2,0.1-0.4,0.3-0.6,0.5c-0.2,0.2-0.4,0.3-0.6,0.3 c-0.5,0.1-0.8,0.2-1.2,0.5c-0.3,0.3-0.6,0.6-0.9,1c-0.2,0.3-0.5,0.6-0.8,0.8c-0.3,0.2-0.6,0.5-0.9,0.8c-0.1,0.1-0.1,0.1-0.1,0.1 c0,0-0.1,0.1-0.1,0.1c-0.2,0.3-0.5,0.6-0.7,0.9c-0.2,0.3-0.5,0.6-0.7,0.9c-0.3,0.3-0.6,0.7-0.8,1c-0.3,0.4-0.6,0.7-0.8,1.1 c-0.2,0.4-0.5,0.8-0.7,1.2c-0.2,0.4-0.5,0.8-0.7,1.2c-0.2,0.3-0.3,0.5-0.5,0.7c-0.2,0.2-0.3,0.4-0.5,0.7c-0.2,0.3-0.4,0.7-0.6,1 c-0.2,0.3-0.3,0.7-0.5,1c-0.2,0.3-0.3,0.6-0.5,0.8c-0.2,0.3-0.3,0.6-0.5,0.8c-0.4,0-0.6,0.2-0.5,0.6c0,0.2,0,0.3-0.1,0.5 s-0.2,0.3-0.2,0.5c-0.1,0.3-0.2,0.6-0.4,0.9c-0.1,0.3-0.3,0.6-0.4,0.9c-0.2,0.5-0.4,1-0.6,1.5c-0.2,0.5-0.4,0.9-0.6,1.4 c-0.1,0.1-0.1,0.2-0.1,0.3c0,0.1,0,0.2,0,0.3c-0.1,0.3-0.2,0.5-0.2,0.8c-0.1,0.3-0.1,0.5-0.2,0.8c-0.1,0-0.2,0.1-0.3,0.1 c-0.1,0-0.2,0.1-0.4,0.2c0.3,0.1,0.4,0.3,0.5,0.4c0,0.1,0,0.3,0,0.6c-0.2,0.7-0.2,1.2,0.3,1.7c0.2,0.3,0.4,0.5,0.6,0.9 c0.2,0.3,0.3,0.6,0.5,0.9c0.1,0.3,0.3,0.5,0.5,0.5c0.2,0,0.5,0.1,0.7,0.1c0.5,0.1,0.9,0,1.3-0.2c0.4-0.2,0.9-0.4,1.3-0.6 c0.9-0.5,1.7-1,2.5-1.7c0.6-0.5,1.2-1,1.7-1.5c0.6-0.5,1.1-1,1.7-1.5c0.4-0.3,0.8-0.6,1.1-1c0.3-0.4,0.7-0.7,1-1.1 c0.6-0.6,1.3-1.3,1.9-1.9c0.6-0.6,1.3-1.3,1.9-1.9c0.3-0.3,0.6-0.7,0.9-1c0.3-0.3,0.6-0.7,0.9-1c0.2-0.3,0.5-0.6,0.7-0.9 c0.3-0.3,0.5-0.6,0.8-0.9c0.1-0.1,0.1-0.1,0.2-0.2C291.6,94.6,291.6,94.5,291.7,94.4z M273.5,90.6 C273.5,90.6,273.5,90.6,273.5,90.6c-0.1,0-0.1,0-0.1-0.1c-0.1,0.1-0.1,0.1-0.2,0.2c-0.1,0.1-0.2,0.1-0.3,0.3c0.1,0,0.2,0.1,0.2,0.1 c0.1,0,0.1,0,0.2,0.1c0.1-0.1,0.1-0.2,0.1-0.3C273.5,90.8,273.5,90.7,273.5,90.6z"></path> <path class="st0" d="M312.8,93.1c0.1-0.2,0.3-0.3,0.5-0.4s0.4-0.1,0.7,0l-0.8,0.9c-0.3,0.4-0.6,0.8-0.9,1.1 c-0.3,0.4-0.6,0.7-0.9,1.1c-0.1,0.1-0.1,0.1-0.2,0.2s-0.1,0.1-0.2,0.2c-0.1,0.1-0.1,0.1-0.2,0.2c0,0.1-0.1,0.1-0.2,0.2l-0.4,0.5 c0,0,0,0-0.1,0.1c-0.2,0.5-0.6,1-1,1.3c-0.4,0.4-0.8,0.8-1.2,1.2c-0.4,0.4-0.7,0.8-1.1,1.2s-0.8,0.8-1.2,1.2 c-0.1,0-0.1,0.1-0.2,0.1c0,0-0.1,0.1-0.2,0.1c-0.2,0.1-0.4,0.3-0.7,0.5c-0.3,0.2-0.6,0.5-0.9,0.8c-0.3,0.3-0.6,0.5-0.9,0.8 c-0.3,0.3-0.5,0.4-0.7,0.6c-0.3,0.3-0.7,0.5-1,0.7c-0.4,0.2-0.7,0.3-1.1,0.5c-0.4,0.1-0.8,0.2-1.2,0.3c-0.4,0.1-0.8,0-1.1-0.2 c-0.2-0.1-0.4-0.1-0.6,0.2c-0.1,0.2-0.2,0.4-0.4,0.4c-0.2,0-0.3,0-0.5,0c-0.2,0-0.3,0-0.5,0c-0.1-0.1-0.2-0.2-0.2-0.4 c0,0-0.1,0-0.1,0c0,0,0,0-0.1,0c0,0.1,0,0.1,0,0.2c0,0.1,0,0.2,0,0.3c-0.2-0.1-0.3-0.2-0.4-0.4c-0.1-0.1-0.2-0.2-0.3-0.4 c0,0,0-0.1,0-0.1c0,0,0-0.1,0-0.1v0l-0.1-0.2c-0.2-0.5-0.4-0.9-0.7-1.1c-0.1-0.1-0.2-0.2-0.2-0.3c0-0.1-0.1-0.3-0.2-0.4 c-0.1-0.1-0.2-0.3-0.3-0.4c-0.1-0.1-0.2-0.3-0.3-0.4c-0.1-0.1-0.2-0.3-0.2-0.4c0-0.1-0.1-0.3-0.2-0.5c-0.1-0.4-0.2-0.8-0.3-1.2 c-0.1-0.4-0.1-0.8,0-1.2c0-0.3,0.1-0.6,0.1-0.9s0.1-0.6,0.1-0.9c0,0,0-0.1,0-0.1c0-0.5,0-1,0.2-1.5c0.2-0.5,0.3-0.9,0.5-1.4 c0-0.1,0.1-0.2,0.3-0.3c-0.3-0.3-0.2-0.6,0.3-0.8c0.1-0.1,0.1-0.2,0.1-0.3c-0.1-0.3,0-0.6,0.3-0.7l0.1-0.4c0.1-0.1,0.2-0.1,0.3-0.2 c0.1-0.1,0.1-0.2-0.1-0.4c0,0,0-0.1,0.1-0.3c0.1-0.2,0.2-0.3,0.3-0.3c0.1-0.1,0.1-0.1,0.2-0.2c0,0,0-0.1,0-0.2l0.4-0.3 c-0.1-0.1-0.2-0.2-0.3-0.3c0.4-0.1,0.6-0.2,0.4-0.4c0.2-0.2,0.3-0.3,0.4-0.5c0.1-0.2,0.2-0.3,0.3-0.5c0.1-0.1,0.1-0.3,0.2-0.4 c0.1-0.1,0.1-0.3,0.2-0.4c0,0,0.1,0,0.1,0s0,0,0.1,0c0.3-0.2,0.5-0.4,0.6-0.4c0.1-0.1,0.1-0.3,0-0.6c0.1,0,0.1-0.1,0.2-0.1 c0.1,0,0.1,0,0.2-0.1c-0.1,0-0.1-0.1-0.2-0.2c-0.1-0.1-0.1-0.1-0.2-0.2c0.5-0.7,1-1.4,1.5-2.2c-0.1,0.2-0.1,0.3-0.1,0.4 c0,0,0.1,0,0.1,0s0,0,0.1,0c0.1-0.1,0.1-0.2,0.2-0.3c0.1-0.1,0.1-0.2,0.2-0.4c0.2-0.1,0.3-0.3,0.3-0.6c0-0.2,0.1-0.4,0.3-0.7 s0.5-0.5,0.7-0.6l0.2,0c-0.1-0.3-0.1-0.5,0.1-0.6c0.2-0.2,0.3-0.3,0.4-0.5c0.2-0.4,0.5-0.8,0.8-1.1c0.3-0.4,0.6-0.7,0.9-1.1 c0.3-0.4,0.6-0.8,1-1.2c0.3-0.4,0.6-0.8,0.9-1.2c0.3-0.5,0.6-1,1-1.4c0.4-0.4,0.8-0.8,1.2-1.2c0.1-0.1,0.1-0.1,0.2-0.2 c0.1-0.1,0.2-0.1,0.3-0.2c0.1-0.1,0.2-0.1,0.3-0.1l1.2,0.3c0,0,0.1,0,0.1,0c0,0,0.1,0,0.1,0c0.2,0,0.3,0.1,0.4,0.1s0.2,0.1,0.3,0.3 c0.1,0.1,0.2,0.2,0.3,0.3c0.1,0.1,0.2,0.1,0.4,0.2c0.3,0.2,0.6,0.3,0.7,0.6c0.2,0.2,0.3,0.5,0.5,0.8c0,0,0,0.1,0,0.1 c0.1,0.2,0.1,0.4,0.1,0.6s0.1,0.4,0.2,0.6c0.2,0.3,0.3,0.6,0.3,0.9c0.1,0.3,0.2,0.6,0.3,0.8c0.2,0.3,0.2,0.6,0,1 c-0.1,0.4-0.1,0.7,0,1c0,0,0,0.1,0,0.1c0,0.1-0.1,0.1-0.1,0.2c0.3,0.1,0.3,0.3,0.2,0.5c-0.1,0.2-0.2,0.4-0.3,0.6 c0,0.2-0.1,0.4-0.1,0.5s-0.1,0.4-0.1,0.5c-0.1,0.2-0.1,0.3-0.1,0.5c0,0.1-0.1,0.3-0.3,0.4c-0.1,0.1-0.1,0.1-0.1,0.2s0,0.1,0,0.2 c-0.2,0.3-0.3,0.6-0.5,1c-0.3,0.5-0.6,1-0.9,1.4c-0.2,0.3-0.4,0.6-0.5,0.9s-0.4,0.6-0.5,0.9c-0.2,0.3-0.3,0.5-0.5,0.7 c-0.2,0.2-0.3,0.5-0.5,0.7c-0.1,0.2-0.2,0.4-0.3,0.6c-0.1,0.2-0.1,0.3-0.2,0.3c-0.3,0.2-0.5,0.5-0.7,0.7c-0.2,0.3-0.4,0.6-0.6,0.9 c-0.2,0.2-0.3,0.4-0.5,0.6c-0.2,0.2-0.4,0.4-0.6,0.6c-0.2,0.1-0.3,0.3-0.4,0.4c-0.1,0.1-0.3,0.3-0.4,0.4c-0.2,0.2-0.4,0.4-0.6,0.5 c-0.2,0.2-0.4,0.3-0.6,0.5c-0.1,0-0.1,0-0.1,0.1c-0.4,0.4-0.9,0.7-1.4,1c-0.5,0.2-1,0.5-1.5,0.7c-0.2,0.1-0.3,0.1-0.4,0.2l0,0 c-0.4,0.2-0.9,0.3-1.6,0.5c-0.7,0.2-1.2,0.2-1.6,0.2l0,0l-0.3,0.2c0.1,0.3-0.1,0.6-0.4,0.8c-0.1,0-0.1,0.1-0.1,0.2s0,0.1-0.1,0.2 c-0.1,0.1-0.1,0.1-0.1,0.2c0,0-0.1,0.1-0.1,0.2c-0.2,0.2-0.2,0.3-0.1,0.3c0.1,0,0.2,0.1,0.2,0.1c-0.1,0.2-0.1,0.3-0.1,0.5 c0,0.2-0.1,0.3-0.1,0.5c-0.1,0.1-0.1,0.2-0.2,0.3c-0.3,0.3-0.3,0.6-0.1,1c0.1,0.1,0.1,0.3,0,0.5c-0.1,0.2-0.1,0.4,0.1,0.5 c0.1,0,0.2,0.1,0.2,0.3l0.1,0.2c0,0.1,0.1,0.3,0.1,0.5c0,0.2,0.1,0.3,0.2,0.4c0.2,0.2,0.4,0.4,0.8,0.4c0.6,0,1.3-0.2,2-0.5 c0.8-0.3,1.4-0.7,1.9-1.1c0.3-0.2,0.6-0.5,1-0.8c0.4-0.3,0.8-0.7,1.2-1s0.8-0.7,1.2-1.1c0.4-0.4,0.7-0.7,1-0.9 c0.7-0.6,1.3-1.3,2-1.9c0.6-0.7,1.3-1.3,1.9-2c0.5-0.6,1.1-1.2,1.6-1.7c0.5-0.6,1-1.2,1.5-1.8c0.5-0.5,0.9-1,1.3-1.4 c0.4-0.5,0.9-1,1.3-1.5c0.1-0.1,0.2-0.2,0.3-0.4s0.2-0.3,0.3-0.4c0,0,0.1,0,0.1,0.1c0,0,0.1,0,0.1,0.1c-0.7,0.9-1.5,1.8-2.2,2.7 c-0.7,0.9-1.5,1.8-2.2,2.7c-0.1,0.1-0.1,0.2-0.2,0.3c0,0.1-0.1,0.2-0.2,0.2c-0.2,0.2-0.4,0.5-0.6,0.7c-0.2,0.2-0.4,0.5-0.6,0.7 c0,0-0.1,0.1-0.1,0.1c0,0-0.1,0-0.1,0.1c-0.1,0-0.1,0.1-0.1,0.1s-0.1,0.1-0.1,0.2c0.1,0,0.1,0,0.2,0c0.1,0,0.1,0,0.2,0 c0.1-0.1,0.2-0.2,0.2-0.3c0.1-0.1,0.2-0.2,0.2-0.2c0.5-0.4,0.9-0.9,1.3-1.4C312,94.1,312.4,93.6,312.8,93.1z M293.6,96.1 C293.6,96,293.6,96,293.6,96.1C293.7,96,293.7,96,293.6,96.1c0-0.3-0.1-0.4-0.1-0.5c0,0-0.1,0-0.1,0c0,0.1,0,0.1,0,0.2 c0,0.1,0,0.1,0,0.2C293.3,95.9,293.4,96,293.6,96.1z M293.8,95.1c0.1-0.1,0.2-0.2,0.4-0.3c-0.2-0.2-0.2-0.4,0.1-0.7 c0,0,0-0.1,0-0.1c0-0.1,0-0.1,0-0.2c0,0-0.1,0-0.1,0c0,0,0,0-0.1,0c-0.2,0.3-0.3,0.5-0.4,0.8c-0.1,0.2-0.3,0.5-0.4,0.8l0.1,0.1 C293.6,95.3,293.7,95.2,293.8,95.1z M294.2,99.2c0.1-0.1,0.1-0.2,0.2-0.4c0-0.2,0-0.3-0.1-0.4c-0.1,0.1-0.1,0.2-0.1,0.3 c0,0.1-0.1,0.2-0.1,0.3c0,0,0,0.1,0,0.1c0,0,0,0.1,0,0.1C294.1,99.3,294.2,99.2,294.2,99.2z M294.2,93.4c0.1,0.1,0.1,0.1,0.2,0.1 s0.2,0.1,0.3,0.1c0.1-0.1,0.1-0.2,0.2-0.3c0-0.1,0.1-0.2,0.1-0.3c0-0.1,0-0.2,0-0.3c0-0.1,0-0.2,0-0.3c0.1,0,0.1,0,0.1,0 c0,0,0.1,0,0.1,0c0.2-0.2,0.3-0.3,0.4-0.5c0.1-0.2,0.2-0.3,0.3-0.5c0-0.1,0.1-0.1,0.1-0.1c0,0,0-0.1,0.1-0.1c0,0,0-0.1-0.1-0.1 c0,0-0.1,0-0.1,0c-0.1,0-0.1,0.1-0.2,0.2c0,0.1-0.1,0.1-0.1,0.2c0,0,0,0.1-0.1,0.2c0,0-0.1,0-0.1-0.1c0.1-0.1,0.1-0.3,0.2-0.4 c0.1-0.1,0.2-0.2,0.3-0.3c0.3-0.2,0.4-0.3,0.5-0.4c0-0.1,0-0.2-0.2-0.5l0.3-0.2c0.1-0.1,0.2-0.2,0.4-0.3s0.2-0.2,0.2-0.2 c0-0.3,0.1-0.5,0.3-0.7c0.2-0.1,0.3-0.3,0.5-0.5c-0.1-0.3-0.1-0.5-0.1-0.6c0.2-0.2,0.4-0.3,0.5-0.5c0.1-0.1,0.2-0.2,0.3-0.4 s0.2-0.3,0.3-0.4c0.2-0.3,0.2-0.5-0.2-0.6c-1,1.1-1.8,2.4-2.5,3.6C295.5,90.8,294.8,92.1,294.2,93.4z M294.6,97.8 c0.2-0.3,0.3-0.6,0.4-0.9c0.1-0.3,0.2-0.6,0.4-0.9c-0.1,0-0.1,0-0.1-0.1c-0.1,0.1-0.2,0.2-0.2,0.2c-0.1,0.2-0.1,0.4-0.2,0.6 c-0.1,0.2-0.2,0.4-0.3,0.6c-0.1,0.1-0.1,0.3-0.1,0.5L294.6,97.8z M296,92.4c0.1-0.2,0.2-0.3,0.4-0.4s0.2-0.3,0.1-0.6 c-0.2,0-0.2,0.1-0.3,0.1c-0.1,0.1-0.2,0.3-0.3,0.4c-0.1,0.1-0.2,0.3-0.2,0.4c-0.1,0.1-0.1,0.2,0,0.1 C295.8,92.5,295.9,92.5,296,92.4z M296.4,93.7c0.2-0.3,0.3-0.5,0.5-0.8c0.2-0.2,0.3-0.5,0.5-0.8c-0.3,0.1-0.5,0.3-0.7,0.6 C296.5,93.1,296.4,93.4,296.4,93.7z M301.9,88.6c-0.2,0.3-0.4,0.6-0.6,0.9c-0.2,0.3-0.4,0.6-0.6,0.9c0,0-0.1,0.1-0.1,0.1 c-0.1,0-0.1,0.1-0.1,0c-0.2,0-0.2,0-0.3,0.1c0,0.1-0.1,0.2-0.1,0.3c0,0.1,0,0.2-0.1,0.4c-0.1,0.1-0.1,0.3-0.2,0.4 c-0.1,0.1-0.1,0.2-0.2,0.4l-0.2,0.3c-0.1,0.1-0.1,0.2-0.2,0.3c-0.1,0.1-0.2,0.2-0.2,0.4c-0.2,0.3-0.3,0.7-0.4,1 c-0.1,0.3-0.3,0.6-0.6,0.9l-0.1,0.1l-0.6,1c0.2,0,0.5-0.1,0.8,0c0.3,0,0.5-0.1,0.8-0.2c0.2-0.1,0.3-0.2,0.4-0.2 c0.1-0.1,0.3-0.1,0.4-0.2c0.2-0.1,0.3-0.1,0.4-0.1c0.1,0,0.2-0.1,0.3-0.2c0.1-0.1,0.2-0.1,0.3-0.2c0.1,0,0.2-0.1,0.3-0.2 c0.1,0,0.1-0.1,0.2-0.1l1.4-1.2c0.2-0.1,0.3-0.2,0.5-0.3c0.2-0.1,0.3-0.2,0.5-0.4c0.4-0.4,0.8-0.8,1.2-1.2c0.3-0.4,0.7-0.9,0.9-1.3 l0.2-0.2c0.2-0.3,0.4-0.6,0.6-0.8c0.2-0.3,0.4-0.6,0.6-0.8c0.2-0.3,0.5-0.7,0.7-1c0.2-0.3,0.5-0.7,0.7-1c0.1-0.1,0.1-0.2,0.1-0.2 c0-0.1,0.1-0.1,0.1-0.2c0-0.1,0.1-0.2,0.1-0.2c0.5-0.8,0.8-1.6,1.2-2.4c0.3-0.8,0.6-1.7,0.7-2.6c0.1-0.3,0.1-0.6,0.1-0.9 c0-0.3,0-0.6,0-0.9c0-0.1,0-0.1-0.1-0.2c0-0.1-0.1-0.1-0.2-0.1c-0.2,0-0.3,0.1-0.4,0.3c-0.1,0.1-0.2,0.2-0.4,0.4 c-0.2,0.2-0.3,0.3-0.4,0.4c-0.1,0.1-0.2,0.3-0.3,0.4c-0.1,0.1-0.2,0.2-0.3,0.3c-0.2,0.2-0.3,0.3-0.5,0.5s-0.3,0.3-0.5,0.5 c-0.2,0.2-0.5,0.4-0.6,0.7c-0.2,0.3-0.4,0.5-0.6,0.8c-0.1,0.1-0.2,0.2-0.3,0.3s-0.2,0.2-0.4,0.3c-0.1,0.1-0.2,0.2-0.2,0.3 c-0.2,0.2-0.3,0.5-0.4,0.7c-0.1,0.2-0.2,0.5-0.4,0.7c-0.2,0.2-0.3,0.5-0.5,0.7c-0.2,0.2-0.4,0.5-0.6,0.7c-0.2,0.3-0.5,0.6-0.7,1 c-0.2,0.3-0.5,0.6-0.9,0.8c0,0.1,0,0.2,0,0.2C301.9,88.5,301.9,88.6,301.9,88.6z M299.6,84.9c-0.3,0-0.5,0.3-0.7,0.7 c0.1,0,0.3,0.1,0.5,0.2c0-0.1-0.1-0.1-0.1-0.2c0-0.1,0-0.1-0.1-0.2c0.1,0,0.1,0,0.2,0s0.1,0,0.2-0.1c0.1,0,0.2-0.1,0.3-0.3 c-0.1,0-0.1-0.1-0.1-0.1C299.7,84.9,299.6,84.9,299.6,84.9z M299.9,84.2c-0.1,0-0.1,0.1-0.2,0.2c-0.1,0.1-0.1,0.2-0.2,0.2 c0.1,0.1,0.2,0.2,0.4,0.2c0,0.1,0,0.1,0.1,0.1c0.1-0.1,0.1-0.2,0.2-0.3c0-0.1,0.1-0.2,0.2-0.3c0,0-0.1,0-0.1-0.1 c-0.1,0-0.1,0-0.2-0.1C300,84.2,300,84.2,299.9,84.2z M300.8,83.3c-0.1,0.1-0.1,0.2-0.2,0.3c-0.1,0.1-0.1,0.2-0.2,0.3 c0,0.1,0,0.1,0,0.1c0.1,0,0.1-0.1,0.2-0.1c0.1,0,0.1,0,0.1-0.1c0.1-0.1,0.1-0.1,0.1-0.2C300.8,83.5,300.8,83.4,300.8,83.3 C300.8,83.3,300.8,83.3,300.8,83.3z M304.3,92.9c0.1-0.1,0.1-0.2,0.1-0.3c0-0.1,0-0.3,0.1-0.4c-0.2,0-0.4,0.2-0.5,0.5 c-0.1,0.1-0.1,0.2-0.2,0.3s-0.2,0.2-0.2,0.3l-0.5,0.5l0.1,0.1c0.2-0.2,0.4-0.3,0.6-0.5C303.9,93.3,304.1,93.1,304.3,92.9z M304.9,92c0.1,0,0.1-0.1,0.2-0.2c0,0,0-0.1,0-0.1s-0.1,0-0.1,0c-0.1,0-0.2,0-0.3,0.1c-0.1,0.1-0.1,0.1-0.1,0.2 c0,0-0.1,0.1-0.1,0.2C304.7,92.1,304.8,92.1,304.9,92z M320.2,83.6v0.2c-0.1,0.2-0.2,0.4-0.3,0.6c-0.1,0.2-0.2,0.4-0.4,0.5 c-0.2,0.1-0.3,0.3-0.4,0.4c-0.1,0.1-0.2,0.3-0.3,0.5c-0.2,0.2-0.3,0.4-0.5,0.7c-0.2,0.2-0.3,0.5-0.5,0.7c-0.1,0.1-0.1,0.3-0.2,0.4 c0,0.1-0.1,0.3-0.2,0.4c-0.2,0.3-0.3,0.5-0.5,0.7c-0.2,0.2-0.4,0.5-0.5,0.7c-0.2,0.2-0.3,0.3-0.4,0.5c-0.1,0.1-0.3,0.3-0.4,0.5 c-0.1,0.2-0.2,0.3-0.3,0.5c-0.2,0.2-0.3,0.3-0.4,0.5l-0.1,0.2c-0.1,0.3-0.2,0.5-0.4,0.6c-0.2,0.1-0.4,0.3-0.6,0.5 c-0.2-0.1-0.3-0.2-0.3-0.3c0,0,0.1-0.2,0.3-0.4c0.1-0.1,0.1-0.2,0.2-0.3c0.1-0.1,0.1-0.2,0.2-0.3c0.1-0.1,0.2-0.2,0.3-0.3 c0.1-0.1,0.2-0.2,0.3-0.3c0.2-0.2,0.3-0.4,0.5-0.6c0.2-0.2,0.3-0.4,0.5-0.6c0.2-0.2,0.3-0.4,0.4-0.6c0.1-0.2,0.3-0.4,0.4-0.6 c0.2-0.3,0.3-0.5,0.4-0.8s0.3-0.5,0.4-0.7c0.1-0.2,0.3-0.3,0.4-0.5c0.2-0.1,0.3-0.3,0.5-0.5l-0.1-0.1c0-0.1,0.1-0.1,0.1-0.3 c0-0.1,0-0.2,0.1-0.2c0.3-0.1,0.5-0.2,0.5-0.4c0-0.2,0-0.4,0-0.5c0.1-0.1,0.1-0.2,0.1-0.3c0,0,0.1,0,0.1,0c0,0,0,0,0.1,0 c-0.1,0-0.1-0.1-0.1-0.1c0,0-0.1-0.1-0.1-0.1c-0.5,0.8-1,1.6-1.5,2.4c-0.5,0.8-1.1,1.5-1.7,2.3l-0.1-0.1c0.1-0.1,0.1-0.1,0.1-0.2 s0.1-0.1,0.1-0.2c0.3-0.5,0.7-1,1-1.4c0.3-0.5,0.6-0.9,1-1.4c0.2-0.4,0.5-0.8,0.6-1.2c0.1-0.2,0.1-0.3,0.2-0.5 c0.1-0.2,0.2-0.3,0.3-0.4c0.1-0.1,0.2-0.3,0.4-0.4l0.3,0.2c0.1,0,0.1,0.1,0.2,0.2c0.1,0.1,0.2,0.1,0.2,0.2c0,0.1,0,0.1,0,0.2 C320.2,83.4,320.2,83.5,320.2,83.6z"></path> </g> </svg> 