<?xml version="1.0" encoding="UTF-8"?> <!-- Generator: Adobe Illustrator 22.1.0, SVG Export Plug-In . SVG Version: 6.00 Build 0) --> <svg xmlns="http://www.w3.org/2000/svg" xmlns:xlink="http://www.w3.org/1999/xlink" id="Layer_1" x="0px" y="0px" viewBox="0 0 176 245" style="enable-background:new 0 0 176 245;" xml:space="preserve"> <style type="text/css"> .st0{fill:#FFFFFF;} </style> <g> <path class="st0" d="M111.5,102.3c19.6,8.8,29.3,24.3,29.3,46.7c0,17.1-5.7,30.4-17,39.7c-11.4,9.3-26.2,14-44.4,14H11.1 c-1.3,0-2.3-0.4-3.1-1.1c-0.7-0.7-1.1-1.8-1.1-3.1V11.2c0-1.3,0.4-2.3,1.1-3.1C8.8,7.4,9.8,7,11.1,7h66c19.4,0,34.4,4.4,45.1,13.3 c10.7,8.9,16.1,21.8,16.1,38.7c0,19.9-8.9,33.8-26.6,41.6C110.6,101.2,110.5,101.7,111.5,102.3z M33.8,31.6V90 c0,0.9,0.5,1.4,1.4,1.4h41.9c10.8,0,19.3-2.7,25.6-8.1c6.2-5.4,9.4-12.8,9.4-22.1c0-9.5-3.1-17-9.4-22.6 c-6.2-5.6-14.8-8.4-25.6-8.4H35.1C34.2,30.2,33.8,30.7,33.8,31.6z M104.6,170.4c6.2-5.9,9.4-13.8,9.4-23.9c0-10.1-3.2-18-9.5-23.9 c-6.3-5.9-15-8.8-26-8.8H35.1c-0.9,0-1.4,0.5-1.4,1.4v62.6c0,0.9,0.5,1.4,1.4,1.4h44.2C89.9,179.2,98.4,176.2,104.6,170.4z"></path> </g> <circle class="st0" cx="150.5" cy="189.5" r="13.5"></circle> </svg> 