<?xml version="1.0" encoding="UTF-8"?> <!-- Generator: Adobe Illustrator 22.1.0, SVG Export Plug-In . SVG Version: 6.00 Build 0) --> <svg xmlns="http://www.w3.org/2000/svg" xmlns:xlink="http://www.w3.org/1999/xlink" id="Layer_1" x="0px" y="0px" viewBox="0 0 332.8 149.4" style="enable-background:new 0 0 332.8 149.4;" xml:space="preserve"> <style type="text/css"> .st0{fill:#FFFFFF;} .st1{fill:none;} .st2{font-family:'Barlow-Regular';} .st3{font-size:28.9204px;} .st4{font-family:'GlossAndBloom';} .st5{font-size:45.4373px;} </style> <g> <g> <g> <path class="st0" d="M14.1,5.7h14.8c3.8,0,6.6,1,8.5,2.9c1.9,1.9,2.9,4.5,2.9,7.7c0,1.6-0.3,3.2-1.1,4.7c-0.4,0.7-1,1.4-1.7,2 c-0.8,0.7-1.7,1.3-2.8,1.8v0.1c2.1,0.6,3.6,1.7,4.7,3.4c1,1.8,1.5,3.7,1.5,5.7c0,3.4-1.1,6.1-3.1,8.1c-2,2.1-4.5,3.1-7.5,3.1 H14.1V5.7z M19.9,11v11.4h8.4c2.1,0,3.7-0.6,4.7-1.7c1-1.1,1.5-2.4,1.5-4s-0.5-3-1.5-4.1c-1-1-2.6-1.6-4.7-1.6H19.9z M19.9,27.6 v11.9h9c2.2,0,3.7-0.6,4.7-1.8c1-1.2,1.5-2.5,1.5-4.1c0-1.6-0.5-3-1.5-4.2c-1-1.1-2.6-1.7-4.7-1.8H19.9z"></path> <path class="st0" d="M47.5,5.7h5.4V38c0,1.3,0.7,1.9,2.1,1.9h1.9v5.3h-2.4c-2,0-3.6-0.5-4.9-1.5c-1.4-1-2-2.8-2-5.2V5.7z"></path> <path class="st0" d="M61.8,17h5.4v16.8c0,1.9,0.5,3.4,1.6,4.5c1,1.1,2.3,1.6,3.9,1.6c1.6,0,2.9-0.5,3.9-1.6 c1-1.1,1.5-2.6,1.5-4.5V17h5.4v28.2h-5.4v-3h-0.1c-1.8,2.2-4.1,3.3-7,3.3c-2.3,0-4.3-0.9-6.1-2.5c-2-1.6-3-4-3-7.2V17z"></path> <path class="st0" d="M94.8,33.2c0,2.3,0.6,4,1.9,5.2c1.2,1.2,2.7,1.8,4.6,1.8c2.2,0,4.2-0.9,5.9-2.8l3.9,3.5 c-2.8,3.1-6,4.6-9.8,4.5c-1.4,0-2.8-0.2-4.2-0.7c-0.7-0.2-1.3-0.5-2-0.9c-0.7-0.3-1.3-0.8-1.9-1.3c-1.2-1-2.1-2.5-2.8-4.4 c-0.8-1.8-1.2-4.2-1.2-7.1c0-2.8,0.3-5.1,1-6.9c0.7-1.9,1.5-3.4,2.6-4.4c1.1-1.1,2.3-1.9,3.6-2.4c1.3-0.5,2.6-0.7,3.9-0.7 c3.1,0,5.7,1.1,7.9,3.2c2.2,2.1,3.3,5,3.3,8.7v4.6H94.8z M106.3,28.6c-0.1-2.2-0.6-3.9-1.7-5c-1.1-1.1-2.4-1.6-4-1.6 c-1.6,0-3,0.5-4,1.6c-1,1.1-1.6,2.8-1.7,5H106.3z"></path> <path class="st0" d="M121.2,35.6c3.1,2.6,6.7,3.9,10.9,3.9c5-0.1,7.5-1.9,7.6-5.5c0-2.9-1.6-4.7-5-5.3c-1.5-0.2-3.2-0.5-5.1-0.7 c-3.3-0.6-5.8-1.8-7.5-3.8c-1.8-2-2.7-4.4-2.7-7.3c0-3.5,1.1-6.2,3.3-8.4c2.2-2.1,5.2-3.2,9.2-3.2c4.8,0.1,8.9,1.5,12.4,4.1 l-3.2,4.9c-2.9-2-6-3-9.5-3c-1.8,0-3.3,0.5-4.5,1.4c-1.2,1-1.9,2.4-1.9,4.3c0,1.1,0.4,2.2,1.3,3.1c0.9,0.9,2.2,1.6,4.1,2 c1.1,0.2,2.5,0.4,4.3,0.6c3.6,0.5,6.2,1.8,8,4c1.7,2.1,2.6,4.6,2.6,7.4c-0.2,7.6-4.7,11.4-13.4,11.5c-5.7,0-10.5-1.8-14.6-5.4 L121.2,35.6z"></path> <polygon class="st0" points="151.2,5.7 156.6,5.7 156.6,30.2 156.7,30.2 167.2,17 173.8,17 164.4,28 175.1,45.2 168.2,45.2 160.9,32 156.6,37 156.6,45.2 151.2,45.2 "></polygon> <path class="st0" d="M176,17h5.8l6.5,19.7h0.1l6.4-19.7h5.8l-11.7,34c-0.8,2.1-1.8,3.6-3.1,4.4c-1.3,0.8-2.9,1.2-4.6,1.2h-1.8 v-5.3h1.6c0.7,0,1.4-0.2,2-0.6c0.6-0.4,1-1,1.3-1.9l1.5-4.7L176,17z"></path> </g> </g> </g> <rect x="11.6" y="68.4" class="st1" width="216.9" height="32.9"></rect> <text transform="matrix(1 0 0 1 11.6323 88.6173)" class="st0 st2 st3">EXPERTS IN</text> <polygon class="st1" points="322.7,113 90.4,155.3 90.4,99.7 322.7,57.5 "></polygon> <text transform="matrix(1 -0.1818 0 1 90.4398 144.0093)" class="st0 st4 st5">Commerce</text> </svg> 