<?xml version="1.0" encoding="UTF-8"?> <!-- Generator: Adobe Illustrator 22.1.0, SVG Export Plug-In . SVG Version: 6.00 Build 0) --> <svg xmlns="http://www.w3.org/2000/svg" xmlns:xlink="http://www.w3.org/1999/xlink" id="IBM" x="0px" y="0px" viewBox="0 0 1174 180" style="enable-background:new 0 0 1174 180;" xml:space="preserve"> <style type="text/css"> .st0{fill:#FFFFFF;} </style> <g id="IBM_1_"> <g id="IBM_2_"> <path id="IBM_3_" class="st0" d="M376.5,6v11h82V6H376.5z M469.5,6v11H586c0,0-11.9-11-27.7-11H469.5z M609.5,6v11h67.6l-4-11 H609.5z M732.5,6l-4,11h67V6H732.5z M376.5,29v11h82V29H376.5z M469.5,29v11h130c0,0-1.5-8.5-4.2-11H469.5z M609.5,29v11h78.2 l-3.8-11H609.5z M721.5,29l-3.8,11h77.9V29H721.5z M400.5,50v12h35V50H400.5z M493.5,50v12h35V50H493.5z M563.5,50v12h36.8 c0,0,2.4-6.4,2.4-12H563.5z M632.5,50v12h65.3l-4.3-12H632.5z M712.3,50l-4.4,12h65.6V50H712.3z M400.5,73v11h35V73H400.5 L400.5,73z M493.5,73v11h90.4c0,0,7.5-5.6,10-11H493.5L493.5,73z M632.5,73v11h35v-6.4l2.3,6.4h65.3l2.4-6.4V84h35V73h-66.3 l-3.5,9.3l-3.5-9.3H632.5L632.5,73z M400.5,96v11h35V96H400.5z M493.5,96v11H594c-2.4-5.4-10-11-10-11H493.5z M632.5,96v11h35V96 H632.5z M675.7,96l4.1,11h46.6l3.9-11H675.7z M737.5,96v11h35V96H737.5z M400.5,118v11h35v-11H400.5z M493.5,118v11h35v-11H493.5z M563.5,118v11h36.1c0-5.2-2.2-11-2.2-11H563.5z M632.5,118v11h35v-11H632.5z M683.5,118l4,11h31.3l4-11H683.5z M737.5,118v11h35 v-11H737.5z M377.5,140v12h82v-12H377.5z M469.5,140v12h125.9c2.6-2.7,4.2-12,4.2-12H469.5z M609.5,140v12h58v-12H609.5z M690.2,140l4.5,12h17.3l4.2-12H690.2z M737.5,140v12h59v-12H737.5z M377.5,163v11h82v-11H377.5z M469.5,163v11h88.8 c15.8,0,27.7-11,27.7-11H469.5z M609.5,163v11h58v-11H609.5z M698.9,163l3.9,11h0.7l4-11H698.9z M737.5,163v11h59v-11H737.5z"></path> </g> <g id="Magento_2_"> </g> <g id="SAP_1_"> </g> <g id="BigCommerce_2_"> </g> </g> </svg> 