<?xml version="1.0" encoding="UTF-8"?> <!-- Generator: Adobe Illustrator 22.1.0, SVG Export Plug-In . SVG Version: 6.00 Build 0) --> <svg xmlns="http://www.w3.org/2000/svg" xmlns:xlink="http://www.w3.org/1999/xlink" id="Layer_1" x="0px" y="0px" viewBox="0 0 1124 147" style="enable-background:new 0 0 1124 147;" xml:space="preserve"> <style type="text/css"> .st0{fill-opacity:0;} .st1{fill:none;stroke:#000000;stroke-width:7;} .st2{fill-opacity:0;stroke:#FA5555;stroke-width:7;} .st3{fill-opacity:0;stroke:#33E1FF;stroke-width:2;} .st4{fill:none;} .st5{fill:#FFFFFF;} .st6{font-family:'Barlow-Medium';} .st7{font-size:14px;} </style> <g> <g> <g> <g> <g> <g id="ellipse-4_2_"> <circle class="st0" cx="562" cy="58.5" r="18.5"></circle> <circle class="st1" cx="562" cy="58.5" r="18.5"></circle> </g> </g> <g> <ellipse id="ellipse-4_1_" class="st2" cx="562" cy="58.5" rx="18.5" ry="18.5"></ellipse> </g> </g> </g> <g> <g> <g> <g id="ellipse-6_2_"> <circle class="st0" cx="783.8" cy="58.5" r="18.5"></circle> <circle class="st1" cx="783.8" cy="58.5" r="18.5"></circle> </g> </g> <g> <ellipse id="ellipse-6_1_" class="st2" cx="783.8" cy="58.5" rx="18.5" ry="18.5"></ellipse> </g> </g> </g> <g> <g> <g> <g id="ellipse-8_2_"> <circle class="st0" cx="1005.5" cy="58.5" r="18.5"></circle> <circle class="st1" cx="1005.5" cy="58.5" r="18.5"></circle> </g> </g> <g> <ellipse id="ellipse-8_1_" class="st2" cx="1005.5" cy="58.5" rx="18.5" ry="18.5"></ellipse> </g> </g> </g> <g> <g> <g> <g id="ellipse-6_6_"> <circle class="st0" cx="340.2" cy="58.5" r="18.5"></circle> <circle class="st1" cx="340.2" cy="58.5" r="18.5"></circle> </g> </g> <g> <ellipse id="ellipse-6_3_" class="st2" cx="340.2" cy="58.5" rx="18.5" ry="18.5"></ellipse> </g> </g> </g> <g> <g> <g> <g id="ellipse-6_9_"> <circle class="st0" cx="118.5" cy="58.5" r="18.5"></circle> <circle class="st1" cx="118.5" cy="58.5" r="18.5"></circle> </g> </g> <g> <ellipse id="ellipse-6_5_" class="st2" cx="118.5" cy="58.5" rx="18.5" ry="18.5"></ellipse> </g> </g> </g> <g> <g> <path id="path-13" class="st3" d="M184.1,54h87"></path> </g> </g> <g> <g> <path id="path-13_1_" class="st3" d="M405.9,54h87"></path> </g> </g> <g> <g> <path id="path-13_4_" class="st3" d="M627.6,54h87"></path> </g> </g> <g> <g> <path id="path-13_6_" class="st3" d="M849.4,54h87"></path> </g> </g> </g> <rect x="69.8" y="93.2" class="st4" width="97" height="26"></rect> <text transform="matrix(1 0 0 1 84.8745 103.0498)" class="st5 st6 st7">STRATEGY</text> <rect x="253" y="93.2" class="st4" width="173" height="26"></rect> <text transform="matrix(1 0 0 1 259.827 103.0498)" class="st5 st6 st7">TECHNOLOGY SELECTION</text> <rect x="480.2" y="93.2" class="st4" width="163.6" height="26"></rect> <text id="XMLID_1_" transform="matrix(1 0 0 1 483.8597 103.0498)" class="st5 st6 st7">DESIGN &amp; DEVELOPMENT</text> <rect x="714.1" y="93.2" class="st4" width="139.4" height="26"></rect> <text transform="matrix(1 0 0 1 720.024 103.0498)" class="st5 st6 st7">MANAGED SERVICES</text> <rect x="929" y="93.2" class="st4" width="153.1" height="26"></rect> <text transform="matrix(1 0 0 1 929.6841 103.0498)" class="st5 st6 st7">MARKETING &amp; CREATIVE</text> </g> </svg> 