<?xml version="1.0" encoding="UTF-8"?> <!-- Generator: Adobe Illustrator 22.1.0, SVG Export Plug-In . SVG Version: 6.00 Build 0) --> <svg xmlns="http://www.w3.org/2000/svg" xmlns:xlink="http://www.w3.org/1999/xlink" id="Layer_1" x="0px" y="0px" viewBox="0 0 407.9 196.3" style="enable-background:new 0 0 407.9 196.3;" xml:space="preserve"> <style type="text/css"> .st0{fill:#FFFFFF;} </style> <g> <path class="st0" d="M35.3,130.9c0.2,0.1,0.5,0.2,0.6,0.2c0.2,0.1,0.4,0.2,0.6,0.3c-0.4,0.4-0.6,0.7-0.6,1.1 c-0.1,0.4-0.3,0.8-0.8,1.1c-0.2,0.1-0.3,0.5-0.5,1.3c-0.2,0.8-0.2,1.7-0.3,2.7c0,1,0,1.9,0,2.7c0,0.9,0.1,1.4,0.3,1.7 c-0.3,0.4-0.6,0.7-0.8,1.1c-0.2,0.4-0.5,0.7-0.7,1.1c-0.1,0.1,0,0.2,0.1,0.3c0.1,0.1,0.3,0.3,0.5,0.4c-0.2,0.2-0.4,0.3-0.5,0.5 c-0.2,0.2-0.4,0.4-0.7,0.6c0.7,0.6,0.8,1.1,0.5,1.6c-0.3,0.4-0.8,0.9-1.3,1.4c0.6,0,1,0,1.3,0c0.1,0.1,0.1,0.2,0.1,0.3 c-0.1,0.4-0.2,0.9-0.3,1.3c-0.1,0.4-0.2,0.8-0.3,1.2c-0.2,0.6-0.5,1-0.7,1.2c-0.4,0.3-0.5,0.5-0.2,0.6c0.3,0.2,0.3,0.3,0.2,0.5 c-0.7,0.9-1,1.8-0.9,2.8c0.1,1,0,1.9-0.3,2.9c-0.1,0.2-0.1,0.4,0,0.5c0.1,0.2,0.1,0.4,0.2,0.7c0.7-0.2,1.4-0.5,2.1-0.7 c0.7-0.2,1.3-0.5,2-0.7c1.1-0.5,2.3-1,3.3-1.6c1.1-0.5,2.2-1,3.3-1.5c2.8-1,5.5-2,8.2-2.9c2.7-0.9,5.5-1.8,8.3-2.4 c2.1-0.5,4.2-1,6.4-1.4c2.1-0.4,4.3-0.8,6.4-1c2.7-0.3,5.4-0.6,8.2-0.9c2.7-0.3,5.5-0.2,8.2,0.1c1.9,0.3,3.8,0.6,5.5,1 c1.8,0.4,3.5,1.1,5.1,2c0.5,0.2,0.9,0.5,1.2,0.9c0.3,0.4,0.7,0.7,1,1.1c0.7,0.5,1.2,1,1.5,1.3c0.3,0.3,0.5,0.5,0.6,0.6 c1.4,1,2.3,2.3,2.6,3.9c0.1,0.4,0.2,0.8,0.3,1.2c0.1,0.4,0.1,0.8,0,1.3c-0.1,0.5-0.1,1,0,1.6c0.1,0.6,0.1,1.1,0.3,1.6 c0,1.2-0.4,2.1-1.3,2.7c-0.8-0.1-1.3-0.2-1.4-0.4c-0.1-0.2-0.2-0.6-0.2-1.2c0.1-2.4-0.1-4.6-0.5-6.7c-0.2-1-0.8-1.7-1.9-1.9 c-1.2-0.3-2.4-0.5-3.7-0.7c-1.3-0.2-2.5-0.4-3.8-0.5c-1-0.1-2-0.2-3.1-0.3c-1-0.1-2-0.1-3.1,0c-2.9,0.1-5.8,0.2-8.7,0.5 c-2.9,0.2-5.8,0.7-8.8,1.5c-0.6,0.2-1.2,0.4-1.7,0.7c-0.6,0.2-1.2,0.5-1.8,0.9c-0.6,0.4-1.1,0.5-1.6,0.5c-0.7-0.1-1.3-0.1-1.8,0.1 c-0.5,0.2-1.1,0.4-1.6,0.5c-0.5,0.2-1.1,0.4-1.5,0.6c-0.5,0.3-1,0.5-1.5,0.7c-1.3,0.6-2.6,1.1-3.9,1.6c-2.6,0.9-5.2,1.9-7.8,2.9 c-2.6,1-5.1,2.1-7.6,3.3s-5,2.5-7.3,3.8c-2.3,1.3-4.7,2.7-6.9,4.2c-1.1,0.7-2.1,1.3-3.1,2c-1,0.7-2,1.3-3,2.1 c-0.8,0.6-1.6,1.3-2.4,2c-0.8,0.7-1.6,1.2-2.7,1.6c-0.2,0.1-0.5,0.3-0.6,0.5c-0.2,0.2-0.4,0.4-0.5,0.5c-0.2,0.2-0.5,0.3-0.7,0.5 c-0.2,0.2-0.4,0.3-0.6,0.3c-0.6,0-1.1,0.2-1.4,0.6c-0.3,0.3-0.6,0.7-0.9,1.2c-0.4,0.6-0.8,0.9-1.1,1c-0.3,0.1-0.8,0-1.4-0.3 c-0.3-0.1-0.6-0.2-0.9-0.3c-0.3,0-0.6,0-0.9,0.2c-0.5,0.3-0.9,0.3-1.2,0.2c-0.3-0.1-0.6-0.4-0.9-0.7c-0.3-0.4-0.5-0.7-0.6-0.9 c-0.1-0.2-0.2-0.4-0.3-0.5c-0.1-0.2-0.1-0.4-0.2-0.6c-0.1-0.2-0.1-0.5-0.3-1c-0.3-1-0.3-1.9,0.1-2.9s0.9-1.8,1.5-2.7 c0.2-0.3,0.4-0.6,0.6-0.9c0.2-0.2,0.4-0.5,0.7-0.8c0.1-0.1,0.2-0.3,0.3-0.4c0.1-0.1,0.2-0.2,0.3-0.3c1.1-0.7,2.2-1.4,3.3-2 c1.1-0.7,2.1-1.3,3.3-2c1.1-0.7,2.1-1.3,3.2-2c1-0.7,2.1-1.3,3.2-2c0.4-0.3,0.9-0.6,1.6-1c0.6-0.4,1.3-0.9,1.9-1.3 c0.7-0.4,1.3-0.8,1.9-1.3c0.6-0.4,1.1-0.8,1.6-1.1c0.1-0.1,0.2-0.2,0.4-0.2c0.1-0.1,0.2-0.2,0.4-0.3c-0.8-1-1.4-2.1-1.6-3.2 c-0.2-1.1-0.4-2.3-0.5-3.5c-0.2-1.8-0.3-3.5-0.2-5.4c0.1-1.8,0.3-3.6,0.5-5.4c0.2-1.4,0.4-3.1,0.8-5c0.3-1.9,0.7-3.9,1.1-6 c0.4-2,0.8-4,1.2-6c0.4-1.9,0.8-3.6,1.1-5c0.4-1.5,0.8-3.4,1.4-5.6c0.6-2.2,1.3-4.5,2-6.8c0.7-2.3,1.4-4.6,2.1-6.7 c0.7-2.2,1.3-4,1.8-5.5c1.7-5,3.4-9.9,5-14.7c0.7-2,1.5-4.1,2.3-6.1c0.8-2,1.6-4.1,2.3-6.1c0.3-0.8,0.7-1.8,1.3-3 c0.6-1.2,1.2-2.4,1.8-3.6c0.7-1.2,1.3-2.4,1.9-3.5c0.6-1.1,1.1-2.1,1.4-2.9c0.2-0.6,0.6-1.2,1-1.8c0.5-0.5,0.9-1,1.2-1.5 c0.5,0,1-0.1,1.5-0.2c0.5-0.1,1-0.1,1.5-0.1c0.3,0,0.6,0,0.9,0.1c0.3,0.1,0.6,0.1,0.9,0.2c0.2,0.1,0.5,0.2,0.7,0.2 c0.2,0.1,0.4,0.1,0.7,0.2c0.5,0,0.9,0.1,1.2,0.3c0.3,0.2,0.7,0.4,1,0.6c0.4,0.2,0.7,0.5,1.1,0.8c0.4,0.3,0.7,0.7,0.9,1 c0.3,0.4,0.5,0.7,0.7,1c0.2,0.3,0.3,0.4,0.3,0.5c0.5,1.1,0.9,2.1,1.4,3.2c0.5,1.1,0.5,2.2,0,3.5c-0.1,0.5-0.3,1-0.5,1.4 c-0.2,0.4-0.6,0.7-1.2,1c-0.1,0-0.3,0.1-0.5,0.3c-0.3,0.5-0.8,1.3-1.4,2.3c-0.6,1-1.2,2.1-1.8,3.2c-0.6,1.1-1.2,2.2-1.8,3.2 c-0.5,1-0.9,1.8-1.1,2.4c-0.3,0.8-0.6,1.3-0.8,1.5c-0.2,0.2-0.8,0.3-1.8,0.4c-0.2,1.2-0.5,2.5-0.7,3.6c-0.2,1.2-0.9,2.3-2.1,3.2 c0.2,0.6,0.2,1.2,0.2,1.7c-0.1,0.5-0.4,1-1.1,1.5c-0.1,0.1-0.2,0.3-0.4,0.8c-0.2,0.6-0.4,1.2-0.7,1.8c-0.3,0.6-0.8,1-1.7,1.2 c0.3,0.2,0.6,0.4,0.8,0.6c0.2,0.1,0.4,0.3,0.7,0.6c-0.5,0.2-1.1,0.7-1.7,1.6c-0.6,0.9-1.1,1.9-1.7,3c-0.5,1.1-1,2.2-1.4,3.3 c-0.4,1.1-0.7,1.8-0.8,2.2c-0.7,2.2-1.4,4.3-2.2,6.4c-0.8,2.1-1.6,4.3-2.3,6.4c-0.1,0.3-0.3,0.6-0.5,0.7c0,0.1-0.1,0.2-0.2,0.3 c-0.2,0.1-0.2,0.2-0.1,0.2c0.2,0.4,0.2,0.8,0.1,1.1c-0.1,0.3-0.3,0.5-0.5,0.8c-0.2,0.2-0.5,0.5-0.8,0.7c-0.3,0.2-0.5,0.5-0.7,0.8 c0.1,0.2,0.3,0.5,0.6,0.7c-0.1,0.3-0.3,0.5-0.5,0.7c-0.2,0.2-0.2,0.5,0.1,1c0.2,0.3,0.2,0.5,0.1,0.6c-0.1,0.1-0.2,0.3-0.4,0.4 s-0.4,0.2-0.6,0.4C35.5,130.4,35.4,130.6,35.3,130.9z M31.4,125.8c-0.2,0-0.6,0-1,0.1v0.6c0.2-0.1,0.5-0.2,1-0.3V125.8z M34.1,117.3c-0.4-0.1-0.6-0.2-0.6-0.2c-0.1,0-0.2,0.2-0.5,0.4c0.1,0,0.2,0.1,0.2,0.1c0,0.1,0.1,0.1,0.1,0.1c0.1,0,0.2-0.1,0.3-0.1 C33.8,117.6,33.9,117.5,34.1,117.3z M42.9,158.9c0.7-0.2,1.3-0.5,2-0.7c0.7-0.2,1.4-0.5,2-0.7c0.8-0.3,1.7-0.6,2.5-0.9 c0.8-0.3,1.6-0.6,2.5-1c1-0.3,1.9-0.6,2.8-0.9c0.9-0.3,1.8-0.6,2.8-0.9c0.3-0.1,0.6-0.2,1-0.1s0.7,0,1,0c0.7-0.1,1.3-0.2,2-0.3 c0.7-0.1,1.3-0.2,1.8-0.5c1.1-0.4,2.3-0.7,3.3-0.9c1.1-0.2,2.2-0.4,3.3-0.5c0.8-0.1,1.7-0.2,2.5-0.4c0.8-0.1,1.7-0.2,2.5-0.3 c0.5,0,1-0.1,1.5-0.3c0.5-0.2,1-0.3,1.5-0.2c1.4,0,2.9-0.2,4.6-0.5c0.8-0.3,1.6-0.3,2.3-0.1c1.4,0.2,2.7,0.4,4.1,0.5 c1.3,0.2,2.7,0.4,4.1,0.6c0.7,0.1,1.3,0.2,2,0.4c0.7,0.1,1.3,0.2,2,0.4c-0.9-0.7-1.8-1.2-2.8-1.5c-1-0.3-2.1-0.6-3.2-0.7 c-0.8-0.1-1.7-0.2-2.6-0.2c-0.9-0.1-1.7-0.2-2.6-0.3c-1-0.1-2-0.2-3.1-0.2c-1,0-2,0-3.1,0.2c-0.4,0.1-0.7,0.1-1,0.1 c-0.3,0-0.7,0-1.1,0c-1,0.1-2,0.1-3,0.3c-1,0.1-2,0.2-3,0.4c-1,0.1-2.1,0.3-3.1,0.5c-1.1,0.2-2.1,0.4-3.1,0.5 c-0.3,0.1-0.6,0.1-0.8,0.1c-0.2,0-0.5,0.1-0.8,0.2c-1.2,0.4-2.3,0.8-3.4,1.2c-1.1,0.4-2.2,0.8-3.3,1.2l-9.2,3c-1,0.3-1.9,0.6-2.8,1 c-0.9,0.4-1.8,1-2.6,1.8L42.9,158.9z M49.4,158.3c-0.3-0.1-0.5-0.1-0.7-0.2c-0.2-0.1-0.3-0.1-0.5-0.1c-1.3,0.4-2.6,0.9-3.9,1.4 c-0.1,0-0.3,0.3-0.8,1c1.1-0.3,2.2-0.5,3.1-0.6C47.6,159.6,48.5,159.1,49.4,158.3z M49.8,158.2c1,0.2,1.8,0.1,2.4-0.2 c0.7-0.3,1.3-0.6,2-0.8c0.7-0.2,1.3-0.4,2-0.5c0.7-0.1,1.3-0.3,1.9-0.4c0.7-0.2,1.4-0.4,2.2-0.5c0.7-0.2,1.4-0.3,2.1-0.5 c0.7-0.2,1.4-0.4,2.2-0.5c0.7-0.2,1.4-0.3,2.1-0.4c0.7-0.1,1.3-0.2,2-0.3c0.7-0.1,1.4-0.2,2-0.4c0.7-0.2,1.4-0.4,2.1-0.4 c0.7,0,1.5-0.3,2.3-0.8c-0.3-0.1-0.5-0.2-0.7-0.3c-0.2-0.1-0.3-0.1-0.4-0.1c-1,0.1-2,0.2-2.9,0.3c-0.9,0.1-1.9,0.2-2.8,0.4 c-0.5,0.1-1.1,0.2-1.6,0.5c-0.5,0.2-1,0.4-1.6,0.5l-7.6,1.3c-0.4,0.1-0.6,0.2-0.8,0.4c-0.4,0.5-1,0.7-1.8,0.8c-0.4-0.1-0.7,0-1,0 c-0.3,0.1-0.6,0.2-1,0.3c-0.5,0.1-1,0.2-1.5,0.5C50.7,157.2,50.2,157.6,49.8,158.2z M81.4,152.2c-0.7-0.2-1.2-0.3-1.7-0.3 c-0.5,0-0.9-0.1-1.4-0.3c-0.5-0.2-0.9-0.3-1.3-0.2c-0.4,0.1-0.8,0.2-1.1,0.4c-0.1,0.1-0.3,0.4-0.5,0.9c1-0.1,2-0.1,3-0.3 C79.3,152.3,80.3,152.2,81.4,152.2z M83.8,152.1c-0.2-0.4-0.4-0.7-0.7-0.6c-0.3,0-0.6,0.2-1.1,0.4c0.5,0,0.8,0.1,1.1,0.1 C83.3,152,83.6,152,83.8,152.1z"></path> <path class="st0" d="M99.4,96.1c0.1,0.7,0.1,1.4,0,2.2c-0.1,0.7-0.1,1.5-0.1,2.2c0,0.2,0,0.4,0,0.6c0,0.2,0,0.4,0,0.6 c-0.1,0.5-0.2,1-0.3,1.5c-0.1,0.5-0.3,1.1-0.5,1.6c-0.2,0.5-0.4,1-0.6,1.5c-0.2,0.5-0.2,0.9,0,1.4c0.3,0.5,0.3,1.1-0.1,1.5 c-0.4,0.5-0.7,1-0.9,1.5c-0.3,0.7-0.6,1.3-0.9,2c-0.3,0.6-0.6,1.3-0.9,2c-0.1,0.1-0.2,0.3-0.3,0.4c-0.1,0.1-0.2,0.3-0.3,0.4 c-0.4,0.7-0.8,1.3-1.2,2c-0.4,0.7-0.8,1.3-1.2,2c-0.4,0.5-0.7,1.1-1.1,1.6c-0.4,0.5-0.8,1.1-1.1,1.6c-0.1,0.1-0.2,0.3-0.2,0.5 c0,0.2-0.1,0.4-0.2,0.7c-0.1,0.1-0.3,0.3-0.8,0.6c0.3,0.2,0.5,0.5,0.7,0.7c-0.7,0.8-1.3,1.7-1.9,2.5c-0.6,0.8-1.3,1.6-1.9,2.5 c-0.5,0.8-1.1,1.5-1.6,2.3c-0.5,0.8-1.1,1.6-1.6,2.3c-0.4,0.5-0.8,1-1.2,1.4c-0.4,0.5-0.8,0.9-1.3,1.4c-0.4,0.4-0.7,0.7-1.1,1.1 c-0.4,0.4-0.8,0.8-1.2,1.2c-0.7,0.7-1.4,1.3-2.1,1.9c-0.7,0.6-1.4,1.2-2,1.9c-0.7,0.7-1.4,1.2-2.1,1.4c-0.8,0.2-1.5,0.6-2.1,1.1 c-0.2,0.2-0.5,0.2-0.9,0.2c-0.3,0-0.6,0-0.9-0.1c-0.8-0.2-1.5-0.4-2.1-0.7c-0.3-0.2-0.6-0.3-1-0.2c-0.4,0-0.7-0.1-1-0.4 c-0.4-0.4-0.9-0.8-1.3-1.2c-0.5-0.4-0.9-0.8-1.4-1.2c-0.5-0.5-1-1.1-1.4-1.9c-0.4-0.7-0.7-1.3-1.1-2c-0.4-0.7-0.7-1.4-1-2.2 c-0.1-0.3-0.2-0.7-0.3-1.1c-0.1-0.4-0.1-0.7-0.2-1.1c0-0.8,0-1.7,0-2.5c0-0.8,0-1.6,0.1-2.5s0.3-1.8,0.5-2.7 c0.2-0.9,0.4-1.8,0.7-2.7c0-0.1,0.1-0.2,0.2-0.3c0.1-0.1,0.2-0.2,0.2-0.3c0.1-0.3,0.1-0.6,0-0.7c0-0.2,0-0.4,0-0.5 c0.5-1.9,1.1-3.7,1.8-5.4c0.2-0.6,0.4-1.1,0.6-1.7c0.2-0.6,0.5-1.1,0.7-1.6c0.2-0.5,0.5-1.1,0.6-1.6c0.2-0.5,0.4-1.1,0.7-1.6 c0.4-0.8,0.7-1.7,1.1-2.4c0.4-0.8,0.8-1.6,1.2-2.4c1-2.2,2.1-4.3,3.2-6.3c0.3-0.5,0.6-1,0.9-1.5c0.3-0.5,0.6-1,0.9-1.5 c0.1-0.1,0.2-0.3,0.3-0.5c0.1-0.2,0.1-0.3,0-0.4c-0.3-0.4-0.7-0.5-1.1-0.4c-0.3,0.1-0.6,0.2-0.9,0.4c-0.3,0.1-0.6,0.3-0.9,0.5 c-0.3-0.4-0.6-0.5-1-0.5c-0.4,0-0.9,0.3-1.6,0.7c-0.5,0.3-1.2,0.5-1.9,0.7c-0.8,0.1-1.4,0.1-2,0c0.2-0.1,0.4-0.3,0.6-0.4 c0.1-0.1,0.3-0.2,0.4-0.2c0.5-0.1,1-0.3,1.3-0.6c0.3-0.3,0.6-0.7,0.9-1.2c0.1-0.1,0.2-0.2,0.3-0.3c0.1-0.1,0.2-0.2,0.3-0.3 c1.2-0.7,2.4-1.3,3.5-2c1.1-0.6,2.2-1.2,3.4-1.9c0.7-0.4,1.3-0.7,1.9-1c0.6-0.3,1.2-0.6,1.9-1c0.3-0.2,0.6-0.5,0.9-0.8 c0.3-0.3,0.4-0.7,0.1-1.1c0.9-0.6,1.6-1.4,2.2-2.4c0.5-0.9,1.1-1.8,1.8-2.6c0.5-0.6,0.9-1.1,1.4-1.7c0.4-0.6,0.9-1.1,1.4-1.7 c0.3-0.3,0.6-0.4,1-0.4c0.4,0.1,0.6,0.2,0.8,0.5c0.1,0.1,0.3,0.2,0.7,0.2c0.3,0,0.6,0,1,0c0.4,0,0.7,0,1,0c0,0.1-0.1,0.2-0.2,0.3 c0.2,0.1,0.5,0.4,0.9,0.7c0.4,0.2,0.7,0.4,1.1,0.6c0.4,0.2,0.6,0.5,0.8,1.1c0,0.1,0.1,0.2,0.2,0.3c0.5,0.2,0.7,0.5,0.6,0.8 c-0.1,0.3-0.2,0.7-0.3,1c-0.2,0.5-0.5,0.9-0.7,1.4c-0.2,0.5-0.4,0.9-0.5,1.4c-0.1,0.3,0,0.5,0.4,0.7c0.8,0.3,1.5,0.7,2.3,1.1 c0.8,0.4,1.5,0.8,2.4,1.1c0.6,0.3,1.1,0.6,1.4,1c0.4,0.4,0.7,0.8,1.1,1.2c0.1,0.1,0.2,0.2,0.2,0.4s0,0.4,0.1,0.6 c0.3-0.2,0.5-0.1,0.5,0.1c0.1,0.2,0.1,0.5,0.2,0.9c0.2,0.7,0.4,1.4,0.7,2C99.1,94.8,99.3,95.4,99.4,96.1z M96,99.7 c0-0.4,0.1-0.9,0.3-1.4c0.2-0.5,0-0.8-0.5-0.8c-0.1-0.8-0.3-1.5-0.4-2.1c-0.2-0.7-0.3-1.3-0.3-2c-0.1-0.5-0.2-0.9-0.4-1.2 c-0.2-0.3-0.5-0.6-1-0.9v1.6c-0.2-0.2-0.4-0.3-0.5-0.5c-0.2-0.4-0.3-0.8-0.5-1.2c-0.1-0.4-0.4-0.8-0.7-1.1 c-0.3-0.3-0.7-0.6-1.2-0.8c-0.5-0.2-1.1-0.4-1.7-0.5c-0.6-0.1-1.2-0.1-1.8,0c-0.6,0.1-1.1,0.2-1.5,0.5c-0.2,0.1-0.3,0.2-0.4,0.4 c-0.5,0.8-1.1,1.5-1.6,2.2c-0.5,0.7-1.1,1.4-1.5,2.2c-0.6,0.9-1.2,1.8-1.8,2.7c-0.6,0.9-1.2,1.8-1.8,2.7c-0.3,0.4-0.6,0.7-0.8,1.1 c-0.2,0.4-0.4,0.7-0.7,1.1c-0.3,0.6-0.6,1.2-0.9,1.7c-0.3,0.6-0.6,1.1-0.9,1.7c-0.5,0.9-0.9,1.7-1.4,2.5c-0.4,0.8-0.9,1.7-1.4,2.6 c-0.2,0.4-0.5,0.8-0.7,1.2c-0.2,0.4-0.4,0.7-0.6,1.1c-0.5,1-0.9,1.9-1.3,2.9c-0.4,0.9-0.8,1.9-1.2,2.8c-0.3,0.7-0.6,1.3-0.8,1.9 c-0.2,0.6-0.5,1.3-0.8,2c-0.2,0.3-0.3,0.7-0.4,1.1c-0.1,0.4-0.4,0.6-1.1,0.6c-0.1,0.7-0.1,1.5,0,2.2c0.1,0.7-0.3,1.4-1.1,2v0.3 c-0.1,0.7-0.2,1.4-0.4,2.1c-0.1,0.7-0.2,1.5-0.4,2.1c-0.1,0.3-0.1,0.6-0.2,1c-0.1,0.3-0.1,0.7-0.1,1c0,0.7,0,1.4,0,2.2 c0,0.7,0.1,1.4,0.1,2.1c0.1,0.6,0.5,0.8,1,0.5c0.7-0.4,1.3-0.8,1.9-1.2c0.6-0.4,1.2-0.8,1.8-1.2c0.7-0.6,1.4-1.2,2.2-1.9 c0.7-0.7,1.4-1.3,2.1-1.9c0.7-0.6,1.3-1.2,1.9-1.9c0.6-0.6,1.2-1.3,1.8-1.8c0.3-0.4,0.6-0.7,0.8-1c0.2-0.3,0.5-0.7,0.8-1.1 c0-0.2,0.1-0.5,0.4-0.8c0.2-0.3,0.5-0.4,0.8-0.4l0.9-0.2c-0.1-0.2-0.1-0.3-0.1-0.5c0-0.1-0.1-0.3-0.1-0.5c0.1-0.1,0.3-0.3,0.5-0.5 c0.2-0.2,0.4-0.4,0.7-0.7c0.2-0.2,0.4-0.4,0.7-0.6c0.3-0.2,0.5-0.4,0.5-0.6c0-0.7,0.1-1,0.5-0.9c0.3,0,0.7,0,1.1-0.2 c-0.4,0.7-0.7,1.2-0.9,1.7c0.1,0.1,0.2,0.1,0.3,0.1c0.3-0.3,0.6-0.6,0.9-0.8c0.3-0.3,0.5-0.6,0.7-0.9c0.4-0.8,0.9-1.5,1.6-2.1 c0.6-0.6,1.2-1.3,1.6-2.1c0.3-0.5,0.7-1,1.2-1.5c0.5-0.4,0.8-1,1-1.6c0.1-0.2,0.2-0.5,0.5-0.8c0.3-0.5,0.6-1.1,0.9-1.6 c0.3-0.5,0.6-1,0.9-1.6c0.2-0.3,0.3-0.7,0.5-1.1c0.1-0.4,0.3-0.7,0.4-1.1c0.2-0.6,0.4-1.1,0.6-1.6c0.1,0,0.3-0.1,0.6-0.3 c-0.1,0-0.1-0.1-0.1-0.1c0,0-0.1,0-0.1-0.1c0.1-0.2,0.1-0.5,0.1-0.7c0-0.2,0.1-0.4,0.2-0.6c0.1-0.2,0.1-0.5,0.3-0.7 c0.1-0.2,0.2-0.4,0.4-0.7c0.1-0.7,0.3-1.3,0.5-2C96,100.9,96,100.3,96,99.7z M66.9,92.7c0.7-0.5,1.3-0.9,2-1.3 c-0.5-0.1-0.9,0-1.4,0.3C67,92,66.8,92.4,66.9,92.7z M83.9,121.1c0.5-0.7,1-1.4,1.5-2.1c0.5-0.7,1-1.4,1.5-2.1c0.1,0,0.1,0,0.1,0 c0,0,0.1,0,0.1,0c-0.1,0.3-0.3,0.7-0.4,1c-0.2,0.4-0.3,0.7-0.6,1c-0.3,0.4-0.6,0.8-1,1.2c-0.4,0.4-0.7,0.7-1,1.1 C84,121.3,83.9,121.2,83.9,121.1z M90.8,110.1c0,0.2-0.1,0.7-0.4,1.2c-0.2,0.6-0.6,1.2-0.9,1.9c-0.4,0.7-0.8,1.3-1.3,1.9 c-0.5,0.6-0.8,1-1.1,1.2c0.7-1.1,1.3-2.1,1.9-3.2C89.6,112.2,90.2,111.1,90.8,110.1z M93.6,99.2c0-0.4,0-0.7,0-1.1 c0-0.4,0-0.8,0-1.2c0.1,0,0.2,0.1,0.4,0C94,97.4,94,97.7,94,98.1c0,0.4,0,0.7-0.1,1.1L93.6,99.2z"></path> <path class="st0" d="M149.6,106.2c0.5,0.9,0.1,1.9-1,3c0.2,0.3,0.3,0.5,0.1,0.8c-0.2,0.3-0.4,0.6-0.7,0.9c-0.5,0.7-1,1.4-1.5,2.1 c-0.5,0.7-1,1.4-1.6,2.1c-1,1.2-2,2.4-3,3.5c-1,1.1-2,2.2-3.1,3.4c-0.8,0.9-1.7,1.7-2.5,2.5c-0.8,0.8-1.6,1.7-2.3,2.6 c-0.4,0.6-0.8,1-1.3,1.3c-0.4,0.3-0.8,0.6-1.3,0.9c-0.1,0.1-0.2,0.3-0.3,0.5c-0.1,0.2-0.2,0.4-0.3,0.8c-0.7,0.6-1.4,1.2-2.1,1.9 c-0.7,0.6-1.5,1.3-2.3,1.9c-0.7,0.6-1.4,1.1-2.1,1.5c-0.8,0.4-1.5,0.8-2.2,1.3c-0.5,0.3-0.9,0.5-1.3,0.8c-0.4,0.3-0.8,0.5-1.3,0.8 c-0.2,0.2-0.4,0.2-0.7,0.3c-0.3,0-0.5,0.1-0.7,0.3c-0.5,0.4-0.9,0.6-1.4,0.6c-0.5,0-0.9,0.1-1.4,0.3c-0.8,0.4-1.6,0.5-2.3,0.4 s-1.4-0.4-2.1-0.8c-0.4-0.2-0.7-0.5-1-0.8c-0.3-0.3-0.6-0.5-1-0.8c-0.1-0.2-0.3-0.2-0.5-0.3c-0.2,0-0.5-0.1-0.7-0.1 c-0.5-0.2-0.8-0.3-0.8-0.4c-0.1-0.4-0.3-0.6-0.5-0.7c-0.2-0.1-0.4-0.2-0.7-0.2c-0.5-0.1-0.9-0.4-1-0.7c-0.2-0.5-0.3-1-0.5-1.5 c-0.2-0.5-0.3-1-0.6-1.4c-0.2-0.4-0.4-0.8-0.7-1.2c-0.3-0.4-0.5-0.8-0.6-1.3c-0.3-0.9-0.6-1.8-0.8-2.8c-0.2-1-0.4-2-0.5-3 c0-0.8,0.1-1.7,0.3-2.6c0.2-0.9,0.5-1.7,0.8-2.6c0.6-2.2,1.4-4.4,2.3-6.6c0.6-1.4,1.2-2.7,1.8-4.1c0.6-1.4,1.2-2.7,1.9-4 c0.8-1.7,1.7-3.5,2.9-5.3c1.2-1.9,2.4-3.8,3.6-5.6c1.2-1.9,2.4-3.7,3.6-5.5c0.8-1.2,1.7-2.4,2.7-3.6c1-1.2,1.9-2.3,2.7-3.5 c0.5-0.6,1-1.3,1.4-1.9c0.5-0.7,1-1.3,1.6-1.9c1.1-1,2.3-2.2,3.3-3.4c1.1-1.2,2.3-2.2,3.8-2.9c0.9-0.5,1.8-0.8,2.7-1 c0.9-0.2,1.8,0,2.7,0.7c0.4,0.2,0.7,0.5,1,0.8c0.3,0.3,0.6,0.6,0.9,0.9c0.3,0.4,0.6,0.7,0.9,1.1c0.3,0.3,0.5,0.7,0.7,1.1 c0.2,0.6,0.6,1,1,1.4c0.4,0.4,0.8,0.8,1.1,1.3c0.2,0.6,0.4,1.2,0.4,1.8s0.1,1.3,0.2,1.9c0.1,0.3,0.1,0.6,0.1,0.8c0,0.3,0,0.6,0,0.9 c-0.1,0.9-0.3,1.7-0.5,2.6c-0.2,0.8-0.4,1.7-0.7,2.6c-0.2,1.1-0.6,2.3-1.1,3.5c-0.4,1.1-0.8,2.2-1.4,3.3c-0.1,0.3-0.3,0.6-0.5,1 c-0.2,0.3-0.4,0.7-0.5,1c-0.1,0.3-0.2,0.5-0.4,0.6c-0.3,0.4-0.6,0.7-0.9,1c-0.3,0.3-0.6,0.7-0.9,1.1c-0.3,0.4-0.5,0.8-0.6,1.2 c-0.1,0.4-0.3,0.8-0.5,1.2c-0.5,0.9-1,1.7-1.6,2.4c-0.6,0.8-1.3,1.5-2.1,2.1c-0.3,0.2-0.5,0.4-0.7,0.6c-0.2,0.2-0.3,0.5-0.6,0.7 c-0.5,0.6-1.1,0.8-1.8,0.7c-0.7-0.1-1.1-0.4-1.4-1.1c-0.1-0.3-0.1-0.6,0.2-1c1-1,1.9-2.1,2.7-3.3c0.8-1.2,1.5-2.4,2.2-3.6 c1.1-1.8,2.1-3.6,3-5.4c0.9-1.9,1.7-3.8,2.4-5.7c1-2.9,1.6-5.6,1.8-8.2c0-0.2-0.1-0.5-0.2-0.9c-0.1,0.1-0.2,0.1-0.4,0.2 c-0.1,0-0.2,0.1-0.4,0.2c-0.4,0.2-0.7,0.6-1.1,0.9c-0.4,0.4-0.8,0.6-1.2,0.6c-0.9,0.1-1.7,0.4-2.3,0.9c-0.6,0.5-1.2,1.2-1.8,1.9 c-0.5,0.6-1,1.1-1.6,1.6c-0.6,0.5-1.2,1-1.8,1.6c-0.1,0.1-0.2,0.2-0.3,0.3c-0.1,0-0.2,0.1-0.3,0.3c-0.5,0.6-0.9,1.1-1.4,1.7 c-0.5,0.6-0.9,1.2-1.4,1.7c-0.5,0.6-1.1,1.3-1.7,2c-0.6,0.7-1.1,1.5-1.6,2.3c-0.5,0.7-0.9,1.5-1.4,2.3s-0.9,1.5-1.4,2.3 c-0.3,0.5-0.6,1-1,1.4c-0.4,0.4-0.7,0.9-1,1.4c-0.4,0.7-0.8,1.3-1.1,2c-0.3,0.7-0.7,1.3-1,2.1c-0.3,0.5-0.6,1.1-1,1.7 c-0.4,0.6-0.7,1.1-1,1.7c-0.8,0-1.1,0.4-1,1.3c0,0.3-0.1,0.6-0.3,0.9c-0.2,0.3-0.3,0.7-0.5,1c-0.2,0.6-0.5,1.3-0.8,1.8 c-0.3,0.6-0.6,1.2-0.9,1.8c-0.4,1-0.8,1.9-1.3,2.9c-0.4,0.9-0.8,1.9-1.2,2.8c-0.1,0.2-0.2,0.4-0.1,0.5c0,0.1,0,0.3,0,0.6 c-0.2,0.5-0.3,1-0.5,1.6c-0.1,0.5-0.2,1-0.4,1.5c-0.2,0.1-0.4,0.2-0.6,0.2c-0.2,0.1-0.5,0.2-0.8,0.4c0.5,0.3,0.8,0.5,0.9,0.8 c0.1,0.3,0,0.7-0.1,1.1c-0.5,1.3-0.3,2.4,0.5,3.3c0.5,0.5,0.9,1.1,1.2,1.7c0.3,0.6,0.6,1.3,0.9,1.9c0.2,0.6,0.6,1,1.1,1 c0.5,0.1,1,0.1,1.4,0.2c0.9,0.1,1.8,0,2.7-0.4c0.9-0.4,1.7-0.8,2.6-1.3c1.7-0.9,3.4-2,5-3.3c1.2-0.9,2.4-1.9,3.5-2.9 c1.1-1,2.2-2,3.4-3c0.8-0.6,1.5-1.3,2.2-2c0.7-0.7,1.4-1.4,2-2.1c1.3-1.2,2.5-2.5,3.8-3.7c1.3-1.2,2.5-2.5,3.7-3.8 c0.7-0.7,1.3-1.3,1.8-1.9c0.6-0.6,1.2-1.3,1.8-2c0.5-0.6,1-1.1,1.5-1.7c0.5-0.6,1-1.2,1.6-1.8c0.1-0.1,0.2-0.3,0.4-0.4 C149.3,106.5,149.4,106.4,149.6,106.2z M113.5,98.4c-0.1,0-0.1-0.1-0.1-0.1c0,0-0.1,0-0.1-0.1c-0.1,0.1-0.3,0.3-0.5,0.4 c-0.2,0.1-0.4,0.3-0.6,0.5c0.2,0.1,0.3,0.1,0.5,0.2c0.1,0,0.3,0.1,0.4,0.1c0.1-0.2,0.2-0.4,0.2-0.5 C113.4,98.8,113.4,98.6,113.5,98.4z"></path> <path class="st0" d="M189.7,120.2c0.1,0.6,0.4,1.1,0.8,1.5c0.4,0.4,0.8,0.6,1.1,0.8c0.4,0.2,0.6,0.4,0.8,0.5 c0.2,0.1,0.1,0.3-0.3,0.5c-0.3,0.1-0.6,0.2-0.8,0.4c-0.5,0.5-1.1,0.6-1.6,0.5c-0.5-0.1-1-0.2-1.5-0.3c-0.5,0-0.8-0.2-1.1-0.4 c-0.2-0.3-0.5-0.5-0.6-0.8c-0.3-0.4-0.6-0.7-1-0.9c-0.4-0.2-0.7-0.5-0.9-0.9c-0.8-1.4-1.4-2.9-2-4.6c-0.7-1.9-0.8-3.9-0.5-6 c0.4-2,0.9-4.1,1.5-6.1c0.7-2.2,1.4-4.4,2.2-6.5c0.8-2.1,1.6-4.3,2.5-6.3c0.5-1,1-2.1,1.4-3.1c0.5-1,1-2,1.4-3.1c0-0.1,0-0.1,0-0.1 c0,0,0-0.1,0-0.2l-0.4,0.1c-0.6,0.7-1.2,1.4-1.8,2.1c-0.6,0.7-1.1,1.4-1.7,2c-0.5,0.6-0.9,1.1-1.3,1.7c-0.4,0.5-0.8,1.1-1.3,1.7 c-0.5,0.7-1.1,1.4-1.7,2c-0.6,0.7-1.1,1.4-1.7,2.1c-0.5,0.6-0.9,1.2-1.4,1.8c-0.5,0.6-0.9,1.2-1.4,1.8c-0.2,0.3-0.4,0.6-0.5,0.9 c-0.2,0.3-0.4,0.5-0.6,0.8c-0.1,0.1-0.3,0.2-0.5,0.3s-0.3,0.1-0.4,0.1c-0.1,0.3-0.2,0.6-0.2,0.8c0,0.2-0.1,0.4-0.2,0.5 c-0.7,1-1.3,1.9-2,2.9c-0.7,1-1.4,1.9-2.1,2.9l-0.1,0.1c-0.1,0.8-0.4,1.5-0.9,2.1c-0.5,0.6-0.9,1.2-1.3,1.9c-0.5,0.7-1,1.4-1.5,2.1 c-0.5,0.6-1,1.3-1.5,2c-0.4,0.6-0.8,1.1-1.1,1.8c-0.3,0.6-0.7,1.2-1.2,1.7c-0.5,0.4-0.8,0.8-0.9,1.4c-0.2,0.5-0.5,0.9-1,1.2 c-0.1,0-0.2,0.1-0.3,0.2c-0.1,0.1-0.1,0.2,0,0.3c0.1,0.4,0.1,0.7-0.2,0.9c-0.2,0.2-0.5,0.5-0.8,0.9c-0.8,0.8-1.5,1.8-2.2,3 c-0.5,0.8-1.2,1.3-2.1,1.5c-0.8,0.2-1.6,0-2.3-0.5c-0.4-0.3-0.8-0.6-1-0.9c-0.3-0.3-0.4-0.8-0.5-1.4c0-0.1-0.1-0.1-0.2-0.2 c-0.7-0.2-1.2-0.6-1.5-1.1c-0.4-0.6-0.7-1.2-1-1.8c-0.1-0.3-0.2-0.6-0.4-0.9c-0.1-0.3-0.2-0.6-0.3-0.9c-0.6-2.8-0.5-5.8,0.4-9 c0.4-1.5,0.8-3,1.2-4.4c0.5-1.5,0.9-2.9,1.4-4.4c0.1-0.2,0.1-0.4,0.2-0.5c0.1-0.1,0.2-0.3,0.2-0.4c0.1-0.3,0.2-0.6,0.3-0.9 c0.1-0.2,0.1-0.5,0.3-0.9c0.2-0.5,0.4-1,0.6-1.6c0.2-0.6,0.5-1.1,0.7-1.6c0.2-0.5,0.4-0.9,0.5-1.4c0.2-0.5,0.4-0.9,0.5-1.4 c0.4-0.7,0.7-1.4,1-2.1c0.3-0.7,0.7-1.4,1-2.1c0.7-1.3,1.3-2.5,1.9-3.7c0.6-1.2,1.2-2.4,1.9-3.7c1.3-2.3,2.6-4.6,4.1-6.9 c0.8-1.3,1.7-2.7,2.6-4.1c0.9-1.4,1.9-2.7,2.9-4.1c0.7-0.9,1.4-1.8,2.1-2.6c0.8-0.8,1.5-1.6,2.2-2.4c1.7,0,3.3,0.4,4.6,1.1 c1.3,0.7,2.6,1.5,3.9,2.3c0.7,0.4,1.3,0.8,2,1.3c0.7,0.4,1.3,0.9,2,1.4c0.3,0.1,0.5,0.3,0.7,0.5c0.2,0.2,0.4,0.4,0.6,0.6 c0.7,0.5,1.5,1.1,2.2,1.6c0.8,0.5,1.5,1.1,2.2,1.6c0.1,0.1,0.3,0.2,0.5,0.3c0.2,0.1,0.4,0.2,0.6,0.2c-0.2,0.1-0.5,0.2-0.7,0.4v0.3 c0.3,0.1,0.5,0.1,0.6,0c0.4-0.3,0.8-0.6,1.2-0.9c0.4-0.3,0.8-0.6,1.2-0.9c0.2-0.3,0.5-0.4,0.6-0.3c0.4,0.1,0.8,0.1,1.3,0 c0.5-0.1,0.8,0.2,0.9,0.9c0.1,0.1,0.2,0.2,0.5,0.2c0.2,0,0.5,0.1,0.6,0.2c0.2,0.1,0.3,0.1,0.5,0.2c0.1,0,0.3,0.1,0.5,0.2 c0.1,0,0.2,0,0.3,0c0.1,0,0.2,0,0.3,0.1c0.4,0.4,0.8,0.8,1.3,1.1c0.4,0.3,0.8,0.7,1.2,1.1c0.3,0.4,0.4,1,0.2,1.8 c-0.2,0.8-0.5,1.4-0.9,1.8c-0.2,0.2-0.3,0.3-0.3,0.4c-0.1,0.2-0.2,0.4-0.2,0.6c0,0.2-0.1,0.3-0.2,0.5c-0.8,1-1.5,2.2-2,3.3 c-0.1,0.3-0.3,0.7-0.6,1c-0.3,0.4-0.6,0.7-0.8,1c-0.3,0.5-0.6,1.1-0.9,1.6c-0.3,0.5-0.6,1.1-0.8,1.6c-0.5,1-0.9,2-1.4,3 c-0.5,1-1,2-1.8,2.9c-0.3,0.4-0.5,0.7-0.7,1.2c-0.2,0.4-0.4,0.9-0.5,1.3c-0.4,0.9-0.8,1.7-1,2.4c-0.1,0.4-0.2,0.9-0.3,1.3 c-0.1,0.4-0.2,0.8-0.4,1.2c-0.1,0.3-0.3,0.6-0.5,0.9c-0.2,0.3-0.2,0.6-0.1,1l-0.1,0.2c-0.7,0.4-1,0.9-0.9,1.5 c0.1,0.6,0,1.1-0.2,1.6c-0.1,0.3-0.3,0.7-0.5,1c-0.2,0.4-0.4,0.7-0.5,1.1c-0.2,0.9-0.3,1.8-0.5,2.7c-0.2,0.9-0.3,1.8-0.3,2.7 c0,0.5,0,0.9,0,1.4C189.6,119.5,189.6,119.9,189.7,120.2z M152.3,116.9c-0.4-0.1-0.7-0.3-0.7-0.5c-0.1-0.2,0-0.4,0-0.7 c0.1-0.3,0.2-0.5,0.3-0.8c0.1-0.3,0.1-0.5,0.1-0.7c-1,0.9-1.3,1.8-0.8,2.6c0.1,0.1,0.2,0.2,0.4,0.2c0.2,0,0.3,0.1,0.5,0.2 L152.3,116.9z M152.8,112c0.2-0.4,0.3-0.8,0.5-1.2c0.1-0.4,0.3-0.9,0.5-1.3c-0.2,0.2-0.4,0.3-0.5,0.4c-0.2,0.1-0.3,0.3-0.5,0.4 c-0.4,0.8-0.8,1.5-1,2.2c-0.1,0.2-0.2,0.4-0.1,0.7c0,0.2,0,0.4,0,0.6c0.1,0.1,0.2,0.1,0.4,0c0.1-0.3,0.2-0.6,0.4-0.9 C152.6,112.6,152.7,112.3,152.8,112z M154.6,107.5c0.1-0.3,0.1-0.5-0.1-0.6c-0.1-0.2-0.3-0.2-0.5-0.2c-0.3,0.2-0.5,0.5-0.5,0.7 c-0.1,0.2,0,0.4,0.3,0.6c-0.2,0.2-0.5,0.5-0.9,0.8c0.1,0.2,0.3,0.3,0.5,0.3c0.2,0.1,0.3,0.1,0.5,0.2c0.1-0.3,0.3-0.6,0.4-0.9 C154.4,108.2,154.5,107.9,154.6,107.5z M154.9,106.3c0.1-0.1,0.2-0.3,0.2-0.4s0.1-0.2,0.2-0.4c0.1-0.2,0.2-0.4,0.3-0.6 c0.1-0.2,0.1-0.4,0.3-0.6c0.3-0.5,0.6-1,0.9-1.5c0.3-0.4,0.6-0.9,0.8-1.4c0.3-0.9,0.6-1.8,0.9-2.6c0.3-0.9,0.7-1.7,1.2-2.6 c0.1-0.1,0.2-0.3,0.1-0.4c0-0.1,0-0.3,0.1-0.4c0.5-0.9,1-1.8,1.4-2.5c0.1-0.3,0.2-0.5,0.3-0.7c0.1-0.2,0.2-0.5,0.3-0.7 c-0.1-0.1-0.2-0.2-0.2-0.2c-0.1,0.1-0.2,0.2-0.4,0.3c-0.1,0.1-0.2,0.1-0.4,0.3c-0.4,0.7-0.8,1.3-1.2,2c-0.4,0.6-0.8,1.3-1.2,2.1 c-0.1,0.1-0.1,0.2-0.1,0.3s0,0.2-0.1,0.2c-0.7,0.5-1.1,1.1-1.2,1.7c-0.2,0.6-0.3,1.3-0.4,1.9c-0.1,0.1-0.1,0.2-0.1,0.3 c0,0.1,0,0.1-0.1,0.2c-0.3,0.4-0.6,0.7-0.8,1.1c-0.2,0.4-0.3,0.8-0.2,1.2c0.2,0.1,0.1,0.2-0.1,0.3c-0.5,0.3-0.8,0.7-0.8,1.1 c0,0.5-0.2,0.9-0.5,1.2c-0.1,0.1-0.2,0.2-0.1,0.4c0.1,0.2,0.1,0.4,0.3,0.5c0,0.1,0.1,0.1,0.2,0.1 C154.8,106.4,154.9,106.4,154.9,106.3z M155.6,111.9c0.1,0,0.1,0.1,0.3,0c0.1-0.3,0.2-0.6,0.3-0.9c0.1-0.3,0.2-0.5,0.3-0.9 c-0.1,0-0.1,0-0.2,0c-0.1,0-0.2,0-0.3,0c-0.1,0.3-0.2,0.6-0.2,0.8C155.8,111.3,155.7,111.6,155.6,111.9z M188,85.7 c1.3-1.4,2.5-2.9,3.8-4.4c1.3-1.5,2.5-2.9,3.8-4.4c-0.1-0.1-0.2-0.2-0.2-0.2c-0.8,0.8-1.7,1.6-2.4,2.4c-0.8,0.8-1.6,1.6-2.4,2.4 c-0.3,0.4-0.6,0.7-0.9,1.1c-0.3,0.4-0.7,0.6-1.2,0.7c1-1,1.9-2,2.8-3c0.9-1,1.9-2,2.9-3c-0.3-0.1-0.5-0.1-0.7-0.1 c-0.2,0-0.4-0.1-0.5-0.2c-0.3-0.1-0.6-0.2-0.9-0.3c-0.3-0.1-0.6-0.2-0.9-0.3c-0.2-0.1-0.5-0.2-0.7-0.3c-0.2-0.1-0.5-0.2-0.8-0.3 c-0.2-0.1-0.4-0.1-0.6-0.2c-0.2,0-0.4-0.1-0.6-0.2c-0.7-0.4-1.4-0.8-2.1-1.2c-0.7-0.4-1.4-0.8-2.1-1.2c-0.4-0.2-0.7-0.2-0.9,0 c-0.7,0.5-1.4,1.1-1.9,1.7c-0.8,1-1.7,2-2.4,3c-0.8,1-1.6,2.1-2.4,3.1c-0.2,0.3-0.5,0.5-0.7,0.8c-0.2,0.2-0.5,0.5-0.7,0.8 c-0.3,0.5-0.7,0.9-1.1,1.2c-0.4,0.3-0.8,0.8-1,1.4c-0.2,0.5-0.5,1-0.8,1.5c-0.4,0.5-0.7,1-1,1.5l-0.2,0.1c-0.3,0.5-0.6,1-0.9,1.5 c-0.3,0.4-0.6,0.9-0.9,1.4c-0.1,0.2-0.2,0.4-0.3,0.6c-0.1,0.2-0.2,0.4-0.3,0.6c-0.5,1-1.1,2-1.7,3c-0.6,1-1.1,2-1.6,3 c-0.6,1.1-1.1,2.2-1.6,3.3c-0.5,1.1-0.9,2.2-1.4,3.4c-0.6,1.4-1.2,2.8-1.7,4.2c-0.5,1.4-1.1,2.8-1.7,4.2c-0.1,0.4-0.2,0.8-0.4,1.1 c-0.1,0.4-0.4,0.6-0.9,0.8c0,0.2,0,0.3,0.1,0.5c0.1,0.1,0,0.3-0.1,0.4c-0.4,0.5-0.6,1.1-0.7,1.7c-0.1,0.6-0.2,1.1-0.2,1.7 c-0.1,0.1-0.1,0.3-0.1,0.4c0,0.2,0,0.3-0.1,0.4c-0.2,0.7-0.4,1.4-0.4,2.1c0,0.7,0,1.4,0.1,2c0,0.1,0.1,0.4,0.3,0.9 c4.2-6.7,8.6-13.1,13.2-19.2c4.6-6.1,9.4-12.2,14.4-18.2c-0.3,0.5-0.6,1-0.9,1.4c-0.3,0.4-0.6,0.9-0.9,1.3c-0.5,0.7-1.1,1.4-1.6,2 c-0.5,0.6-1,1.3-1.5,2c-0.4,0.4-0.6,0.8-0.8,1c-0.1,0.1-0.2,0.3-0.4,0.5c-0.1,0.2-0.2,0.4-0.4,0.6c-0.1,0.1-0.2,0.1-0.3,0.2 c-0.1,0.1-0.2,0.2-0.2,0.2c0.1,0.4,0.1,0.6-0.1,0.7c-0.2,0.1-0.4,0.2-0.7,0.3c-0.2,0.2-0.4,0.3-0.5,0.5c-0.4,0.5-0.7,0.9-1,1.4 c-0.3,0.4-0.7,0.9-1,1.5c-0.1,0.1-0.1,0.3-0.1,0.4c0,0.1,0,0.2,0,0.4c-0.2,0.2-0.4,0.3-0.5,0.5c-0.2,0.2-0.4,0.3-0.5,0.5 c-0.1,0.1-0.1,0.2-0.1,0.3c0,0.1,0,0.2,0,0.3c0.1,0.1,0.1,0.1,0.2,0.1c0.1,0,0.2,0,0.2,0c0.4-0.1,0.6-0.3,0.8-0.6 c0.4-0.4,0.7-0.9,1-1.3c0.3-0.4,0.7-0.9,1-1.4c0.1-0.2,0.3-0.4,0.5-0.6c0.2-0.2,0.3-0.4,0.4-0.6c0.1-0.6,0.3-0.8,0.8-0.8 c0.3-0.1,0.5-0.3,0.7-0.8c0.3-0.8,0.7-1.4,1.1-1.9c0.5-0.6,1-1.1,1.4-1.7c0.5-0.6,1-1.1,1.4-1.7c0.2-0.2,0.3-0.4,0.4-0.7 c0.1-0.3,0.2-0.5,0.3-0.8c0.1-0.1,0.3-0.3,0.5-0.4c0.2-0.1,0.3-0.2,0.5-0.3c0.2-0.2,0.5-0.5,0.6-0.7c0.2-0.3,0.4-0.5,0.5-0.8 c0.2-0.3,0.4-0.5,0.6-0.8c0.2-0.2,0.4-0.5,0.5-0.8c0.2-0.3,0.5-0.6,0.9-0.9c0.4-0.3,0.8-0.4,1.1-0.3c0.6,0.3,1.1,0,1.5-0.8 c-0.3,0.1-0.6,0.1-0.9,0.2c-0.3,0.1-0.6,0.2-0.9,0.3c0-0.1,0-0.1,0-0.2C188,85.8,188,85.8,188,85.7z M160.1,102.4 c0.1-0.1,0.1-0.2,0-0.3c-0.1-0.1-0.1-0.2-0.2-0.3c-0.1,0.1-0.1,0.1-0.2,0.2c-0.1,0-0.2,0.1-0.2,0.2c-0.3,0.4-0.5,0.8-0.6,1.1 c0,0.1,0,0.1,0,0.1c0,0,0,0.1,0,0.1C159.4,103.2,159.8,102.8,160.1,102.4z M160.9,95.6c0.5-0.5,0.8-0.7,0.9-0.8 c0-0.1-0.1-0.2-0.5-0.4c-0.1,0.2-0.1,0.4-0.2,0.6C161,95.2,160.9,95.4,160.9,95.6z M170.6,107.1c0.6-0.4,1.1-0.7,1.4-0.9 c-0.3-0.2-0.5-0.3-0.7-0.2C171.1,106.1,170.9,106.5,170.6,107.1z M171.9,105.8c0.2-0.4,0.4-0.7,0.5-0.9c0-0.1,0-0.2-0.1-0.2 c-0.1,0-0.2-0.1-0.2-0.1c-0.2,0.3-0.4,0.5-0.5,0.6C171.6,105.2,171.7,105.5,171.9,105.8z M184.7,91.8c-0.1,0-0.1-0.1-0.1-0.2 c0-0.1,0-0.1,0-0.2c0-0.1,0-0.1,0-0.2c-0.2,0.2-0.4,0.3-0.5,0.4c-0.2,0.1-0.4,0.3-0.5,0.4c0.1,0.2,0.2,0.4,0.2,0.4L184.7,91.8z"></path> <path class="st0" d="M222.1,45.4c-0.3-0.5-0.7-0.6-1.3-0.3c-0.6,0.3-1,0.5-1.3,0.7c-0.5,0.3-0.9,0.6-1.4,0.7 c-0.5,0.1-0.9,0.3-1.4,0.5c-0.4,0.1-0.7,0.3-1,0.4c-0.3,0.1-0.7,0.3-1,0.5c-0.2,0.2-0.5,0.3-0.6,0.3c-1.2,0-2.4,0.3-3.5,0.8 c-1.1,0.6-2.3,1-3.5,1.4c-0.6,0.2-1.2,0.4-1.8,0.6c-0.6,0.2-1.2,0.1-1.7-0.2c-0.1-0.2-0.3-0.2-0.6,0c-1.2,0.5-2.4,1-3.6,1.5 c-1.2,0.5-2.4,1-3.6,1.5c-0.8,0.3-1.7,0.6-2.5,0.9c-0.8,0.3-1.6,0.5-2.5,0.8c-0.7,0.2-1.3,0.5-1.9,0.7c-0.6,0.2-1.2,0.5-1.9,0.7 l-1-0.8c0.7-1.7,1.7-3.2,3.1-4.3c1.3-1.1,2.8-2,4.3-2.8c1.1-0.6,2.3-1.1,3.4-1.7c1.1-0.6,2.3-1.1,3.5-1.6c1.6-0.7,3.1-1.3,4.7-1.9 c1.6-0.6,3.2-1.2,4.7-1.8c1.1-0.4,2.3-0.9,3.4-1.4c1.1-0.5,2.2-0.9,3.4-1.4c1.2-0.5,2.4-0.9,3.5-1.2c1.1-0.3,2.3-0.7,3.5-1.2 c1.2-0.5,2.4-0.9,3.6-1.3c1.2-0.4,2.4-0.9,3.6-1.4c0.6-0.2,1-0.7,1.3-1.3l5.9-14.6c0.4-0.9,0.8-1.8,1.3-2.8 c0.4-0.9,0.8-1.9,1.3-2.8c0.3-0.7,0.7-1.1,1.1-1.3c0.4-0.2,0.9-0.3,1.4-0.3c0.5,0,1,0,1.5,0c0.5,0,1,0,1.6,0c0.1,0,0.2,0,0.4,0 c0.1,0,0.2,0,0.4,0.1c0.6,0.3,1.2,0.6,1.8,0.8c0.6,0.2,1.1,0.6,1.5,1.2c0.2,0.3,0.4,0.5,0.6,0.8c0.2,0.3,0.4,0.5,0.6,0.8 c0.2,0.3,0.2,0.6,0.2,1c0,0.4-0.2,0.8-0.5,1.3v0.4c0.5,0.6,0.6,1.2,0.3,1.8c-0.3,0.6-0.8,1.2-1.4,1.8l-0.2,0.1 c-0.5,0.9-1,1.8-1.4,2.7c-0.5,0.9-1,1.8-1.4,2.7c-0.4,0.8-0.8,1.5-1.4,2.2c-0.1,0.6,0.3,0.8,1.1,0.7c2.1-0.5,4.2-1,6.3-1.5 c2.1-0.5,4.2-0.7,6.3-0.6c0.7,0,1.4,0,2.1-0.1c0.8-0.1,1.5-0.1,2.1-0.1c0.5,0,1,0.2,1.6,0.4c0.6,0.2,1.1,0.5,1.6,0.8 c0.5,0.4,0.9,0.8,1.2,1.3c0.3,0.5,0.5,1.1,0.5,1.8c0,0.5,0,1.1,0.1,1.6c0.1,0.5,0.1,1,0,1.5c-0.1,0.4-0.2,0.8-0.5,1.2 c-0.3,0.4-0.6,0.7-0.9,0.9c-0.7,0.4-1.4,0.7-2.2,0.9c-0.7,0.2-1.4,0.4-2.2,0.6c-0.8,0.2-1.7,0.4-2.5,0.5c-0.8,0.1-1.7,0.1-2.4,0 c-2-0.2-4-0.1-6.1,0.4c-2.1,0.4-4.2,0.8-6.3,1c-0.8,0.1-1.7,0.3-2.6,0.6c-0.9,0.2-1.9,0.5-2.9,0.8c0,0.1-0.2,0.6-0.5,1.4 c-0.3,0.8-0.6,1.7-0.9,2.6c-0.3,1-0.6,1.9-0.9,2.7c-0.3,0.9-0.5,1.4-0.5,1.6c-0.1,0.4-0.3,0.8-0.7,1.2c-0.3,0.4-0.5,0.8-0.4,1.3 c0.1,0.1,0,0.2-0.3,0.4c-0.2,0.2-0.5,0.3-0.6,0.5c0.2,0.6,0.2,1,0.2,1.1c-0.1,0.2-0.3,0.5-0.8,0.9c-0.1,0.2-0.4,0.5-0.7,0.9 c-0.1,0.1-0.3,0.3-0.4,0.4c-0.2,0.2-0.3,0.3-0.4,0.4c-0.1,0.1,0,0.3,0.1,0.4c0.1,0.2,0.2,0.3,0.4,0.5c-0.1,0.2-0.2,0.5-0.3,0.9 c-0.1,0.4-0.2,0.8-0.4,1.1c-0.1,0.4-0.2,0.8-0.4,1.2c-0.1,0.4-0.4,0.8-0.9,1.2c-0.1,0.1-0.2,0.3-0.2,0.5c0,0.2,0,0.4,0,0.5 c-0.4,0.5-0.7,0.9-1,1.3c-0.3,0.4-0.6,0.8-0.9,1.2c-0.2,0.3-0.2,0.6-0.1,0.7c0.2,0.6,0.2,0.9,0.2,1.1c-0.1,0.2-0.4,0.5-1,0.9 c0.2,0.5,0.3,0.9,0.1,1.1c-0.2,0.3-0.4,0.5-0.7,0.7c-0.3,0.2-0.7,0.4-1,0.6c-0.3,0.2-0.6,0.4-0.8,0.8c0.3,0,0.6,0,0.9-0.1 c0.3,0,0.6-0.1,0.9-0.2c-0.8,0.6-1.4,1.2-1.8,1.8c-0.3,0.6-0.3,1.1,0,1.6c-0.3,0.4-0.6,0.6-0.8,0.9c-0.2,0.2-0.4,0.4-0.7,0.7 c0.1,0.1,0.2,0.2,0.3,0.3c0.1,0.1,0.2,0.2,0.3,0.3c0.2,0.5,0.1,0.8-0.4,0.9c-0.4,0.1-0.8,0.2-1.2,0.5c0.2,0.3,0.4,0.6,0.5,0.9 c-0.3,0.2-0.6,0.4-0.9,0.6c-0.3,0.2-0.6,0.4-0.9,0.6c-0.2,0.2-0.4,0.3-0.4,0.5l0.4,0.3c0.5,0,0.9,0.1,1.2,0.1 c-0.6,0.1-0.9,0.3-1,0.7c-0.1,0.3-0.2,0.7-0.2,1.2c-0.1,0.5-0.3,1-0.5,1.6c-0.2,0.5-0.3,1.1-0.5,1.6c-0.1,0.1-0.1,0.3-0.1,0.4 c0,0.2,0,0.3-0.1,0.4c0,0.2-0.1,0.6-0.2,1.1c-0.2,0-0.4,0.1-0.5,0.1c-0.2,0-0.4,0-0.5,0.1c-0.1,0-0.1,0-0.2,0.1 c-0.1,0-0.2,0.1-0.3,0.1c0.2,0.3,0.4,0.5,0.5,0.7c0.2,0.2,0.4,0.4,0.5,0.6c-0.2,0.3-0.4,0.6-0.6,0.9c-0.2,0.3-0.4,0.7-0.5,1 c-0.1,0.3-0.1,0.5,0,0.8c0.1,0.2,0.2,0.5,0.4,0.7c0,0.1,0.1,0.2,0.2,0.3c0.1,0.1,0.2,0.2,0.1,0.3c-0.2,0.5-0.4,1-0.5,1.5 c-0.2,0.5-0.4,1-0.6,1.6c-0.1,0.1-0.2,0.2-0.5,0.4c-0.2,0.1-0.5,0.2-0.7,0.3c0.1,0.1,0.1,0.3,0.1,0.4c0,0.1,0.1,0.3,0.2,0.4 c-0.2,0.2-0.5,0.3-0.6,0.4c-0.2,0.1-0.4,0.2-0.5,0.3c0.4,0.7,0.5,1.4,0.4,2.1c-0.1,0.7-0.3,1.4-0.5,2.1c-0.1,0.5-0.3,1-0.5,1.4 c-0.2,0.4-0.3,0.9-0.5,1.4c-0.2,0.9-0.3,1.9-0.5,2.8c-0.1,0.9-0.2,1.8-0.4,2.7c-0.1,0.5-0.2,1-0.4,1.5c-0.1,0.5-0.2,0.9-0.4,1.4 c-0.1,0.1-0.2,0.2-0.3,0.3s-0.3,0.2-0.4,0.3c-0.3,0.4-0.5,0.7-0.7,0.9c-0.2,0.3-0.2,0.6-0.2,1.1c0.1,0.5,0,1-0.2,1.6 c-0.2,0.6-0.3,1.2-0.5,1.8c-0.1,0.2-0.1,0.4-0.2,0.6s-0.1,0.4-0.1,0.6c0.1,0.5,0.1,0.9,0.3,1.4c0.1,0.5,0.1,1,0,1.5 c-0.1,0.4-0.2,0.8-0.2,1.1c0,0.4-0.1,0.7-0.2,1c-0.2,0.8-0.3,1.4-0.1,2c0.2,0.5,0.5,1,0.9,1.4c0.1,0.1,0.2,0.2,0.3,0.3 c0.1,0.1,0.2,0.2,0.4,0.4c-1,0.5-1.7,0.5-2.3,0.1c-0.6-0.4-1.2-0.6-1.8-0.7c-0.3-0.1-0.5-0.3-0.7-0.7c-0.2-0.4-0.3-0.8-0.4-1.1 c-0.1-0.3-0.4-0.5-0.7-0.6c-0.4-0.1-0.4-0.4,0-0.9c-0.2-0.5-0.5-1-0.7-1.4c-0.2-0.4-0.4-0.9-0.5-1.4c-0.1-1.1-0.2-2.1-0.2-3.2 c0-1.1,0-2.1,0-3.1c0-0.7,0.1-1.3,0.2-1.9c0.1-0.6,0.2-1.2,0.4-1.9c0.1-0.6,0.2-1.1,0.2-1.7c0-0.5,0.1-1.1,0.2-1.7 c0.3-1.5,0.6-3,0.8-4.5c0.2-1.5,0.5-3,0.8-4.5c0.7-3.2,1.5-6.5,2.4-9.9c0.3-1.1,0.6-2.3,1-3.4c0.4-1.1,0.7-2.2,1.1-3.4 c0.7-2.2,1.4-4.4,2.2-6.6c0.7-2.2,1.4-4.4,2.2-6.6c0.3-0.8,0.6-1.7,0.9-2.5c0.3-0.8,0.6-1.6,0.9-2.5c0.4-1.2,0.8-2.3,1.3-3.5 c0.4-1.2,0.8-2.3,1.3-3.4c0.5-1.3,1-2.6,1.5-3.9c0.5-1.3,1-2.6,1.5-3.9c0.1-0.2,0.2-0.7,0.5-1.5c0.3-0.8,0.5-1.6,0.8-2.5 c0.2-0.9,0.4-1.6,0.5-2.3c0.1-0.7,0.1-1-0.1-1c-0.5,0-0.9,0.1-1.4,0.2c-0.5,0.1-0.9,0-1.2-0.3c-0.1-0.1-0.3-0.1-0.6,0.1 C222.7,45.1,222.4,45.3,222.1,45.4z M219.2,40.1c0-0.2,0-0.3-0.1-0.4c-0.4,0.1-0.8,0.2-1,0.3l-2.7,1c-0.5,0.2-1.1,0.4-1.6,0.5 c-0.5,0.1-1,0.3-1.6,0.5c-0.7,0.2-1.4,0.5-2,0.7c-0.7,0.2-1.4,0.5-2,0.8c-1.6,0.6-3.1,1.1-4.5,1.7c-1.5,0.5-3,1.1-4.6,1.7 c-1.1,0.5-2.2,1-3.2,1.6c-1.1,0.6-2.2,1.1-3.2,1.6c-0.7,0.4-1.4,0.8-1.9,1.2c-0.6,0.5-0.9,0.9-1.1,1.3c0.8-0.4,1.7-0.9,2.6-1.3 c0.9-0.4,1.8-0.8,2.6-1.3c1.3-0.5,2.5-1.1,3.7-1.6c1.2-0.5,2.5-1.1,3.7-1.6c1.2-0.5,2.4-1,3.6-1.4c1.2-0.4,2.4-0.9,3.6-1.3 c1.2-0.5,2.3-1,3.4-1.4c1.1-0.4,2.2-0.8,3.5-1.2c0.5-0.1,1-0.4,1.5-0.6C218.3,40.7,218.8,40.4,219.2,40.1z M202.7,48.1 c-0.4,0.2-0.8,0.4-1.2,0.5c-0.4,0.1-0.8,0.3-1.2,0.4c0,0.1,0,0.2,0,0.3c0,0.1,0,0.1,0,0.3c0.4-0.2,0.7-0.3,1.1-0.4 c0.4-0.1,0.8-0.2,1.2-0.4V48.1z M227.1,39.9c-0.2-0.1-0.4-0.1-0.6-0.2c-0.2-0.1-0.4,0-0.5,0.1c-0.7,0.2-1.3,0.5-2,0.8 c-0.7,0.3-1.4,0.6-2,0.9c-0.5,0.2-1.1,0.4-1.6,0.5c-0.5,0.1-1,0.3-1.6,0.5c-1.1,0.4-2.2,0.7-3.3,1.1c-1.1,0.3-2.2,0.7-3.4,1 c-0.2,0.1-0.5,0.2-0.7,0.3c-0.2,0.1-0.5,0.2-0.8,0.3l-4.9,1.7c-0.3,0.1-0.6,0.2-0.9,0.3c-0.3,0.1-0.6,0.2-0.9,0.3 c-0.1,0.1-0.2,0.3-0.3,0.5c-0.1,0.2-0.2,0.3-0.3,0.5c0.5,0.2,0.8,0.2,1.1,0.1c0.2-0.1,0.6-0.3,1.1-0.6c0.3-0.2,0.6-0.4,1-0.5 c0.4-0.1,0.8-0.2,1.1-0.3c0.5-0.1,0.9-0.2,1.4-0.2c0.5,0,0.8-0.2,1-0.8c1-0.3,2-0.6,3-0.8c1-0.2,1.9-0.6,2.7-1 c1.1-0.6,2.1-1,3.2-1.1c1.1-0.1,2.1-0.5,3.2-1.1c0.9-0.5,1.8-0.9,2.8-1.2c1-0.3,2-0.5,2.9-0.8c0.2-0.1,0.4-0.3,0.7-0.7 c0-0.1,0-0.1-0.1-0.2l-0.2-0.1c-0.4,0.1-0.7,0.2-0.8,0.2c-0.1,0.1-0.2,0.2-0.3,0.3C227.2,39.8,227.1,39.9,227.1,39.9z M206.8,123 c0.1-0.6,0.2-1.2,0.3-1.8c0.1-0.6,0.1-1.2,0.2-1.8c0.2,0.3,0.3,0.5,0.4,0.6c0.1,0.2,0.2,0.3,0.3,0.5c0.1-0.1,0.2-0.1,0.4-0.2 c0-0.3,0-0.6,0-0.9c0-0.3-0.1-0.5-0.2-0.6c-0.3-0.1-0.5-0.2-0.7-0.3c-0.2-0.2-0.3-0.4-0.4-0.6c-0.1,0.1-0.2,0.3-0.4,0.3 c-0.1,0.1-0.2,0.2-0.2,0.3c0,0.3,0,0.6,0,0.8c0,0.2,0,0.5,0,0.8c-0.1,0.5-0.1,0.9-0.1,1.3c0,0.4-0.1,0.8-0.2,1.3 C206.3,122.6,206.4,122.7,206.8,123z M215.8,86.8c-0.1,0.3-0.1,0.6-0.1,0.8c0,0.2,0,0.4-0.1,0.7c0.1,0,0.3,0,0.5,0 c0.1-0.3,0.2-0.5,0.2-0.8c0-0.2,0.1-0.5,0.2-0.8L215.8,86.8c0-0.1,0-0.3,0-0.4c0-0.2,0-0.4,0-0.5c0.6,0,1.2,0,1.7,0.1 c-0.1-0.5-0.2-0.8-0.3-1c-0.1-0.2-0.1-0.4-0.2-0.6c0.2-0.3,0.3-0.5,0.5-0.7c0.1-0.2,0.2-0.4,0.4-0.6c-0.4-0.2-0.7-0.3-0.9-0.5 c0.2-0.6,0.5-1.2,0.6-1.7c0.2-0.6,0.4-1.2,0.5-1.8c0.1,0,0.1,0.1,0.3,0c-0.1,0.4-0.2,0.8-0.3,1.1c-0.1,0.4-0.2,0.8-0.3,1.1 c-0.1,0.1-0.1,0.3-0.1,0.4c0,0.2,0,0.3-0.1,0.4c0.1-0.1,0.3-0.3,0.5-0.4c0.2-0.1,0.3-0.2,0.4-0.4c0.3-0.6,0.6-1.2,0.9-1.9 c0.3-0.7,0.6-1.4,0.9-2.1c-0.3,0.2-0.6,0.3-0.8,0.5c-0.2,0.1-0.4,0.3-0.7,0.4c-0.1,0-0.1-0.1-0.1-0.1c0,0,0-0.1-0.1-0.1 c0.2-0.2,0.5-0.5,0.8-0.8c0.1-0.1,0.3-0.3,0.5-0.5c0.2-0.2,0.3-0.3,0.5-0.5c0.3-0.7,0.6-1.4,0.8-2.2c0.2-0.7,0.4-1.5,0.7-2.2 c-0.1,0-0.3-0.1-0.5,0c-0.2,0-0.5,0-0.8-0.1c0.4-0.9,0.9-1.9,1.4-2.9c0.2,0.1,0.3,0.3,0.5,0.6c1.3-1.3,1.7-2.3,1.3-3.2 c-0.1,0.1-0.3,0.3-0.5,0.3c-0.2,0.1-0.3,0.2-0.5,0.4l-0.2-0.1c0.5-1.2,0.9-2.4,1.4-3.6c0.4-1.2,0.9-2.4,1.4-3.6l0.3,0 c0,0.3,0,0.6,0,0.8c0,0.2,0,0.4,0,0.7c0.1,0,0.1,0,0.1,0c0,0,0.1,0,0.1,0c0.2-0.3,0.5-0.7,0.7-1.1c0.2-0.4,0.4-0.7,0.6-1.1 c0.1-0.1,0-0.2,0-0.3c-0.1-0.1-0.2-0.1-0.3-0.1c-0.1,0-0.4,0.1-0.9,0.4c-0.1-0.3-0.2-0.6-0.2-0.7c0.3-1,0.6-2,0.9-3 c0.3-1,0.6-1.9,0.9-3c0.1-0.3,0.2-0.6,0.2-0.9c0-0.3,0.1-0.6,0.1-0.9c0.1-0.1,0-0.1,0-0.2c-0.1-0.1-0.2-0.1-0.3-0.1 c-0.3,0.1-0.5,0.2-0.5,0.4c-0.4,0.7-0.8,1.5-1.2,2.5c-0.6,1.5-1.2,3.1-1.8,4.7c-0.6,1.6-1.2,3.1-1.8,4.7c-0.4,1-0.7,2-1.1,3 c-0.4,1-0.8,2-1.1,3c-0.4,1-0.7,2-1.1,3c-0.4,1-0.8,2-1.1,2.9l-0.8,2.3c-0.2,0.7-0.5,1.4-0.8,2.1c-0.3,0.7-0.5,1.4-0.8,2.1 c-0.8,2.6-1.7,5.3-2.4,8c-0.3,0.9-0.6,1.8-0.8,2.6c-0.2,0.8-0.5,1.7-0.7,2.6c-0.2,0.8-0.3,1.6-0.5,2.4c-0.1,0.8-0.4,1.6-0.7,2.3 c-0.4,0.9-0.6,1.8-0.7,2.7c0,0.9-0.2,1.8-0.5,2.7c-0.4,0.9-0.6,1.8-0.6,2.8c0,1-0.2,1.9-0.5,2.9c-0.3,0.9-0.4,1.8-0.4,2.7 c0,0.9-0.1,1.8-0.5,2.7c-0.1,0.2-0.1,0.4,0,0.6c0.1,0.2,0.1,0.5,0.1,0.8c0.2-0.3,0.4-0.5,0.5-0.7c0.1-0.2,0.3-0.4,0.5-0.6 c0.2,1.1-0.2,1.8-1.4,2c0.3,0.1,0.6,0.1,0.9,0.2c0.3,0,0.6,0.1,0.9,0.2c0.6-1.1,0.9-2.1,0.9-3c0.1-0.9-0.2-1.8-0.7-2.5 c0.9-0.8,1.7-1.4,2.3-2c-0.3-0.2-0.6-0.4-0.8-0.5c-0.2-0.2-0.2-0.5,0.2-1.1c0.1-0.2,0-0.4-0.1-0.7c-0.3-0.2-0.4-0.5-0.3-0.8 c0.1-0.3,0.3-0.5,0.5-0.6c0-0.3,0-0.6,0-0.8c0-0.2,0-0.5,0-0.7c-0.1,0-0.2-0.1-0.3-0.1c-0.1,0-0.2-0.1-0.4-0.2 c0.4-0.2,0.7-0.3,1-0.4c0.3-0.1,0.5-0.2,0.6-0.4c0.3-0.6,0.6-1.2,0.8-1.8c0.2-0.6,0.5-1.2,0.8-1.9c-0.2,0-0.4,0.1-0.5,0.1 c-0.2,0.1-0.4,0.1-0.5,0.1c0-0.1,0-0.2-0.1-0.3c0.2-0.2,0.5-0.3,0.6-0.5c0.2-0.2,0.4-0.3,0.6-0.5c-0.1-0.6-0.1-1.2,0-1.8 c0-0.6-0.3-1.1-1.1-1.3c0.5-0.2,0.8-0.3,0.9-0.2c0.1,0.1,0.2,0.2,0.3,0.3c0.1,0.1,0.2,0.2,0.3,0.3c-0.1-0.5-0.1-0.9,0-1.1 c0.1-0.2,0.3-0.6,0.8-1.1c0.1-0.1,0.1-0.1,0.1-0.2c0,0,0-0.1,0.1-0.2c0.2-0.9,0.5-1.7,0.7-2.5c0.2-0.8,0.5-1.6,0.7-2.4l-0.2-0.3 c-0.1,0.1-0.2,0.2-0.4,0.3c-0.1,0.1-0.2,0.1-0.4,0.3c-0.1,0-0.1-0.1-0.1-0.1c0,0-0.1,0-0.1-0.1c0.2-0.4,0.4-0.8,0.6-1.1 C215.3,87.6,215.6,87.2,215.8,86.8z M208.2,121.5c-0.1,0.1-0.3,0.1-0.5,0.2c-0.1,0.4-0.2,0.7-0.3,1.1c-0.1,0.3,0.2,0.6,0.9,0.8 c0-0.4,0-0.7,0-1C208.2,122.2,208.2,121.8,208.2,121.5z M211.5,111.8c0.1,0,0.1,0,0.1-0.1c0,0,0.1-0.1,0.1-0.1 c0.2-0.5,0.4-1,0.5-1.4c0.2-0.5,0.3-0.9,0.5-1.4c0-0.1-0.1-0.3-0.4-0.7c-0.1,0.1-0.2,0.3-0.4,0.3c-0.1,0.1-0.2,0.2-0.3,0.3 c-0.1,0.4-0.2,0.8-0.3,1.1c-0.1,0.4-0.2,0.8-0.2,1.1c-0.1,0.1,0,0.3,0,0.4C211.4,111.6,211.4,111.7,211.5,111.8z M213.7,103.3 l-0.2-0.1c-0.1,0.2-0.3,0.4-0.5,0.6c-0.2,0.2-0.3,0.3-0.3,0.4c0.4,0.4,0.4,0.8,0,1.3c-0.3,0.4-0.6,0.9-0.7,1.3c0,0.1,0,0.3,0,0.5 c0,0.2,0,0.3,0,0.5c0,0.1,0.1,0.1,0.2,0.1c0.1,0,0.2,0,0.3,0c0.2-0.2,0.4-0.3,0.5-0.5c0.2-0.2,0.3-0.4,0.3-0.5 c0.1-0.6,0.2-1.2,0.2-1.7C213.6,104.5,213.7,103.9,213.7,103.3z M224.6,68.8c-0.1,0.3-0.2,0.7-0.4,1.1c-0.1,0.4-0.3,0.7-0.5,1.1 c-0.4,0.8-0.8,1.5-1.3,2.3s-0.8,1.5-0.9,2.4c-0.1,0.4-0.2,0.8-0.3,1.2c-0.1,0.4-0.2,0.8-0.4,1.1c-0.8,1.5-1.5,2.9-1.8,4.4 c-0.4,1.5-0.8,3-1.2,4.5c-0.2,0.6-0.3,1.3-0.4,1.9c-0.1,0.6-0.4,1.2-0.9,1.9c-0.2,0.3-0.4,0.7-0.5,1.2c-0.1,0.4-0.2,0.9-0.4,1.2 c-0.1,0.7-0.2,1.3-0.3,2c-0.1,0.6-0.2,1.3-0.5,2c-0.2,0.7-0.4,1.4-0.5,2.2s-0.6,1.4-1.4,2c0.1,0.3,0.2,0.6,0.4,0.8 c0.1,0.3,0.3,0.6,0.4,1c0.4-0.7,0.6-1.2,0.6-1.5c0.5-1.5,0.9-2.9,1.4-4.4c0.4-1.5,0.9-2.9,1.4-4.4l1.6-5.1c0.1-0.4,0.3-0.8,0.4-1.2 c0.1-0.4,0.3-0.8,0.5-1.2c0.2-0.5,0.4-1,0.7-1.4c0.3-0.4,0.4-0.9,0.5-1.4c0.1-0.7,0.2-1.4,0.4-2c0.1-0.7,0.5-1.4,1-2.1 c0.1-0.1,0.1-0.1,0.1-0.2c0-0.1,0-0.1,0.1-0.2c0.1-0.2,0.1-0.5,0.2-0.8c0.1-0.2,0.1-0.6,0.3-0.9c-0.1-0.3-0.1-0.8,0.2-1.5 c0.2-0.7,0.6-1.4,1-1.9c0.5-0.6,0.7-1.3,0.7-1.9s0.1-1.3,0.2-2C225.1,68.9,225,68.9,224.6,68.8z M217.4,96.9 c0.4-0.4,0.9-0.9,1.5-1.4c-0.6,0-1,0.1-1.3,0.2C217.4,95.8,217.3,96.3,217.4,96.9z M219.2,75.2c0.1-0.4,0.3-0.9,0.4-1.2 c0.1-0.4,0.3-0.8,0.4-1.2c0.1,0,0.2,0.1,0.3,0c0.1,0,0.1,0,0.3,0l-0.8,2.3c-0.1,0-0.2,0-0.3,0C219.4,75.2,219.4,75.2,219.2,75.2z M223.5,38.4c-0.6,0.2-1.2,0.4-1.7,0.6c-0.5,0.2-1.1,0.3-1.7,0.6v0.3c0.5,0.2,0.8,0.2,1,0.3c0.5-0.3,0.9-0.5,1.3-0.7 c0.4-0.2,0.8-0.4,1.1-0.7V38.4z M226,68.2c0-0.7,0.1-1.3,0.4-2c0.2-0.7,0.5-1.3,0.8-2c0.3-0.7,0.6-1.3,0.8-2c0.2-0.7,0.4-1.3,0.4-2 c-0.5,0.8-1,1.8-1.4,2.9c-0.3,0.7-0.6,1.4-0.8,2c-0.2,0.6-0.5,1.3-0.8,1.9C224.7,67.9,225,68.3,226,68.2z"></path> <path class="st0" d="M253.8,52.8c0.8,0.3,1.5,0.8,2.1,1.4c0.5,0.6,1.1,1.2,1.6,1.9c0.1,0.2,0.2,0.5,0.4,0.7 c0.1,0.2,0.1,0.5,0.1,0.8c-0.1,0.7-0.2,1.4-0.3,2.1c-0.1,0.7-0.2,1.5-0.5,2.3c-0.5,1-1.1,1.9-1.8,2.8c-0.6,0.9-1.2,1.8-1.7,2.8 c-0.4,0.9-0.7,1.8-1.1,2.8c-0.4,0.9-0.8,1.9-1.2,2.8c-0.1,0.3-0.2,0.5-0.3,0.8c-0.1,0.3-0.2,0.6-0.4,0.9c-0.2,0.3-0.4,0.7-0.6,1.1 c-0.2,0.4-0.4,0.8-0.7,1.2c-0.2,0.7-0.6,1.4-1.1,2.2c-0.3,0.5-0.6,0.9-0.9,1.3c-0.3,0.4-0.3,0.8,0,1.3c0.1,0.2,0.1,0.4-0.1,0.8 c-0.2,0.4-0.5,0.7-0.8,0.9c-0.7,0.7-0.8,1.3-0.5,1.9c0.3,0.4,0.3,0.7-0.1,0.9c-0.4,0.2-0.7,0.4-0.9,0.8c0.1,0.1,0.2,0.2,0.3,0.2 c0.1,0,0.1,0,0.3,0.1c-0.2,0.3-0.4,0.7-0.6,1c-0.2,0.4-0.4,0.8-0.6,1.2c-0.5,0.9-1,1.9-1.4,3c-0.1,0.3-0.2,0.5-0.3,0.9 c-0.1,0.3,0,0.5,0.1,0.7c0.3,0.5,0.3,1,0.1,1.5c-0.4,0.4-0.5,0.9-0.5,1.4c-0.1,0.4-0.1,0.7-0.2,0.9c-0.1,0.3-0.3,0.5-0.8,0.9 c-0.1,0.1-0.1,0.2-0.1,0.5c0,0.3,0,0.6,0.1,0.8c-0.3,0.4-0.5,0.7-0.6,0.9c-0.1,0.3,0,0.6,0.3,0.9c0,0.1,0,0.3-0.1,0.5 c-0.1,0.2-0.1,0.5-0.1,0.7c-0.1,0.7-0.2,1.4-0.3,2.1c-0.1,0.7-0.2,1.4-0.3,2.1c-0.3,0-0.6,0-0.8,0c-0.2,0-0.4,0-0.7,0 c0,0.1,0,0.2,0,0.2c0,0,0,0.1,0,0.1c0.2,0.1,0.4,0.2,0.6,0.2c0.2,0.1,0.4,0.1,0.7,0.2c-0.1,0.5-0.2,1.1-0.2,1.7s-0.2,1.2-0.7,1.9 c-0.1,0.1-0.2,0.3-0.1,0.5c0,0.2,0,0.4,0,0.5c-0.1,0.2-0.1,0.5-0.1,0.7c0,0.2-0.1,0.3-0.2,0.5c-0.5,0.5-0.8,1-0.6,1.4 c0.1,0.4,0.2,0.8,0.4,1.3c0.1,0.3,0.1,0.6,0.2,0.9c0.1,0.3,0.1,0.7,0.1,1c0.1,0.8-0.2,1.1-1,1c-1.1-0.2-2.2-0.6-3.1-1 c-0.9-0.5-1.5-1.3-1.7-2.5c-0.1-1.1-0.3-2.2-0.5-3.3c-0.2-1.1-0.3-2.2-0.3-3.5c0.1-1.9,0.3-3.9,0.5-5.8c0.2-2,0.5-3.9,0.9-5.9 c0.1-1,0.3-2,0.5-2.9c0.2-0.9,0.4-1.9,0.7-3c0.3-1,0.6-2,0.9-3c0.3-1,0.6-2,0.9-3.1c0.7-2.2,1.4-4.4,2.1-6.5 c0.7-2.1,1.5-4.3,2.3-6.6c0.6-1.7,1.2-3.4,1.9-5.1c0.7-1.7,1.4-3.4,2-5.1c0.7-1.5,1.3-3,1.8-4.5c0.5-1.5,1.1-3,1.6-4.5 c0.1-0.1,0.1-0.3,0.3-0.5c0.1-0.2,0.2-0.3,0.4-0.3C250.7,52.3,252.4,52.3,253.8,52.8z M236,101.2c0.1-0.2,0.1-0.4,0-0.6 c-0.1-0.2-0.1-0.4-0.2-0.6c-0.1,0.3-0.2,0.5-0.3,0.7c-0.1,0.2-0.2,0.4-0.3,0.6v0.1c-0.3,1.3-0.6,2.6-0.8,3.9 c-0.2,1.3-0.3,2.6-0.1,3.8c0.1,0.1,0,0.2-0.3,0.6c-0.1-0.4-0.2-0.8-0.3-1.3c-0.1-0.4-0.2-0.9-0.4-1.3c-0.1-0.2,0-0.4,0-0.6 c0.1-0.2,0.2-0.4,0.2-0.7c0.1-0.2,0.1-0.4,0-0.6c-0.1-0.2-0.2-0.3-0.5-0.4c-0.1,1.4-0.2,2.8-0.3,4.1c-0.1,1.3-0.1,2.7-0.1,4.1 c0.1,0.3,0.1,0.5,0.2,0.7c0.1,0.2,0.2,0.4,0.2,0.6c0.5-0.5,0.8-1,0.7-1.4c-0.1-0.4-0.2-0.8-0.2-1.2c0-0.3,0-0.6,0.1-0.8 c0.1-0.2,0.2-0.5,0.5-0.8c0.4-0.4,0.7-0.8,0.7-1.2c0.1-0.4,0-0.8-0.3-1.2c0.1-0.3,0.3-0.6,0.5-0.9c0.2-0.3,0.3-0.6,0.3-0.8 c-0.1-0.5-0.2-0.9-0.1-1.4c0-0.5,0.2-1,0.4-1.5C236.1,102.6,236.1,101.9,236,101.2z M233.7,101.1c-0.1,0.3-0.1,0.6-0.2,0.9 c-0.1,0.3-0.1,0.6-0.2,0.9c0.2,0,0.4,0,0.6,0.1c0.1-0.3,0.1-0.6,0.1-0.8c0-0.2,0.1-0.5,0.1-0.8c0-0.1-0.1-0.1-0.2-0.1 C233.9,101.2,233.8,101.2,233.7,101.1z M239.9,90.2c0.3-0.1,0.5-0.2,0.6-0.3c0.1-0.2,0.2-0.4,0.2-0.5c0-0.2,0.1-0.4,0.1-0.6 c0-0.2,0.1-0.4,0.2-0.6c-0.5,0-0.8-0.1-0.9-0.2c-0.2,0-0.5-0.2-1.1-0.4c-0.1,0.1-0.1,0.3-0.2,0.4c-0.1,0.2-0.1,0.3-0.2,0.5 c-0.3,0.8-0.6,1.6-0.9,2.4c-0.3,0.8-0.6,1.7-0.8,2.6c-0.2,0.8-0.5,1.7-0.6,2.5c-0.2,0.8-0.4,1.7-0.6,2.6c-0.1,0.1-0.1,0.3,0,0.4 c0.1,0.1,0.1,0.3,0.2,0.4c0.1-0.1,0.3-0.2,0.5-0.3c0.2-0.1,0.3-0.2,0.3-0.3c0-0.5,0.1-0.9,0.4-1.3c0.3-0.4,0.4-0.8,0.3-1.3 c-0.1-0.2,0-0.4,0.2-0.7c0.2-0.3,0.3-0.6,0.5-0.8c0.5-0.6,0.8-0.9,0.8-1c-0.2-0.3-0.3-0.5-0.5-0.7c-0.2-0.2-0.2-0.3-0.2-0.5 c0.2-0.5,0.4-1,0.6-1.5c0.2-0.5,0.4-1,0.5-1.4c0.1,0.1,0.2,0.2,0.3,0.4C239.6,90.1,239.7,90.2,239.9,90.2z M239,92.3 c0.5,0,0.9-0.1,1-0.3c0.1-0.2,0.2-0.4,0-0.7c0.1-0.1,0-0.2,0-0.3c-0.1,0-0.2-0.1-0.3-0.2c-0.2,0.3-0.3,0.5-0.4,0.7 C239.2,91.8,239.1,92,239,92.3z M241,87.6c0.3-0.1,0.5-0.4,0.6-1c0.1-0.6,0.1-1.1,0-1.7c-1,0.4-1.6,0.7-1.7,0.9 c-0.1,0.2-0.1,0.5,0.1,0.9c0.1,0.2,0.2,0.4,0.4,0.6C240.7,87.5,240.9,87.6,241,87.6z M273.7,28.4c0.1,1,0,1.9-0.5,2.8 c-0.4,0.9-1,1.7-1.8,2.6c-0.4,0.6-0.9,1.1-1.4,1.6c-0.5,0.5-1,1-1.5,1.6c-0.5,0.4-0.8,0.9-1.1,1.4c-0.2,0.5-0.5,1-0.8,1.5 c-0.3,0.8-0.8,1.2-1.4,1.3c-0.3,0.2-0.6,0.4-0.8,0.8c-0.2,0.3-0.5,0.7-0.6,1c-0.3,0.5-0.6,1-0.9,1.5c-0.3,0.4-0.7,0.8-1.3,1.1 c-0.2,0.2-0.4,0.4-0.5,0.7c-0.5,0.7-0.9,1.1-1.2,1.2c-0.3,0.1-0.7,0-1.2-0.4c-1-0.5-1.6-1.4-1.8-2.7c-0.2-1.2-0.1-2.5,0.4-3.8 c1.1-2.4,2.3-4.7,3.4-7.1c1.1-2.4,2.3-4.7,3.5-7.1c0.2-0.6,0.6-1.3,1-2c0.4-0.9,0.9-1.4,1.3-1.6c0.5-0.2,1.2-0.3,2.4-0.2 c-0.2,0.1-0.3,0.3-0.5,0.4c-0.1,0.1-0.3,0.3-0.4,0.4c0.2,0.3,0.3,0.4,0.4,0.3c0.7-0.3,1.4-0.4,1.9-0.4c0.5,0,1,0.3,1.5,0.7 c0.1,0.2,0.2,0.4,0.3,0.5c0.1,0.1,0.1,0.3,0.1,0.5c0.1,0.3,0.1,0.5,0.2,0.6c0.1,0.1,0.2,0.3,0.5,0.5c0.3,0.2,0.5,0.6,0.7,1.1 C273.8,27.7,273.8,28.1,273.7,28.4z"></path> <path class="st0" d="M299.5,60.8c0.1,0.7,0.1,1.4,0,2.2c-0.1,0.7-0.1,1.5-0.1,2.2c0,0.2,0,0.4,0,0.6c0,0.2,0,0.4,0,0.6 c-0.1,0.5-0.2,1-0.3,1.5c-0.1,0.5-0.3,1.1-0.5,1.6c-0.2,0.5-0.4,1-0.6,1.5c-0.2,0.5-0.2,0.9,0,1.4c0.3,0.5,0.3,1.1-0.1,1.5 c-0.4,0.5-0.7,1-0.9,1.5c-0.3,0.7-0.6,1.3-0.9,2c-0.3,0.6-0.6,1.3-0.9,2c-0.1,0.1-0.2,0.3-0.3,0.4c-0.1,0.1-0.2,0.3-0.3,0.4 c-0.4,0.7-0.8,1.3-1.2,2c-0.4,0.7-0.8,1.3-1.2,2c-0.4,0.5-0.7,1.1-1.1,1.6c-0.4,0.6-0.8,1.1-1.1,1.6c-0.1,0.1-0.2,0.3-0.2,0.5 c0,0.2-0.1,0.4-0.2,0.7c-0.1,0.1-0.3,0.3-0.8,0.6c0.3,0.2,0.5,0.5,0.7,0.7c-0.7,0.8-1.3,1.7-1.9,2.5c-0.6,0.8-1.3,1.6-1.9,2.5 c-0.5,0.8-1.1,1.5-1.6,2.3c-0.5,0.8-1.1,1.6-1.6,2.3c-0.4,0.5-0.8,1-1.2,1.4c-0.4,0.5-0.8,0.9-1.3,1.4c-0.4,0.4-0.7,0.7-1.1,1.1 c-0.4,0.4-0.8,0.8-1.2,1.2c-0.7,0.7-1.4,1.3-2.1,1.9c-0.7,0.6-1.4,1.2-2,1.9c-0.7,0.7-1.4,1.2-2.1,1.4c-0.8,0.2-1.5,0.6-2.1,1.1 c-0.2,0.2-0.5,0.2-0.9,0.2s-0.6,0-0.9-0.1c-0.8-0.2-1.5-0.4-2.1-0.7c-0.3-0.2-0.6-0.3-1-0.2c-0.4,0-0.7-0.1-1-0.4 c-0.4-0.4-0.9-0.8-1.3-1.2c-0.5-0.4-0.9-0.8-1.4-1.2c-0.5-0.5-1-1.1-1.4-1.9c-0.4-0.7-0.7-1.3-1.1-2c-0.4-0.7-0.7-1.4-1-2.2 c-0.1-0.3-0.2-0.7-0.3-1.1c-0.1-0.4-0.1-0.7-0.2-1.1c0-0.8,0-1.7,0-2.5c0-0.8,0-1.6,0.1-2.5c0.1-0.9,0.3-1.8,0.5-2.7 c0.2-0.9,0.4-1.8,0.7-2.7c0-0.1,0.1-0.2,0.2-0.3c0.1-0.1,0.2-0.2,0.2-0.3c0.1-0.3,0.1-0.6,0-0.7c0-0.2,0-0.4,0-0.5 c0.5-1.9,1.1-3.7,1.8-5.4c0.2-0.6,0.4-1.1,0.6-1.7c0.2-0.6,0.5-1.1,0.7-1.6c0.2-0.5,0.5-1.1,0.6-1.6c0.2-0.5,0.4-1.1,0.7-1.6 c0.4-0.8,0.7-1.7,1.1-2.4c0.4-0.8,0.8-1.6,1.2-2.4c1-2.2,2.1-4.3,3.2-6.3c0.3-0.5,0.6-1,0.9-1.5c0.3-0.5,0.6-1,0.9-1.5 c0.1-0.1,0.2-0.3,0.3-0.5c0.1-0.2,0.1-0.3,0-0.4c-0.3-0.4-0.7-0.5-1.1-0.4c-0.3,0.1-0.6,0.2-0.9,0.4c-0.3,0.1-0.6,0.3-0.9,0.5 c-0.3-0.4-0.6-0.5-1-0.5c-0.4,0-0.9,0.3-1.6,0.7c-0.5,0.3-1.2,0.5-1.9,0.7c-0.8,0.1-1.4,0.1-2,0c0.2-0.1,0.4-0.3,0.6-0.4 c0.2-0.1,0.3-0.2,0.4-0.2c0.5-0.1,1-0.3,1.3-0.6c0.3-0.3,0.6-0.7,0.9-1.2c0.1-0.1,0.2-0.2,0.3-0.3c0.1-0.1,0.2-0.2,0.3-0.3 c1.2-0.7,2.4-1.3,3.5-2c1.1-0.6,2.2-1.2,3.4-1.9c0.7-0.4,1.3-0.7,1.9-1c0.6-0.3,1.2-0.6,1.9-1c0.3-0.2,0.6-0.5,0.9-0.8 c0.3-0.3,0.4-0.7,0.1-1.1c0.9-0.6,1.6-1.4,2.2-2.4c0.5-0.9,1.1-1.8,1.8-2.6c0.5-0.6,0.9-1.1,1.4-1.7c0.4-0.6,0.9-1.1,1.4-1.7 c0.3-0.3,0.6-0.4,1-0.4c0.4,0.1,0.6,0.2,0.8,0.5c0.1,0.1,0.3,0.2,0.7,0.2c0.3,0,0.6,0,1,0c0.4,0,0.7,0,1,0c0,0.1-0.1,0.2-0.2,0.3 c0.2,0.1,0.5,0.4,0.9,0.7c0.4,0.2,0.7,0.4,1.1,0.6c0.4,0.2,0.6,0.5,0.8,1.1c0,0.1,0.1,0.2,0.2,0.3c0.5,0.2,0.7,0.5,0.6,0.8 c-0.1,0.3-0.2,0.7-0.3,1c-0.2,0.5-0.5,0.9-0.7,1.4c-0.2,0.5-0.4,0.9-0.5,1.4c-0.1,0.3,0,0.5,0.4,0.7c0.8,0.3,1.5,0.7,2.3,1.1 c0.8,0.4,1.5,0.8,2.4,1.1c0.6,0.3,1.1,0.6,1.4,1c0.4,0.4,0.7,0.8,1.1,1.2c0.1,0.1,0.2,0.2,0.2,0.4s0,0.4,0.1,0.6 c0.3-0.2,0.5-0.1,0.5,0.1c0.1,0.2,0.1,0.5,0.2,0.9c0.2,0.7,0.4,1.4,0.7,2C299.2,59.4,299.4,60.1,299.5,60.8z M296.1,64.4 c0-0.4,0.1-0.9,0.3-1.4c0.2-0.5,0-0.8-0.5-0.9c-0.1-0.8-0.3-1.5-0.4-2.1c-0.2-0.7-0.3-1.3-0.3-2c-0.1-0.5-0.2-0.9-0.4-1.2 c-0.2-0.3-0.5-0.6-1-0.9v1.6c-0.2-0.2-0.4-0.4-0.5-0.5c-0.2-0.4-0.3-0.8-0.5-1.2c-0.1-0.4-0.4-0.8-0.7-1.1 c-0.3-0.3-0.7-0.6-1.2-0.8c-0.5-0.2-1.1-0.4-1.7-0.5c-0.6-0.1-1.2-0.1-1.8,0c-0.6,0.1-1.1,0.2-1.5,0.5c-0.2,0.1-0.3,0.2-0.4,0.4 c-0.5,0.8-1.1,1.5-1.6,2.2c-0.5,0.7-1.1,1.4-1.5,2.2c-0.6,0.9-1.2,1.8-1.8,2.6c-0.6,0.9-1.2,1.8-1.8,2.7c-0.3,0.4-0.6,0.7-0.8,1.1 c-0.2,0.4-0.4,0.7-0.7,1.1c-0.3,0.6-0.6,1.2-0.9,1.7c-0.3,0.6-0.6,1.1-0.9,1.7c-0.5,0.9-0.9,1.7-1.4,2.5c-0.4,0.8-0.9,1.7-1.4,2.6 c-0.2,0.4-0.5,0.8-0.7,1.2c-0.2,0.4-0.4,0.7-0.6,1.1c-0.5,1-0.9,1.9-1.3,2.9c-0.4,0.9-0.8,1.9-1.2,2.8c-0.3,0.7-0.6,1.3-0.8,1.9 c-0.2,0.6-0.5,1.3-0.8,2c-0.2,0.3-0.3,0.7-0.4,1.1c-0.1,0.4-0.4,0.6-1.1,0.6c-0.1,0.7-0.1,1.5,0,2.2c0.1,0.7-0.3,1.4-1.1,2V93 c-0.1,0.7-0.2,1.4-0.4,2.1c-0.1,0.7-0.2,1.5-0.4,2.1c-0.1,0.3-0.1,0.6-0.2,1c-0.1,0.3-0.1,0.7-0.1,1c0,0.7,0,1.4,0,2.2 c0,0.7,0.1,1.4,0.1,2.1c0.1,0.6,0.5,0.8,1,0.5c0.7-0.4,1.3-0.8,1.9-1.2c0.6-0.4,1.2-0.8,1.8-1.2c0.7-0.6,1.4-1.2,2.2-1.9 s1.4-1.3,2.1-1.9c0.7-0.6,1.3-1.2,1.9-1.9c0.6-0.6,1.2-1.3,1.8-1.8c0.3-0.4,0.6-0.7,0.8-1c0.2-0.3,0.5-0.7,0.8-1.1 c0-0.2,0.1-0.5,0.4-0.8c0.2-0.3,0.5-0.4,0.8-0.4l0.9-0.2c-0.1-0.2-0.1-0.3-0.1-0.5c0-0.1-0.1-0.3-0.1-0.5c0.1-0.1,0.3-0.3,0.5-0.5 c0.2-0.2,0.4-0.4,0.7-0.7c0.2-0.2,0.4-0.4,0.7-0.6c0.3-0.2,0.5-0.4,0.5-0.6c0-0.7,0.1-1,0.5-0.9c0.3,0,0.7,0,1.1-0.2 c-0.4,0.7-0.7,1.2-0.9,1.7c0.1,0.1,0.2,0.1,0.3,0.1c0.3-0.3,0.6-0.6,0.9-0.8c0.3-0.3,0.5-0.6,0.7-0.9c0.4-0.8,0.9-1.5,1.6-2.1 c0.6-0.6,1.2-1.3,1.6-2.1c0.3-0.5,0.7-1,1.2-1.5c0.5-0.4,0.8-1,1-1.6c0.1-0.2,0.2-0.5,0.5-0.8c0.3-0.5,0.6-1.1,0.9-1.6 c0.3-0.5,0.6-1,0.9-1.6c0.2-0.3,0.3-0.7,0.5-1.1c0.1-0.4,0.3-0.7,0.4-1.1c0.2-0.6,0.4-1.1,0.6-1.6c0.1,0,0.3-0.1,0.6-0.3 c-0.1,0-0.1-0.1-0.1-0.1c0,0-0.1,0-0.1-0.1c0.1-0.2,0.1-0.5,0.1-0.7c0-0.2,0.1-0.4,0.2-0.6c0.1-0.2,0.1-0.5,0.3-0.7 c0.1-0.2,0.2-0.4,0.4-0.7c0.1-0.7,0.3-1.3,0.5-2C296.1,65.6,296.1,65,296.1,64.4z M267,57.4c0.7-0.5,1.3-0.9,2-1.3 c-0.5-0.1-0.9,0-1.4,0.3C267.1,56.7,266.9,57,267,57.4z M284,85.8c0.5-0.7,1-1.4,1.5-2.1c0.5-0.7,1-1.4,1.5-2.1c0.1,0,0.1,0,0.1,0 c0,0,0.1,0,0.1,0c-0.1,0.3-0.3,0.7-0.4,1c-0.2,0.4-0.3,0.7-0.6,1c-0.3,0.4-0.6,0.8-1,1.2c-0.4,0.4-0.7,0.7-1,1.1 C284.1,85.9,284,85.9,284,85.8z M291,74.7c0,0.2-0.1,0.7-0.4,1.2c-0.2,0.6-0.6,1.2-0.9,1.9c-0.4,0.7-0.8,1.3-1.3,1.9 c-0.5,0.6-0.8,1-1.1,1.2c0.7-1.1,1.3-2.1,1.9-3.2C289.8,76.8,290.4,75.8,291,74.7z M293.7,63.9c0-0.4,0-0.7,0-1.1 c0-0.4,0-0.8,0-1.2c0.1,0.1,0.2,0.1,0.4,0c-0.1,0.4-0.1,0.7-0.1,1.1c0,0.4,0,0.7-0.1,1.1L293.7,63.9z"></path> <path class="st0" d="M359.3,31.9c0.2,0.5,0.6,0.9,1,1.3c0.5,0.4,0.6,0.9,0.6,1.6c0,0.3,0,0.5-0.1,0.6c-0.3,0.5-0.6,1-0.8,1.7 c-0.2,0.6-0.4,1.2-0.6,1.7c0,0.1,0,0.1-0.1,0.2l-0.8,1c-0.3,0.5-0.6,1.1-0.9,1.6c-0.3,0.5-0.6,1.1-0.9,1.6 c-0.1,0.3-0.4,0.7-0.9,1.4c-0.5,0.7-0.9,1.3-1.5,2.1c-0.5,0.7-1,1.4-1.5,2.1c-0.5,0.6-0.7,1.1-0.9,1.4l-0.4,0.6v0.2l-0.2,0.6 c-0.1,0.3-0.2,0.7-0.4,1.1c-0.1,0.4-0.4,0.7-0.9,1l-0.2,0.7c-0.1,0.1-0.2,0.3-0.4,0.5c-0.1,0.2-0.2,0.4-0.4,0.7c0,0.1,0,0.1,0,0.3 c0,0.1,0,0.3,0,0.4c-0.3,0.1-0.6,0.1-0.8,0.2c-0.2,0.1-0.3,0.3-0.2,0.8l-0.3,0.5c-0.1,0.1-0.1,0.2-0.2,0.4 c-0.1,0.1-0.1,0.2-0.1,0.2c0.2,0.3,0.3,0.5,0.2,0.8c-0.1,0.3-0.2,0.5-0.3,0.8c-0.1,0.2-0.2,0.5-0.4,0.7c-0.1,0.3-0.1,0.5,0,0.8 c-0.3,0.1-0.6,0.1-0.8,0.1c-0.2,0-0.4,0-0.6,0.1c0,0.1,0,0.1-0.1,0.2c0.4,0.2,0.7,0.3,0.9,0.4c-0.1,0.4-0.2,0.9-0.4,1.3 c-0.1,0.4-0.3,0.8-0.5,1.2c-0.1,0.1-0.3,0.2-0.5,0.3c-0.2,0.1-0.5,0.2-0.8,0.3c0.1,0.1,0.3,0.2,0.4,0.4c0.2,0.2,0.3,0.3,0.5,0.5 c0,0.1,0,0.2-0.1,0.2c-0.5,0.3-0.8,0.7-0.9,1c-0.1,0.4-0.1,0.8,0,1.4c0.1,0.5-0.1,1-0.4,1.5c-0.3,0.6-0.6,1.1-0.8,1.6 c-0.1,0.1-0.1,0.2-0.2,0.3s-0.1,0.2-0.1,0.3c0.2,0.5,0,0.9-0.6,1.3c-0.5,0.4-0.6,0.8-0.3,1.1c0.1,0.1,0.2,0.4,0.2,0.8 c-0.1,1-0.6,1.4-1.6,1.2c0,0.1,0,0.1,0,0.1c0,0,0,0.1,0,0.1c0.4,0.2,0.7,0.3,0.9,0.5c-0.1,0.1-0.2,0.3-0.2,0.4 c0,0.2-0.1,0.3-0.2,0.4c-0.2,0.2-0.5,0.4-0.8,0.7c0.1,0.1,0.2,0.2,0.4,0.3c0.1,0.1,0.2,0.2,0.4,0.3c-0.1,0.3-0.2,0.5-0.4,0.7 c-0.1,0.2-0.2,0.5-0.4,0.7c-0.5,1.5-0.9,3.1-1,4.6c-0.2,1.5-0.4,3.1-0.8,4.7c-0.1,0.5-0.2,1-0.2,1.6c0,0.5-0.2,1.1-0.5,1.7 c-0.3,0.5-0.4,1-0.4,1.6c0.1,0.6,0,1.2-0.1,1.7c-0.1,0.4-0.2,0.9-0.4,1.3c-0.1,0.4-0.2,0.8-0.4,1.3c-0.1,0.4-0.2,0.7-0.2,0.8 c0,0.5,0.1,1,0.3,1.5c0.1,0.5,0.2,1,0.3,1.5c0.1,0.5,0.2,1,0.4,1.4c0.1,0.3,0.3,0.5,0.5,0.6c0.2,0.1,0.5,0.2,0.8,0.4 c0.1,0.1,0.3,0.1,0.4,0.1c0.1-0.1,0.3-0.1,0.4-0.1c-0.4,1-1.3,1.4-2.6,1.2c-0.3-0.1-0.6-0.2-0.9-0.3c-0.3-0.2-0.6-0.3-0.9-0.3 c-1-0.4-1.8-0.9-2.4-1.6c-0.6-0.7-1.1-1.5-1.6-2.4c-0.6-1.2-0.9-2.4-1-3.7c-0.1-1.5-0.1-3.1,0-4.6c0.1-1.5,0.1-3,0.2-4.6 c0.1-0.2,0.1-0.5,0.1-0.7c0-0.2,0.3-0.4,0.7-0.4c0.1,0,0.1-0.1,0.2-0.2c0.1-0.1,0.1-0.3,0.2-0.4c0-0.1-0.1-0.1-0.2-0.1 c-0.1,0-0.2,0-0.3-0.1c-0.1-0.1-0.1-0.2-0.2-0.2c-0.1,0-0.1-0.1-0.1-0.3c0.1-0.8,0.3-1.6,0.4-2.4c0.1-0.8,0.3-1.6,0.4-2.4 c0.1-0.3,0.1-0.6,0.1-0.8c0-0.2,0.1-0.5,0.1-0.7c0.2-1.1,0.5-2.2,0.7-3.3c0.2-1.1,0.5-2.2,0.8-3.3c0.1-0.2,0.1-0.5,0.2-0.7 c0.1-0.2,0.2-0.4,0.3-0.7c0.1,0,0.2,0,0.2,0c0,0,0.1,0,0.1,0c-0.1,0.3-0.2,0.5-0.2,0.7c0,0.1,0,0.2,0,0.4c0,0.1,0,0.2,0,0.4 c0.1-0.1,0.2-0.2,0.3-0.3c0.1,0,0.2-0.1,0.2-0.3c0.4-0.6,0.3-1-0.3-1.3c-0.1,0-0.2-0.1-0.3-0.2c-0.1-0.1-0.1-0.2,0-0.4 c0.4-1.3,0.7-2.7,1.1-4c0.4-1.3,0.8-2.7,1.2-4c0.2-0.8,0.5-1.6,0.8-2.4c0.3-0.8,0.6-1.6,0.9-2.4c0.5-1.1,0.9-2.2,1.3-3.2 c0.4-1,0.8-2.1,1.3-3.2c0.4-1.1,0.8-2.2,1.2-3.2c0.4-1.1,0.8-2.1,1.3-3.2c0.3-0.7,0.6-1.4,0.9-2.1c0.3-0.7,0.7-1.4,1-2.2 c-0.1,0.1-0.2,0.1-0.3,0.1c-0.1,0-0.2,0.1-0.2,0.2c-1.2,1.2-2.3,2.5-3.3,3.7c-1,1.1-1.9,2.1-2.8,3.2c-0.9,1-1.8,2.1-2.7,3.1 c-0.4,0.5-0.7,1-1,1.5c-0.3,0.5-0.6,1-0.9,1.6c-0.5,0.6-0.9,1.2-1.3,1.9c-0.4,0.6-0.8,1.2-1.3,1.8c-0.2,0.4-0.4,0.7-0.5,0.8 c-0.5,0.7-1,1.5-1.5,2.2c-0.5,0.8-1,1.5-1.5,2.2c-0.1,0.2-0.2,0.4-0.3,0.6c-0.1,0.2-0.2,0.4-0.3,0.6l-0.8,1.8 c-0.5,0.9-1,1.7-1.5,2.6c-0.5,0.9-1.1,1.8-1.6,2.6c-0.3,0.5-0.6,1.1-1,1.6c-0.4,0.5-0.7,1.1-1,1.6c-0.2,0.4-0.4,0.8-0.6,1.2 c-0.2,0.4-0.3,0.9-0.6,1.3c-0.4,0.8-0.9,1.6-1.3,2.3c-0.5,0.8-0.9,1.6-1.3,2.4c-0.7,1.3-1.3,2.5-1.8,3.8c-0.5,1.3-1.1,2.6-1.7,3.9 c-0.3,0.6-0.6,1.2-0.9,1.7c-0.3,0.5-0.6,1.1-0.9,1.7c-0.3,0.8-0.8,1.4-1.4,1.9c-0.6,0.5-1.1,1-1.6,1.5c-0.2,0.2-0.5,0.4-0.9,0.6 c-0.3,0.2-0.7,0.2-1.1,0c-0.7-0.3-1.3-0.5-2-0.7c-0.7-0.1-1.3-0.4-1.8-0.9c-0.3-0.2-0.6-0.5-0.8-0.8c-0.2-0.3-0.4-0.6-0.5-0.9 c-0.7-1.1-1-2.2-1-3.5s0-2.5,0-3.7c0.1-0.8,0.2-1.6,0.4-2.3c0.2-0.8,0.3-1.5,0.5-2.3c0.1-0.9,0.3-1.8,0.5-2.6 c0.5-1.7,1-3.4,1.5-5.2c0.5-1.7,1.1-3.5,1.7-5.1c0.5-1.3,1-2.7,1.6-4c0.6-1.3,1.2-2.7,1.8-4c0.8-1.7,1.6-3.4,2.3-5.1 c0.8-1.7,1.6-3.5,2.4-5.2c0.7-1.4,1.4-2.9,2.1-4.3c0.7-1.4,1.5-2.8,2.3-4.2c0.2-0.5,0.6-0.9,1-1.3c0.4-0.3,0.9-0.4,1.5-0.3 c0,0.8,0.4,1.1,1.1,0.7c0.5-0.3,1.1-0.5,1.5-0.6c0.5-0.1,0.9,0,1.4,0.4c-0.4,0.2-0.8,0.3-1.2,0.2c-0.5,0-0.9,0.3-1.4,0.9 c0.5,0,0.9,0.1,1.2,0.2c0.3,0.1,0.6,0,0.9-0.2c0.5-0.3,0.9-0.4,1.3-0.3c0.4,0.1,0.8,0.2,1.3,0.3c0.3,0,0.6,0.1,0.9,0.4 c0.3,0.2,0.6,0.5,0.9,0.9c0.3,0.4,0.5,0.8,0.6,1.1c0.1,0.4,0.2,0.7,0.1,1.1c-0.1,0.5-0.3,1-0.5,1.4c-0.2,0.4-0.5,0.9-0.7,1.3 c-0.5,0.7-0.9,1.5-1.4,2.3c-0.4,0.8-0.9,1.5-1.4,2.4c-0.5,0.8-0.9,1.6-1.4,2.4c-0.4,0.8-0.9,1.6-1.5,2.4c-0.5,0.6-0.8,1.2-1.1,1.8 c-0.2,0.6-0.5,1.2-0.8,1.8c-0.1,0.1-0.2,0.3-0.4,0.4c-0.1,0.1-0.2,0.3-0.4,0.4c-0.1,0.1-0.2,0.3-0.3,0.3c-0.1,0.1-0.1,0.2-0.1,0.3 c0,0.8-0.2,1.4-0.7,1.9c-0.5,0.5-1,1-1.4,1.5c-0.3,0.3-0.5,0.8-0.6,1.5c-0.1,0.7,0,1.1,0.3,1.4c-0.9,0.6-1.5,1.3-1.7,2.1 c-0.2,0.8-0.5,1.7-0.8,2.5l-0.2,0.4c-0.3,0.7-0.6,1.4-0.9,2c-0.3,0.7-0.6,1.3-0.9,2c-0.1,0.2-0.2,0.4-0.3,0.5 c-0.1,0.2-0.1,0.3-0.2,0.4c0,0.1,0,0.2,0,0.4c0,0.1,0,0.2,0,0.4c0.1,0,0.1,0,0.1-0.1c0,0,0.1-0.1,0.1-0.1c0.4-0.7,0.7-1.3,1-2 s0.7-1.3,1.2-1.9c0.5-0.6,0.8-1.2,1.1-1.8c0.2-0.6,0.5-1.2,0.9-1.8c0.5-0.8,1-1.5,1.5-2.3c0.5-0.8,1-1.6,1.4-2.3 c0.1-0.2,0.3-0.4,0.5-0.5c0.2-0.1,0.4-0.2,0.5-0.3c0.1-0.3,0.2-0.6,0.3-0.9c0.1-0.3,0.2-0.6,0.4-0.9c1.1-1.4,2.1-2.8,3.1-4.4 c1-1.5,2-3,3-4.4l0.1,0c-0.1,0,0.1-0.1,0.5-0.3c-0.4,0.7-0.7,1.4-0.9,2c-0.3,0.6-0.6,1.2-0.9,1.7c-0.3,0.5-0.7,1.1-1.1,1.6 c-0.4,0.6-0.8,1.1-1.2,1.7c-0.2,0.3-0.4,0.7-0.6,1.1c-0.2,0.4-0.3,0.8-0.5,1.2c0.1,0.2,0.2,0.3,0.4,0.3c0.2-0.2,0.4-0.3,0.5-0.4 c0.2-0.1,0.3-0.2,0.5-0.4c0.9-1.3,1.8-2.6,2.7-3.8c0.9-1.3,1.8-2.5,2.7-3.8c0.5-0.7,1.1-1.4,1.7-2c0.6-0.6,1.1-1.3,1.7-1.9 c0.3-0.4,0.6-0.7,0.8-1.1c0.2-0.4,0.5-0.8,0.8-1.2l0.1-0.2c0-0.1,0-0.1,0.1-0.1c0.5,0,0.9-0.2,1.2-0.4c0.3-0.2,0.6-0.5,0.8-0.8 c0.2-0.3,0.5-0.7,0.7-1c0.2-0.4,0.5-0.7,0.8-0.9c0.4-0.3,0.8-0.6,1.1-1c0.3-0.4,0.6-0.7,0.9-1.1c0.1-0.1,0.2-0.3,0.3-0.5 c0.1-0.2,0.1-0.4,0.3-0.5c0.5-0.3,0.8-0.6,1.1-0.8c0.5-0.5,1-1,1.3-1.5c0.3-0.6,0.6-1.2,0.8-1.8c0.1-0.1,0.1-0.2,0.2-0.3 c0.1,0,0.1-0.1,0.2-0.2c0.8-0.6,1.6-1.4,2.3-2.4c0.2-0.3,0.5-0.7,0.8-1c0.3-0.3,0.6-0.6,0.9-0.9c0.1-0.1,0.1-0.1,0.1-0.2 c0.1-0.1,0.1-0.1,0.1-0.2c0-0.1,0.1-0.1,0.1-0.2v-0.1c0.1-0.3,0.2-0.5,0.3-0.7c0.1-0.2,0.2-0.4,0.3-0.6c0.1-0.2,0.2-0.3,0.3-0.4 l0.3-0.3c0.4-0.5,0.7-1,0.7-1.5c0.2-0.5,0.4-0.9,0.8-1.2c0.3-0.4,0.7-0.7,1-1.1c0.3-0.4,0.8-0.5,1.4-0.3c0.6,0,1.3,0,2.2,0.1 c0.9,0,1.5,0.3,1.9,0.7c0.3,0.3,0.6,0.6,0.9,0.9c0.3,0.3,0.7,0.4,1.2,0.5C359.3,31.8,359.3,31.8,359.3,31.9z M318.6,73.9 c0.3-0.5,0.6-1.1,0.9-1.6c0.3-0.5,0.6-1,0.9-1.6c-0.1,0-0.1-0.1-0.2-0.1c-0.1,0-0.1-0.1-0.2-0.1c-0.4,0.5-0.8,1-1.2,1.5 c-0.4,0.5-0.7,1-1.1,1.5c0,0.1,0,0.1,0,0.3c0,0.1,0.1,0.2,0.1,0.2C318.3,74.1,318.5,74,318.6,73.9z M331.7,92.7 c0.2-0.3,0.4-0.5,0.4-0.5c0.1-0.3,0.2-0.7,0.3-1c0.1-0.4,0.1-0.7,0.1-1c0.1-0.5,0.1-1,0.2-1.5c0.1-0.5-0.1-1-0.6-1.4 c-0.1,0.5-0.2,1-0.3,1.5c-0.1,0.5-0.2,1-0.3,1.5c-0.1-0.3-0.2-0.7-0.3-1.1l-0.4,0.1c0,0.2,0,0.5,0,0.8c0,0.3,0.1,0.5,0.2,0.6 c0.3,0.2,0.5,0.5,0.5,0.8c0,0.3,0,0.6-0.1,0.9c-0.1,0.1,0,0.2,0,0.3C331.5,92.5,331.6,92.6,331.7,92.7z M350.2,44 c0.1-0.1,0.2-0.3,0.1-0.5c0-0.2-0.1-0.3-0.1-0.4c-0.2,0-0.4,0.1-0.5,0.1c-0.2,0-0.3,0.1-0.5,0.2c-0.3,0.3-0.5,0.6-0.7,0.9 c-0.2,0.3-0.4,0.6-0.5,1c-0.4,0.9-0.8,1.7-1.2,2.5c-0.4,0.8-0.8,1.7-1.2,2.5c-0.3,0.7-0.6,1.4-1,2.2c-0.4,0.8-0.7,1.5-1,2.3 c-0.3,0.7-0.6,1.5-0.9,2.2c-0.3,0.8-0.6,1.5-0.8,2.2c-0.1,0.3-0.2,0.5-0.4,0.7c-0.1,0.2-0.2,0.4-0.4,0.7c-0.3,0.9-0.6,1.8-0.9,2.7 c-0.3,0.9-0.6,1.8-0.9,2.7c-0.3,0.9-0.6,1.8-1,2.7c-0.4,0.9-0.7,1.8-1,2.7c-0.2,0.6-0.3,1.3-0.5,1.9c-0.2,0.6-0.3,1.3-0.4,2 c-0.2,0.6-0.5,0.9-1,0.9c0.2-0.5,0.4-1.1,0.5-1.6c0.2-0.6,0.3-1.1,0.5-1.7c0.1-0.4,0.2-0.9,0.2-1.3c0-0.4,0.1-0.9,0.2-1.3 c0.1-0.4,0.3-0.8,0.5-1.2c0.2-0.4,0.4-0.7,0.5-1.1c0.1-0.3,0.2-0.5,0.1-0.8c0-0.3,0-0.5,0.1-0.8c0.2-0.6,0.5-1.3,0.7-1.8 c0.2-0.6,0.5-1.2,0.7-1.9c0.2-0.5,0.3-1,0.5-1.5c0.1-0.5,0.3-0.9,0.5-1.4c0.4-0.9,0.8-1.7,1.2-2.5c0.4-0.8,0.6-1.6,0.7-2.5 c0.1-0.3,0.2-0.6,0.3-0.8c0.1-0.2,0.3-0.4,0.4-0.7c0.2-0.5,0.4-1,0.6-1.5s0.4-0.9,0.6-1.5c-0.2,0-0.3,0-0.5-0.1 c-0.2,0.3-0.4,0.7-0.6,1.1c-0.1,0.4-0.4,0.7-0.6,0.9c-0.5,0.4-0.7,0.8-0.6,1.2c0.1,0.4,0,0.8-0.3,1.1l-0.6,0.1 c-0.1,0.4-0.1,0.8-0.1,1.1c0,0.3,0,0.7-0.1,1.1c-0.7-0.2-1.2-0.2-1.5,0c-0.3,0.2-0.6,0.7-0.9,1.5c-0.3,0.8,0.1,1.3,1.1,1.6 c-0.1,0.3-0.3,0.7-0.6,1.4c-0.2-0.2-0.4-0.3-0.5-0.5c-0.5,0.3-0.9,0.6-1.1,0.8c-0.1,0.1-0.2,0.4-0.4,0.8c0.3-0.1,0.5-0.1,0.7,0 c0.2,0,0.4,0,0.7,0c-0.3,0.1-0.5,0.2-0.7,0.3c-0.2,0.1-0.3,0.1-0.5,0.2c0.1,0.1,0.3,0.2,0.4,0.3c0.2,0.1,0.3,0.2,0.5,0.4 c-0.3,0.2-0.6,0.3-0.8,0.5c-0.2,0.1-0.5,0.3-0.6,0.5c-0.3,0.3-0.6,0.7-0.8,1.3c0,0.1,0.1,0.3,0.3,0.4c0.2-0.2,0.3-0.3,0.5-0.4 c0.1-0.1,0.3-0.3,0.4-0.4l0.3-0.3c-0.1,0.4-0.2,0.8-0.3,1.2c-0.2,0.4-0.3,0.8-0.4,1.2c-0.1,0.4-0.2,0.8-0.3,1.2 c-0.1,0.4-0.2,0.8-0.3,1.2c-0.2,0.6-0.4,1.2-0.5,1.8c-0.2,0.6-0.4,1.2-0.6,1.8c-0.1,0.3-0.3,0.6-0.5,0.9c-0.2,0.3-0.4,0.6-0.6,0.9 c-0.2,0.3-0.5,0.7-0.7,1.1c-0.2,0.4-0.5,0.7-0.7,1.1l0.3,0.2c0.1-0.1,0.2-0.1,0.4-0.2c0.1-0.1,0.2-0.1,0.4-0.3v0.4 c-0.1,0.9-0.3,1.8-0.5,2.8c-0.2,0.9-0.3,1.9-0.5,2.8c-0.1,0.7-0.2,1.4-0.4,2c-0.1,0.7-0.2,1.4-0.4,2c0.5,0.2,0.8,0.2,1.1,0.3 c0.2,1,0.2,1.9-0.1,2.8c-0.3,0.9-0.4,1.8-0.3,2.8c0.1,0.6,0,1.2-0.1,1.8c-0.1,0.6-0.2,1.2-0.3,1.8c0,0.2,0.1,0.4,0.2,0.6 c0.2-0.3,0.4-0.5,0.5-0.6c0.1-0.3,0.2-0.6,0.3-0.9c0.1-0.3,0.2-0.6,0.4-0.8c0.2-0.4,0.3-0.7,0.2-0.9c0-0.2-0.3-0.4-0.9-0.5 c0.6-0.3,0.9-0.4,0.9-0.4c0.2-0.5,0.3-1,0.4-1.5c0.1-0.5,0.3-0.9,0.6-1.2c0.3-0.3,0.5-0.6,0.7-0.8c0.2-0.3,0.3-0.6,0.4-1 c0-0.2,0-0.4,0-0.6c0-0.2,0-0.4,0-0.6c-0.1,0.1-0.2,0.3-0.4,0.5c-0.1,0.2-0.2,0.3-0.4,0.5l-0.3,0.1c0-0.2,0-0.4,0.1-0.7 c0.1-0.3,0.1-0.5,0.2-0.8c0-0.2,0-0.4-0.2-0.5c-0.2-0.1-0.5-0.1-1.1,0.1c0.1-0.3,0.2-0.6,0.4-0.9c0.1-0.3,0.2-0.6,0.4-0.9 c0.1,0.3,0.2,0.6,0.3,0.8c0.1,0.2,0.2,0.4,0.3,0.7c0.2-0.3,0.3-0.5,0.5-0.7c0.1-0.2,0.2-0.4,0.4-0.6v1.7c0.5-0.6,0.7-1,0.7-1.2 c0-0.2-0.2-0.4-0.5-0.8c-0.1-0.1-0.2-0.3-0.2-0.5c0-0.2,0-0.5,0.1-0.7c0.1-0.2,0.1-0.4,0.3-0.6c0.1-0.2,0.2-0.4,0.3-0.7 c0.1-0.1,0.1-0.3,0-0.4c-0.1-0.2-0.1-0.3-0.2-0.4c-0.1,0-0.1,0-0.1,0c0,0-0.1,0-0.1,0c-0.1,0.2-0.2,0.4-0.3,0.5 c-0.1,0.2-0.1,0.4-0.3,0.6c-0.3-0.4-0.4-0.8-0.4-1c0-0.2,0.2-0.6,0.4-1c0.5-0.7,0.9-1.5,1.4-2.3s0.9-1.7,1.5-2.6l-1.5,0.3 c0.2-0.6,0.5-1.2,0.7-1.7c0.2-0.6,0.4-1.1,0.7-1.6c0-0.1,0.1-0.2,0.4-0.2c0.5-0.2,0.8-0.2,0.8,0.1c0.1,0.3,0.1,0.5,0,0.9l0.4,0.1 c0.2-0.5,0.6-0.9,1-1.4c0.3-1,0.5-2,0.7-3c0.2-1,0.5-1.9,1-2.9c0.3-0.7,0.6-1.4,0.8-2.1c0.2-0.7,0.5-1.4,0.8-2.1 c0.3-0.9,0.6-1.7,1-2.6c0.4-0.8,0.7-1.7,1-2.6c0.2-0.5,0.3-1.1,0.5-1.6c0.1-0.6,0.3-1.1,0.6-1.6c0.3-0.7,0.6-1.5,1-2.2 c0.4-0.8,0.7-1.5,1-2.2c0-0.1,0-0.1,0-0.2c0-0.1,0-0.2,0-0.3c-0.4,0.5-0.8,1.1-1.2,1.6c-0.5,0.5-0.6,1.1-0.5,1.7 c0,0.1-0.1,0.3-0.2,0.4c-0.2,0.5-0.5,1-0.7,1.4c-0.2,0.4-0.5,0.9-0.7,1.3c-0.2,0.3-0.4,0.6-0.5,0.9c-0.2,0.3-0.4,0.6-0.5,0.9 c-0.1,0.3-0.3,0.5-0.5,0.8s-0.2,0.4-0.2,0.6c0.1,0.3,0.1,0.6,0.1,0.8c-0.1,0.2-0.2,0.4-0.4,0.5c-0.2,0.2-0.4,0.3-0.6,0.5 c-0.2,0.2-0.4,0.3-0.5,0.5c0.1-0.5,0.2-1,0.4-1.4c0.1-0.4,0.3-0.9,0.5-1.3c0.3-0.7,0.6-1.3,0.9-2c0.3-0.7,0.7-1.3,1.1-1.8 c0.4-0.6,0.5-1,0.2-1.3c0.1-0.1,0.3-0.3,0.4-0.5c0.2-0.2,0.3-0.3,0.3-0.5c0.5-1.3,1.1-2.6,1.6-3.9C348.8,46.5,349.4,45.2,350.2,44z M335.3,77.4c-0.1-0.1-0.2-0.2-0.3-0.3c-0.1-0.1-0.2-0.2-0.3-0.3c0.3-0.4,0.5-0.6,0.7-0.8c0.2,0.1,0.5,0.2,0.6,0.2 c0.2,0.1,0.4,0.1,0.6,0.2c0.4,0.1,0.6,0.2,0.6,0.4c0,0.2,0,0.5,0,0.8c-0.2-0.1-0.4-0.1-0.5-0.2c-0.3-0.2-0.6-0.2-0.8,0 c-0.2,0.2-0.4,0.4-0.5,0.8c-0.1,0.5-0.3,1-0.4,1.5c-0.1,0.5-0.3,1-0.4,1.5c-0.1,0.4-0.2,0.7-0.2,1.1c0,0.3-0.1,0.7-0.2,1.1 c-0.1,0.5-0.3,1-0.4,1.5c-0.2,0.5-0.3,1-0.4,1.5c-0.1-0.2-0.1-0.7,0-1.5c0.1-0.8,0.3-1.7,0.5-2.7c0.2-1,0.4-1.9,0.7-2.9 C334.9,78.5,335.1,77.8,335.3,77.4z M338.6,82.2c0.3-0.2,0.6-0.3,0.8-0.5c0.2-0.2,0.5-0.3,0.8-0.5c-0.3-0.1-0.6-0.2-0.8-0.3 c-0.2-0.1-0.4-0.2-0.7-0.3c0.1-0.1,0.1-0.3,0.1-0.4c0-0.1,0-0.3,0.1-0.4l-0.2-0.2c-0.2,0.2-0.5,0.3-0.7,0.5 c-0.2,0.2-0.5,0.4-0.8,0.5c-0.1-0.1-0.1-0.2-0.2-0.2c-0.1,0-0.1-0.1-0.2-0.2c-0.1,0-0.1,0-0.1,0.1c0,0-0.1,0.1-0.1,0.1 c0.1,0.2,0.1,0.4,0.1,0.6c0,0.2,0.1,0.4,0.2,0.5c0.1,0.1,0.1,0.1,0.3,0c0.1,0,0.2,0,0.4-0.1c0.7-0.3,1-0.1,0.9,0.7V82.2z M338,78.7 c0.3,0.1,0.6,0.1,0.8,0.2s0.4,0.1,0.7,0.2c0.1,0.1,0.1,0.1,0.2,0c0.1,0,0.2-0.1,0.2-0.1c0.1-0.3,0.1-0.4,0-0.5 c-0.2-0.4-0.5-0.6-0.9-0.6S338.3,78.2,338,78.7z M339,85.1c-0.2-0.1-0.4-0.1-0.5-0.2c-0.1,0.2-0.2,0.4-0.3,0.5 c-0.1,0.2-0.1,0.3-0.2,0.4c-0.1,0.1,0,0.1,0.1,0.2c0.1,0,0.2,0.1,0.3,0.2L339,85.1z M339.5,75.9c0.1-0.4,0.2-0.7,0.4-1.1 c0.1-0.4,0.2-0.7,0.4-1.2c-0.5,0.3-0.9,0.6-1.1,1.1c-0.3,0.5-0.3,0.8-0.2,1.1c0,0.2,0.1,0.2,0.4,0.2c0,0.1,0,0.1,0.1,0 C339.5,76,339.5,75.9,339.5,75.9z M341.4,66.3c0.3,0.1,0.5,0.3,0.5,0.6c0,0.3-0.2,0.6-0.6,0.9c-0.3,0.3-0.5,0.6-0.5,0.9 c0,0.3-0.1,0.6-0.2,0.9c-0.1,0.3-0.2,0.7-0.3,1c-0.1,0.4-0.2,0.7-0.3,1.1c-0.5-0.5-0.6-1.3-0.3-2.3 C339.9,68.5,340.5,67.5,341.4,66.3z M340.6,57.9c-0.1,0.3-0.2,0.4-0.3,0.5c-0.1,0.1-0.2,0.3-0.3,0.5c-0.1,0.2-0.2,0.3-0.3,0.5 l-0.2-0.4c0.1-0.2,0.1-0.5,0.2-0.7C339.8,57.9,340.1,57.8,340.6,57.9z M341.8,72c0.1-0.7,0.4-1.3,0.8-1.8c0.4-0.5,0.5-1.1,0.2-1.7 c-0.3,0.5-0.6,1.1-0.9,1.7c-0.3,0.6-0.6,1.2-0.9,1.8c0.1,0,0.2,0,0.4,0C341.5,71.9,341.6,71.9,341.8,72z M342.9,62.8 c-0.5-0.2-0.7-0.4-0.7-0.6c0-0.2,0.4-0.7,1.2-1.6c-0.1,0.4-0.3,0.8-0.3,1.2C343.1,62.2,343,62.5,342.9,62.8z M346.2,46.4 c-0.1-0.1-0.2-0.1-0.3-0.1c-0.4,0.2-0.6,0.4-0.8,0.8c-0.2,0.3-0.3,0.6-0.4,1c0,0.2,0.1,0.3,0.3,0.3c0.1,0.1,0.3,0,0.5-0.2 c0.1-0.3,0.2-0.6,0.4-0.9C345.9,47,346.1,46.7,346.2,46.4z M346.1,61c0.6-0.1,0.9-0.5,0.9-1.1c-0.1,0-0.1-0.1-0.1-0.2 c0-0.1-0.1-0.1-0.1-0.2c-0.2,0.2-0.5,0.5-0.9,1c-0.1,0,0,0.1,0,0.3C346,61,346,61,346.1,61z M349.6,42.8c0.4-0.2,0.8-0.6,1.3-1.3 c0.4-0.7,0.6-1.3,0.5-1.7c-0.4,0.2-0.8,0.6-1.2,1.3C349.8,41.7,349.6,42.3,349.6,42.8z"></path> <path class="st0" d="M382,43.4c-0.4,0.4-0.8,0.8-1.1,1.1c-0.3,0.3-0.6,0.6-0.9,1c-0.1,0.1-0.2,0.3-0.3,0.5 c-0.1,0.2-0.2,0.3-0.3,0.5c-0.7,0.9-1.3,1.8-2,2.7c-0.7,0.9-1.4,1.8-2,2.7c-0.1,0.2-0.3,0.4-0.5,0.5c-0.2,0.2-0.4,0.3-0.5,0.4 c-0.4,0.4-0.7,0.9-1,1.3c-0.3,0.4-0.7,0.9-1,1.3c-0.2,0.3-0.6,0.7-1.2,1.2c-0.3,0.5-0.6,1.1-1,1.7c-0.4,0.6-0.7,1.2-1.1,1.8 c-0.7,1.1-1.3,2.2-1.9,3.3c-0.6,1-1.3,2.1-1.9,3.3c-0.4,0.7-0.4,1.4-0.2,2.1c0.2,0.7,0.6,1.2,1.1,1.6c0.7,0.4,1.3,0.8,1.8,1.3 c0.9,0.9,1.9,1.7,2.9,2.4c1,0.7,2.1,1.3,3.2,1.9c1.5,0.7,3,1.4,4.5,2c1.5,0.7,2.9,1.4,4.4,2.1c1,0.5,2,1,3,1.5 c1,0.5,1.9,1.1,2.8,1.8c0.5,0.3,0.9,0.7,1.2,1.2c0.3,0.5,0.6,0.9,0.9,1.3c0.2,0.1,0.2,0.3,0.1,0.4c-0.3,0.4-0.6,0.7-0.8,1.1 c-0.2,0.4-0.5,0.6-0.8,0.8c-1,0.5-1.9,0.9-2.9,1.2c-1,0.3-2,0.6-3,0.8c-0.7,0.1-1.4,0.4-2.2,0.7c-0.7,0.3-1.4,0.4-2.2,0.1 c-0.1-0.1-0.3-0.1-0.5,0c-0.2,0.1-0.4,0.1-0.6,0.1l-7,1.8c-0.6,0.2-1.2,0.3-1.8,0.4c-0.6,0.1-1.2,0.2-1.8,0.3c-0.5,0-1,0-1.5-0.1 c-0.5-0.1-1-0.1-1.5-0.1c-0.3-0.1-0.6-0.1-0.8,0c-0.2,0.1-0.5,0.1-0.8,0.1c-0.5,0-0.9,0-1.4,0.1c-0.5,0-0.9,0-1.4,0 c-0.2,0-0.3,0-0.4,0c-0.8-0.5-1.8-0.8-2.8-0.8c-1.1-0.1-2-0.3-2.8-0.8c-0.8-0.4-1.5-0.8-2.3-1.1c-0.8-0.3-1.5-0.7-2.4-1 c-0.5-0.2-1-0.5-1.4-0.9c-0.4-0.4-0.8-0.9-1-1.6c0.3,0.1,0.6,0.2,0.9,0.3c0.3,0.1,0.6,0.2,0.9,0.2c0.5,0,1.1,0,1.7,0 c0.6,0,1.1,0,1.7,0c1-0.1,2-0.1,3-0.2c1-0.1,2-0.1,3-0.2c1.9-0.3,3.7-0.6,5.6-1c1.5-0.4,3-0.8,4.5-1.3c1.5-0.5,3-0.9,4.5-1.4 c0.4-0.1,0.8-0.2,1.3-0.3c0.4-0.1,0.9-0.2,1.4-0.3c0.1-0.1,0.3-0.2,0.5-0.2c0.2-0.1,0.4-0.2,0.7-0.4c-0.2-0.1-0.4-0.3-0.5-0.4 c-0.1-0.1-0.3-0.2-0.5-0.3c-1-0.7-2-1.3-3.1-1.9c-1-0.6-2-1.3-3.1-1.9c-1-0.7-1.9-1.3-2.8-2c-0.9-0.6-1.8-1.4-2.5-2.3 c-0.6-0.7-1.2-1.4-1.9-2c-0.7-0.6-1.1-1.4-1.2-2.5c-0.1-0.3-0.2-0.5-0.5-0.8c-0.2-0.2-0.4-0.5-0.5-0.8c-0.3-0.8-0.5-1.7-0.6-2.6 c-0.1-0.9-0.4-1.8-0.7-2.5c-0.4-0.9-0.4-1.7,0-2.5c0.3-0.8,0.7-1.5,1.2-2.3c0.5-0.9,1.1-1.7,1.7-2.6c0.6-0.9,1.2-1.7,1.8-2.6 c0.5-0.7,1-1.4,1.5-2.1c0.5-0.7,1.1-1.4,1.6-2.1c0.5-0.7,1-1.5,1.4-2.2c0.5-0.7,1-1.5,1.5-2.2l10-12.6c0.5-0.6,1-1.3,1.5-1.9 c0.5-0.6,1-1.2,1.5-1.8c1.2-1.3,2.5-1.7,3.9-1.1c0.4,0.1,0.7,0.3,1,0.4c0.3,0.2,0.7,0.3,1,0.5c0.1,0.1,0.2,0.1,0.4,0.1 c1.3-0.4,2.4-0.3,3.2,0.3c0.8,0.6,1.5,1.3,2.1,2.1c0.4,0.6,0.8,1.2,1.1,1.7c0.1,0.2,0,0.4-0.1,0.6c-0.1,0.4-0.2,0.9-0.4,1.3 c-0.2,0.5-0.2,0.9,0.1,1.3l-0.2,0.5c-0.5,0.9-0.8,1.7-1,2.6c-0.2,0.9-0.5,1.8-0.9,2.7c-0.1,0.3-0.2,0.5-0.3,0.7 c-0.1,0.2-0.2,0.3-0.5,0.4c-0.2,0-0.3,0.2-0.3,0.5c-0.5,1.1-0.9,2.2-1.4,3.4c-0.5,1.2-0.9,2.3-1.4,3.5c-0.4,0.9-0.7,1.8-1,2.7 c-0.3,0.9-0.6,1.8-0.9,2.7c-0.1,0.3-0.3,0.5-0.5,0.7c-0.5,0.4-0.9,0.9-1.2,1.5c-0.2,0.6-0.5,1.2-0.8,1.8c-0.2,0.6-0.5,1.2-0.7,1.8 c-0.2,0.6-0.5,1.2-0.8,1.7c-0.3,0.5-0.6,1.1-0.9,1.7c-0.3,0.6-0.5,1.2-0.8,1.8c-0.2,0.5-0.4,0.9-0.5,1.4c-0.2,0.5-0.2,0.9-0.1,1.4 c0.1,0.6-0.2,0.8-0.9,0.6c-0.8-0.2-1.5-0.6-1.8-1s-0.7-1-0.8-1.6c-0.2-0.6-0.2-1.2-0.2-1.9c0-0.7,0.1-1.4,0.1-2.1 c0.1-1.5,0.4-2.9,0.8-4.4c0.4-1.5,0.9-3,1.4-4.4c0.5-1.3,1-2.6,1.5-3.9c0.5-1.3,0.9-2.6,1.4-3.8c0.1-0.3,0.2-0.6,0.2-1 C381.9,44.3,381.9,43.9,382,43.4z"></path> </g> </svg> 