<?xml version="1.0" encoding="UTF-8"?> <!-- Generator: Adobe Illustrator 22.1.0, SVG Export Plug-In . SVG Version: 6.00 Build 0) --> <svg xmlns="http://www.w3.org/2000/svg" xmlns:xlink="http://www.w3.org/1999/xlink" id="Layer_1" x="0px" y="0px" viewBox="0 0 582 182" style="enable-background:new 0 0 582 182;" xml:space="preserve"> <style type="text/css"> .st0{fill-opacity:0;stroke:#FF3366;stroke-miterlimit:10;} .st1{fill:none;stroke:#FF3366;stroke-width:6;} .st2{fill-opacity:0;stroke:#FF3366;stroke-width:6;} .st3{fill-opacity:0;stroke:#33E1FF;stroke-width:3;} .st4{fill:none;} .st5{enable-background:new ;} .st6{fill:#525252;} </style> <g> <g> <g> <g id="ellipse-0_2_"> <circle class="st0" cx="88" cy="88" r="56"></circle> <circle class="st1" cx="88" cy="88" r="56"></circle> </g> </g> <g> <ellipse id="ellipse-0_1_" class="st2" cx="88" cy="88" rx="56" ry="56"></ellipse> </g> </g> <g> <g> <g id="ellipse-2_2_"> <circle class="st0" cx="291" cy="88" r="56"></circle> <circle class="st1" cx="291" cy="88" r="56"></circle> </g> </g> <g> <ellipse id="ellipse-2_1_" class="st2" cx="291" cy="88" rx="56" ry="56"></ellipse> </g> </g> <g> <g> <g id="ellipse-4_2_"> <circle class="st0" cx="494" cy="88" r="56"></circle> <circle class="st1" cx="494" cy="88" r="56"></circle> </g> </g> <g> <ellipse id="ellipse-4_1_" class="st2" cx="494" cy="88" rx="56" ry="56"></ellipse> </g> </g> <g> <g> <path id="path-6" class="st3" d="M162,88h55"></path> </g> </g> <g> <g> <path id="path-7" class="st3" d="M365,88h55"></path> </g> </g> </g> <rect x="37" y="75" class="st4" width="102" height="29"></rect> <g class="st5"> <path class="st6" d="M51.8,84c0,0-0.1-0.1-0.1-0.1v-8.7c0-0.1,0-0.1,0.1-0.1c0,0,0.1-0.1,0.1-0.1h0.9c0.1,0,0.1,0,0.1,0.1 c0,0,0.1,0.1,0.1,0.1v8.7C53,84,53,84,53,84c0,0-0.1,0.1-0.1,0.1H52C51.9,84.1,51.9,84.1,51.8,84z"></path> <path class="st6" d="M55.2,84c0,0-0.1-0.1-0.1-0.1v-8.7c0-0.1,0-0.1,0.1-0.1c0,0,0.1-0.1,0.1-0.1h0.8c0.1,0,0.2,0,0.2,0.1l4,6.4 c0,0,0,0,0.1,0c0,0,0,0,0-0.1v-6.3c0-0.1,0-0.1,0.1-0.1c0,0,0.1-0.1,0.1-0.1h0.9c0.1,0,0.1,0,0.1,0.1c0,0,0.1,0.1,0.1,0.1v8.7 c0,0.1,0,0.1-0.1,0.1c0,0-0.1,0.1-0.1,0.1h-0.8c-0.1,0-0.2,0-0.2-0.1l-4-6.5c0,0,0,0-0.1,0c0,0,0,0,0,0.1l0,6.4 c0,0.1,0,0.1-0.1,0.1c0,0-0.1,0.1-0.1,0.1h-0.9C55.3,84.1,55.3,84.1,55.2,84z"></path> <path class="st6" d="M65.1,83.8c-0.5-0.2-0.9-0.6-1.1-1.1c-0.3-0.5-0.4-1-0.4-1.6v-3.4c0-0.6,0.1-1.1,0.4-1.6 c0.3-0.4,0.6-0.8,1.1-1c0.5-0.2,1-0.4,1.7-0.4s1.2,0.1,1.7,0.4c0.5,0.2,0.8,0.6,1.1,1s0.4,0.9,0.4,1.5c0,0.1-0.1,0.1-0.2,0.2 L68.9,78h-0.1c0,0-0.1,0-0.1,0c0,0,0,0,0-0.1v-0.1c0-0.6-0.2-1-0.5-1.3S67.4,76,66.8,76c-0.6,0-1,0.2-1.4,0.5 c-0.4,0.3-0.5,0.8-0.5,1.3v3.5c0,0.6,0.2,1,0.5,1.3c0.4,0.3,0.8,0.5,1.4,0.5c0.6,0,1-0.2,1.4-0.5c0.3-0.3,0.5-0.8,0.5-1.3 c0-0.1,0-0.1,0.1-0.1c0,0,0.1,0,0.1,0l0.9,0.1c0.1,0,0.2,0,0.2,0.1v0.1c0,0.6-0.1,1.1-0.4,1.5s-0.6,0.8-1.1,1 c-0.5,0.2-1,0.4-1.7,0.4S65.6,84.1,65.1,83.8z"></path> <path class="st6" d="M76.8,84L75,80.1c0,0,0-0.1-0.1-0.1h-1.8c0,0-0.1,0-0.1,0.1v3.8c0,0.1,0,0.1-0.1,0.1c0,0-0.1,0.1-0.1,0.1h-0.9 c-0.1,0-0.1,0-0.1-0.1c0,0-0.1-0.1-0.1-0.1v-8.7c0-0.1,0-0.1,0.1-0.1c0,0,0.1-0.1,0.1-0.1h3.4c0.5,0,1,0.1,1.4,0.3s0.7,0.5,0.9,0.9 s0.3,0.8,0.3,1.4c0,0.6-0.2,1.1-0.5,1.5c-0.3,0.4-0.8,0.7-1.3,0.9c0,0,0,0,0,0.1l1.8,3.8l0,0.1c0,0.1-0.1,0.1-0.2,0.1H77 C76.9,84.1,76.8,84.1,76.8,84z M73,76.1V79c0,0,0,0.1,0.1,0.1h2.2c0.5,0,0.8-0.1,1.1-0.4c0.3-0.3,0.4-0.6,0.4-1.1 c0-0.5-0.1-0.8-0.4-1.1s-0.6-0.4-1.1-0.4L73,76.1C73,76.1,73,76.1,73,76.1z"></path> <path class="st6" d="M85.7,76c0,0-0.1,0.1-0.1,0.1H81c0,0-0.1,0-0.1,0.1v2.8c0,0,0,0.1,0.1,0.1h3.1c0.1,0,0.1,0,0.1,0.1 c0,0,0.1,0.1,0.1,0.1v0.7c0,0.1,0,0.1-0.1,0.1c0,0-0.1,0.1-0.1,0.1H81c0,0-0.1,0-0.1,0.1V83c0,0,0,0.1,0.1,0.1h4.5 c0.1,0,0.1,0,0.1,0.1c0,0,0.1,0.1,0.1,0.1v0.7c0,0.1,0,0.1-0.1,0.1c0,0-0.1,0.1-0.1,0.1h-5.7c-0.1,0-0.1,0-0.1-0.1 c0,0-0.1-0.1-0.1-0.1v-8.7c0-0.1,0-0.1,0.1-0.1c0,0,0.1-0.1,0.1-0.1h5.7c0.1,0,0.1,0,0.1,0.1c0,0,0.1,0.1,0.1,0.1v0.7 C85.8,75.9,85.7,76,85.7,76z"></path> <path class="st6" d="M92.9,83.9l-0.5-1.5c0,0,0-0.1-0.1-0.1h-3.6c0,0,0,0-0.1,0.1l-0.5,1.5c0,0.1-0.1,0.2-0.2,0.2H87 c-0.1,0-0.2-0.1-0.2-0.2l2.8-8.7c0-0.1,0.1-0.2,0.2-0.2h1.2c0.1,0,0.2,0.1,0.2,0.2l2.8,8.7c0,0,0,0,0,0.1c0,0.1-0.1,0.1-0.2,0.1 h-0.9C93,84.1,92.9,84,92.9,83.9z M89,81.4h3c0.1,0,0.1,0,0.1-0.1l-1.5-4.8c0,0,0-0.1,0-0.1c0,0,0,0,0,0.1L89,81.4 C89,81.4,89,81.4,89,81.4z"></path> <path class="st6" d="M96.3,83.9c-0.5-0.2-0.9-0.5-1.1-0.9c-0.3-0.4-0.4-0.8-0.4-1.3v-0.3c0-0.1,0-0.1,0.1-0.1c0,0,0.1-0.1,0.1-0.1 h0.8c0.1,0,0.1,0,0.1,0.1c0,0,0.1,0.1,0.1,0.1v0.2c0,0.4,0.2,0.8,0.6,1.1s0.9,0.4,1.5,0.4c0.6,0,1-0.1,1.4-0.4 c0.3-0.3,0.5-0.6,0.5-1c0-0.3-0.1-0.5-0.2-0.7c-0.2-0.2-0.4-0.4-0.7-0.5s-0.7-0.4-1.3-0.6c-0.6-0.2-1.1-0.5-1.5-0.7 s-0.7-0.5-0.9-0.8c-0.2-0.3-0.4-0.7-0.4-1.2c0-0.7,0.3-1.3,0.8-1.8c0.5-0.4,1.3-0.6,2.2-0.6c0.6,0,1.2,0.1,1.7,0.3s0.9,0.5,1.1,0.9 c0.3,0.4,0.4,0.8,0.4,1.4v0.2c0,0.1,0,0.1-0.1,0.1c0,0-0.1,0.1-0.1,0.1H100c-0.1,0-0.1,0-0.1,0s-0.1-0.1-0.1-0.1v-0.2 c0-0.5-0.2-0.8-0.5-1.1c-0.4-0.3-0.9-0.4-1.5-0.4c-0.5,0-1,0.1-1.2,0.3c-0.3,0.2-0.4,0.5-0.4,1c0,0.3,0.1,0.5,0.2,0.7 c0.1,0.2,0.4,0.3,0.7,0.5c0.3,0.1,0.7,0.3,1.3,0.6c0.6,0.2,1.1,0.5,1.5,0.7c0.4,0.2,0.7,0.5,0.9,0.8c0.3,0.3,0.4,0.7,0.4,1.2 s-0.1,0.9-0.4,1.3c-0.3,0.4-0.6,0.7-1.1,0.9s-1,0.3-1.7,0.3C97.3,84.2,96.8,84.1,96.3,83.9z"></path> <path class="st6" d="M108.8,76c0,0-0.1,0.1-0.1,0.1h-4.5c0,0-0.1,0-0.1,0.1v2.8c0,0,0,0.1,0.1,0.1h3.1c0.1,0,0.1,0,0.1,0.1 c0,0,0.1,0.1,0.1,0.1v0.7c0,0.1,0,0.1-0.1,0.1c0,0-0.1,0.1-0.1,0.1h-3.1c0,0-0.1,0-0.1,0.1V83c0,0,0,0.1,0.1,0.1h4.5 c0.1,0,0.1,0,0.1,0.1c0,0,0.1,0.1,0.1,0.1v0.7c0,0.1,0,0.1-0.1,0.1c0,0-0.1,0.1-0.1,0.1H103c-0.1,0-0.1,0-0.1-0.1 c0,0-0.1-0.1-0.1-0.1v-8.7c0-0.1,0-0.1,0.1-0.1c0,0,0.1-0.1,0.1-0.1h5.7c0.1,0,0.1,0,0.1,0.1c0,0,0.1,0.1,0.1,0.1v0.7 C108.9,75.9,108.8,76,108.8,76z"></path> <path class="st6" d="M113.2,84c0,0-0.1-0.1-0.1-0.1v-8.7c0-0.1,0-0.1,0.1-0.1c0,0,0.1-0.1,0.1-0.1h0.9c0.1,0,0.1,0,0.1,0.1 c0,0,0.1,0.1,0.1,0.1v8.7c0,0.1,0,0.1-0.1,0.1c0,0-0.1,0.1-0.1,0.1h-0.9C113.3,84.1,113.3,84.1,113.2,84z"></path> <path class="st6" d="M116.6,84c0,0-0.1-0.1-0.1-0.1v-8.7c0-0.1,0-0.1,0.1-0.1c0,0,0.1-0.1,0.1-0.1h0.8c0.1,0,0.2,0,0.2,0.1l4,6.4 c0,0,0,0,0.1,0c0,0,0,0,0-0.1v-6.3c0-0.1,0-0.1,0.1-0.1c0,0,0.1-0.1,0.1-0.1h0.9c0.1,0,0.1,0,0.1,0.1c0,0,0.1,0.1,0.1,0.1v8.7 c0,0.1,0,0.1-0.1,0.1c0,0-0.1,0.1-0.1,0.1h-0.8c-0.1,0-0.2,0-0.2-0.1l-4-6.5c0,0,0,0-0.1,0c0,0,0,0,0,0.1l0,6.4 c0,0.1,0,0.1-0.1,0.1c0,0-0.1,0.1-0.1,0.1h-0.9C116.7,84.1,116.7,84.1,116.6,84z"></path> <path class="st6" d="M71.6,99.5c-0.5-0.2-0.9-0.5-1.1-0.9s-0.4-0.8-0.4-1.3V97c0-0.1,0-0.1,0.1-0.1c0,0,0.1-0.1,0.1-0.1h0.8 c0.1,0,0.1,0,0.1,0.1c0,0,0.1,0.1,0.1,0.1v0.2c0,0.4,0.2,0.8,0.6,1.1c0.4,0.3,0.9,0.4,1.5,0.4c0.6,0,1-0.1,1.4-0.4s0.5-0.6,0.5-1 c0-0.3-0.1-0.5-0.2-0.7c-0.2-0.2-0.4-0.4-0.7-0.5s-0.7-0.4-1.3-0.6c-0.6-0.2-1.1-0.5-1.5-0.7s-0.7-0.5-0.9-0.8 c-0.2-0.3-0.4-0.7-0.4-1.2c0-0.7,0.3-1.3,0.8-1.8c0.5-0.4,1.3-0.6,2.2-0.6c0.6,0,1.2,0.1,1.7,0.3s0.9,0.5,1.1,0.9 c0.3,0.4,0.4,0.8,0.4,1.4v0.2c0,0.1,0,0.1-0.1,0.1c0,0-0.1,0.1-0.1,0.1h-0.8c-0.1,0-0.1,0-0.1,0c0,0-0.1-0.1-0.1-0.1v-0.2 c0-0.5-0.2-0.8-0.5-1.1c-0.4-0.3-0.9-0.4-1.5-0.4c-0.5,0-1,0.1-1.2,0.3c-0.3,0.2-0.4,0.5-0.4,1c0,0.3,0.1,0.5,0.2,0.7 c0.1,0.2,0.4,0.3,0.7,0.5c0.3,0.1,0.7,0.3,1.3,0.6c0.6,0.2,1.1,0.5,1.5,0.7s0.7,0.5,0.9,0.8c0.3,0.3,0.4,0.7,0.4,1.2 s-0.1,0.9-0.4,1.3c-0.3,0.4-0.6,0.7-1.1,0.9c-0.5,0.2-1,0.3-1.7,0.3C72.7,99.8,72.1,99.7,71.6,99.5z"></path> <path class="st6" d="M83.5,99.5L83,98.1c0,0,0-0.1-0.1-0.1h-3.6c0,0,0,0-0.1,0.1l-0.5,1.5c0,0.1-0.1,0.2-0.2,0.2h-0.9 c-0.1,0-0.2-0.1-0.2-0.2l2.8-8.7c0-0.1,0.1-0.2,0.2-0.2h1.2c0.1,0,0.2,0.1,0.2,0.2l2.8,8.7c0,0,0,0,0,0.1c0,0.1-0.1,0.1-0.2,0.1 h-0.9C83.6,99.7,83.5,99.6,83.5,99.5z M79.7,97h3c0.1,0,0.1,0,0.1-0.1l-1.5-4.8c0,0,0-0.1,0-0.1c0,0,0,0,0,0.1L79.7,97 C79.6,97,79.6,97,79.7,97z"></path> <path class="st6" d="M86.4,99.6c0,0-0.1-0.1-0.1-0.1v-8.7c0-0.1,0-0.1,0.1-0.1c0,0,0.1-0.1,0.1-0.1h0.9c0.1,0,0.1,0,0.1,0.1 c0,0,0.1,0.1,0.1,0.1v7.8c0,0,0,0.1,0.1,0.1h4.4c0.1,0,0.1,0,0.1,0.1c0,0,0.1,0.1,0.1,0.1v0.7c0,0.1,0,0.1-0.1,0.1 c0,0-0.1,0.1-0.1,0.1h-5.5C86.5,99.7,86.4,99.7,86.4,99.6z"></path> <path class="st6" d="M99.7,91.6c0,0-0.1,0.1-0.1,0.1h-4.5c0,0-0.1,0-0.1,0.1v2.8c0,0,0,0.1,0.1,0.1h3.1c0.1,0,0.1,0,0.1,0.1 c0,0,0.1,0.1,0.1,0.1v0.7c0,0.1,0,0.1-0.1,0.1c0,0-0.1,0.1-0.1,0.1h-3.1c0,0-0.1,0-0.1,0.1v2.8c0,0,0,0.1,0.1,0.1h4.5 c0.1,0,0.1,0,0.1,0.1c0,0,0.1,0.1,0.1,0.1v0.7c0,0.1,0,0.1-0.1,0.1c0,0-0.1,0.1-0.1,0.1h-5.7c-0.1,0-0.1,0-0.1-0.1 c0,0-0.1-0.1-0.1-0.1v-8.7c0-0.1,0-0.1,0.1-0.1c0,0,0.1-0.1,0.1-0.1h5.7c0.1,0,0.1,0,0.1,0.1c0,0,0.1,0.1,0.1,0.1v0.7 C99.8,91.5,99.8,91.6,99.7,91.6z"></path> <path class="st6" d="M102.6,99.5c-0.5-0.2-0.9-0.5-1.1-0.9s-0.4-0.8-0.4-1.3V97c0-0.1,0-0.1,0.1-0.1c0,0,0.1-0.1,0.1-0.1h0.8 c0.1,0,0.1,0,0.1,0.1c0,0,0.1,0.1,0.1,0.1v0.2c0,0.4,0.2,0.8,0.6,1.1c0.4,0.3,0.9,0.4,1.5,0.4c0.6,0,1-0.1,1.4-0.4s0.5-0.6,0.5-1 c0-0.3-0.1-0.5-0.2-0.7c-0.2-0.2-0.4-0.4-0.7-0.5s-0.7-0.4-1.3-0.6c-0.6-0.2-1.1-0.5-1.5-0.7s-0.7-0.5-0.9-0.8 c-0.2-0.3-0.4-0.7-0.4-1.2c0-0.7,0.3-1.3,0.8-1.8c0.5-0.4,1.3-0.6,2.2-0.6c0.6,0,1.2,0.1,1.7,0.3s0.9,0.5,1.1,0.9 c0.3,0.4,0.4,0.8,0.4,1.4v0.2c0,0.1,0,0.1-0.1,0.1c0,0-0.1,0.1-0.1,0.1h-0.8c-0.1,0-0.1,0-0.1,0c0,0-0.1-0.1-0.1-0.1v-0.2 c0-0.5-0.2-0.8-0.5-1.1c-0.4-0.3-0.9-0.4-1.5-0.4c-0.5,0-1,0.1-1.2,0.3c-0.3,0.2-0.4,0.5-0.4,1c0,0.3,0.1,0.5,0.2,0.7 c0.1,0.2,0.4,0.3,0.7,0.5c0.3,0.1,0.7,0.3,1.3,0.6c0.6,0.2,1.1,0.5,1.5,0.7s0.7,0.5,0.9,0.8c0.3,0.3,0.4,0.7,0.4,1.2 s-0.1,0.9-0.4,1.3c-0.3,0.4-0.6,0.7-1.1,0.9c-0.5,0.2-1,0.3-1.7,0.3C103.7,99.8,103.1,99.7,102.6,99.5z"></path> </g> <rect x="240" y="66" class="st4" width="102" height="49"></rect> <g class="st5"> <path class="st6" d="M254.3,69.9c0.4,0.2,0.7,0.5,0.9,0.9c0.2,0.4,0.3,0.9,0.3,1.4c0,0.5-0.1,1-0.3,1.4c-0.2,0.4-0.5,0.7-1,0.9 s-0.9,0.3-1.4,0.3h-2.3c0,0-0.1,0-0.1,0.1v3.6c0,0.1,0,0.1-0.1,0.1c0,0-0.1,0.1-0.1,0.1h-0.9c-0.1,0-0.1,0-0.1-0.1 c0,0-0.1-0.1-0.1-0.1v-8.7c0-0.1,0-0.1,0.1-0.1c0,0,0.1-0.1,0.1-0.1h3.4C253.5,69.6,253.9,69.7,254.3,69.9z M253.9,73.4 c0.3-0.3,0.4-0.7,0.4-1.1c0-0.5-0.1-0.9-0.4-1.2c-0.3-0.3-0.7-0.4-1.2-0.4h-2.2c0,0-0.1,0-0.1,0.1v3c0,0,0,0.1,0.1,0.1h2.2 C253.3,73.8,253.6,73.7,253.9,73.4z"></path> <path class="st6" d="M263.1,70.6c0,0-0.1,0.1-0.1,0.1h-4.5c0,0-0.1,0-0.1,0.1v2.8c0,0,0,0.1,0.1,0.1h3.1c0.1,0,0.1,0,0.1,0.1 c0,0,0.1,0.1,0.1,0.1v0.7c0,0.1,0,0.1-0.1,0.1c0,0-0.1,0.1-0.1,0.1h-3.1c0,0-0.1,0-0.1,0.1v2.8c0,0,0,0.1,0.1,0.1h4.5 c0.1,0,0.1,0,0.1,0.1c0,0,0.1,0.1,0.1,0.1v0.7c0,0.1,0,0.1-0.1,0.1c0,0-0.1,0.1-0.1,0.1h-5.7c-0.1,0-0.1,0-0.1-0.1 c0,0-0.1-0.1-0.1-0.1v-8.7c0-0.1,0-0.1,0.1-0.1c0,0,0.1-0.1,0.1-0.1h5.7c0.1,0,0.1,0,0.1,0.1c0,0,0.1,0.1,0.1,0.1v0.7 C263.1,70.5,263.1,70.6,263.1,70.6z"></path> <path class="st6" d="M269.9,78.6l-1.8-3.8c0,0,0-0.1-0.1-0.1h-1.8c0,0-0.1,0-0.1,0.1v3.8c0,0.1,0,0.1-0.1,0.1c0,0-0.1,0.1-0.1,0.1 h-0.9c-0.1,0-0.1,0-0.1-0.1c0,0-0.1-0.1-0.1-0.1v-8.7c0-0.1,0-0.1,0.1-0.1c0,0,0.1-0.1,0.1-0.1h3.4c0.5,0,1,0.1,1.4,0.3 s0.7,0.5,0.9,0.9s0.3,0.8,0.3,1.4c0,0.6-0.2,1.1-0.5,1.5c-0.3,0.4-0.8,0.7-1.3,0.9c0,0,0,0,0,0.1l1.8,3.8l0,0.1 c0,0.1-0.1,0.1-0.2,0.1h-0.9C270,78.7,269.9,78.7,269.9,78.6z M266.1,70.7v2.9c0,0,0,0.1,0.1,0.1h2.2c0.5,0,0.8-0.1,1.1-0.4 c0.3-0.3,0.4-0.6,0.4-1.1c0-0.5-0.1-0.8-0.4-1.1s-0.6-0.4-1.1-0.4L266.1,70.7C266.1,70.7,266.1,70.7,266.1,70.7z"></path> <path class="st6" d="M273.9,78.5c-0.5-0.2-0.9-0.5-1.1-0.9c-0.3-0.4-0.4-0.8-0.4-1.3V76c0-0.1,0-0.1,0.1-0.1c0,0,0.1-0.1,0.1-0.1 h0.8c0.1,0,0.1,0,0.1,0.1c0,0,0.1,0.1,0.1,0.1v0.2c0,0.4,0.2,0.8,0.6,1.1s0.9,0.4,1.5,0.4c0.6,0,1-0.1,1.4-0.4 c0.3-0.3,0.5-0.6,0.5-1c0-0.3-0.1-0.5-0.2-0.7c-0.2-0.2-0.4-0.4-0.7-0.5s-0.7-0.4-1.3-0.6c-0.6-0.2-1.1-0.5-1.5-0.7 s-0.7-0.5-0.9-0.8c-0.2-0.3-0.4-0.7-0.4-1.2c0-0.7,0.3-1.3,0.8-1.8c0.5-0.4,1.3-0.6,2.2-0.6c0.6,0,1.2,0.1,1.7,0.3s0.9,0.5,1.1,0.9 c0.3,0.4,0.4,0.8,0.4,1.4v0.2c0,0.1,0,0.1-0.1,0.1c0,0-0.1,0.1-0.1,0.1h-0.8c-0.1,0-0.1,0-0.1,0s-0.1-0.1-0.1-0.1v-0.2 c0-0.5-0.2-0.8-0.5-1.1c-0.4-0.3-0.9-0.4-1.5-0.4c-0.5,0-1,0.1-1.2,0.3c-0.3,0.2-0.4,0.5-0.4,1c0,0.3,0.1,0.5,0.2,0.7 c0.1,0.2,0.4,0.3,0.7,0.5c0.3,0.1,0.7,0.3,1.3,0.6c0.6,0.2,1.1,0.5,1.5,0.7c0.4,0.2,0.7,0.5,0.9,0.8c0.3,0.3,0.4,0.7,0.4,1.2 s-0.1,0.9-0.4,1.3c-0.3,0.4-0.6,0.7-1.1,0.9s-1,0.3-1.7,0.3C275,78.8,274.4,78.7,273.9,78.5z"></path> <path class="st6" d="M281.8,78.4c-0.5-0.3-0.9-0.6-1.1-1.1c-0.3-0.5-0.4-1-0.4-1.6v-3.1c0-0.6,0.1-1.2,0.4-1.6 c0.3-0.5,0.6-0.8,1.1-1.1c0.5-0.3,1-0.4,1.7-0.4c0.6,0,1.2,0.1,1.7,0.4c0.5,0.3,0.9,0.6,1.1,1.1c0.3,0.5,0.4,1,0.4,1.6v3.1 c0,0.6-0.1,1.2-0.4,1.6c-0.3,0.5-0.6,0.8-1.1,1.1c-0.5,0.3-1,0.4-1.7,0.4C282.8,78.8,282.2,78.7,281.8,78.4z M284.9,77.2 c0.4-0.4,0.5-0.8,0.5-1.4v-3.2c0-0.6-0.2-1.1-0.5-1.5c-0.4-0.4-0.8-0.6-1.4-0.6s-1.1,0.2-1.4,0.6c-0.4,0.4-0.5,0.9-0.5,1.5v3.2 c0,0.6,0.2,1.1,0.5,1.4c0.4,0.4,0.8,0.5,1.4,0.5S284.5,77.6,284.9,77.2z"></path> <path class="st6" d="M288.6,78.6c0,0-0.1-0.1-0.1-0.1v-8.7c0-0.1,0-0.1,0.1-0.1c0,0,0.1-0.1,0.1-0.1h0.8c0.1,0,0.2,0,0.2,0.1l4,6.4 c0,0,0,0,0.1,0c0,0,0,0,0-0.1v-6.3c0-0.1,0-0.1,0.1-0.1c0,0,0.1-0.1,0.1-0.1h0.9c0.1,0,0.1,0,0.1,0.1c0,0,0.1,0.1,0.1,0.1v8.7 c0,0.1,0,0.1-0.1,0.1c0,0-0.1,0.1-0.1,0.1h-0.8c-0.1,0-0.2,0-0.2-0.1l-4-6.5c0,0,0,0-0.1,0c0,0,0,0,0,0.1l0,6.4 c0,0.1,0,0.1-0.1,0.1c0,0-0.1,0.1-0.1,0.1h-0.9C288.7,78.7,288.6,78.7,288.6,78.6z"></path> <path class="st6" d="M302.6,78.5l-0.5-1.5c0,0,0-0.1-0.1-0.1h-3.6c0,0,0,0-0.1,0.1l-0.5,1.5c0,0.1-0.1,0.2-0.2,0.2h-0.9 c-0.1,0-0.2-0.1-0.2-0.2l2.8-8.7c0-0.1,0.1-0.2,0.2-0.2h1.2c0.1,0,0.2,0.1,0.2,0.2l2.8,8.7c0,0,0,0,0,0.1c0,0.1-0.1,0.1-0.2,0.1 h-0.9C302.7,78.7,302.6,78.6,302.6,78.5z M298.8,76h3c0.1,0,0.1,0,0.1-0.1l-1.5-4.8c0,0,0-0.1,0-0.1s0,0,0,0.1L298.8,76 C298.7,76,298.7,76,298.8,76z"></path> <path class="st6" d="M305.5,78.6c0,0-0.1-0.1-0.1-0.1v-8.7c0-0.1,0-0.1,0.1-0.1c0,0,0.1-0.1,0.1-0.1h0.9c0.1,0,0.1,0,0.1,0.1 c0,0,0.1,0.1,0.1,0.1v7.8c0,0,0,0.1,0.1,0.1h4.4c0.1,0,0.1,0,0.1,0.1c0,0,0.1,0.1,0.1,0.1v0.7c0,0.1,0,0.1-0.1,0.1 c0,0-0.1,0.1-0.1,0.1h-5.5C305.6,78.7,305.5,78.7,305.5,78.6z"></path> <path class="st6" d="M312.9,78.6c0,0-0.1-0.1-0.1-0.1v-8.7c0-0.1,0-0.1,0.1-0.1c0,0,0.1-0.1,0.1-0.1h0.9c0.1,0,0.1,0,0.1,0.1 c0,0,0.1,0.1,0.1,0.1v8.7c0,0.1,0,0.1-0.1,0.1c0,0-0.1,0.1-0.1,0.1H313C313,78.7,312.9,78.7,312.9,78.6z"></path> <path class="st6" d="M315.7,78.6c0,0-0.1-0.1-0.1-0.1v-0.8c0-0.1,0-0.2,0.1-0.2l4.5-6.7c0,0,0,0,0-0.1c0,0,0,0-0.1,0h-4.4 c-0.1,0-0.1,0-0.1-0.1c0,0-0.1-0.1-0.1-0.1v-0.7c0-0.1,0-0.1,0.1-0.1c0,0,0.1-0.1,0.1-0.1h5.6c0.1,0,0.1,0,0.1,0.1 c0,0,0.1,0.1,0.1,0.1v0.8c0,0.1,0,0.2-0.1,0.2l-4.5,6.7c0,0,0,0,0,0.1c0,0,0,0,0.1,0h4.4c0.1,0,0.1,0,0.1,0.1c0,0,0.1,0.1,0.1,0.1 v0.7c0,0.1,0,0.1-0.1,0.1c0,0-0.1,0.1-0.1,0.1h-5.6C315.8,78.7,315.8,78.7,315.7,78.6z"></path> <path class="st6" d="M329.4,70.6c0,0-0.1,0.1-0.1,0.1h-4.5c0,0-0.1,0-0.1,0.1v2.8c0,0,0,0.1,0.1,0.1h3.1c0.1,0,0.1,0,0.1,0.1 c0,0,0.1,0.1,0.1,0.1v0.7c0,0.1,0,0.1-0.1,0.1c0,0-0.1,0.1-0.1,0.1h-3.1c0,0-0.1,0-0.1,0.1v2.8c0,0,0,0.1,0.1,0.1h4.5 c0.1,0,0.1,0,0.1,0.1c0,0,0.1,0.1,0.1,0.1v0.7c0,0.1,0,0.1-0.1,0.1c0,0-0.1,0.1-0.1,0.1h-5.7c-0.1,0-0.1,0-0.1-0.1 c0,0-0.1-0.1-0.1-0.1v-8.7c0-0.1,0-0.1,0.1-0.1c0,0,0.1-0.1,0.1-0.1h5.7c0.1,0,0.1,0,0.1,0.1c0,0,0.1,0.1,0.1,0.1v0.7 C329.4,70.5,329.4,70.6,329.4,70.6z"></path> <path class="st6" d="M331.2,78.6c0,0-0.1-0.1-0.1-0.1v-8.7c0-0.1,0-0.1,0.1-0.1c0,0,0.1-0.1,0.1-0.1h3.1c0.9,0,1.6,0.2,2.2,0.7 c0.5,0.5,0.8,1.1,0.8,1.9v3.9c0,0.8-0.3,1.4-0.8,1.9c-0.5,0.5-1.3,0.7-2.2,0.7h-3.1C331.3,78.7,331.2,78.7,331.2,78.6z M332.5,77.6 h2c0.5,0,0.9-0.2,1.2-0.5c0.3-0.3,0.5-0.7,0.5-1.2v-3.5c0-0.5-0.1-0.9-0.4-1.2s-0.7-0.5-1.2-0.5h-2c0,0-0.1,0-0.1,0.1L332.5,77.6 C332.4,77.6,332.4,77.6,332.5,77.6z"></path> <path class="st6" d="M277.2,89.6c0.9,0.4,1.4,1.1,1.4,2.2c0,0.8-0.3,1.4-0.8,1.8c-0.5,0.4-1.2,0.7-2.1,0.7h-3.2 c-0.1,0-0.1,0-0.1-0.1c0,0-0.1-0.1-0.1-0.1v-8.7c0-0.1,0-0.1,0.1-0.1c0,0,0.1-0.1,0.1-0.1h3.1c0.9,0,1.6,0.2,2.1,0.6 c0.5,0.4,0.7,1,0.7,1.8C278.4,88.5,278,89.2,277.2,89.6C277.1,89.6,277.1,89.6,277.2,89.6z M273.5,86.3v2.7c0,0,0,0.1,0.1,0.1h2 c0.5,0,0.9-0.1,1.2-0.4c0.3-0.3,0.4-0.6,0.4-1c0-0.4-0.1-0.8-0.4-1.1c-0.3-0.3-0.7-0.4-1.2-0.4L273.5,86.3 C273.6,86.3,273.5,86.3,273.5,86.3z M276.8,92.8c0.3-0.3,0.4-0.6,0.4-1.1c0-0.5-0.1-0.8-0.4-1.1c-0.3-0.3-0.7-0.4-1.2-0.4h-2 c0,0-0.1,0-0.1,0.1v2.9c0,0,0,0.1,0.1,0.1h2.1C276.2,93.2,276.5,93.1,276.8,92.8z"></path> <path class="st6" d="M281.8,94c-0.5-0.2-0.9-0.6-1.1-1.1s-0.4-1-0.4-1.6v-6c0-0.1,0-0.1,0.1-0.1c0,0,0.1-0.1,0.1-0.1h0.9 c0.1,0,0.1,0,0.1,0.1c0,0,0.1,0.1,0.1,0.1v6c0,0.6,0.2,1,0.5,1.4c0.4,0.3,0.8,0.5,1.4,0.5s1-0.2,1.4-0.5c0.4-0.3,0.5-0.8,0.5-1.4 v-6c0-0.1,0-0.1,0.1-0.1c0,0,0.1-0.1,0.1-0.1h0.9c0.1,0,0.1,0,0.1,0.1c0,0,0.1,0.1,0.1,0.1v6c0,0.6-0.1,1.1-0.4,1.6 s-0.6,0.8-1.1,1.1c-0.5,0.2-1,0.4-1.7,0.4S282.3,94.3,281.8,94z"></path> <path class="st6" d="M290.9,94.2c0,0-0.1-0.1-0.1-0.1v-3.6c0,0,0,0,0-0.1l-2.7-5c0-0.1,0-0.1,0-0.1c0-0.1,0.1-0.1,0.2-0.1h0.9 c0.1,0,0.2,0,0.2,0.1l2,3.7c0,0,0.1,0,0.1,0l2-3.7c0.1-0.1,0.1-0.1,0.2-0.1h0.9c0.1,0,0.2,0,0.2,0.1l0,0.1l-2.7,5c0,0,0,0.1,0,0.1 v3.6c0,0.1,0,0.1-0.1,0.1c0,0-0.1,0.1-0.1,0.1H291C291,94.3,290.9,94.3,290.9,94.2z"></path> <path class="st6" d="M296.4,94.2c0,0-0.1-0.1-0.1-0.1v-8.7c0-0.1,0-0.1,0.1-0.1c0,0,0.1-0.1,0.1-0.1h0.9c0.1,0,0.1,0,0.1,0.1 c0,0,0.1,0.1,0.1,0.1v8.7c0,0.1,0,0.1-0.1,0.1c0,0-0.1,0.1-0.1,0.1h-0.9C296.5,94.3,296.4,94.3,296.4,94.2z"></path> <path class="st6" d="M299.8,94.2c0,0-0.1-0.1-0.1-0.1v-8.7c0-0.1,0-0.1,0.1-0.1c0,0,0.1-0.1,0.1-0.1h0.8c0.1,0,0.2,0,0.2,0.1l4,6.4 c0,0,0,0,0.1,0c0,0,0,0,0-0.1v-6.3c0-0.1,0-0.1,0.1-0.1c0,0,0.1-0.1,0.1-0.1h0.9c0.1,0,0.1,0,0.1,0.1c0,0,0.1,0.1,0.1,0.1v8.7 c0,0.1,0,0.1-0.1,0.1c0,0-0.1,0.1-0.1,0.1h-0.8c-0.1,0-0.2,0-0.2-0.1l-4-6.5c0,0,0,0-0.1,0c0,0,0,0,0,0.1l0,6.4 c0,0.1,0,0.1-0.1,0.1c0,0-0.1,0.1-0.1,0.1h-0.9C299.9,94.3,299.8,94.3,299.8,94.2z"></path> <path class="st6" d="M309.7,94c-0.5-0.2-0.9-0.6-1.1-1.1c-0.3-0.5-0.4-1-0.4-1.6v-3.3c0-0.6,0.1-1.1,0.4-1.6c0.3-0.5,0.6-0.8,1.1-1 c0.5-0.2,1-0.4,1.7-0.4s1.2,0.1,1.7,0.4c0.5,0.2,0.8,0.6,1.1,1c0.3,0.4,0.4,0.9,0.4,1.4V88c0,0.1,0,0.1-0.1,0.1 c0,0-0.1,0.1-0.1,0.1h-0.9c-0.1,0-0.1,0-0.1,0c0,0-0.1-0.1-0.1-0.1v-0.1c0-0.5-0.2-0.9-0.5-1.3c-0.4-0.3-0.8-0.5-1.4-0.5 c-0.6,0-1,0.2-1.4,0.5c-0.4,0.3-0.5,0.8-0.5,1.4v3.4c0,0.6,0.2,1,0.5,1.4c0.4,0.3,0.8,0.5,1.4,0.5c0.6,0,1-0.1,1.4-0.4 c0.3-0.3,0.5-0.7,0.5-1.2v-1c0,0,0-0.1-0.1-0.1h-1.7c-0.1,0-0.1,0-0.1-0.1c0,0-0.1-0.1-0.1-0.1v-0.7c0-0.1,0-0.1,0.1-0.1 c0,0,0.1-0.1,0.1-0.1h2.8c0.1,0,0.1,0,0.1,0.1c0,0,0.1,0.1,0.1,0.1v1.6c0,1-0.3,1.8-0.9,2.3c-0.6,0.5-1.3,0.8-2.3,0.8 C310.7,94.4,310.2,94.3,309.7,94z"></path> <path class="st6" d="M264.3,101.8c0,0-0.1,0.1-0.1,0.1h-4.5c0,0-0.1,0-0.1,0.1v2.8c0,0,0,0.1,0.1,0.1h3.1c0.1,0,0.1,0,0.1,0.1 c0,0,0.1,0.1,0.1,0.1v0.7c0,0.1,0,0.1-0.1,0.1c0,0-0.1,0.1-0.1,0.1h-3.1c0,0-0.1,0-0.1,0.1v2.8c0,0,0,0.1,0.1,0.1h4.5 c0.1,0,0.1,0,0.1,0.1c0,0,0.1,0.1,0.1,0.1v0.7c0,0.1,0,0.1-0.1,0.1c0,0-0.1,0.1-0.1,0.1h-5.7c-0.1,0-0.1,0-0.1-0.1 c0,0-0.1-0.1-0.1-0.1V101c0-0.1,0-0.1,0.1-0.1c0,0,0.1-0.1,0.1-0.1h5.7c0.1,0,0.1,0,0.1,0.1c0,0,0.1,0.1,0.1,0.1v0.7 C264.4,101.7,264.4,101.8,264.3,101.8z"></path> <path class="st6" d="M265.6,109.9C265.5,109.8,265.5,109.8,265.6,109.9c0-0.1,0-0.2,0-0.2l2.6-4.3c0,0,0-0.1,0-0.1l-2.6-4.3 c0,0,0-0.1,0-0.1c0,0,0-0.1,0-0.1s0.1,0,0.1,0h0.9c0.1,0,0.2,0,0.2,0.1l2.1,3.4c0,0.1,0.1,0.1,0.1,0l2.1-3.4 c0.1-0.1,0.1-0.1,0.2-0.1h0.9c0.1,0,0.1,0,0.1,0s0,0,0,0.1c0,0,0,0.1,0,0.1l-2.6,4.3c0,0,0,0.1,0,0.1l2.6,4.3c0,0,0,0.1,0,0.1 c0,0,0,0.1,0,0.1s-0.1,0-0.1,0h-0.9c-0.1,0-0.2,0-0.2-0.1l-2.1-3.4c0-0.1-0.1-0.1-0.1,0l-2.1,3.4c-0.1,0.1-0.1,0.1-0.2,0.1h-0.9 C265.6,109.9,265.6,109.9,265.6,109.9z"></path> <path class="st6" d="M278.8,101.1c0.4,0.2,0.7,0.5,0.9,0.9c0.2,0.4,0.3,0.9,0.3,1.4c0,0.5-0.1,1-0.3,1.4c-0.2,0.4-0.5,0.7-1,0.9 s-0.9,0.3-1.4,0.3h-2.3c0,0-0.1,0-0.1,0.1v3.6c0,0.1,0,0.1-0.1,0.1c0,0-0.1,0.1-0.1,0.1H274c-0.1,0-0.1,0-0.1-0.1 c0,0-0.1-0.1-0.1-0.1V101c0-0.1,0-0.1,0.1-0.1c0,0,0.1-0.1,0.1-0.1h3.4C278,100.8,278.4,100.9,278.8,101.1z M278.4,104.6 c0.3-0.3,0.4-0.7,0.4-1.1c0-0.5-0.1-0.9-0.4-1.2c-0.3-0.3-0.7-0.4-1.2-0.4h-2.2c0,0-0.1,0-0.1,0.1v3c0,0,0,0.1,0.1,0.1h2.2 C277.8,105,278.1,104.9,278.4,104.6z"></path> <path class="st6" d="M287.6,101.8c0,0-0.1,0.1-0.1,0.1h-4.5c0,0-0.1,0-0.1,0.1v2.8c0,0,0,0.1,0.1,0.1h3.1c0.1,0,0.1,0,0.1,0.1 c0,0,0.1,0.1,0.1,0.1v0.7c0,0.1,0,0.1-0.1,0.1c0,0-0.1,0.1-0.1,0.1h-3.1c0,0-0.1,0-0.1,0.1v2.8c0,0,0,0.1,0.1,0.1h4.5 c0.1,0,0.1,0,0.1,0.1c0,0,0.1,0.1,0.1,0.1v0.7c0,0.1,0,0.1-0.1,0.1c0,0-0.1,0.1-0.1,0.1h-5.7c-0.1,0-0.1,0-0.1-0.1 c0,0-0.1-0.1-0.1-0.1V101c0-0.1,0-0.1,0.1-0.1c0,0,0.1-0.1,0.1-0.1h5.7c0.1,0,0.1,0,0.1,0.1c0,0,0.1,0.1,0.1,0.1v0.7 C287.6,101.7,287.6,101.8,287.6,101.8z"></path> <path class="st6" d="M294.4,109.8l-1.8-3.8c0,0,0-0.1-0.1-0.1h-1.8c0,0-0.1,0-0.1,0.1v3.8c0,0.1,0,0.1-0.1,0.1c0,0-0.1,0.1-0.1,0.1 h-0.9c-0.1,0-0.1,0-0.1-0.1c0,0-0.1-0.1-0.1-0.1V101c0-0.1,0-0.1,0.1-0.1c0,0,0.1-0.1,0.1-0.1h3.4c0.5,0,1,0.1,1.4,0.3 s0.7,0.5,0.9,0.9s0.3,0.8,0.3,1.4c0,0.6-0.2,1.1-0.5,1.5c-0.3,0.4-0.8,0.7-1.3,0.9c0,0,0,0,0,0.1l1.8,3.8l0,0.1 c0,0.1-0.1,0.1-0.2,0.1h-0.9C294.5,109.9,294.4,109.9,294.4,109.8z M290.6,101.9v2.9c0,0,0,0.1,0.1,0.1h2.2c0.5,0,0.8-0.1,1.1-0.4 s0.4-0.6,0.4-1.1c0-0.5-0.1-0.8-0.4-1.1s-0.6-0.4-1.1-0.4L290.6,101.9C290.6,101.9,290.6,101.9,290.6,101.9z"></path> <path class="st6" d="M297.4,109.8c0,0-0.1-0.1-0.1-0.1V101c0-0.1,0-0.1,0.1-0.1c0,0,0.1-0.1,0.1-0.1h0.9c0.1,0,0.1,0,0.1,0.1 c0,0,0.1,0.1,0.1,0.1v8.7c0,0.1,0,0.1-0.1,0.1c0,0-0.1,0.1-0.1,0.1h-0.9C297.5,109.9,297.4,109.9,297.4,109.8z"></path> <path class="st6" d="M306.7,101.8c0,0-0.1,0.1-0.1,0.1H302c0,0-0.1,0-0.1,0.1v2.8c0,0,0,0.1,0.1,0.1h3.1c0.1,0,0.1,0,0.1,0.1 c0,0,0.1,0.1,0.1,0.1v0.7c0,0.1,0,0.1-0.1,0.1c0,0-0.1,0.1-0.1,0.1H302c0,0-0.1,0-0.1,0.1v2.8c0,0,0,0.1,0.1,0.1h4.5 c0.1,0,0.1,0,0.1,0.1c0,0,0.1,0.1,0.1,0.1v0.7c0,0.1,0,0.1-0.1,0.1c0,0-0.1,0.1-0.1,0.1h-5.7c-0.1,0-0.1,0-0.1-0.1 c0,0-0.1-0.1-0.1-0.1V101c0-0.1,0-0.1,0.1-0.1c0,0,0.1-0.1,0.1-0.1h5.7c0.1,0,0.1,0,0.1,0.1c0,0,0.1,0.1,0.1,0.1v0.7 C306.8,101.7,306.7,101.8,306.7,101.8z"></path> <path class="st6" d="M308.5,109.8c0,0-0.1-0.1-0.1-0.1V101c0-0.1,0-0.1,0.1-0.1c0,0,0.1-0.1,0.1-0.1h0.8c0.1,0,0.2,0,0.2,0.1l4,6.4 c0,0,0,0,0.1,0c0,0,0,0,0-0.1V101c0-0.1,0-0.1,0.1-0.1c0,0,0.1-0.1,0.1-0.1h0.9c0.1,0,0.1,0,0.1,0.1c0,0,0.1,0.1,0.1,0.1v8.7 c0,0.1,0,0.1-0.1,0.1c0,0-0.1,0.1-0.1,0.1H314c-0.1,0-0.2,0-0.2-0.1l-4-6.5c0,0,0,0-0.1,0c0,0,0,0,0,0.1l0,6.4c0,0.1,0,0.1-0.1,0.1 c0,0-0.1,0.1-0.1,0.1h-0.9C308.6,109.9,308.6,109.9,308.5,109.8z"></path> <path class="st6" d="M318.4,109.6c-0.5-0.2-0.9-0.6-1.1-1.1s-0.4-1-0.4-1.6v-3.4c0-0.6,0.1-1.1,0.4-1.6c0.3-0.4,0.6-0.8,1.1-1 c0.5-0.2,1-0.4,1.7-0.4s1.2,0.1,1.7,0.4c0.5,0.2,0.8,0.6,1.1,1c0.3,0.4,0.4,0.9,0.4,1.5c0,0.1-0.1,0.1-0.2,0.2l-0.9,0.1h-0.1 c0,0-0.1,0-0.1,0c0,0,0,0,0-0.1v-0.1c0-0.6-0.2-1-0.5-1.3s-0.8-0.5-1.4-0.5c-0.6,0-1,0.2-1.4,0.5s-0.5,0.8-0.5,1.3v3.5 c0,0.6,0.2,1,0.5,1.3c0.4,0.3,0.8,0.5,1.4,0.5c0.6,0,1-0.2,1.4-0.5c0.3-0.3,0.5-0.8,0.5-1.3c0-0.1,0-0.1,0.1-0.1c0,0,0.1,0,0.1,0 l0.9,0.1c0.1,0,0.2,0,0.2,0.1v0.1c0,0.6-0.1,1.1-0.4,1.5c-0.3,0.4-0.6,0.8-1.1,1c-0.5,0.2-1,0.4-1.7,0.4S318.9,109.9,318.4,109.6z"></path> <path class="st6" d="M331.1,101.8c0,0-0.1,0.1-0.1,0.1h-4.5c0,0-0.1,0-0.1,0.1v2.8c0,0,0,0.1,0.1,0.1h3.1c0.1,0,0.1,0,0.1,0.1 c0,0,0.1,0.1,0.1,0.1v0.7c0,0.1,0,0.1-0.1,0.1c0,0-0.1,0.1-0.1,0.1h-3.1c0,0-0.1,0-0.1,0.1v2.8c0,0,0,0.1,0.1,0.1h4.5 c0.1,0,0.1,0,0.1,0.1c0,0,0.1,0.1,0.1,0.1v0.7c0,0.1,0,0.1-0.1,0.1c0,0-0.1,0.1-0.1,0.1h-5.7c-0.1,0-0.1,0-0.1-0.1 c0,0-0.1-0.1-0.1-0.1V101c0-0.1,0-0.1,0.1-0.1c0,0,0.1-0.1,0.1-0.1h5.7c0.1,0,0.1,0,0.1,0.1c0,0,0.1,0.1,0.1,0.1v0.7 C331.1,101.7,331.1,101.8,331.1,101.8z"></path> </g> <rect x="443" y="75" class="st4" width="104" height="29"></rect> <g class="st5"> <path class="st6" d="M468.2,78c0,0-0.1-0.1-0.1-0.1v-8.7c0-0.1,0-0.1,0.1-0.1c0,0,0.1-0.1,0.1-0.1h0.8c0.1,0,0.2,0,0.2,0.1l4,6.4 c0,0,0,0,0.1,0c0,0,0,0,0-0.1v-6.3c0-0.1,0-0.1,0.1-0.1c0,0,0.1-0.1,0.1-0.1h0.9c0.1,0,0.1,0,0.1,0.1c0,0,0.1,0.1,0.1,0.1v8.7 c0,0.1,0,0.1-0.1,0.1c0,0-0.1,0.1-0.1,0.1h-0.8c-0.1,0-0.2,0-0.2-0.1l-4-6.5c0,0,0,0-0.1,0c0,0,0,0,0,0.1l0,6.4 c0,0.1,0,0.1-0.1,0.1c0,0-0.1,0.1-0.1,0.1h-0.9C468.3,78.1,468.3,78.1,468.2,78z"></path> <path class="st6" d="M478.3,77.8c-0.5-0.2-0.9-0.6-1.1-1.1c-0.3-0.5-0.4-1-0.4-1.6v-6c0-0.1,0-0.1,0.1-0.1c0,0,0.1-0.1,0.1-0.1h0.9 c0.1,0,0.1,0,0.1,0.1c0,0,0.1,0.1,0.1,0.1v6c0,0.6,0.2,1,0.5,1.4c0.4,0.3,0.8,0.5,1.4,0.5c0.6,0,1-0.2,1.4-0.5 c0.4-0.3,0.5-0.8,0.5-1.4v-6c0-0.1,0-0.1,0.1-0.1c0,0,0.1-0.1,0.1-0.1h0.9c0.1,0,0.1,0,0.1,0.1c0,0,0.1,0.1,0.1,0.1v6 c0,0.6-0.1,1.1-0.4,1.6s-0.6,0.8-1.1,1.1c-0.5,0.2-1,0.4-1.7,0.4S478.8,78.1,478.3,77.8z"></path> <path class="st6" d="M490.2,78l-1.8-3.8c0,0,0-0.1-0.1-0.1h-1.8c0,0-0.1,0-0.1,0.1v3.8c0,0.1,0,0.1-0.1,0.1c0,0-0.1,0.1-0.1,0.1 h-0.9c-0.1,0-0.1,0-0.1-0.1c0,0-0.1-0.1-0.1-0.1v-8.7c0-0.1,0-0.1,0.1-0.1c0,0,0.1-0.1,0.1-0.1h3.4c0.5,0,1,0.1,1.4,0.3 s0.7,0.5,0.9,0.9s0.3,0.8,0.3,1.4c0,0.6-0.2,1.1-0.5,1.5c-0.3,0.4-0.8,0.7-1.3,0.9c0,0,0,0,0,0.1l1.8,3.8l0,0.1 c0,0.1-0.1,0.1-0.2,0.1h-0.9C490.3,78.1,490.3,78.1,490.2,78z M486.5,70.1V73c0,0,0,0.1,0.1,0.1h2.2c0.4,0,0.8-0.1,1.1-0.4 s0.4-0.6,0.4-1.1c0-0.5-0.1-0.8-0.4-1.1s-0.6-0.4-1.1-0.4L486.5,70.1C486.5,70.1,486.5,70.1,486.5,70.1z"></path> <path class="st6" d="M499,69.1c0,0,0.1,0.1,0.1,0.1v0.7c0,0.1,0,0.1-0.1,0.1c0,0-0.1,0.1-0.1,0.1h-2.4c0,0-0.1,0-0.1,0.1v7.7 c0,0.1,0,0.1-0.1,0.1c0,0-0.1,0.1-0.1,0.1h-0.9c-0.1,0-0.1,0-0.1-0.1c0,0-0.1-0.1-0.1-0.1v-7.7c0,0,0-0.1-0.1-0.1h-2.3 c-0.1,0-0.1,0-0.1-0.1c0,0-0.1-0.1-0.1-0.1v-0.7c0-0.1,0-0.1,0.1-0.1c0,0,0.1-0.1,0.1-0.1h6.1C498.9,69,499,69,499,69.1z"></path> <path class="st6" d="M502.1,77.8c-0.5-0.2-0.9-0.6-1.1-1.1s-0.4-1-0.4-1.6v-6c0-0.1,0-0.1,0.1-0.1c0,0,0.1-0.1,0.1-0.1h0.9 c0.1,0,0.1,0,0.1,0.1c0,0,0.1,0.1,0.1,0.1v6c0,0.6,0.2,1,0.5,1.4s0.8,0.5,1.4,0.5s1-0.2,1.4-0.5s0.5-0.8,0.5-1.4v-6 c0-0.1,0-0.1,0.1-0.1c0,0,0.1-0.1,0.1-0.1h0.9c0.1,0,0.1,0,0.1,0.1c0,0,0.1,0.1,0.1,0.1v6c0,0.6-0.1,1.1-0.4,1.6 c-0.3,0.5-0.6,0.8-1.1,1.1c-0.5,0.2-1,0.4-1.7,0.4S502.5,78.1,502.1,77.8z"></path> <path class="st6" d="M514,78l-1.8-3.8c0,0,0-0.1-0.1-0.1h-1.8c0,0-0.1,0-0.1,0.1v3.8c0,0.1,0,0.1-0.1,0.1c0,0-0.1,0.1-0.1,0.1h-0.9 c-0.1,0-0.1,0-0.1-0.1c0,0-0.1-0.1-0.1-0.1v-8.7c0-0.1,0-0.1,0.1-0.1c0,0,0.1-0.1,0.1-0.1h3.4c0.5,0,1,0.1,1.4,0.3s0.7,0.5,0.9,0.9 s0.3,0.8,0.3,1.4c0,0.6-0.2,1.1-0.5,1.5c-0.3,0.4-0.8,0.7-1.3,0.9c0,0,0,0,0,0.1l1.8,3.8l0,0.1c0,0.1-0.1,0.1-0.2,0.1h-0.9 C514.1,78.1,514,78.1,514,78z M510.2,70.1V73c0,0,0,0.1,0.1,0.1h2.2c0.5,0,0.8-0.1,1.1-0.4c0.3-0.3,0.4-0.6,0.4-1.1 c0-0.5-0.1-0.8-0.4-1.1s-0.6-0.4-1.1-0.4L510.2,70.1C510.2,70.1,510.2,70.1,510.2,70.1z"></path> <path class="st6" d="M522.9,70c0,0-0.1,0.1-0.1,0.1h-4.5c0,0-0.1,0-0.1,0.1v2.8c0,0,0,0.1,0.1,0.1h3.1c0.1,0,0.1,0,0.1,0.1 c0,0,0.1,0.1,0.1,0.1v0.7c0,0.1,0,0.1-0.1,0.1c0,0-0.1,0.1-0.1,0.1h-3.1c0,0-0.1,0-0.1,0.1V77c0,0,0,0.1,0.1,0.1h4.5 c0.1,0,0.1,0,0.1,0.1c0,0,0.1,0.1,0.1,0.1v0.7c0,0.1,0,0.1-0.1,0.1c0,0-0.1,0.1-0.1,0.1h-5.7c-0.1,0-0.1,0-0.1-0.1 c0,0-0.1-0.1-0.1-0.1v-8.7c0-0.1,0-0.1,0.1-0.1c0,0,0.1-0.1,0.1-0.1h5.7c0.1,0,0.1,0,0.1,0.1c0,0,0.1,0.1,0.1,0.1v0.7 C523,69.9,522.9,70,522.9,70z"></path> <path class="st6" d="M466,93.4c-0.5-0.2-0.9-0.6-1.1-1.1c-0.3-0.5-0.4-1-0.4-1.6v-3.4c0-0.6,0.1-1.1,0.4-1.6c0.3-0.4,0.6-0.8,1.1-1 c0.5-0.2,1-0.4,1.7-0.4s1.2,0.1,1.7,0.4s0.8,0.6,1.1,1c0.3,0.4,0.4,0.9,0.4,1.5c0,0.1-0.1,0.1-0.2,0.2l-0.9,0.1h-0.1 c0,0-0.1,0-0.1,0c0,0,0,0,0-0.1v-0.1c0-0.6-0.2-1-0.5-1.3s-0.8-0.5-1.4-0.5c-0.6,0-1,0.2-1.4,0.5c-0.3,0.3-0.5,0.8-0.5,1.3v3.5 c0,0.6,0.2,1,0.5,1.3c0.4,0.3,0.8,0.5,1.4,0.5c0.6,0,1-0.2,1.4-0.5c0.3-0.3,0.5-0.8,0.5-1.3c0-0.1,0-0.1,0.1-0.1c0,0,0.1,0,0.1,0 l0.9,0.1c0.1,0,0.2,0,0.2,0.1v0.1c0,0.6-0.1,1.1-0.4,1.5c-0.3,0.4-0.6,0.8-1.1,1s-1,0.4-1.7,0.4S466.5,93.7,466,93.4z"></path> <path class="st6" d="M474,93.4c-0.5-0.2-0.9-0.6-1.1-1.1c-0.3-0.5-0.4-1-0.4-1.6v-6c0-0.1,0-0.1,0.1-0.1c0,0,0.1-0.1,0.1-0.1h0.9 c0.1,0,0.1,0,0.1,0.1c0,0,0.1,0.1,0.1,0.1v6c0,0.6,0.2,1,0.5,1.4c0.4,0.3,0.8,0.5,1.4,0.5c0.6,0,1-0.2,1.4-0.5 c0.4-0.3,0.5-0.8,0.5-1.4v-6c0-0.1,0-0.1,0.1-0.1c0,0,0.1-0.1,0.1-0.1h0.9c0.1,0,0.1,0,0.1,0.1c0,0,0.1,0.1,0.1,0.1v6 c0,0.6-0.1,1.1-0.4,1.6c-0.3,0.5-0.6,0.8-1.1,1.1c-0.5,0.2-1,0.4-1.7,0.4S474.5,93.7,474,93.4z"></path> <path class="st6" d="M482,93.5c-0.5-0.2-0.9-0.5-1.1-0.9c-0.3-0.4-0.4-0.8-0.4-1.3V91c0-0.1,0-0.1,0.1-0.1c0,0,0.1-0.1,0.1-0.1h0.8 c0.1,0,0.1,0,0.1,0.1c0,0,0.1,0.1,0.1,0.1v0.2c0,0.4,0.2,0.8,0.6,1.1c0.4,0.3,0.9,0.4,1.5,0.4c0.6,0,1-0.1,1.4-0.4 c0.3-0.3,0.5-0.6,0.5-1c0-0.3-0.1-0.5-0.2-0.7c-0.2-0.2-0.4-0.4-0.7-0.5s-0.7-0.4-1.3-0.6c-0.6-0.2-1.1-0.5-1.5-0.7 c-0.4-0.2-0.7-0.5-0.9-0.8c-0.2-0.3-0.4-0.7-0.4-1.2c0-0.7,0.3-1.3,0.8-1.8c0.5-0.4,1.3-0.6,2.2-0.6c0.6,0,1.2,0.1,1.7,0.3 s0.9,0.5,1.1,0.9c0.3,0.4,0.4,0.8,0.4,1.4v0.2c0,0.1,0,0.1-0.1,0.1c0,0-0.1,0.1-0.1,0.1h-0.8c-0.1,0-0.1,0-0.1,0s-0.1-0.1-0.1-0.1 v-0.2c0-0.5-0.2-0.8-0.5-1.1c-0.4-0.3-0.9-0.4-1.5-0.4c-0.5,0-1,0.1-1.2,0.3c-0.3,0.2-0.4,0.5-0.4,1c0,0.3,0.1,0.5,0.2,0.7 c0.1,0.2,0.4,0.3,0.7,0.5c0.3,0.1,0.7,0.3,1.3,0.6c0.6,0.2,1.1,0.5,1.5,0.7c0.4,0.2,0.7,0.5,0.9,0.8c0.3,0.3,0.4,0.7,0.4,1.2 s-0.1,0.9-0.4,1.3c-0.3,0.4-0.6,0.7-1.1,0.9c-0.5,0.2-1,0.3-1.7,0.3C483.1,93.8,482.5,93.7,482,93.5z"></path> <path class="st6" d="M494.2,84.7c0,0,0.1,0.1,0.1,0.1v0.7c0,0.1,0,0.1-0.1,0.1c0,0-0.1,0.1-0.1,0.1h-2.4c0,0-0.1,0-0.1,0.1v7.7 c0,0.1,0,0.1-0.1,0.1c0,0-0.1,0.1-0.1,0.1h-0.9c-0.1,0-0.1,0-0.1-0.1c0,0-0.1-0.1-0.1-0.1v-7.7c0,0,0-0.1-0.1-0.1H488 c-0.1,0-0.1,0-0.1-0.1c0,0-0.1-0.1-0.1-0.1v-0.7c0-0.1,0-0.1,0.1-0.1c0,0,0.1-0.1,0.1-0.1h6.1C494.1,84.6,494.2,84.6,494.2,84.7z"></path> <path class="st6" d="M496.6,93.4c-0.5-0.3-0.9-0.6-1.1-1.1c-0.3-0.5-0.4-1-0.4-1.6v-3.1c0-0.6,0.1-1.2,0.4-1.6 c0.3-0.5,0.6-0.8,1.1-1.1c0.5-0.3,1-0.4,1.7-0.4c0.6,0,1.2,0.1,1.7,0.4c0.5,0.3,0.9,0.6,1.1,1.1c0.3,0.5,0.4,1,0.4,1.6v3.1 c0,0.6-0.1,1.2-0.4,1.6c-0.3,0.5-0.6,0.8-1.1,1.1c-0.5,0.3-1,0.4-1.7,0.4C497.6,93.8,497.1,93.7,496.6,93.4z M499.7,92.2 c0.4-0.4,0.5-0.8,0.5-1.4v-3.2c0-0.6-0.2-1.1-0.5-1.5c-0.4-0.4-0.8-0.6-1.4-0.6s-1.1,0.2-1.4,0.6c-0.4,0.4-0.5,0.9-0.5,1.5v3.2 c0,0.6,0.2,1.1,0.5,1.4c0.4,0.4,0.8,0.5,1.4,0.5S499.3,92.6,499.7,92.2z"></path> <path class="st6" d="M503.4,93.6c0,0-0.1-0.1-0.1-0.1v-8.7c0-0.1,0-0.1,0.1-0.1c0,0,0.1-0.1,0.1-0.1h0.9c0.1,0,0.2,0,0.2,0.1 l2.2,3.5c0,0.1,0.1,0.1,0.1,0l2.2-3.5c0.1-0.1,0.1-0.1,0.2-0.1h0.9c0.1,0,0.1,0,0.1,0.1c0,0,0.1,0.1,0.1,0.1v8.7 c0,0.1,0,0.1-0.1,0.1c0,0-0.1,0.1-0.1,0.1h-0.9c-0.1,0-0.1,0-0.1-0.1c0,0-0.1-0.1-0.1-0.1v-6.6c0,0,0-0.1,0-0.1c0,0,0,0-0.1,0 l-1.8,2.9c-0.1,0.1-0.1,0.1-0.2,0.1h-0.4c-0.1,0-0.2,0-0.2-0.1l-1.8-2.9c0,0,0,0-0.1,0s0,0,0,0.1v6.6c0,0.1,0,0.1-0.1,0.1 c0,0-0.1,0.1-0.1,0.1h-0.9C503.5,93.7,503.5,93.7,503.4,93.6z"></path> <path class="st6" d="M518.4,85.6c0,0-0.1,0.1-0.1,0.1h-4.5c0,0-0.1,0-0.1,0.1v2.8c0,0,0,0.1,0.1,0.1h3.1c0.1,0,0.1,0,0.1,0.1 c0,0,0.1,0.1,0.1,0.1v0.7c0,0.1,0,0.1-0.1,0.1c0,0-0.1,0.1-0.1,0.1h-3.1c0,0-0.1,0-0.1,0.1v2.8c0,0,0,0.1,0.1,0.1h4.5 c0.1,0,0.1,0,0.1,0.1c0,0,0.1,0.1,0.1,0.1v0.7c0,0.1,0,0.1-0.1,0.1c0,0-0.1,0.1-0.1,0.1h-5.7c-0.1,0-0.1,0-0.1-0.1 c0,0-0.1-0.1-0.1-0.1v-8.7c0-0.1,0-0.1,0.1-0.1c0,0,0.1-0.1,0.1-0.1h5.7c0.1,0,0.1,0,0.1,0.1c0,0,0.1,0.1,0.1,0.1v0.7 C518.5,85.5,518.5,85.6,518.4,85.6z"></path> <path class="st6" d="M525.2,93.6l-1.8-3.8c0,0,0-0.1-0.1-0.1h-1.8c0,0-0.1,0-0.1,0.1v3.8c0,0.1,0,0.1-0.1,0.1c0,0-0.1,0.1-0.1,0.1 h-0.9c-0.1,0-0.1,0-0.1-0.1c0,0-0.1-0.1-0.1-0.1v-8.7c0-0.1,0-0.1,0.1-0.1c0,0,0.1-0.1,0.1-0.1h3.4c0.5,0,1,0.1,1.4,0.3 s0.7,0.5,0.9,0.9s0.3,0.8,0.3,1.4c0,0.6-0.2,1.1-0.5,1.5c-0.3,0.4-0.8,0.7-1.3,0.9c0,0,0,0,0,0.1l1.8,3.8l0,0.1 c0,0.1-0.1,0.1-0.2,0.1h-0.9C525.3,93.7,525.3,93.7,525.2,93.6z M521.5,85.7v2.9c0,0,0,0.1,0.1,0.1h2.2c0.4,0,0.8-0.1,1.1-0.4 s0.4-0.6,0.4-1.1c0-0.5-0.1-0.8-0.4-1.1s-0.6-0.4-1.1-0.4L521.5,85.7C521.5,85.7,521.5,85.7,521.5,85.7z"></path> <path class="st6" d="M471.8,109.2c0,0-0.1-0.1-0.1-0.1v-8.7c0-0.1,0-0.1,0.1-0.1c0,0,0.1-0.1,0.1-0.1h0.9c0.1,0,0.1,0,0.1,0.1 c0,0,0.1,0.1,0.1,0.1v7.8c0,0,0,0.1,0.1,0.1h4.4c0.1,0,0.1,0,0.1,0.1c0,0,0.1,0.1,0.1,0.1v0.7c0,0.1,0,0.1-0.1,0.1 c0,0-0.1,0.1-0.1,0.1H472C471.9,109.3,471.8,109.3,471.8,109.2z"></path> <path class="st6" d="M480.4,109c-0.5-0.3-0.9-0.6-1.1-1.1c-0.3-0.5-0.4-1-0.4-1.6v-3.1c0-0.6,0.1-1.2,0.4-1.6 c0.3-0.5,0.6-0.8,1.1-1.1c0.5-0.3,1-0.4,1.7-0.4c0.6,0,1.2,0.1,1.7,0.4c0.5,0.3,0.9,0.6,1.1,1.1c0.3,0.5,0.4,1,0.4,1.6v3.1 c0,0.6-0.1,1.2-0.4,1.6c-0.3,0.5-0.6,0.8-1.1,1.1c-0.5,0.3-1,0.4-1.7,0.4C481.4,109.4,480.9,109.3,480.4,109z M483.5,107.8 c0.4-0.4,0.5-0.8,0.5-1.4v-3.2c0-0.6-0.2-1.1-0.5-1.5c-0.4-0.4-0.8-0.6-1.4-0.6c-0.6,0-1.1,0.2-1.4,0.6c-0.4,0.4-0.5,0.9-0.5,1.5 v3.2c0,0.6,0.2,1.1,0.5,1.4c0.4,0.4,0.8,0.5,1.4,0.5C482.7,108.3,483.1,108.2,483.5,107.8z"></path> <path class="st6" d="M489,109.2c0,0-0.1-0.1-0.1-0.1v-3.6c0,0,0,0,0-0.1l-2.7-5c0-0.1,0-0.1,0-0.1c0-0.1,0.1-0.1,0.2-0.1h0.9 c0.1,0,0.2,0,0.2,0.1l2,3.7c0,0,0.1,0,0.1,0l2-3.7c0.1-0.1,0.1-0.1,0.2-0.1h0.9c0.1,0,0.2,0,0.2,0.1l0,0.1l-2.7,5c0,0,0,0.1,0,0.1 v3.6c0,0.1,0,0.1-0.1,0.1c0,0-0.1,0.1-0.1,0.1h-0.9C489.1,109.3,489,109.3,489,109.2z"></path> <path class="st6" d="M498.9,109.1l-0.5-1.5c0,0,0-0.1-0.1-0.1h-3.6c0,0,0,0-0.1,0.1l-0.5,1.5c0,0.1-0.1,0.2-0.2,0.2H493 c-0.1,0-0.2-0.1-0.2-0.2l2.8-8.7c0-0.1,0.1-0.2,0.2-0.2h1.2c0.1,0,0.2,0.1,0.2,0.2l2.8,8.7c0,0,0,0,0,0.1c0,0.1-0.1,0.1-0.2,0.1 h-0.9C499,109.3,498.9,109.2,498.9,109.1z M495,106.6h3c0.1,0,0.1,0,0.1-0.1l-1.5-4.8c0,0,0-0.1,0-0.1s0,0,0,0.1L495,106.6 C495,106.6,495,106.6,495,106.6z"></path> <path class="st6" d="M501.7,109.2c0,0-0.1-0.1-0.1-0.1v-8.7c0-0.1,0-0.1,0.1-0.1c0,0,0.1-0.1,0.1-0.1h0.9c0.1,0,0.1,0,0.1,0.1 c0,0,0.1,0.1,0.1,0.1v7.8c0,0,0,0.1,0.1,0.1h4.4c0.1,0,0.1,0,0.1,0.1c0,0,0.1,0.1,0.1,0.1v0.7c0,0.1,0,0.1-0.1,0.1 c0,0-0.1,0.1-0.1,0.1h-5.5C501.8,109.3,501.8,109.3,501.7,109.2z"></path> <path class="st6" d="M514.5,100.3c0,0,0.1,0.1,0.1,0.1v0.7c0,0.1,0,0.1-0.1,0.1c0,0-0.1,0.1-0.1,0.1H512c0,0-0.1,0-0.1,0.1v7.7 c0,0.1,0,0.1-0.1,0.1c0,0-0.1,0.1-0.1,0.1h-0.9c-0.1,0-0.1,0-0.1-0.1s-0.1-0.1-0.1-0.1v-7.7c0,0,0-0.1-0.1-0.1h-2.3 c-0.1,0-0.1,0-0.1-0.1c0,0-0.1-0.1-0.1-0.1v-0.7c0-0.1,0-0.1,0.1-0.1c0,0,0.1-0.1,0.1-0.1h6.1C514.4,100.2,514.5,100.2,514.5,100.3 z"></path> <path class="st6" d="M518.3,109.2c0,0-0.1-0.1-0.1-0.1v-3.6c0,0,0,0,0-0.1l-2.7-5c0-0.1,0-0.1,0-0.1c0-0.1,0.1-0.1,0.2-0.1h0.9 c0.1,0,0.2,0,0.2,0.1l2,3.7c0,0,0.1,0,0.1,0l2-3.7c0.1-0.1,0.1-0.1,0.2-0.1h0.9c0.1,0,0.2,0,0.2,0.1l0,0.1l-2.7,5c0,0,0,0.1,0,0.1 v3.6c0,0.1,0,0.1-0.1,0.1c0,0-0.1,0.1-0.1,0.1h-0.9C518.4,109.3,518.3,109.3,518.3,109.2z"></path> </g> </svg> 