<?xml version="1.0" encoding="UTF-8"?> <!-- Generator: Adobe Illustrator 22.1.0, SVG Export Plug-In . SVG Version: 6.00 Build 0) --> <svg xmlns="http://www.w3.org/2000/svg" xmlns:xlink="http://www.w3.org/1999/xlink" id="SAP" x="0px" y="0px" viewBox="0 0 1032 237.9" style="enable-background:new 0 0 1032 237.9;" xml:space="preserve"> <style type="text/css"> .st0{fill:#FFFFFF;} </style> <g id="SAP_1_"> <path class="st0" d="M343.3,123.4c0-15.9,0-31.7,0-48.5c0-4,1-5,5-5c5,0,9.9,0,14.9,0c3,0,4,1,4,4c0,10.9,0,21.8,0,32.7 c0,3,1,5,4,5c10.9,0,21.8,0,32.7,0c3,0,4-1,4-4c0-10.9,0-20.8,0-31.7c0-4,1-5.9,5-5c5,0,9.9,0,13.9,0c3,0,4,1,4,4 c0,32.7,0,64.4,0,97.1c0,4-1,5-5,4c-5,0-9.9,0-13.9,0s-4-1-4-5c0-11.9,0-23.8,0-35.7c0-4-1-5-5-5c-10.9,0-20.8,0-31.7,0 c-4,0-5,1-5,5c0,11.9,0,22.8,0,34.7c0,4-1,5.9-5,5c-5,0-8.9,0-13.9,0c-4,0-5-1-5-5C343.3,156.1,343.3,140.3,343.3,123.4z"></path> <path class="st0" d="M967.4,218.5c-5.9,0-11.9,0-18.8,0c-3,0-4-1-4-4c0-5,0-9.9,0-14.9c0-3,1-5,4-5c6.9,0,13.9,0,20.8,0 c3,0,4-1,5-4c8.9-29.7,10.9-59.4,8.9-90.1c-1-15.9-4-30.7-7.9-45.6c-1-3-2-5-5.9-5c-6.9,0-12.9-1-19.8-1c-3,0-5-1-4-5 c0-5,0-9.9,0-13.9c0-3,1-4,4-4c12.9,1,25.8,1,37.6,2c3,0,3,2,4,4c6.9,17.8,10.9,35.7,13.9,54.5c5,39.6,2,79.3-9.9,117.9 c-4,12.9-4,12.9-17.8,12.9C974.3,218.5,971.3,218.5,967.4,218.5L967.4,218.5z"></path> <path class="st0" d="M835.6,124.4c1-30.7,5-61.4,15.9-90.1c1-4,3-5,6.9-5c11.9,0,22.8-1,34.7-2c4,0,5,1,5,5s0,8.9,0,12.9s-1,5-5,5 c-6.9,0-12.9,1-19.8,1c-3,0-4,1-4,3c-7.9,28.7-10.9,57.5-8.9,86.2c1,16.8,4,32.7,7.9,48.5c1,4,3,5.9,6.9,5.9c5.9,0,12.9,0,18.8,0 c3,0,4,1,4,4c0,5,0,9.9,0,14.9c0,3-1,4-4,4c-12.9,0-24.8-1-37.6-1c-3,0-4-2-5-4c-7.9-18.8-11.9-38.6-13.9-58.4 C836.6,145.2,836.6,134.3,835.6,124.4z"></path> <path class="st0" d="M61.9,177.9c-18.8,0-33.7-6.9-43.6-22.8c-2-3-2-4,1-5.9l1-1c4-2,6.9-5.9,11.9-5.9c5-1,5,5.9,8.9,8.9 c8.9,6.9,18.8,9.9,29.7,6.9c5.9-2,9.9-5,9.9-9.9c0-5.9-3-8.9-7.9-10.9c-5.9-3-11.9-4-17.8-5.9s-12.9-4-18.8-6.9 c-20.8-9.9-17.8-38.6-2-48.5C54,63,85.7,68.9,98.6,87.8c2,3,2,4-1,5c0,1-1,1-1,2c-3,3-5.9,5.9-9.9,6.9c-5,1-5.9-5-8.9-6.9 c-7.9-5-15.9-7.9-25.8-5c-4,1-6.9,4-7.9,7.9c-1,5,2,7.9,5.9,10.9c5.9,3,11.9,5,17.8,6.9c6.9,2,13.9,4,19.8,6.9 c21.8,10.9,18.8,39.6,2,49.5C80.7,176.9,70.8,177.9,61.9,177.9z"></path> <path class="st0" d="M441.3,100.6c6.9,0,12.9,0,18.8,0c4,0,5,1,5.9,4c4,12.9,8.9,25.8,12.9,38.6c1,2,1,4,3,5 c5-14.9,9.9-29.7,14.9-43.6c1-3,2-5,5.9-4c5.9,0,11.9,0,17.8,0c-5,13.9-9.9,26.7-14.9,39.6c-5,13.9-10.9,27.7-15.9,41.6 c-6.9,18.8-15.9,24.8-36.7,22.8c-13.9-1-12.9-1-9.9-13.9c1-5,3-6.9,7.9-5c3,1,5.9,1,8.9,1c7.9,0,11.9-6.9,8.9-13.9 c-7.9-21.8-16.8-43.6-24.8-65.4C443.3,105.6,442.3,103.6,441.3,100.6z"></path> <path class="st0" d="M750.4,99.6c9.9,0,18.8,2,27.7,7.9c2,2,4,3,1,5.9c-2,3-4,6.9-6.9,8.9c-3,1-5.9-3-8.9-4c-5.9-2-10.9-4-16.8-3 c-3,1-5.9,2-6.9,5.9c0,4,2,5.9,5.9,6.9c5.9,1,10.9,3,16.8,4c3,1,5,1,7.9,2c6.9,3,12.9,6.9,13.9,15.9c1,8.9-1,16.8-8.9,22.8 c-9.9,6.9-20.8,6.9-32.7,5.9c-8.9-1-16.8-4-23.8-7.9c-3-2-4-3-1-5.9c2-3,4-6.9,5.9-7.9c3-1,5.9,3,8.9,4c6.9,3,13.9,5,21.8,4 c4,0,7.9-2,7.9-6.9c0-5-3-6.9-6.9-7.9c-5-1-10.9-2-15.8-4c-3-1-5-1-7.9-2c-7.9-3-12.9-7.9-13.9-16.8c-1-9.9,3-16.8,10.9-21.8 C736.5,99.6,743.5,98.7,750.4,99.6z"></path> <path class="st0" d="M921.8,112.5c3-7.9,5.9-15.9,8.9-22.8c1-3,3-4,5.9-4c5.9,1,12.9,1,19.8,1c-5.9,17.8-11.9,34.7-19.8,50.5 c-2,4-2,5.9,0,9.9c4,6.9,7.9,14.9,11.9,22.8c-8.9,0-15.9,0-23.8,0c-2,0-3-1-4-3c-13.9-24.8-24.8-50.5-32.7-77.3c-1-3,0-4,3-4 c5,0,10.9,0,15.8-1c3,0,4,1,5,4c3,7.9,5.9,15.9,7.9,23.8C920.8,112.5,920.8,112.5,921.8,112.5z"></path> <path class="st0" d="M643.4,112.5c5-5.9,9.9-10.9,15.9-11.9c1,0,2-1,3-1c6.9-1,6.9-1,6.9,5.9c0,1,0,1,0,2c0,4,1,7.9-1,9.9 c-2,3-5.9,0-8.9,1c-5,1-9.9,3-13.9,6.9c-2,2-3,4-3,6.9c0,12.9,0,25.8,0,38.6c0,4-1,5-4,5c-5,0-9.9,0-14.9,0c-3,0-4,0-4-3 c0-22.8,0-46.6,0-69.3c0-3,1-3,3-3c5,0,9.9,0,14.9,0c3,0,5,1,4,4C643.4,107.6,643.4,109.6,643.4,112.5z"></path> <path class="st0" d="M681.1,138.3c0-10.9,0-21.8,0-32.7c0-4,1-5,5-5c5,0,9.9,0,14.9,0c3,0,4,1,4,4c0,22.8,0,45.6,0,68.4 c0,3-1,4-4,4c-5,0-9.9,0-14.9,0c-3,0-4-1-4-4C681.1,161.1,681.1,149.2,681.1,138.3z"></path> <path class="st0" d="M693,71.9c10.9,0,10.9,0,10.9,11.9c0,6.9,0,6.9-6.9,6.9c-4,0-7.9,0-12.9,0c-3,0-4-1-4-4c0-1,0-2,0-3 C681.1,71.9,681.1,71.9,693,71.9z"></path> <path class="st0" d="M600.8,114.5c-7.9-16.8-29.7-19.8-42.6-6.9c-1,1-2,3-4,3c0-10.9,0-20.8,0-31.7c0-7.9,0-7.9-7.9-7.9 c-5,0-10.9-2-13.9,1s-1,8.9-1,13.9c0,28.7,0,56.5,0,85.2c0,2-1,5,3,5c5.9,0,10.9,0,16.8,0c2,0,3-1,3-3s0-3,0-5.9c2,2,4,3,5,4 c13.9,9.9,34.7,5.9,41.6-9.9C608.8,146.2,608.8,130.4,600.8,114.5z M581,151.2c-2,5-5,8.9-9.9,8.9c-6.9,1-11.9-2-16.8-5.9 c-1-1-1-2-1-4c0-4,0-6.9,0-10.9c0-2,0-5,0-6.9c0-7.9,4-12.9,11.9-13.9s13.9,2,15.9,9.9C584,136.3,584,143.2,581,151.2z"></path> <path class="st0" d="M268,71.9c-15.9-2-31.7,0-46.6-1c-4,0-5,1-5,5c0,15.9,0,31.7,0,47.6s0,31.7,0,48.5c0,4,1,5,5,5 c5,0,8.9,0,13.9,0c4,0,5-1,5-5c0-9.9,0-18.8,0-28.7c0-4,1-5,5-5c8.9,0,16.8,1,25.8-1c10.9-2,19.8-6.9,24.8-16.8 C305.6,98.7,292.7,74.9,268,71.9z M264,119.5c-7.9,2-15.8,1-22.8,1c-2,0-2-2-2-3c0-4,0-8.9,0-12.9s0-7.9,0-11.9c0-2,0-3,3-3 c6.9,0,14.9-1,21.8,1s10.9,5.9,10.9,13.9C274.9,113.5,271.9,117.5,264,119.5z"></path> <path class="st0" d="M202.6,170c-10.9-29.7-20.8-59.4-31.7-89.2c-4-9.9-4-9.9-14.9-9.9c-3,0-5,0-7.9,0c-2,0-4,1-5,3 c-11.9,32.7-22.8,66.4-34.7,99.1c-1,3-1,4,3,4c5,0,8.9,0,13.9,0c3,0,4-1,5-4c2-5,4-10.9,5-15.8c1-3,3-4,5.9-4c7.9,0,15.9,0,23.8,0 c5.9,0,8.9,1,9.9,6.9c1,5,2,11.9,5.9,15.8c4,3,10.9,1,16.8,1C204.6,176.9,204.6,176.9,202.6,170z M164,136.3c-5.9,0-11.9,0-17.8,0 c-2,0-3-1-2-3c4-10.9,6.9-20.8,11.9-32.7c4,11.9,7.9,21.8,10.9,32.7C166.9,135.3,166.9,136.3,164,136.3z"></path> </g> </svg> 