<?xml version="1.0" encoding="UTF-8"?> <svg xmlns="http://www.w3.org/2000/svg" xmlns:xlink="http://www.w3.org/1999/xlink" viewBox="0 0 1816.224 762.223"> <defs> <style> .cls-1, .cls-14 { fill: none; } .cls-1, .cls-5 { stroke: #00d3ff; stroke-width: 11px; } .cls-2 { fill: #fa5555; } .cls-3 { fill: #fff; } .cls-4 { opacity: 0.09; } .cls-5 { fill: rgba(255,255,255,0.8); } .cls-6 { fill: #00d3ff; } .cls-7 { opacity: 0.05; } .cls-8 { opacity: 0.07; } .cls-9 { opacity: 0.022; } .cls-10 { opacity: 0.03; } .cls-11 { opacity: 0.04; } .cls-12 { opacity: 0.02; } .cls-13 { stroke: none; } .cls-15 { filter: url(#Ellipse_500-18); } .cls-16 { filter: url(#Ellipse_500-17); } .cls-17 { filter: url(#Ellipse_500-16); } .cls-18 { filter: url(#Ellipse_500-15); } .cls-19 { filter: url(#Ellipse_500-14); } .cls-20 { filter: url(#Ellipse_500-13); } .cls-21 { filter: url(#Ellipse_500-12); } .cls-22 { filter: url(#Ellipse_500-11); } .cls-23 { filter: url(#Ellipse_500-10); } .cls-24 { filter: url(#Ellipse_500-9); } .cls-25 { filter: url(#Ellipse_500-8); } .cls-26 { filter: url(#Ellipse_500-7); } .cls-27 { filter: url(#Ellipse_500-6); } .cls-28 { filter: url(#Ellipse_500-5); } .cls-29 { filter: url(#Ellipse_500-4); } .cls-30 { filter: url(#Ellipse_500-3); } .cls-31 { filter: url(#Ellipse_500-2); } .cls-32 { filter: url(#Ellipse_500); } .cls-33 { filter: url(#Rectangle_268); } .cls-34 { filter: url(#Rectangle_267); } .cls-35 { filter: url(#Rectangle_266); } .cls-36 { filter: url(#Rectangle_265); } .cls-37 { filter: url(#Rectangle_264); } .cls-38 { filter: url(#Rectangle_263); } .cls-39 { filter: url(#Rectangle_262); } .cls-40 { filter: url(#Rectangle_261); } .cls-41 { filter: url(#Ellipse_501); } </style> <filter id="Ellipse_501" x="1039" y="246" width="271.224" height="271.223" filterUnits="userSpaceOnUse"> <feOffset dy="3"></feOffset> <feGaussianBlur stdDeviation="8" result="blur"></feGaussianBlur> <feFlood flood-opacity="0.204"></feFlood> <feComposite operator="in" in2="blur"></feComposite> <feComposite in="SourceGraphic"></feComposite> </filter> <filter id="Rectangle_261" x="1160.575" y="497.698" width="29" height="58" filterUnits="userSpaceOnUse"> <feOffset></feOffset> <feGaussianBlur stdDeviation="3" result="blur-2"></feGaussianBlur> <feFlood flood-color="#fff" flood-opacity="0.659"></feFlood> <feComposite operator="in" in2="blur-2"></feComposite> <feComposite in="SourceGraphic"></feComposite> </filter> <filter id="Rectangle_262" x="1160.575" y="202.698" width="29" height="58" filterUnits="userSpaceOnUse"> <feOffset></feOffset> <feGaussianBlur stdDeviation="3" result="blur-3"></feGaussianBlur> <feFlood flood-color="#fff" flood-opacity="0.659"></feFlood> <feComposite operator="in" in2="blur-3"></feComposite> <feComposite in="SourceGraphic"></feComposite> </filter> <filter id="Rectangle_263" x="1293.575" y="364.698" width="58" height="29" filterUnits="userSpaceOnUse"> <feOffset></feOffset> <feGaussianBlur stdDeviation="3" result="blur-4"></feGaussianBlur> <feFlood flood-color="#fff" flood-opacity="0.659"></feFlood> <feComposite operator="in" in2="blur-4"></feComposite> <feComposite in="SourceGraphic"></feComposite> </filter> <filter id="Rectangle_264" x="998.575" y="364.698" width="58" height="29" filterUnits="userSpaceOnUse"> <feOffset></feOffset> <feGaussianBlur stdDeviation="3" result="blur-5"></feGaussianBlur> <feFlood flood-color="#fff" flood-opacity="0.659"></feFlood> <feComposite operator="in" in2="blur-5"></feComposite> <feComposite in="SourceGraphic"></feComposite> </filter> <filter id="Rectangle_265" x="1252.342" y="254.939" width="46.991" height="46.991" filterUnits="userSpaceOnUse"> <feOffset></feOffset> <feGaussianBlur stdDeviation="3" result="blur-6"></feGaussianBlur> <feFlood flood-color="#fff" flood-opacity="0.659"></feFlood> <feComposite operator="in" in2="blur-6"></feComposite> <feComposite in="SourceGraphic"></feComposite> </filter> <filter id="Rectangle_266" x="1043.746" y="463.536" width="46.991" height="46.991" filterUnits="userSpaceOnUse"> <feOffset></feOffset> <feGaussianBlur stdDeviation="3" result="blur-7"></feGaussianBlur> <feFlood flood-color="#fff" flood-opacity="0.659"></feFlood> <feComposite operator="in" in2="blur-7"></feComposite> <feComposite in="SourceGraphic"></feComposite> </filter> <filter id="Rectangle_267" x="1050.816" y="254.939" width="46.991" height="46.991" filterUnits="userSpaceOnUse"> <feOffset></feOffset> <feGaussianBlur stdDeviation="3" result="blur-8"></feGaussianBlur> <feFlood flood-color="#fff" flood-opacity="0.659"></feFlood> <feComposite operator="in" in2="blur-8"></feComposite> <feComposite in="SourceGraphic"></feComposite> </filter> <filter id="Rectangle_268" x="1259.413" y="463.536" width="46.991" height="46.991" filterUnits="userSpaceOnUse"> <feOffset></feOffset> <feGaussianBlur stdDeviation="3" result="blur-9"></feGaussianBlur> <feFlood flood-color="#fff" flood-opacity="0.659"></feFlood> <feComposite operator="in" in2="blur-9"></feComposite> <feComposite in="SourceGraphic"></feComposite> </filter> <filter id="Ellipse_500" x="795" y="261" width="241.224" height="241.223" filterUnits="userSpaceOnUse"> <feOffset dy="3"></feOffset> <feGaussianBlur stdDeviation="3" result="blur-10"></feGaussianBlur> <feFlood flood-opacity="0.161"></feFlood> <feComposite operator="in" in2="blur-10"></feComposite> <feComposite in="SourceGraphic"></feComposite> </filter> <filter id="Ellipse_500-2" x="265" y="261" width="241.224" height="241.223" filterUnits="userSpaceOnUse"> <feOffset dy="3"></feOffset> <feGaussianBlur stdDeviation="3" result="blur-11"></feGaussianBlur> <feFlood flood-opacity="0.161"></feFlood> <feComposite operator="in" in2="blur-11"></feComposite> <feComposite in="SourceGraphic"></feComposite> </filter> <filter id="Ellipse_500-3" x="530" y="261" width="241.224" height="241.223" filterUnits="userSpaceOnUse"> <feOffset dy="3"></feOffset> <feGaussianBlur stdDeviation="3" result="blur-12"></feGaussianBlur> <feFlood flood-opacity="0.161"></feFlood> <feComposite operator="in" in2="blur-12"></feComposite> <feComposite in="SourceGraphic"></feComposite> </filter> <filter id="Ellipse_500-4" x="0" y="261" width="241.224" height="241.223" filterUnits="userSpaceOnUse"> <feOffset dy="3"></feOffset> <feGaussianBlur stdDeviation="3" result="blur-13"></feGaussianBlur> <feFlood flood-opacity="0.161"></feFlood> <feComposite operator="in" in2="blur-13"></feComposite> <feComposite in="SourceGraphic"></feComposite> </filter> <filter id="Ellipse_500-5" x="1314" y="261" width="241.224" height="241.223" filterUnits="userSpaceOnUse"> <feOffset dy="3"></feOffset> <feGaussianBlur stdDeviation="3" result="blur-14"></feGaussianBlur> <feFlood flood-opacity="0.161"></feFlood> <feComposite operator="in" in2="blur-14"></feComposite> <feComposite in="SourceGraphic"></feComposite> </filter> <filter id="Ellipse_500-6" x="1575" y="261" width="241.224" height="241.223" filterUnits="userSpaceOnUse"> <feOffset dy="3"></feOffset> <feGaussianBlur stdDeviation="3" result="blur-15"></feGaussianBlur> <feFlood flood-opacity="0.161"></feFlood> <feComposite operator="in" in2="blur-15"></feComposite> <feComposite in="SourceGraphic"></feComposite> </filter> <filter id="Ellipse_500-7" x="934" y="0" width="241.224" height="241.223" filterUnits="userSpaceOnUse"> <feOffset dy="3"></feOffset> <feGaussianBlur stdDeviation="3" result="blur-16"></feGaussianBlur> <feFlood flood-opacity="0.161"></feFlood> <feComposite operator="in" in2="blur-16"></feComposite> <feComposite in="SourceGraphic"></feComposite> </filter> <filter id="Ellipse_500-8" x="404" y="0" width="241.224" height="241.223" filterUnits="userSpaceOnUse"> <feOffset dy="3"></feOffset> <feGaussianBlur stdDeviation="3" result="blur-17"></feGaussianBlur> <feFlood flood-opacity="0.161"></feFlood> <feComposite operator="in" in2="blur-17"></feComposite> <feComposite in="SourceGraphic"></feComposite> </filter> <filter id="Ellipse_500-9" x="1459" y="0" width="241.224" height="241.223" filterUnits="userSpaceOnUse"> <feOffset dy="3"></feOffset> <feGaussianBlur stdDeviation="3" result="blur-18"></feGaussianBlur> <feFlood flood-opacity="0.161"></feFlood> <feComposite operator="in" in2="blur-18"></feComposite> <feComposite in="SourceGraphic"></feComposite> </filter> <filter id="Ellipse_500-10" x="669" y="0" width="241.224" height="241.223" filterUnits="userSpaceOnUse"> <feOffset dy="3"></feOffset> <feGaussianBlur stdDeviation="3" result="blur-19"></feGaussianBlur> <feFlood flood-opacity="0.161"></feFlood> <feComposite operator="in" in2="blur-19"></feComposite> <feComposite in="SourceGraphic"></feComposite> </filter> <filter id="Ellipse_500-11" x="139" y="0" width="241.224" height="241.223" filterUnits="userSpaceOnUse"> <feOffset dy="3"></feOffset> <feGaussianBlur stdDeviation="3" result="blur-20"></feGaussianBlur> <feFlood flood-opacity="0.161"></feFlood> <feComposite operator="in" in2="blur-20"></feComposite> <feComposite in="SourceGraphic"></feComposite> </filter> <filter id="Ellipse_500-12" x="1194" y="0" width="241.224" height="241.223" filterUnits="userSpaceOnUse"> <feOffset dy="3"></feOffset> <feGaussianBlur stdDeviation="3" result="blur-21"></feGaussianBlur> <feFlood flood-opacity="0.161"></feFlood> <feComposite operator="in" in2="blur-21"></feComposite> <feComposite in="SourceGraphic"></feComposite> </filter> <filter id="Ellipse_500-13" x="924" y="521" width="241.224" height="241.223" filterUnits="userSpaceOnUse"> <feOffset dy="3"></feOffset> <feGaussianBlur stdDeviation="3" result="blur-22"></feGaussianBlur> <feFlood flood-opacity="0.161"></feFlood> <feComposite operator="in" in2="blur-22"></feComposite> <feComposite in="SourceGraphic"></feComposite> </filter> <filter id="Ellipse_500-14" x="394" y="521" width="241.224" height="241.223" filterUnits="userSpaceOnUse"> <feOffset dy="3"></feOffset> <feGaussianBlur stdDeviation="3" result="blur-23"></feGaussianBlur> <feFlood flood-opacity="0.161"></feFlood> <feComposite operator="in" in2="blur-23"></feComposite> <feComposite in="SourceGraphic"></feComposite> </filter> <filter id="Ellipse_500-15" x="1449" y="521" width="241.224" height="241.223" filterUnits="userSpaceOnUse"> <feOffset dy="3"></feOffset> <feGaussianBlur stdDeviation="3" result="blur-24"></feGaussianBlur> <feFlood flood-opacity="0.161"></feFlood> <feComposite operator="in" in2="blur-24"></feComposite> <feComposite in="SourceGraphic"></feComposite> </filter> <filter id="Ellipse_500-16" x="659" y="521" width="241.224" height="241.223" filterUnits="userSpaceOnUse"> <feOffset dy="3"></feOffset> <feGaussianBlur stdDeviation="3" result="blur-25"></feGaussianBlur> <feFlood flood-opacity="0.161"></feFlood> <feComposite operator="in" in2="blur-25"></feComposite> <feComposite in="SourceGraphic"></feComposite> </filter> <filter id="Ellipse_500-17" x="129" y="521" width="241.224" height="241.223" filterUnits="userSpaceOnUse"> <feOffset dy="3"></feOffset> <feGaussianBlur stdDeviation="3" result="blur-26"></feGaussianBlur> <feFlood flood-opacity="0.161"></feFlood> <feComposite operator="in" in2="blur-26"></feComposite> <feComposite in="SourceGraphic"></feComposite> </filter> <filter id="Ellipse_500-18" x="1184" y="521" width="241.224" height="241.223" filterUnits="userSpaceOnUse"> <feOffset dy="3"></feOffset> <feGaussianBlur stdDeviation="3" result="blur-27"></feGaussianBlur> <feFlood flood-opacity="0.161"></feFlood> <feComposite operator="in" in2="blur-27"></feComposite> <feComposite in="SourceGraphic"></feComposite> </filter> </defs> <g id="Group_185" data-name="Group 185" transform="translate(-158.425 -1152.302)"> <g id="User_icons" data-name="User icons"> <g class="cls-41" transform="matrix(1, 0, 0, 1, 158.42, 1152.3)"> <g id="Ellipse_501-2" data-name="Ellipse 501" class="cls-1" transform="translate(1286.22 267) rotate(90)"> <ellipse class="cls-13" cx="111.612" cy="111.612" rx="111.612" ry="111.612"></ellipse> <ellipse class="cls-14" cx="111.612" cy="111.612" rx="106.112" ry="106.112"></ellipse> </g> </g> <path id="Path_101" data-name="Path 101" class="cls-2" d="M193.349,91.53c-.619-3.836-.247-7.734-.866-11.632-3.217-19.86-12.25-36.875-26.048-51.291A93.324,93.324,0,0,0,135.315,7.2c-9.714-4.083-19.8-7.115-30.5-6.991C103.575.024,102.276.581,101.1-.1H98.007a2.248,2.248,0,0,1-2.475,0H92.438c-1.176.681-2.475.186-3.712.309a55.669,55.669,0,0,0-10.147.8A89.3,89.3,0,0,0,46.654,13.078C24.2,26.814,9.47,46.489,2.417,71.855-.677,83.054-.367,94.5.251,105.884c.99,18.561,8.167,34.709,18.994,49.5.681.928,1.361,1.98,2.66,1.794,1.423-.247,1.361-1.671,1.609-2.722a37,37,0,0,1,10.58-17.138c7.734-7.486,17.138-12.065,27.223-15.406a5.249,5.249,0,0,1,5.63.928c8.353,6.558,17.819,10.456,28.4,10.765a45.655,45.655,0,0,0,29.945-9.776c2.351-1.794,4.393-2.165,7.053-1.052a92.67,92.67,0,0,1,10.456,4.64c12.374,6.929,22.583,15.591,25.243,30.564.495,2.6,1.732,2.908,3.465.866a86.087,86.087,0,0,0,10.271-15.035c6.311-11.941,11.2-24.315,11.137-38.112.186-1.237-.371-2.537.309-3.712C193.349,98.522,193.349,95.057,193.349,91.53Zm-79.5,25.367c-12.127,7.548-28.955,5.692-40.4-4.455-19.3-17.2-19.675-49.311-.8-67.006,16.21-15.22,40.835-12.25,54.013,6.5,5.692,8.105,8.105,17.2,8.353,28.46C134.2,95.119,127.89,108.112,113.846,116.9Z" transform="translate(1236.778 1434.489)"></path> <g class="cls-40" transform="matrix(1, 0, 0, 1, 158.42, 1152.3)"> <rect id="Rectangle_261-2" data-name="Rectangle 261" class="cls-3" width="11" height="40" rx="5.5" transform="translate(1169.58 506.7)"></rect> </g> <g class="cls-39" transform="matrix(1, 0, 0, 1, 158.42, 1152.3)"> <rect id="Rectangle_262-2" data-name="Rectangle 262" class="cls-3" width="11" height="40" rx="5.5" transform="translate(1169.58 211.7)"></rect> </g> <g class="cls-38" transform="matrix(1, 0, 0, 1, 158.42, 1152.3)"> <rect id="Rectangle_263-2" data-name="Rectangle 263" class="cls-3" width="11" height="40" rx="5.5" transform="translate(1302.58 384.7) rotate(-90)"></rect> </g> <g class="cls-37" transform="matrix(1, 0, 0, 1, 158.42, 1152.3)"> <rect id="Rectangle_264-2" data-name="Rectangle 264" class="cls-3" width="11" height="40" rx="5.5" transform="translate(1007.58 384.7) rotate(-90)"></rect> </g> <g class="cls-36" transform="matrix(1, 0, 0, 1, 158.42, 1152.3)"> <rect id="Rectangle_265-2" data-name="Rectangle 265" class="cls-3" width="11" height="30" rx="5.5" transform="translate(1269.12 292.93) rotate(-135)"></rect> </g> <g class="cls-35" transform="matrix(1, 0, 0, 1, 158.42, 1152.3)"> <rect id="Rectangle_266-2" data-name="Rectangle 266" class="cls-3" width="11" height="30" rx="5.5" transform="translate(1060.52 501.53) rotate(-135)"></rect> </g> <g class="cls-34" transform="matrix(1, 0, 0, 1, 158.42, 1152.3)"> <rect id="Rectangle_267-2" data-name="Rectangle 267" class="cls-3" width="11" height="30" rx="5.5" transform="translate(1088.81 285.15) rotate(135)"></rect> </g> <g class="cls-33" transform="matrix(1, 0, 0, 1, 158.42, 1152.3)"> <rect id="Rectangle_268-2" data-name="Rectangle 268" class="cls-3" width="11" height="30" rx="5.5" transform="translate(1297.4 493.75) rotate(135)"></rect> </g> <g id="Group_160" data-name="Group 160" class="cls-4"> <g class="cls-32" transform="matrix(1, 0, 0, 1, 158.42, 1152.3)"> <g id="Ellipse_500-19" data-name="Ellipse 500" class="cls-5" transform="translate(1027.22 267) rotate(90)"> <ellipse class="cls-13" cx="111.612" cy="111.612" rx="111.612" ry="111.612"></ellipse> <ellipse class="cls-14" cx="111.612" cy="111.612" rx="106.112" ry="106.112"></ellipse> </g> </g> <path id="Path_102" data-name="Path 102" class="cls-6" d="M193.349,91.53c-.619-3.836-.247-7.734-.866-11.632-3.217-19.86-12.25-36.875-26.048-51.291A93.324,93.324,0,0,0,135.315,7.2c-9.714-4.083-19.8-7.115-30.5-6.991C103.575.024,102.276.581,101.1-.1H98.007a2.248,2.248,0,0,1-2.475,0H92.438c-1.176.681-2.475.186-3.712.309a55.669,55.669,0,0,0-10.147.8A89.3,89.3,0,0,0,46.654,13.078C24.2,26.814,9.47,46.489,2.417,71.855-.677,83.054-.367,94.5.251,105.884c.99,18.561,8.167,34.709,18.994,49.5.681.928,1.361,1.98,2.66,1.794,1.423-.247,1.361-1.671,1.609-2.722a37,37,0,0,1,10.58-17.138c7.734-7.486,17.138-12.065,27.223-15.406a5.249,5.249,0,0,1,5.63.928c8.353,6.558,17.819,10.456,28.4,10.765a45.655,45.655,0,0,0,29.945-9.776c2.351-1.794,4.393-2.165,7.053-1.052a92.67,92.67,0,0,1,10.456,4.64c12.374,6.929,22.583,15.591,25.243,30.564.495,2.6,1.732,2.908,3.465.866a86.087,86.087,0,0,0,10.271-15.035c6.311-11.941,11.2-24.315,11.137-38.112.186-1.237-.371-2.537.309-3.712C193.349,98.522,193.349,95.057,193.349,91.53Zm-79.5,25.367c-12.127,7.548-28.955,5.692-40.4-4.455-19.3-17.2-19.675-49.311-.8-67.006,16.21-15.22,40.835-12.25,54.013,6.5,5.692,8.105,8.105,17.2,8.353,28.46C134.2,95.119,127.89,108.112,113.846,116.9Z" transform="translate(977.778 1434.489)"></path> </g> <g id="Group_162" data-name="Group 162" class="cls-7" transform="translate(-530)"> <g class="cls-31" transform="matrix(1, 0, 0, 1, 688.42, 1152.3)"> <g id="Ellipse_500-20" data-name="Ellipse 500" class="cls-5" transform="translate(497.22 267) rotate(90)"> <ellipse class="cls-13" cx="111.612" cy="111.612" rx="111.612" ry="111.612"></ellipse> <ellipse class="cls-14" cx="111.612" cy="111.612" rx="106.112" ry="106.112"></ellipse> </g> </g> <path id="Path_102-2" data-name="Path 102" class="cls-6" d="M193.349,91.53c-.619-3.836-.247-7.734-.866-11.632-3.217-19.86-12.25-36.875-26.048-51.291A93.324,93.324,0,0,0,135.315,7.2c-9.714-4.083-19.8-7.115-30.5-6.991C103.575.024,102.276.581,101.1-.1H98.007a2.248,2.248,0,0,1-2.475,0H92.438c-1.176.681-2.475.186-3.712.309a55.669,55.669,0,0,0-10.147.8A89.3,89.3,0,0,0,46.654,13.078C24.2,26.814,9.47,46.489,2.417,71.855-.677,83.054-.367,94.5.251,105.884c.99,18.561,8.167,34.709,18.994,49.5.681.928,1.361,1.98,2.66,1.794,1.423-.247,1.361-1.671,1.609-2.722a37,37,0,0,1,10.58-17.138c7.734-7.486,17.138-12.065,27.223-15.406a5.249,5.249,0,0,1,5.63.928c8.353,6.558,17.819,10.456,28.4,10.765a45.655,45.655,0,0,0,29.945-9.776c2.351-1.794,4.393-2.165,7.053-1.052a92.67,92.67,0,0,1,10.456,4.64c12.374,6.929,22.583,15.591,25.243,30.564.495,2.6,1.732,2.908,3.465.866a86.087,86.087,0,0,0,10.271-15.035c6.311-11.941,11.2-24.315,11.137-38.112.186-1.237-.371-2.537.309-3.712C193.349,98.522,193.349,95.057,193.349,91.53Zm-79.5,25.367c-12.127,7.548-28.955,5.692-40.4-4.455-19.3-17.2-19.675-49.311-.8-67.006,16.21-15.22,40.835-12.25,54.013,6.5,5.692,8.105,8.105,17.2,8.353,28.46C134.2,95.119,127.89,108.112,113.846,116.9Z" transform="translate(977.778 1434.489)"></path> </g> <g id="Group_161" data-name="Group 161" class="cls-8" transform="translate(-265)"> <g class="cls-30" transform="matrix(1, 0, 0, 1, 423.42, 1152.3)"> <g id="Ellipse_500-21" data-name="Ellipse 500" class="cls-5" transform="translate(762.22 267) rotate(90)"> <ellipse class="cls-13" cx="111.612" cy="111.612" rx="111.612" ry="111.612"></ellipse> <ellipse class="cls-14" cx="111.612" cy="111.612" rx="106.112" ry="106.112"></ellipse> </g> </g> <path id="Path_102-3" data-name="Path 102" class="cls-6" d="M193.349,91.53c-.619-3.836-.247-7.734-.866-11.632-3.217-19.86-12.25-36.875-26.048-51.291A93.324,93.324,0,0,0,135.315,7.2c-9.714-4.083-19.8-7.115-30.5-6.991C103.575.024,102.276.581,101.1-.1H98.007a2.248,2.248,0,0,1-2.475,0H92.438c-1.176.681-2.475.186-3.712.309a55.669,55.669,0,0,0-10.147.8A89.3,89.3,0,0,0,46.654,13.078C24.2,26.814,9.47,46.489,2.417,71.855-.677,83.054-.367,94.5.251,105.884c.99,18.561,8.167,34.709,18.994,49.5.681.928,1.361,1.98,2.66,1.794,1.423-.247,1.361-1.671,1.609-2.722a37,37,0,0,1,10.58-17.138c7.734-7.486,17.138-12.065,27.223-15.406a5.249,5.249,0,0,1,5.63.928c8.353,6.558,17.819,10.456,28.4,10.765a45.655,45.655,0,0,0,29.945-9.776c2.351-1.794,4.393-2.165,7.053-1.052a92.67,92.67,0,0,1,10.456,4.64c12.374,6.929,22.583,15.591,25.243,30.564.495,2.6,1.732,2.908,3.465.866a86.087,86.087,0,0,0,10.271-15.035c6.311-11.941,11.2-24.315,11.137-38.112.186-1.237-.371-2.537.309-3.712C193.349,98.522,193.349,95.057,193.349,91.53Zm-79.5,25.367c-12.127,7.548-28.955,5.692-40.4-4.455-19.3-17.2-19.675-49.311-.8-67.006,16.21-15.22,40.835-12.25,54.013,6.5,5.692,8.105,8.105,17.2,8.353,28.46C134.2,95.119,127.89,108.112,113.846,116.9Z" transform="translate(977.778 1434.489)"></path> </g> <g id="Group_163" data-name="Group 163" class="cls-9" transform="translate(-795)"> <g class="cls-29" transform="matrix(1, 0, 0, 1, 953.42, 1152.3)"> <g id="Ellipse_500-22" data-name="Ellipse 500" class="cls-5" transform="translate(232.22 267) rotate(90)"> <ellipse class="cls-13" cx="111.612" cy="111.612" rx="111.612" ry="111.612"></ellipse> <ellipse class="cls-14" cx="111.612" cy="111.612" rx="106.112" ry="106.112"></ellipse> </g> </g> <path id="Path_102-4" data-name="Path 102" class="cls-6" d="M193.349,91.53c-.619-3.836-.247-7.734-.866-11.632-3.217-19.86-12.25-36.875-26.048-51.291A93.324,93.324,0,0,0,135.315,7.2c-9.714-4.083-19.8-7.115-30.5-6.991C103.575.024,102.276.581,101.1-.1H98.007a2.248,2.248,0,0,1-2.475,0H92.438c-1.176.681-2.475.186-3.712.309a55.669,55.669,0,0,0-10.147.8A89.3,89.3,0,0,0,46.654,13.078C24.2,26.814,9.47,46.489,2.417,71.855-.677,83.054-.367,94.5.251,105.884c.99,18.561,8.167,34.709,18.994,49.5.681.928,1.361,1.98,2.66,1.794,1.423-.247,1.361-1.671,1.609-2.722a37,37,0,0,1,10.58-17.138c7.734-7.486,17.138-12.065,27.223-15.406a5.249,5.249,0,0,1,5.63.928c8.353,6.558,17.819,10.456,28.4,10.765a45.655,45.655,0,0,0,29.945-9.776c2.351-1.794,4.393-2.165,7.053-1.052a92.67,92.67,0,0,1,10.456,4.64c12.374,6.929,22.583,15.591,25.243,30.564.495,2.6,1.732,2.908,3.465.866a86.087,86.087,0,0,0,10.271-15.035c6.311-11.941,11.2-24.315,11.137-38.112.186-1.237-.371-2.537.309-3.712C193.349,98.522,193.349,95.057,193.349,91.53Zm-79.5,25.367c-12.127,7.548-28.955,5.692-40.4-4.455-19.3-17.2-19.675-49.311-.8-67.006,16.21-15.22,40.835-12.25,54.013,6.5,5.692,8.105,8.105,17.2,8.353,28.46C134.2,95.119,127.89,108.112,113.846,116.9Z" transform="translate(977.778 1434.489)"></path> </g> <g id="Group_164" data-name="Group 164" class="cls-4" transform="translate(519)"> <g class="cls-28" transform="matrix(1, 0, 0, 1, -360.58, 1152.3)"> <g id="Ellipse_500-23" data-name="Ellipse 500" class="cls-5" transform="translate(1546.22 267) rotate(90)"> <ellipse class="cls-13" cx="111.612" cy="111.612" rx="111.612" ry="111.612"></ellipse> <ellipse class="cls-14" cx="111.612" cy="111.612" rx="106.112" ry="106.112"></ellipse> </g> </g> <path id="Path_102-5" data-name="Path 102" class="cls-6" d="M193.349,91.53c-.619-3.836-.247-7.734-.866-11.632-3.217-19.86-12.25-36.875-26.048-51.291A93.324,93.324,0,0,0,135.315,7.2c-9.714-4.083-19.8-7.115-30.5-6.991C103.575.024,102.276.581,101.1-.1H98.007a2.248,2.248,0,0,1-2.475,0H92.438c-1.176.681-2.475.186-3.712.309a55.669,55.669,0,0,0-10.147.8A89.3,89.3,0,0,0,46.654,13.078C24.2,26.814,9.47,46.489,2.417,71.855-.677,83.054-.367,94.5.251,105.884c.99,18.561,8.167,34.709,18.994,49.5.681.928,1.361,1.98,2.66,1.794,1.423-.247,1.361-1.671,1.609-2.722a37,37,0,0,1,10.58-17.138c7.734-7.486,17.138-12.065,27.223-15.406a5.249,5.249,0,0,1,5.63.928c8.353,6.558,17.819,10.456,28.4,10.765a45.655,45.655,0,0,0,29.945-9.776c2.351-1.794,4.393-2.165,7.053-1.052a92.67,92.67,0,0,1,10.456,4.64c12.374,6.929,22.583,15.591,25.243,30.564.495,2.6,1.732,2.908,3.465.866a86.087,86.087,0,0,0,10.271-15.035c6.311-11.941,11.2-24.315,11.137-38.112.186-1.237-.371-2.537.309-3.712C193.349,98.522,193.349,95.057,193.349,91.53Zm-79.5,25.367c-12.127,7.548-28.955,5.692-40.4-4.455-19.3-17.2-19.675-49.311-.8-67.006,16.21-15.22,40.835-12.25,54.013,6.5,5.692,8.105,8.105,17.2,8.353,28.46C134.2,95.119,127.89,108.112,113.846,116.9Z" transform="translate(977.778 1434.489)"></path> </g> <g id="Group_165" data-name="Group 165" class="cls-8" transform="translate(780)"> <g class="cls-27" transform="matrix(1, 0, 0, 1, -621.58, 1152.3)"> <g id="Ellipse_500-24" data-name="Ellipse 500" class="cls-5" transform="translate(1807.22 267) rotate(90)"> <ellipse class="cls-13" cx="111.612" cy="111.612" rx="111.612" ry="111.612"></ellipse> <ellipse class="cls-14" cx="111.612" cy="111.612" rx="106.112" ry="106.112"></ellipse> </g> </g> <path id="Path_102-6" data-name="Path 102" class="cls-6" d="M193.349,91.53c-.619-3.836-.247-7.734-.866-11.632-3.217-19.86-12.25-36.875-26.048-51.291A93.324,93.324,0,0,0,135.315,7.2c-9.714-4.083-19.8-7.115-30.5-6.991C103.575.024,102.276.581,101.1-.1H98.007a2.248,2.248,0,0,1-2.475,0H92.438c-1.176.681-2.475.186-3.712.309a55.669,55.669,0,0,0-10.147.8A89.3,89.3,0,0,0,46.654,13.078C24.2,26.814,9.47,46.489,2.417,71.855-.677,83.054-.367,94.5.251,105.884c.99,18.561,8.167,34.709,18.994,49.5.681.928,1.361,1.98,2.66,1.794,1.423-.247,1.361-1.671,1.609-2.722a37,37,0,0,1,10.58-17.138c7.734-7.486,17.138-12.065,27.223-15.406a5.249,5.249,0,0,1,5.63.928c8.353,6.558,17.819,10.456,28.4,10.765a45.655,45.655,0,0,0,29.945-9.776c2.351-1.794,4.393-2.165,7.053-1.052a92.67,92.67,0,0,1,10.456,4.64c12.374,6.929,22.583,15.591,25.243,30.564.495,2.6,1.732,2.908,3.465.866a86.087,86.087,0,0,0,10.271-15.035c6.311-11.941,11.2-24.315,11.137-38.112.186-1.237-.371-2.537.309-3.712C193.349,98.522,193.349,95.057,193.349,91.53Zm-79.5,25.367c-12.127,7.548-28.955,5.692-40.4-4.455-19.3-17.2-19.675-49.311-.8-67.006,16.21-15.22,40.835-12.25,54.013,6.5,5.692,8.105,8.105,17.2,8.353,28.46C134.2,95.119,127.89,108.112,113.846,116.9Z" transform="translate(977.778 1434.489)"></path> </g> <g id="Group_166" data-name="Group 166" class="cls-7" transform="translate(139 -261)"> <g class="cls-26" transform="matrix(1, 0, 0, 1, 19.42, 1413.3)"> <g id="Ellipse_500-25" data-name="Ellipse 500" class="cls-5" transform="translate(1166.22 6) rotate(90)"> <ellipse class="cls-13" cx="111.612" cy="111.612" rx="111.612" ry="111.612"></ellipse> <ellipse class="cls-14" cx="111.612" cy="111.612" rx="106.112" ry="106.112"></ellipse> </g> </g> <path id="Path_102-7" data-name="Path 102" class="cls-6" d="M193.349,91.53c-.619-3.836-.247-7.734-.866-11.632-3.217-19.86-12.25-36.875-26.048-51.291A93.324,93.324,0,0,0,135.315,7.2c-9.714-4.083-19.8-7.115-30.5-6.991C103.575.024,102.276.581,101.1-.1H98.007a2.248,2.248,0,0,1-2.475,0H92.438c-1.176.681-2.475.186-3.712.309a55.669,55.669,0,0,0-10.147.8A89.3,89.3,0,0,0,46.654,13.078C24.2,26.814,9.47,46.489,2.417,71.855-.677,83.054-.367,94.5.251,105.884c.99,18.561,8.167,34.709,18.994,49.5.681.928,1.361,1.98,2.66,1.794,1.423-.247,1.361-1.671,1.609-2.722a37,37,0,0,1,10.58-17.138c7.734-7.486,17.138-12.065,27.223-15.406a5.249,5.249,0,0,1,5.63.928c8.353,6.558,17.819,10.456,28.4,10.765a45.655,45.655,0,0,0,29.945-9.776c2.351-1.794,4.393-2.165,7.053-1.052a92.67,92.67,0,0,1,10.456,4.64c12.374,6.929,22.583,15.591,25.243,30.564.495,2.6,1.732,2.908,3.465.866a86.087,86.087,0,0,0,10.271-15.035c6.311-11.941,11.2-24.315,11.137-38.112.186-1.237-.371-2.537.309-3.712C193.349,98.522,193.349,95.057,193.349,91.53Zm-79.5,25.367c-12.127,7.548-28.955,5.692-40.4-4.455-19.3-17.2-19.675-49.311-.8-67.006,16.21-15.22,40.835-12.25,54.013,6.5,5.692,8.105,8.105,17.2,8.353,28.46C134.2,95.119,127.89,108.112,113.846,116.9Z" transform="translate(977.778 1434.489)"></path> </g> <g id="Group_167" data-name="Group 167" class="cls-10" transform="translate(-391 -261)"> <g class="cls-25" transform="matrix(1, 0, 0, 1, 549.42, 1413.3)"> <g id="Ellipse_500-26" data-name="Ellipse 500" class="cls-5" transform="translate(636.22 6) rotate(90)"> <ellipse class="cls-13" cx="111.612" cy="111.612" rx="111.612" ry="111.612"></ellipse> <ellipse class="cls-14" cx="111.612" cy="111.612" rx="106.112" ry="106.112"></ellipse> </g> </g> <path id="Path_102-8" data-name="Path 102" class="cls-6" d="M193.349,91.53c-.619-3.836-.247-7.734-.866-11.632-3.217-19.86-12.25-36.875-26.048-51.291A93.324,93.324,0,0,0,135.315,7.2c-9.714-4.083-19.8-7.115-30.5-6.991C103.575.024,102.276.581,101.1-.1H98.007a2.248,2.248,0,0,1-2.475,0H92.438c-1.176.681-2.475.186-3.712.309a55.669,55.669,0,0,0-10.147.8A89.3,89.3,0,0,0,46.654,13.078C24.2,26.814,9.47,46.489,2.417,71.855-.677,83.054-.367,94.5.251,105.884c.99,18.561,8.167,34.709,18.994,49.5.681.928,1.361,1.98,2.66,1.794,1.423-.247,1.361-1.671,1.609-2.722a37,37,0,0,1,10.58-17.138c7.734-7.486,17.138-12.065,27.223-15.406a5.249,5.249,0,0,1,5.63.928c8.353,6.558,17.819,10.456,28.4,10.765a45.655,45.655,0,0,0,29.945-9.776c2.351-1.794,4.393-2.165,7.053-1.052a92.67,92.67,0,0,1,10.456,4.64c12.374,6.929,22.583,15.591,25.243,30.564.495,2.6,1.732,2.908,3.465.866a86.087,86.087,0,0,0,10.271-15.035c6.311-11.941,11.2-24.315,11.137-38.112.186-1.237-.371-2.537.309-3.712C193.349,98.522,193.349,95.057,193.349,91.53Zm-79.5,25.367c-12.127,7.548-28.955,5.692-40.4-4.455-19.3-17.2-19.675-49.311-.8-67.006,16.21-15.22,40.835-12.25,54.013,6.5,5.692,8.105,8.105,17.2,8.353,28.46C134.2,95.119,127.89,108.112,113.846,116.9Z" transform="translate(977.778 1434.489)"></path> </g> <g id="Group_168" data-name="Group 168" class="cls-11" transform="translate(664 -261)"> <g class="cls-24" transform="matrix(1, 0, 0, 1, -505.58, 1413.3)"> <g id="Ellipse_500-27" data-name="Ellipse 500" class="cls-5" transform="translate(1691.22 6) rotate(90)"> <ellipse class="cls-13" cx="111.612" cy="111.612" rx="111.612" ry="111.612"></ellipse> <ellipse class="cls-14" cx="111.612" cy="111.612" rx="106.112" ry="106.112"></ellipse> </g> </g> <path id="Path_102-9" data-name="Path 102" class="cls-6" d="M193.349,91.53c-.619-3.836-.247-7.734-.866-11.632-3.217-19.86-12.25-36.875-26.048-51.291A93.324,93.324,0,0,0,135.315,7.2c-9.714-4.083-19.8-7.115-30.5-6.991C103.575.024,102.276.581,101.1-.1H98.007a2.248,2.248,0,0,1-2.475,0H92.438c-1.176.681-2.475.186-3.712.309a55.669,55.669,0,0,0-10.147.8A89.3,89.3,0,0,0,46.654,13.078C24.2,26.814,9.47,46.489,2.417,71.855-.677,83.054-.367,94.5.251,105.884c.99,18.561,8.167,34.709,18.994,49.5.681.928,1.361,1.98,2.66,1.794,1.423-.247,1.361-1.671,1.609-2.722a37,37,0,0,1,10.58-17.138c7.734-7.486,17.138-12.065,27.223-15.406a5.249,5.249,0,0,1,5.63.928c8.353,6.558,17.819,10.456,28.4,10.765a45.655,45.655,0,0,0,29.945-9.776c2.351-1.794,4.393-2.165,7.053-1.052a92.67,92.67,0,0,1,10.456,4.64c12.374,6.929,22.583,15.591,25.243,30.564.495,2.6,1.732,2.908,3.465.866a86.087,86.087,0,0,0,10.271-15.035c6.311-11.941,11.2-24.315,11.137-38.112.186-1.237-.371-2.537.309-3.712C193.349,98.522,193.349,95.057,193.349,91.53Zm-79.5,25.367c-12.127,7.548-28.955,5.692-40.4-4.455-19.3-17.2-19.675-49.311-.8-67.006,16.21-15.22,40.835-12.25,54.013,6.5,5.692,8.105,8.105,17.2,8.353,28.46C134.2,95.119,127.89,108.112,113.846,116.9Z" transform="translate(977.778 1434.489)"></path> </g> <g id="Group_169" data-name="Group 169" class="cls-7" transform="translate(-126 -261)"> <g class="cls-23" transform="matrix(1, 0, 0, 1, 284.42, 1413.3)"> <g id="Ellipse_500-28" data-name="Ellipse 500" class="cls-5" transform="translate(901.22 6) rotate(90)"> <ellipse class="cls-13" cx="111.612" cy="111.612" rx="111.612" ry="111.612"></ellipse> <ellipse class="cls-14" cx="111.612" cy="111.612" rx="106.112" ry="106.112"></ellipse> </g> </g> <path id="Path_102-10" data-name="Path 102" class="cls-6" d="M193.349,91.53c-.619-3.836-.247-7.734-.866-11.632-3.217-19.86-12.25-36.875-26.048-51.291A93.324,93.324,0,0,0,135.315,7.2c-9.714-4.083-19.8-7.115-30.5-6.991C103.575.024,102.276.581,101.1-.1H98.007a2.248,2.248,0,0,1-2.475,0H92.438c-1.176.681-2.475.186-3.712.309a55.669,55.669,0,0,0-10.147.8A89.3,89.3,0,0,0,46.654,13.078C24.2,26.814,9.47,46.489,2.417,71.855-.677,83.054-.367,94.5.251,105.884c.99,18.561,8.167,34.709,18.994,49.5.681.928,1.361,1.98,2.66,1.794,1.423-.247,1.361-1.671,1.609-2.722a37,37,0,0,1,10.58-17.138c7.734-7.486,17.138-12.065,27.223-15.406a5.249,5.249,0,0,1,5.63.928c8.353,6.558,17.819,10.456,28.4,10.765a45.655,45.655,0,0,0,29.945-9.776c2.351-1.794,4.393-2.165,7.053-1.052a92.67,92.67,0,0,1,10.456,4.64c12.374,6.929,22.583,15.591,25.243,30.564.495,2.6,1.732,2.908,3.465.866a86.087,86.087,0,0,0,10.271-15.035c6.311-11.941,11.2-24.315,11.137-38.112.186-1.237-.371-2.537.309-3.712C193.349,98.522,193.349,95.057,193.349,91.53Zm-79.5,25.367c-12.127,7.548-28.955,5.692-40.4-4.455-19.3-17.2-19.675-49.311-.8-67.006,16.21-15.22,40.835-12.25,54.013,6.5,5.692,8.105,8.105,17.2,8.353,28.46C134.2,95.119,127.89,108.112,113.846,116.9Z" transform="translate(977.778 1434.489)"></path> </g> <g id="Group_171" data-name="Group 171" class="cls-12" transform="translate(-656 -261)"> <g class="cls-22" transform="matrix(1, 0, 0, 1, 814.42, 1413.3)"> <g id="Ellipse_500-29" data-name="Ellipse 500" class="cls-5" transform="translate(371.22 6) rotate(90)"> <ellipse class="cls-13" cx="111.612" cy="111.612" rx="111.612" ry="111.612"></ellipse> <ellipse class="cls-14" cx="111.612" cy="111.612" rx="106.112" ry="106.112"></ellipse> </g> </g> <path id="Path_102-11" data-name="Path 102" class="cls-6" d="M193.349,91.53c-.619-3.836-.247-7.734-.866-11.632-3.217-19.86-12.25-36.875-26.048-51.291A93.324,93.324,0,0,0,135.315,7.2c-9.714-4.083-19.8-7.115-30.5-6.991C103.575.024,102.276.581,101.1-.1H98.007a2.248,2.248,0,0,1-2.475,0H92.438c-1.176.681-2.475.186-3.712.309a55.669,55.669,0,0,0-10.147.8A89.3,89.3,0,0,0,46.654,13.078C24.2,26.814,9.47,46.489,2.417,71.855-.677,83.054-.367,94.5.251,105.884c.99,18.561,8.167,34.709,18.994,49.5.681.928,1.361,1.98,2.66,1.794,1.423-.247,1.361-1.671,1.609-2.722a37,37,0,0,1,10.58-17.138c7.734-7.486,17.138-12.065,27.223-15.406a5.249,5.249,0,0,1,5.63.928c8.353,6.558,17.819,10.456,28.4,10.765a45.655,45.655,0,0,0,29.945-9.776c2.351-1.794,4.393-2.165,7.053-1.052a92.67,92.67,0,0,1,10.456,4.64c12.374,6.929,22.583,15.591,25.243,30.564.495,2.6,1.732,2.908,3.465.866a86.087,86.087,0,0,0,10.271-15.035c6.311-11.941,11.2-24.315,11.137-38.112.186-1.237-.371-2.537.309-3.712C193.349,98.522,193.349,95.057,193.349,91.53Zm-79.5,25.367c-12.127,7.548-28.955,5.692-40.4-4.455-19.3-17.2-19.675-49.311-.8-67.006,16.21-15.22,40.835-12.25,54.013,6.5,5.692,8.105,8.105,17.2,8.353,28.46C134.2,95.119,127.89,108.112,113.846,116.9Z" transform="translate(977.778 1434.489)"></path> </g> <g id="Group_172" data-name="Group 172" class="cls-7" transform="translate(399 -261)"> <g class="cls-21" transform="matrix(1, 0, 0, 1, -240.58, 1413.3)"> <g id="Ellipse_500-30" data-name="Ellipse 500" class="cls-5" transform="translate(1426.22 6) rotate(90)"> <ellipse class="cls-13" cx="111.612" cy="111.612" rx="111.612" ry="111.612"></ellipse> <ellipse class="cls-14" cx="111.612" cy="111.612" rx="106.112" ry="106.112"></ellipse> </g> </g> <path id="Path_102-12" data-name="Path 102" class="cls-6" d="M193.349,91.53c-.619-3.836-.247-7.734-.866-11.632-3.217-19.86-12.25-36.875-26.048-51.291A93.324,93.324,0,0,0,135.315,7.2c-9.714-4.083-19.8-7.115-30.5-6.991C103.575.024,102.276.581,101.1-.1H98.007a2.248,2.248,0,0,1-2.475,0H92.438c-1.176.681-2.475.186-3.712.309a55.669,55.669,0,0,0-10.147.8A89.3,89.3,0,0,0,46.654,13.078C24.2,26.814,9.47,46.489,2.417,71.855-.677,83.054-.367,94.5.251,105.884c.99,18.561,8.167,34.709,18.994,49.5.681.928,1.361,1.98,2.66,1.794,1.423-.247,1.361-1.671,1.609-2.722a37,37,0,0,1,10.58-17.138c7.734-7.486,17.138-12.065,27.223-15.406a5.249,5.249,0,0,1,5.63.928c8.353,6.558,17.819,10.456,28.4,10.765a45.655,45.655,0,0,0,29.945-9.776c2.351-1.794,4.393-2.165,7.053-1.052a92.67,92.67,0,0,1,10.456,4.64c12.374,6.929,22.583,15.591,25.243,30.564.495,2.6,1.732,2.908,3.465.866a86.087,86.087,0,0,0,10.271-15.035c6.311-11.941,11.2-24.315,11.137-38.112.186-1.237-.371-2.537.309-3.712C193.349,98.522,193.349,95.057,193.349,91.53Zm-79.5,25.367c-12.127,7.548-28.955,5.692-40.4-4.455-19.3-17.2-19.675-49.311-.8-67.006,16.21-15.22,40.835-12.25,54.013,6.5,5.692,8.105,8.105,17.2,8.353,28.46C134.2,95.119,127.89,108.112,113.846,116.9Z" transform="translate(977.778 1434.489)"></path> </g> <g id="Group_173" data-name="Group 173" class="cls-7" transform="translate(129 260)"> <g class="cls-20" transform="matrix(1, 0, 0, 1, 29.42, 892.3)"> <g id="Ellipse_500-31" data-name="Ellipse 500" class="cls-5" transform="translate(1156.22 527) rotate(90)"> <ellipse class="cls-13" cx="111.612" cy="111.612" rx="111.612" ry="111.612"></ellipse> <ellipse class="cls-14" cx="111.612" cy="111.612" rx="106.112" ry="106.112"></ellipse> </g> </g> <path id="Path_102-13" data-name="Path 102" class="cls-6" d="M193.349,91.53c-.619-3.836-.247-7.734-.866-11.632-3.217-19.86-12.25-36.875-26.048-51.291A93.324,93.324,0,0,0,135.315,7.2c-9.714-4.083-19.8-7.115-30.5-6.991C103.575.024,102.276.581,101.1-.1H98.007a2.248,2.248,0,0,1-2.475,0H92.438c-1.176.681-2.475.186-3.712.309a55.669,55.669,0,0,0-10.147.8A89.3,89.3,0,0,0,46.654,13.078C24.2,26.814,9.47,46.489,2.417,71.855-.677,83.054-.367,94.5.251,105.884c.99,18.561,8.167,34.709,18.994,49.5.681.928,1.361,1.98,2.66,1.794,1.423-.247,1.361-1.671,1.609-2.722a37,37,0,0,1,10.58-17.138c7.734-7.486,17.138-12.065,27.223-15.406a5.249,5.249,0,0,1,5.63.928c8.353,6.558,17.819,10.456,28.4,10.765a45.655,45.655,0,0,0,29.945-9.776c2.351-1.794,4.393-2.165,7.053-1.052a92.67,92.67,0,0,1,10.456,4.64c12.374,6.929,22.583,15.591,25.243,30.564.495,2.6,1.732,2.908,3.465.866a86.087,86.087,0,0,0,10.271-15.035c6.311-11.941,11.2-24.315,11.137-38.112.186-1.237-.371-2.537.309-3.712C193.349,98.522,193.349,95.057,193.349,91.53Zm-79.5,25.367c-12.127,7.548-28.955,5.692-40.4-4.455-19.3-17.2-19.675-49.311-.8-67.006,16.21-15.22,40.835-12.25,54.013,6.5,5.692,8.105,8.105,17.2,8.353,28.46C134.2,95.119,127.89,108.112,113.846,116.9Z" transform="translate(977.778 1434.489)"></path> </g> <g id="Group_174" data-name="Group 174" class="cls-10" transform="translate(-401 260)"> <g class="cls-19" transform="matrix(1, 0, 0, 1, 559.42, 892.3)"> <g id="Ellipse_500-32" data-name="Ellipse 500" class="cls-5" transform="translate(626.22 527) rotate(90)"> <ellipse class="cls-13" cx="111.612" cy="111.612" rx="111.612" ry="111.612"></ellipse> <ellipse class="cls-14" cx="111.612" cy="111.612" rx="106.112" ry="106.112"></ellipse> </g> </g> <path id="Path_102-14" data-name="Path 102" class="cls-6" d="M193.349,91.53c-.619-3.836-.247-7.734-.866-11.632-3.217-19.86-12.25-36.875-26.048-51.291A93.324,93.324,0,0,0,135.315,7.2c-9.714-4.083-19.8-7.115-30.5-6.991C103.575.024,102.276.581,101.1-.1H98.007a2.248,2.248,0,0,1-2.475,0H92.438c-1.176.681-2.475.186-3.712.309a55.669,55.669,0,0,0-10.147.8A89.3,89.3,0,0,0,46.654,13.078C24.2,26.814,9.47,46.489,2.417,71.855-.677,83.054-.367,94.5.251,105.884c.99,18.561,8.167,34.709,18.994,49.5.681.928,1.361,1.98,2.66,1.794,1.423-.247,1.361-1.671,1.609-2.722a37,37,0,0,1,10.58-17.138c7.734-7.486,17.138-12.065,27.223-15.406a5.249,5.249,0,0,1,5.63.928c8.353,6.558,17.819,10.456,28.4,10.765a45.655,45.655,0,0,0,29.945-9.776c2.351-1.794,4.393-2.165,7.053-1.052a92.67,92.67,0,0,1,10.456,4.64c12.374,6.929,22.583,15.591,25.243,30.564.495,2.6,1.732,2.908,3.465.866a86.087,86.087,0,0,0,10.271-15.035c6.311-11.941,11.2-24.315,11.137-38.112.186-1.237-.371-2.537.309-3.712C193.349,98.522,193.349,95.057,193.349,91.53Zm-79.5,25.367c-12.127,7.548-28.955,5.692-40.4-4.455-19.3-17.2-19.675-49.311-.8-67.006,16.21-15.22,40.835-12.25,54.013,6.5,5.692,8.105,8.105,17.2,8.353,28.46C134.2,95.119,127.89,108.112,113.846,116.9Z" transform="translate(977.778 1434.489)"></path> </g> <g id="Group_175" data-name="Group 175" class="cls-11" transform="translate(654 260)"> <g class="cls-18" transform="matrix(1, 0, 0, 1, -495.58, 892.3)"> <g id="Ellipse_500-33" data-name="Ellipse 500" class="cls-5" transform="translate(1681.22 527) rotate(90)"> <ellipse class="cls-13" cx="111.612" cy="111.612" rx="111.612" ry="111.612"></ellipse> <ellipse class="cls-14" cx="111.612" cy="111.612" rx="106.112" ry="106.112"></ellipse> </g> </g> <path id="Path_102-15" data-name="Path 102" class="cls-6" d="M193.349,91.53c-.619-3.836-.247-7.734-.866-11.632-3.217-19.86-12.25-36.875-26.048-51.291A93.324,93.324,0,0,0,135.315,7.2c-9.714-4.083-19.8-7.115-30.5-6.991C103.575.024,102.276.581,101.1-.1H98.007a2.248,2.248,0,0,1-2.475,0H92.438c-1.176.681-2.475.186-3.712.309a55.669,55.669,0,0,0-10.147.8A89.3,89.3,0,0,0,46.654,13.078C24.2,26.814,9.47,46.489,2.417,71.855-.677,83.054-.367,94.5.251,105.884c.99,18.561,8.167,34.709,18.994,49.5.681.928,1.361,1.98,2.66,1.794,1.423-.247,1.361-1.671,1.609-2.722a37,37,0,0,1,10.58-17.138c7.734-7.486,17.138-12.065,27.223-15.406a5.249,5.249,0,0,1,5.63.928c8.353,6.558,17.819,10.456,28.4,10.765a45.655,45.655,0,0,0,29.945-9.776c2.351-1.794,4.393-2.165,7.053-1.052a92.67,92.67,0,0,1,10.456,4.64c12.374,6.929,22.583,15.591,25.243,30.564.495,2.6,1.732,2.908,3.465.866a86.087,86.087,0,0,0,10.271-15.035c6.311-11.941,11.2-24.315,11.137-38.112.186-1.237-.371-2.537.309-3.712C193.349,98.522,193.349,95.057,193.349,91.53Zm-79.5,25.367c-12.127,7.548-28.955,5.692-40.4-4.455-19.3-17.2-19.675-49.311-.8-67.006,16.21-15.22,40.835-12.25,54.013,6.5,5.692,8.105,8.105,17.2,8.353,28.46C134.2,95.119,127.89,108.112,113.846,116.9Z" transform="translate(977.778 1434.489)"></path> </g> <g id="Group_176" data-name="Group 176" class="cls-7" transform="translate(-136 260)"> <g class="cls-17" transform="matrix(1, 0, 0, 1, 294.42, 892.3)"> <g id="Ellipse_500-34" data-name="Ellipse 500" class="cls-5" transform="translate(891.22 527) rotate(90)"> <ellipse class="cls-13" cx="111.612" cy="111.612" rx="111.612" ry="111.612"></ellipse> <ellipse class="cls-14" cx="111.612" cy="111.612" rx="106.112" ry="106.112"></ellipse> </g> </g> <path id="Path_102-16" data-name="Path 102" class="cls-6" d="M193.349,91.53c-.619-3.836-.247-7.734-.866-11.632-3.217-19.86-12.25-36.875-26.048-51.291A93.324,93.324,0,0,0,135.315,7.2c-9.714-4.083-19.8-7.115-30.5-6.991C103.575.024,102.276.581,101.1-.1H98.007a2.248,2.248,0,0,1-2.475,0H92.438c-1.176.681-2.475.186-3.712.309a55.669,55.669,0,0,0-10.147.8A89.3,89.3,0,0,0,46.654,13.078C24.2,26.814,9.47,46.489,2.417,71.855-.677,83.054-.367,94.5.251,105.884c.99,18.561,8.167,34.709,18.994,49.5.681.928,1.361,1.98,2.66,1.794,1.423-.247,1.361-1.671,1.609-2.722a37,37,0,0,1,10.58-17.138c7.734-7.486,17.138-12.065,27.223-15.406a5.249,5.249,0,0,1,5.63.928c8.353,6.558,17.819,10.456,28.4,10.765a45.655,45.655,0,0,0,29.945-9.776c2.351-1.794,4.393-2.165,7.053-1.052a92.67,92.67,0,0,1,10.456,4.64c12.374,6.929,22.583,15.591,25.243,30.564.495,2.6,1.732,2.908,3.465.866a86.087,86.087,0,0,0,10.271-15.035c6.311-11.941,11.2-24.315,11.137-38.112.186-1.237-.371-2.537.309-3.712C193.349,98.522,193.349,95.057,193.349,91.53Zm-79.5,25.367c-12.127,7.548-28.955,5.692-40.4-4.455-19.3-17.2-19.675-49.311-.8-67.006,16.21-15.22,40.835-12.25,54.013,6.5,5.692,8.105,8.105,17.2,8.353,28.46C134.2,95.119,127.89,108.112,113.846,116.9Z" transform="translate(977.778 1434.489)"></path> </g> <g id="Group_178" data-name="Group 178" class="cls-12" transform="translate(-666 260)"> <g class="cls-16" transform="matrix(1, 0, 0, 1, 824.42, 892.3)"> <g id="Ellipse_500-35" data-name="Ellipse 500" class="cls-5" transform="translate(361.22 527) rotate(90)"> <ellipse class="cls-13" cx="111.612" cy="111.612" rx="111.612" ry="111.612"></ellipse> <ellipse class="cls-14" cx="111.612" cy="111.612" rx="106.112" ry="106.112"></ellipse> </g> </g> <path id="Path_102-17" data-name="Path 102" class="cls-6" d="M193.349,91.53c-.619-3.836-.247-7.734-.866-11.632-3.217-19.86-12.25-36.875-26.048-51.291A93.324,93.324,0,0,0,135.315,7.2c-9.714-4.083-19.8-7.115-30.5-6.991C103.575.024,102.276.581,101.1-.1H98.007a2.248,2.248,0,0,1-2.475,0H92.438c-1.176.681-2.475.186-3.712.309a55.669,55.669,0,0,0-10.147.8A89.3,89.3,0,0,0,46.654,13.078C24.2,26.814,9.47,46.489,2.417,71.855-.677,83.054-.367,94.5.251,105.884c.99,18.561,8.167,34.709,18.994,49.5.681.928,1.361,1.98,2.66,1.794,1.423-.247,1.361-1.671,1.609-2.722a37,37,0,0,1,10.58-17.138c7.734-7.486,17.138-12.065,27.223-15.406a5.249,5.249,0,0,1,5.63.928c8.353,6.558,17.819,10.456,28.4,10.765a45.655,45.655,0,0,0,29.945-9.776c2.351-1.794,4.393-2.165,7.053-1.052a92.67,92.67,0,0,1,10.456,4.64c12.374,6.929,22.583,15.591,25.243,30.564.495,2.6,1.732,2.908,3.465.866a86.087,86.087,0,0,0,10.271-15.035c6.311-11.941,11.2-24.315,11.137-38.112.186-1.237-.371-2.537.309-3.712C193.349,98.522,193.349,95.057,193.349,91.53Zm-79.5,25.367c-12.127,7.548-28.955,5.692-40.4-4.455-19.3-17.2-19.675-49.311-.8-67.006,16.21-15.22,40.835-12.25,54.013,6.5,5.692,8.105,8.105,17.2,8.353,28.46C134.2,95.119,127.89,108.112,113.846,116.9Z" transform="translate(977.778 1434.489)"></path> </g> <g id="Group_179" data-name="Group 179" class="cls-7" transform="translate(389 260)"> <g class="cls-15" transform="matrix(1, 0, 0, 1, -230.58, 892.3)"> <g id="Ellipse_500-36" data-name="Ellipse 500" class="cls-5" transform="translate(1416.22 527) rotate(90)"> <ellipse class="cls-13" cx="111.612" cy="111.612" rx="111.612" ry="111.612"></ellipse> <ellipse class="cls-14" cx="111.612" cy="111.612" rx="106.112" ry="106.112"></ellipse> </g> </g> <path id="Path_102-18" data-name="Path 102" class="cls-6" d="M193.349,91.53c-.619-3.836-.247-7.734-.866-11.632-3.217-19.86-12.25-36.875-26.048-51.291A93.324,93.324,0,0,0,135.315,7.2c-9.714-4.083-19.8-7.115-30.5-6.991C103.575.024,102.276.581,101.1-.1H98.007a2.248,2.248,0,0,1-2.475,0H92.438c-1.176.681-2.475.186-3.712.309a55.669,55.669,0,0,0-10.147.8A89.3,89.3,0,0,0,46.654,13.078C24.2,26.814,9.47,46.489,2.417,71.855-.677,83.054-.367,94.5.251,105.884c.99,18.561,8.167,34.709,18.994,49.5.681.928,1.361,1.98,2.66,1.794,1.423-.247,1.361-1.671,1.609-2.722a37,37,0,0,1,10.58-17.138c7.734-7.486,17.138-12.065,27.223-15.406a5.249,5.249,0,0,1,5.63.928c8.353,6.558,17.819,10.456,28.4,10.765a45.655,45.655,0,0,0,29.945-9.776c2.351-1.794,4.393-2.165,7.053-1.052a92.67,92.67,0,0,1,10.456,4.64c12.374,6.929,22.583,15.591,25.243,30.564.495,2.6,1.732,2.908,3.465.866a86.087,86.087,0,0,0,10.271-15.035c6.311-11.941,11.2-24.315,11.137-38.112.186-1.237-.371-2.537.309-3.712C193.349,98.522,193.349,95.057,193.349,91.53Zm-79.5,25.367c-12.127,7.548-28.955,5.692-40.4-4.455-19.3-17.2-19.675-49.311-.8-67.006,16.21-15.22,40.835-12.25,54.013,6.5,5.692,8.105,8.105,17.2,8.353,28.46C134.2,95.119,127.89,108.112,113.846,116.9Z" transform="translate(977.778 1434.489)"></path> </g> </g> </g> </svg> 