<?xml version="1.0" encoding="UTF-8"?> <!-- Generator: Adobe Illustrator 22.1.0, SVG Export Plug-In . SVG Version: 6.00 Build 0) --> <svg xmlns="http://www.w3.org/2000/svg" xmlns:xlink="http://www.w3.org/1999/xlink" id="Layer_1" x="0px" y="0px" viewBox="0 0 1063.4 148.4" style="enable-background:new 0 0 1063.4 148.4;" xml:space="preserve"> <style type="text/css"> .st0{fill-opacity:0;stroke:#33E1FF;stroke-width:2;stroke-opacity:0.5;} .st1{fill:none;} .st2{fill:#FFFFFF;} .st3{font-family:'Barlow-Regular';} .st4{font-size:22px;} </style> <g> <g> <g> <path id="path-0" class="st0" d="M356.7,4.7v139"></path> </g> </g> <g> <g> <path id="path-1" class="st0" d="M4.7,74.7h1054"></path> </g> </g> <g> <g> <path id="path-2" class="st0" d="M706.7,4.7v139"></path> </g> </g> </g> <rect y="26" class="st1" width="356.7" height="41"></rect> <text transform="matrix(1 0 0 1 139.3359 41.3999)" class="st2 st3 st4">Training</text> <rect y="102.7" class="st1" width="356.7" height="41"></rect> <text transform="matrix(1 0 0 1 58.938 118.1045)" class="st2 st3 st4">Application Development</text> <rect x="353.4" y="26" class="st1" width="356.7" height="41"></rect> <text transform="matrix(1 0 0 1 406.4382 41.3999)" class="st2 st3 st4">Performance Optimization</text> <rect x="353.4" y="102.7" class="st1" width="356.7" height="41"></rect> <text transform="matrix(1 0 0 1 448.5569 118.1045)" class="st2 st3 st4">Version Migration</text> <rect x="706.7" y="26" class="st1" width="356.7" height="41"></rect> <text transform="matrix(1 0 0 1 846.8984 41.3999)" class="st2 st3 st4">Staffing</text> <rect x="706.7" y="102.7" class="st1" width="356.7" height="41"></rect> <text transform="matrix(1 0 0 1 831.1357 118.1045)" class="st2 st3 st4">Translation</text> </svg> 