<?xml version="1.0" encoding="UTF-8" standalone="no"?>
<!-- Created with Inkscape (http://www.inkscape.org/) -->

<svg
   xmlns:dc="http://purl.org/dc/elements/1.1/"
   xmlns:cc="http://creativecommons.org/ns#"
   xmlns:rdf="http://www.w3.org/1999/02/22-rdf-syntax-ns#"
   xmlns:svg="http://www.w3.org/2000/svg"
   xmlns="http://www.w3.org/2000/svg"
   xmlns:sodipodi="http://sodipodi.sourceforge.net/DTD/sodipodi-0.dtd"
   xmlns:inkscape="http://www.inkscape.org/namespaces/inkscape"
   version="1.1"
   id="svg2"
   xml:space="preserve"
   width="558.76001"
   height="192.46667"
   viewBox="0 0 558.76001 192.46667"
   sodipodi:docname="emma-logo.svg"
   inkscape:version="0.92.1 r"><metadata
     id="metadata8"><rdf:RDF><cc:Work
         rdf:about=""><dc:format>image/svg+xml</dc:format><dc:type
           rdf:resource="http://purl.org/dc/dcmitype/StillImage" /><dc:title></dc:title></cc:Work></rdf:RDF></metadata><defs
     id="defs6" /><sodipodi:namedview
     pagecolor="#ffffff"
     bordercolor="#666666"
     borderopacity="1"
     objecttolerance="10"
     gridtolerance="10"
     guidetolerance="10"
     inkscape:pageopacity="0"
     inkscape:pageshadow="2"
     inkscape:window-width="1920"
     inkscape:window-height="1018"
     id="namedview4"
     showgrid="false"
     inkscape:zoom="0.68365666"
     inkscape:cx="279.38"
     inkscape:cy="-79.293367"
     inkscape:window-x="0"
     inkscape:window-y="32"
     inkscape:window-maximized="1"
     inkscape:current-layer="g10" /><g
     id="g10"
     inkscape:groupmode="layer"
     inkscape:label="ink_ext_XXXXXX"
     transform="matrix(1.3333333,0,0,-1.3333333,0,192.46667)"><path
       inkscape:connector-curvature="0"
       id="path22"
       style="fill:#d1d2d3;fill-opacity:1;fill-rule:nonzero;stroke:none;stroke-width:0.1"
       d="m 80.0004,101.695 c -1.8965,3.478 -6.425,7.076 -13.6707,7.759 -1.5363,0.143 -5.4098,-0.053 -8.1988,-0.687 -5.3086,-1.203 -10.2418,-3.583 -13.7825,-6.888 C 37.1605,95.1883 33.5676,87.0211 32.7828,77.627 32.1949,70.477 33.1172,62.173 29.009,55.9719 c -1.4985,-2.2633 -3.25,-4.1797 -9.1141,-3.9571 -0.5148,0.0247 -0.8523,0.0469 -1.0511,-0.1668 -0.1204,-0.1289 -0.0958,-0.539 0.2281,-0.9746 3.9062,-5.1671 15.8597,-12.2644 23.1578,15.6375 2.3953,9.1473 2.9226,10.0508 5.4805,12.9446 2.8484,3.2207 10.1648,4.8222 12.9871,5.3398 3.4211,0.6266 9.7199,0.957 14.1636,2.9477 3.9375,1.766 5.5157,4.732 5.8848,5.8785 0.943,2.9406 0.4051,5.9629 -0.7453,8.0735" /><path
       inkscape:connector-curvature="0"
       id="path14"
       style="fill:#ffffff;fill-opacity:0;fill-rule:nonzero;stroke:none;stroke-width:0.1"
       d="m 141.671,72.1746 c 0,-38.3875 -31.116,-69.50155 -69.4999,-69.50155 -38.3824,0 -69.49883,31.11405 -69.49883,69.50155 0,38.3844 31.11643,69.5004 69.49883,69.5004 38.3839,0 69.4999,-31.116 69.4999,-69.5004" /><path
       inkscape:connector-curvature="0"
       id="path16"
       style="fill:#d1d2d3;fill-opacity:1;fill-rule:nonzero;stroke:none;stroke-width:0.1"
       d="M 72.1711,139.003 C 35.323,139.003 5.34531,109.024 5.34531,72.1746 5.34531,35.3262 35.323,5.34492 72.1711,5.34492 c 36.8489,0 66.8269,29.98128 66.8269,66.82968 0,36.8494 -29.978,66.8284 -66.8269,66.8284 z M 72.1711,0 C 32.3762,0 0,32.377 0,72.1746 c 0,39.7964 32.3762,72.1734 72.1711,72.1734 39.7969,0 72.1719,-32.377 72.1719,-72.1734 C 144.343,32.377 111.968,0 72.1711,0" /><path
       inkscape:connector-curvature="0"
       id="path18"
       style="fill:#d1d2d3;fill-opacity:1;fill-rule:nonzero;stroke:none;stroke-width:0.1"
       d="m 94.3574,53.2883 c -11.5082,0 -13.3668,7.1867 -13.9929,9.7648 -0.6266,2.5614 -4.0192,9.1895 13.1437,9.1895 13.1228,0 11.9448,-6.0031 11.4248,-9.7375 -0.649,-4.6805 -3.899,-9.2168 -10.5756,-9.2168 z m 12.8596,9.8867 c 0.55,5.0969 1.758,6.8418 3.806,7.2629 l 0.167,2.3414 c 0,0 -7.769,1.7562 -17.6158,1.7562 -9.8515,0 -15.7851,-3.496 -19.8441,-3.496 -4.0629,0 -9.9965,3.496 -19.8449,3.496 -2.9664,0 -4.7762,-0.1347 -7.1215,-0.3226 -0.3606,-1.0656 -0.736,-2.2418 -1.1293,-3.5524 1.6648,0.961 3.4152,1.5821 7.6316,1.5821 17.1649,0 14.4903,-6.6485 13.8535,-9.2012 -0.6316,-2.5664 -2.5418,-9.7531 -14.0504,-9.7531 -6.6691,0 -8.9761,4.1594 -9.7554,8.8183 -0.0301,0.1848 -0.0524,0.3711 -0.084,0.5625 -0.4699,-1.4179 -0.9399,-2.7441 -1.425,-3.9988 1.2144,-4.007 4.2891,-7.7726 11.5344,-7.7969 13.1558,-0.0382 15.8113,8.2821 17.2183,12.045 1.3508,3.5859 0.9137,4.241 3.1727,4.2851 2.2562,-0.0441 1.882,-0.6347 3.2254,-4.2246 1.4133,-3.7598 4.0039,-12.1055 17.1672,-12.1055 11.0803,0 12.6123,7.795 13.0943,12.3016" /><path
       inkscape:connector-curvature="0"
       id="path20"
       style="fill:#d1d2d3;fill-opacity:1;fill-rule:nonzero;stroke:none;stroke-width:0.1"
       d="m 39.9359,53.7816 c -2.8675,-5.6437 -4.3601,-6.6593 -6.93,-8.2375 0.0363,-2.3961 -1.4668,-4.6203 -4.2176,-4.9429 -2.1024,-0.2492 -3.609,1.2777 -4.6582,2.0359 -0.2574,0.184 -0.6438,0.1109 -0.7727,0.0027 -0.0957,-0.0886 -0.2836,-0.3609 -0.0937,-0.7859 0.3843,-0.8457 1.1133,-1.7437 1.5117,-2.2078 0.948,-1.093 1.6637,-1.7539 2.8187,-2.6121 1.7887,-1.332 4.0946,-1.982 6.1946,-1.8789 2.8258,0.1371 5.6758,1.4859 7.3914,3.9281 1.0164,1.4398 1.9855,3.5539 1.8133,6.0012 -0.1743,2.4277 -0.7868,4.6043 -3.0575,8.6972" /><path
       inkscape:connector-curvature="0"
       id="path24"
       style="fill:#d1d2d3;fill-opacity:1;fill-rule:nonzero;stroke:none;stroke-width:0.1"
       d="m 122.427,44.9438 c -0.143,0.0242 -0.367,-0.0696 -0.574,-0.3137 -2.221,-2.5871 -4.686,-2.391 -5.851,-2.2891 -1.675,0.143 -4.522,2.1867 -4.831,4.7949 -0.733,6.2278 2.063,11.3586 4.592,17.6282 0.93,2.3152 1.779,5.507 2.413,8.6949 2.544,12.8031 -4.426,26.348 -9.09,32.523 -12.834,16.994 -35.6465,18.052 -42.2602,18.277 -0.1254,0 -0.3082,-0.014 -0.4039,-0.028 -1.6285,-0.225 1.3574,-1.36 2.9945,-2.758 0.6367,-0.537 1.5262,-1.179 2.1348,-2.325 0.609,-1.141 0.7519,-2.39 -0.3496,-1.776 -2.6098,1.458 -4.9903,2.034 -7.0368,2.29 -4.7832,0.601 -7.1476,0.167 -9.6621,-0.228 -3.3441,-0.528 -5.7047,-1.296 -9.4093,-3.292 -5.1641,-2.784 -8.277,-5.404 -11.4059,-9.456 -4.6387,-6.029 -8.2805,-14.7243 -7.5566,-24.9024 0.5007,-7.0305 2.0152,-11.668 4.0699,-19.5344 0.6398,6.6547 0.416,7.4582 0.4805,10.7473 0.0449,2.1039 0.0847,4.0898 0.2347,5.9301 0.9047,10.9511 4.8559,18.0668 9.918,23.4994 5.7887,6.205 13.7422,9.346 22.2594,9.577 1.7293,0.048 5.1328,-0.037 7.1476,-0.632 5.0164,-1.49 14.2574,-5.867 13.111,-16.6089 -0.202,-1.8789 0.2316,-2.8414 1.6058,-3.8105 5.0442,-3.561 16.8582,-3.0414 20.2982,-14.1446 0.002,-0.0113 0.004,-0.0129 0.009,-0.0234 0.052,-0.1527 0.101,-0.3063 0.155,-0.4664 0.119,-0.3688 0.096,-0.2938 0.195,-0.6445 3.476,-0.4575 6.427,-1.2153 6.596,-1.2555 l 1.169,-0.266 -0.083,-1.4703 -0.165,-2.3395 -0.065,-1.1144 -1.059,-0.2364 c -0.731,-0.1465 -2.16,-0.914 -2.676,-5.9668 -0.262,-2.5175 -0.724,-5.9121 -2.605,-8.7363 -0.599,-0.8977 -1.646,-2.2598 -3.188,-2.9785 -2.149,-11.5399 6.014,-15.3129 11.308,-14.55 4.693,0.6789 7.513,3.964 7.912,7.7219 0.026,0.2957 -0.141,0.4265 -0.332,0.4629" /><path
       inkscape:connector-curvature="0"
       id="path26"
       style="fill:#d1d2d3;fill-opacity:1;fill-rule:nonzero;stroke:none;stroke-width:0.1"
       d="m 55.434,62.8793 c -0.5082,0 -0.9258,0.4141 -0.9258,0.9227 0,0.5109 0.4176,0.9269 0.9258,0.9269 0.5223,0 0.9375,-0.416 0.9375,-0.9269 0,-0.5086 -0.4152,-0.9227 -0.9375,-0.9227 z m 7.4801,0.1418 c 0.6922,-0.9457 1.9453,0.3387 1.2406,1.2711 -4.6649,6.1308 -12.7746,4.0195 -17.8438,0.498 -1.4004,-0.9785 -0.6504,-2.6394 0.8668,-2.0203 l 0.3727,0.1864 c 1.4059,0.8039 2.9594,1.7882 4.5898,2.5402 -0.2851,-0.5254 -0.4472,-1.127 -0.4472,-1.761 0,-2.0894 1.7504,-3.7839 3.9011,-3.7839 2.1559,0 3.9024,1.6945 3.9024,3.7839 0,1.0735 -0.461,2.0461 -1.202,2.7317 1.5848,-0.3926 3.1473,-1.4297 4.6196,-3.4461" /><path
       inkscape:connector-curvature="0"
       id="path28"
       style="fill:#d1d2d3;fill-opacity:1;fill-rule:nonzero;stroke:none;stroke-width:0.1"
       d="m 91.9805,62.8188 c -0.5203,0 -0.9325,0.423 -0.9325,0.948 0,0.5293 0.4122,0.9523 0.9325,0.9523 0.5097,0 0.9258,-0.423 0.9258,-0.9523 0,-0.525 -0.4161,-0.948 -0.9258,-0.948 z m 9.1105,1.9453 c -5.0894,3.5273 -13.2183,5.575 -17.8836,-0.5625 -0.7062,-0.9305 0.6805,-2.1192 1.3535,-1.1602 1.4668,2.0828 3.045,3.1094 4.6547,3.4695 -0.825,-0.6914 -1.3519,-1.7156 -1.3519,-2.8621 0,-2.0937 1.7468,-3.7902 3.8992,-3.7902 2.1594,0 3.9027,1.6965 3.9027,3.7902 0,0.6543 -0.1672,1.2625 -0.4664,1.8008 1.636,-0.7746 3.2016,-1.7695 4.6149,-2.5801 l 0.3649,-0.1914 c 1.517,-0.6164 2.32,1.1133 0.912,2.086" /><path
       inkscape:connector-curvature="0"
       id="path30"
       style="fill:#d1d2d3;fill-opacity:1;fill-rule:nonzero;stroke:none;stroke-width:0.1"
       d="m 80.641,39.2719 c 0.8613,0.8801 -0.1969,1.8922 -1.1082,1.182 -4.2437,-3.3359 -6.4066,-3.216 -11.1398,-0.4789 -1.084,0.6238 -1.9223,-0.5988 -0.9239,-1.2879 4.5954,-3.7223 8.9211,-3.757 13.1719,0.5848" /><path
       inkscape:connector-curvature="0"
       id="path32"
       style="fill:#d1d2d3;fill-opacity:1;fill-rule:nonzero;stroke:none;stroke-width:0.1"
       d="M 82.2141,26.3488 C 80.0004,25.418 76.8477,23.925 73.9684,23.8922 71.0902,23.925 67.934,25.418 65.7207,26.3539 64.884,26.707 64.7223,25.8672 65.141,25.5449 c 1.8047,-1.2668 5.8379,-4.5148 8.8082,-4.5148 2.9528,0 7.0817,3.2398 8.8422,4.5148 0.5152,0.3903 0.2594,1.1621 -0.5773,0.8039" /><path
       inkscape:connector-curvature="0"
       id="path34"
       style="fill:#d1d2d3;fill-opacity:1;fill-rule:nonzero;stroke:none;stroke-width:0.1"
       d="m 85.8977,30.1801 c -0.9907,-0.377 -1.5438,-0.4403 -2.5442,-0.4352 -2.9105,0.0262 -3.6937,0.3289 -6.2515,0.9692 -0.8614,0.2121 -2.2915,-1.0442 -3.1059,-1.0532 -0.816,0.009 -2.2602,1.2653 -3.1234,1.0532 -2.5559,-0.6403 -3.3391,-0.943 -6.2536,-0.9692 -0.9968,-0.0051 -1.5503,0.0582 -2.5398,0.4352 -0.6441,0.2437 -1.0148,-0.343 -0.6098,-0.6903 0.7414,-0.6437 2.316,-1.3539 3.4,-1.6539 1.443,-0.3961 5.2047,-1.3437 9.0567,-1.3437 3.825,0.0019 7.7449,0.9508 9.1754,1.3437 1.091,0.3 2.6601,1.0102 3.4101,1.6539 0.3985,0.3473 0.0278,0.934 -0.614,0.6903" /><path
       inkscape:connector-curvature="0"
       id="path36"
       style="fill:#d1d2d3;fill-opacity:1;fill-rule:evenodd;stroke:none;stroke-width:0.1"
       d="m 179.479,72.3918 c 0.753,6.6305 3.878,10.8117 8.273,11.7555 0.5,0.1078 4.698,0.855 6.544,-1.8172 1.055,-1.5215 1.093,-4.0801 0.093,-6.0844 -1.593,-3.1937 -5.252,-4.3824 -8.557,-5.2434 -0.964,-0.2539 -3.134,-0.7949 -4.182,-0.9511 -0.835,-0.1262 -1.778,-0.2258 -1.778,-0.2258 -0.014,0 0.268,-0.002 0.251,-0.002 -0.115,0 -0.526,0.0442 -0.609,0.1223 -0.098,0.0879 -0.154,0.2137 -0.15,0.3457 0,0.0477 0.011,1.1973 0.115,2.1004 z m -12.333,-4.2469 c -0.326,-6.2871 1.357,-11.8879 4.616,-15.3711 3.249,-3.4785 7.41,-5.5019 11.722,-5.7004 0.4,-0.0175 0.856,-0.0351 1.359,-0.0312 5.836,0 10.966,1.8789 15.246,5.5785 2.723,2.359 4.706,5.0594 5.305,7.2242 0.174,0.634 0.084,1.0512 -0.045,1.2219 -0.053,0.0672 -0.108,0.0977 -0.19,0.0977 -0.089,0 -0.336,-0.0391 -0.729,-0.4094 -0.574,-0.534 -2.62,-2.1336 -3.73,-2.9395 -2.165,-1.5722 -6.418,-3.3476 -9.513,-3.5664 -6.053,-0.4207 -9.323,2.1711 -10.951,7.5235 -0.221,0.7382 -0.604,2.2941 -0.618,2.3593 -0.032,0.1223 -0.011,0.2473 0.056,0.3555 0.069,0.1047 0.174,0.1809 0.294,0.2031 0.106,0.0266 11.294,2.268 15.598,3.8059 l 0.309,0.1074 c 2.359,0.8254 9.547,3.327 10.006,10.1961 0.244,3.6066 -2.339,7.9 -6.137,10.2098 -2.921,1.7746 -6.053,2.6761 -9.307,2.6761 -1.634,0 -3.323,-0.23 -5.025,-0.6796 -10.502,-2.779 -17.671,-11.7536 -18.266,-22.8614" /><path
       inkscape:connector-curvature="0"
       id="path38"
       style="fill:#d1d2d3;fill-opacity:1;fill-rule:evenodd;stroke:none;stroke-width:0.1"
       d="m 273.994,51.1594 c 0.133,0.4308 0.614,2.5754 0.692,2.9922 0.429,2.2968 1.309,6.7082 1.758,8.7422 0.203,0.9289 1.57,8.3851 1.923,10.3316 l 0.026,0.1422 c 0.595,3.2812 1.594,8.7719 0.783,11.7148 -0.24,0.8778 -1.162,2.618 -1.939,3.2235 -1.579,1.2312 -3.165,1.8523 -5.484,2.148 -0.503,0.059 -1.044,0.0914 -1.604,0.0914 -4.832,0 -10.645,-2.2621 -13.888,-4.4961 -0.891,-0.6121 -1.382,-0.839 -1.821,-0.839 -0.634,0 -0.981,0.4707 -1.426,1.0652 -0.53,0.7211 -1.338,1.8082 -3.184,3.059 -1.107,0.75 -2.99,1.1613 -5.308,1.1613 -2.784,0 -5.849,-0.598 -8.198,-1.6043 -1.173,-0.5027 -2.384,-1.1117 -3.451,-1.6488 -1.828,-0.9203 -3.272,-1.6496 -4.094,-1.6496 -0.532,0 -0.752,0.2937 -0.835,0.4675 -2.076,4.2911 -6.995,4.9301 -9.74,4.9301 -0.298,0 -0.594,-0.007 -0.888,-0.0211 -2.499,-0.1179 -4.306,-0.8871 -6.452,-2.7457 -0.723,-0.6277 -1.033,-1.3519 -0.857,-1.6066 0.038,-0.0574 0.158,-0.2317 0.648,-0.2317 0.173,0 0.376,0.0247 0.599,0.0688 1.306,0.2551 3.035,-0.3035 3.772,-1.2219 2.676,-3.3121 0.443,-13.7 -0.398,-17.6101 0,0 -0.688,-3.2969 -1.022,-4.9059 -0.819,-3.9437 -1.767,-8.5539 -2.265,-11.2219 -0.123,-0.6418 0.014,-1.3625 0.315,-1.7394 0.823,-1.0301 1.924,-0.9762 4.307,-0.9813 0,0 2.112,0 2.655,0 2.215,0 3.493,0.791 3.737,1.9227 0.442,2.0422 0.797,3.6933 1.086,5.1535 0.264,1.3359 0.96,4.4891 0.96,4.4891 1.472,6.1566 2.328,9.8441 3.397,13.4285 1.103,3.7035 3.194,6.675 6.77,8.3644 0.994,0.4707 2.669,0.7879 4.171,0.7879 1.053,0 1.977,-0.1551 2.671,-0.4449 2.184,-0.9105 1.599,-4.2652 1.209,-6.4883 l -0.028,-0.1679 c -0.773,-4.42 -1.712,-8.8262 -2.216,-11.1946 l -0.153,-0.7039 c -0.42,-1.9824 -1.792,-8.8535 -2.382,-12.584 -0.162,-1.0226 -0.117,-1.5937 0.147,-1.9015 0.37,-0.4336 1.22,-0.668 3.185,-0.668 1.138,0 3.012,0 3.546,0.007 1.663,0.0223 2.21,0.5012 2.602,2.5379 0.465,2.3926 2.544,11.7696 3.617,16.4414 l 0.376,1.6387 c 0.015,0.0773 1.732,7.5273 3.66,9.6797 1.677,1.8699 4.299,3.243 7.015,3.6703 0.472,0.0805 0.992,0.125 1.5,0.125 0.628,0 1.549,-0.068 2.357,-0.3957 2.193,-0.8945 1.983,-4.3891 1.712,-5.9016 -0.63,-3.5101 -1.369,-7.3476 -2.079,-11.0625 -0.792,-4.1308 -1.914,-9.7636 -2.58,-13.7281 -0.502,-3.0051 2.308,-3.0805 5.456,-3.0734 1.823,0.007 4.809,-0.2364 5.64,2.4539" /><path
       inkscape:connector-curvature="0"
       id="path40"
       style="fill:#d1d2d3;fill-opacity:1;fill-rule:evenodd;stroke:none;stroke-width:0.1"
       d="m 347.74,51.1594 c 0.132,0.4308 0.614,2.5754 0.691,2.9922 0.426,2.2968 1.308,6.7082 1.757,8.7422 0.206,0.9289 1.568,8.3851 1.921,10.3316 l 0.03,0.1422 c 0.593,3.2812 1.593,8.7719 0.784,11.7148 -0.243,0.8778 -1.162,2.618 -1.942,3.2235 -1.576,1.2312 -3.165,1.8523 -5.48,2.148 -0.509,0.059 -1.048,0.0914 -1.608,0.0914 -4.83,0 -10.647,-2.2621 -13.889,-4.4961 -0.887,-0.6121 -1.381,-0.839 -1.818,-0.839 -0.631,0 -0.983,0.4707 -1.421,1.0652 -0.538,0.7211 -1.344,1.8082 -3.195,3.059 -1.101,0.75 -2.984,1.1613 -5.301,1.1613 -2.787,0 -5.852,-0.598 -8.202,-1.6043 -1.172,-0.5027 -2.381,-1.1117 -3.45,-1.6488 -1.829,-0.9203 -3.269,-1.6496 -4.091,-1.6496 -0.532,0 -0.753,0.2937 -0.838,0.4675 -2.076,4.2911 -6.992,4.9301 -9.741,4.9301 -0.296,0 -0.592,-0.007 -0.886,-0.0211 -2.499,-0.1179 -4.305,-0.8871 -6.451,-2.7457 -0.724,-0.6277 -1.036,-1.3519 -0.858,-1.6066 0.038,-0.0574 0.158,-0.2317 0.647,-0.2317 0.174,0 0.376,0.0247 0.603,0.0688 1.303,0.2551 3.03,-0.3035 3.77,-1.2219 2.674,-3.3121 0.44,-13.7 -0.402,-17.6101 0,0 -0.685,-3.2969 -1.019,-4.9059 -0.822,-3.9437 -1.767,-8.5539 -2.268,-11.2219 -0.12,-0.6418 0.016,-1.3625 0.317,-1.7394 0.823,-1.0301 1.93,-0.9762 4.308,-0.9813 0,0 2.114,0 2.655,0 2.215,0 3.492,0.791 3.738,1.9227 0.438,2.0422 0.798,3.6933 1.087,5.1535 0.265,1.3359 0.964,4.4891 0.964,4.4891 1.465,6.1566 2.322,9.8441 3.39,13.4285 1.106,3.7035 3.194,6.675 6.771,8.3644 0.996,0.4707 2.671,0.7879 4.169,0.7879 1.053,0 1.977,-0.1551 2.671,-0.4449 2.188,-0.9105 1.6,-4.2652 1.21,-6.4883 l -0.03,-0.1679 c -0.77,-4.42 -1.708,-8.8262 -2.215,-11.1946 l -0.149,-0.7039 c -0.423,-1.9824 -1.796,-8.8535 -2.386,-12.584 -0.162,-1.0226 -0.116,-1.5937 0.148,-1.9015 0.369,-0.4336 1.221,-0.668 3.184,-0.668 1.138,0 3.016,0 3.552,0.007 1.66,0.0223 2.208,0.5012 2.6,2.5379 0.463,2.3926 2.541,11.7696 3.613,16.4414 l 0.378,1.6387 c 0.017,0.0773 1.734,7.5273 3.661,9.6797 1.676,1.8699 4.296,3.243 7.016,3.6703 0.47,0.0805 0.99,0.125 1.497,0.125 0.63,0 1.549,-0.068 2.358,-0.3957 2.194,-0.8945 1.981,-4.3891 1.71,-5.9016 -0.63,-3.5101 -1.363,-7.3476 -2.077,-11.0625 -0.793,-4.1308 -1.914,-9.7636 -2.578,-13.7281 -0.505,-3.0051 2.306,-3.0805 5.458,-3.0734 1.82,0.007 4.805,-0.2364 5.637,2.4539" /><path
       inkscape:connector-curvature="0"
       id="path42"
       style="fill:#d1d2d3;fill-opacity:1;fill-rule:evenodd;stroke:none;stroke-width:0.1"
       d="m 388.039,76.0746 c -0.299,-1.7711 -0.793,-4.3027 -1.226,-6.3058 -0.437,-2.0137 -0.875,-3.754 -1.334,-5.5985 -0.305,-1.2051 -0.612,-2.4285 -0.921,-3.7422 -0.795,-3.3945 -5.537,-5.6777 -9.464,-5.6777 h -10e-4 c -1.854,0 -3.374,0.5117 -4.286,1.4441 -3.199,3.2696 -2.897,9.4133 0.875,17.7633 1.279,2.8235 3.927,6.5094 6.036,8.393 1.395,1.2457 3.4,1.9922 5.361,1.9922 2.66,0 4.63,-1.3039 5.142,-3.3996 0.26,-1.0575 0.2,-2.6043 -0.182,-4.8688 z m 8.19,-27.5949 c 1.403,0 2.8,0.2187 4.046,0.6301 4.034,1.3289 7.531,5.6961 7.355,6.7957 -0.009,0.0531 -0.023,0.132 -0.303,0.132 -0.098,0 -0.214,-0.0137 -0.336,-0.0344 -0.267,-0.0488 -0.725,-0.2468 -1.211,-0.4558 -1.019,-0.4414 -2.29,-0.9922 -3.552,-1.0176 h -0.004 c -1.799,0 -3.504,1.1601 -4.326,2.8828 -1.162,2.4395 -0.522,5.077 0.161,7.875 l 0.116,0.4805 c 0.423,1.7488 5.667,22.691 5.691,22.7902 0.185,0.7055 0.109,1.3703 -0.178,1.6145 -0.469,0.3996 -1.478,0.0668 -2.453,-0.2997 -0.908,-0.3437 -1.741,-0.6363 -2.573,-0.9246 -0.792,-0.2773 -1.578,-0.5546 -2.386,-0.8546 -0.817,-0.3063 -1.543,-0.4567 -2.213,-0.4567 -1.496,0 -2.199,0.7016 -3.234,1.4859 -0.876,0.6622 -2.052,1.379 -3.416,1.7551 -1.938,0.5352 -3.893,0.8078 -5.809,0.8078 -4.815,0 -9.416,-1.7105 -13.306,-4.9453 -7.656,-6.3715 -12.751,-19.8437 -11.349,-30.0312 0.859,-6.2199 5.163,-9.3926 13.162,-9.7051 4.099,-0.1641 7.03,1.2109 9.841,2.5352 l 0.359,0.1668 c 0.908,0.4257 1.918,1.089 2.89,1.7277 1.487,0.9773 2.663,1.7539 3.491,1.7539 0.383,0 0.695,-0.1691 0.874,-0.4738 1.596,-2.6532 4.834,-4.2344 8.663,-4.2344" /><path
       inkscape:connector-curvature="0"
       id="path44"
       style="fill:#d1d2d3;fill-opacity:1;fill-rule:nonzero;stroke:none;stroke-width:0.1"
       d="m 415.601,90.3082 c -1.594,0 -2.881,-1.2898 -2.881,-2.8879 0,-1.5969 1.287,-2.8902 2.881,-2.8902 1.597,0 2.895,1.2933 2.895,2.8902 0,1.5981 -1.298,2.8879 -2.895,2.8879 z m 0,-6.3488 c -1.919,0 -3.455,1.5469 -3.455,3.4609 0,1.9176 1.536,3.4625 3.455,3.4625 1.919,0 3.469,-1.5449 3.469,-3.4625 0,-1.914 -1.55,-3.4609 -3.469,-3.4609 v 0" /><path
       inkscape:connector-curvature="0"
       id="path46"
       style="fill:#d1d2d3;fill-opacity:1;fill-rule:nonzero;stroke:none;stroke-width:0.1"
       d="m 414.926,88.875 h 0.873 c 0.4,0 0.656,-0.2473 0.656,-0.6301 0,-0.3804 -0.263,-0.6351 -0.656,-0.6351 h -0.873 z m 1.273,-1.8082 c 0.483,0.1168 0.902,0.4969 0.902,1.1781 0,0.7246 -0.524,1.2309 -1.274,1.2309 h -1.529 v -3.9871 h 0.628 v 1.5191 h 0.57 l 1.027,-1.5191 h 0.766 l -1.09,1.5781" /></g></svg>