<?xml version="1.0" encoding="UTF-8" standalone="no"?>
<!-- Created with Inkscape (http://www.inkscape.org/) -->

<svg
   xmlns:dc="http://purl.org/dc/elements/1.1/"
   xmlns:cc="http://creativecommons.org/ns#"
   xmlns:rdf="http://www.w3.org/1999/02/22-rdf-syntax-ns#"
   xmlns:svg="http://www.w3.org/2000/svg"
   xmlns="http://www.w3.org/2000/svg"
   xmlns:sodipodi="http://sodipodi.sourceforge.net/DTD/sodipodi-0.dtd"
   xmlns:inkscape="http://www.inkscape.org/namespaces/inkscape"
   version="1.1"
   id="svg2"
   xml:space="preserve"
   width="237.94041"
   height="50"
   viewBox="0 0 237.94041 50"
   sodipodi:docname="mailster-logo.svg"
   inkscape:version="0.92.1 r"><metadata
     id="metadata8"><rdf:RDF><cc:Work
         rdf:about=""><dc:format>image/svg+xml</dc:format><dc:type
           rdf:resource="http://purl.org/dc/dcmitype/StillImage" /><dc:title></dc:title></cc:Work></rdf:RDF></metadata><defs
     id="defs6" /><sodipodi:namedview
     pagecolor="#ffffff"
     bordercolor="#666666"
     borderopacity="1"
     objecttolerance="10"
     gridtolerance="10"
     guidetolerance="10"
     inkscape:pageopacity="0"
     inkscape:pageshadow="2"
     inkscape:window-width="1920"
     inkscape:window-height="1013"
     id="namedview4"
     showgrid="false"
     inkscape:zoom="1.3172414"
     inkscape:cx="-22.395286"
     inkscape:cy="30.466666"
     inkscape:window-x="1920"
     inkscape:window-y="0"
     inkscape:window-maximized="1"
     inkscape:current-layer="g10"
     fit-margin-top="0"
     fit-margin-left="0"
     fit-margin-right="0"
     fit-margin-bottom="0" /><g
     id="g10"
     inkscape:groupmode="layer"
     inkscape:label="ink_ext_XXXXXX"
     transform="matrix(1.3333333,0,0,-1.3333333,0,50)"><g
       id="g4498"
       transform="scale(0.82049175)"><path
         d="m 45.1816,41.6434 c 0.3086,-0.5801 0.493,-1.1012 0.5508,-1.5653 0.0586,-0.4636 0.0867,-1.1414 0.0867,-2.0301 V 5.85742 c 0,-2.66797 -0.7339,-4.23359 -2.2039,-4.69726 -0.7343,-0.232426 -1.6621,-0.348832 -2.7832,-0.348832 -1.1218,0 -2.0117,0.096875 -2.6679,0.290232 -0.6582,0.19336 -1.1602,0.42578 -1.5086,0.6961 -0.3481,0.2707 -0.6184,0.65742 -0.8117,1.16015 -0.1946,0.65742 -0.2903,1.66211 -0.2903,3.01563 V 25.4043 c -0.9668,-1.1992 -2.3777,-3.1035 -4.2344,-5.7141 -1.855,-2.6089 -3.0347,-4.2429 -3.5378,-4.9004 -0.5032,-0.6582 -0.8504,-1.1121 -1.0442,-1.3628 -0.1933,-0.2524 -0.6668,-0.6 -1.4207,-1.0442 -0.7539,-0.4453 -1.5652,-0.6672 -2.4355,-0.6672 -0.8704,0 -1.6629,0.2032 -2.3782,0.6098 -0.7156,0.4051 -1.2285,0.8016 -1.5371,1.1883 l -0.4636,0.6386 c -0.7747,0.9661 -2.3008,3.0247 -4.5821,6.177 -2.282,3.1504 -3.5195,4.8426 -3.7121,5.075 V 5.85742 c 0,-0.88945 -0.0293,-1.55664 -0.0867,-2.00117 C 10.0625,3.41211 9.87891,2.91875 9.56953,2.37773 8.98945,1.33398 7.48164,0.811328 5.04609,0.811328 2.68633,0.811328 1.21758,1.33398 0.6375,2.37773 0.328125,2.91875 0.144531,3.42188 0.0871094,3.88555 0.028125,4.34961 0,5.04609 0,5.97344 V 38.1641 c 0,0.8886 0.028125,1.5554 0.0871094,2.0011 0.0574216,0.4442 0.2410156,0.9571 0.5503906,1.5371 0.58008,1.0047 2.08828,1.5079 4.52461,1.5079 1.04375,0 1.94219,-0.1262 2.69648,-0.377 0.75352,-0.2523 1.24688,-0.5129 1.4793,-0.7836 L 9.68555,41.7023 22.8516,24.418 c 6.573,8.7004 10.9621,14.4425 13.166,17.2254 0.657,1.0441 2.2129,1.5668 4.6687,1.5668 2.4555,0 3.9532,-0.5227 4.4953,-1.5668"
         style="fill:#d1d2d3;fill-opacity:1;fill-rule:nonzero;stroke:none;stroke-width:0.1"
         id="path14"
         inkscape:connector-curvature="0" /><path
         d="m 58.2891,16.0078 c 0,-1.2765 0.5031,-2.4265 1.5089,-3.4512 1.0047,-1.0246 2.2223,-1.5371 3.6532,-1.5371 1.4304,0 2.6191,0.5227 3.5676,1.5664 0.9468,1.0442 1.4207,2.1946 1.4207,3.4512 0,1.2559 -0.4551,2.4258 -1.3633,3.509 -0.9082,1.0816 -2.127,1.6238 -3.6532,1.6238 -1.5285,0 -2.766,-0.5422 -3.7121,-1.6238 -0.948,-1.0832 -1.4218,-2.2617 -1.4218,-3.5383 z m 10.5566,12.0645 c 0.2313,2.1648 1.759,3.248 4.582,3.248 1.5078,0 2.6289,-0.116 3.3633,-0.3484 0.7344,-0.2317 1.2473,-0.6379 1.5371,-1.218 0.2903,-0.5801 0.4641,-1.093 0.5227,-1.5371 0.0574,-0.4453 0.0867,-1.1121 0.0867,-2.0012 V 5.91602 c 0,-0.88946 -0.0293,-1.55664 -0.0867,-2.00118 C 78.7922,3.46953 78.6277,2.95781 78.3574,2.37773 77.8152,1.37227 76.491,0.869922 74.3848,0.869922 c -2.1082,0 -3.5196,0.260938 -4.2344,0.783208 -0.7156,0.52148 -1.1309,1.28437 -1.2473,2.29101 -1.4304,-2.05039 -3.8179,-3.074218 -7.1629,-3.074218 -3.3449,0 -6.4472,1.526558 -9.3086,4.582028 -2.8625,3.05391 -4.2921,6.60155 -4.2921,10.64255 0,4.0403 1.4398,7.5782 4.3214,10.6145 2.8797,3.0351 6.0411,4.5527 9.4825,4.5527 1.3144,0 2.5129,-0.2312 3.5957,-0.6965 1.082,-0.4636 1.8371,-0.898 2.2629,-1.3047 0.4246,-0.4058 0.7722,-0.8027 1.0437,-1.1882"
         style="fill:#d1d2d3;fill-opacity:1;fill-rule:nonzero;stroke:none;stroke-width:0.1"
         id="path16"
         inkscape:connector-curvature="0" /><path
         d="m 82.127,26.2156 c 0,0.8891 0.0285,1.5559 0.0871,2.0012 0.0574,0.4441 0.2214,0.957 0.4929,1.5371 0.541,1.0051 2.0489,1.5078 4.5235,1.5078 1.8562,0 3.1699,-0.3293 3.9441,-0.9851 0.6574,-0.5422 1.0051,-1.3735 1.0442,-2.4946 0.0378,-0.3875 0.0578,-0.948 0.0578,-1.6824 V 5.79961 C 92.2766,4.91016 92.248,4.24336 92.1895,3.79883 92.1316,3.35352 91.9473,2.8418 91.6387,2.26172 91.1355,1.25586 89.6465,0.753906 87.173,0.753906 c -2.4367,0 -3.925,0.522654 -4.466,1.566404 -0.2715,0.58008 -0.4355,1.08203 -0.4929,1.50782 -0.0586,0.4246 -0.0871,1.10156 -0.0871,2.02929 z m 9.541,10.759 c -0.2903,-0.5605 -0.8035,-0.957 -1.5371,-1.1883 -0.7356,-0.2328 -1.711,-0.3488 -2.9297,-0.3488 -1.2176,0 -2.1946,0.116 -2.9285,0.3488 -0.7344,0.2313 -1.2473,0.6375 -1.5372,1.2176 -0.2902,0.5801 -0.464,1.0918 -0.5214,1.5371 -0.0586,0.4445 -0.0871,1.1113 -0.0871,2.0012 0,0.8883 0.0285,1.5555 0.0871,2.0008 0.0574,0.4441 0.2214,0.9367 0.4929,1.4785 0.541,1.0441 2.0489,1.5664 4.5235,1.5664 2.4367,0 3.905,-0.5223 4.4082,-1.5664 0.3086,-0.5789 0.4929,-1.0926 0.5508,-1.536 0.0585,-0.4453 0.0871,-1.1125 0.0871,-2.0011 0,-0.8906 -0.0286,-1.5574 -0.0871,-2.002 -0.0579,-0.4445 -0.2317,-0.9472 -0.5215,-1.5078"
         style="fill:#d1d2d3;fill-opacity:1;fill-rule:nonzero;stroke:none;stroke-width:0.1"
         id="path18"
         inkscape:connector-curvature="0" /><path
         d="m 95.4668,40.5996 c 0,0.8899 0.0281,1.5567 0.0867,2.0008 0.0578,0.4445 0.2219,0.9574 0.4934,1.5371 0.541,1.0441 2.0488,1.5668 4.5231,1.5668 2.359,0 3.828,-0.5227 4.409,-1.5668 0.308,-0.5797 0.493,-1.1012 0.55,-1.5652 0.059,-0.4649 0.087,-1.1418 0.087,-2.0301 V 13.6875 c 0,-1.3914 0.116,-2.2715 0.349,-2.6387 0.231,-0.3679 0.744,-0.5508 1.537,-0.5508 0.792,0 1.323,-0.0292 1.595,-0.0871 0.269,-0.0586 0.598,-0.2234 0.985,-0.49293 0.773,-0.50313 1.16,-1.87578 1.16,-4.11836 0,-2.43516 -0.387,-3.92461 -1.16,-4.46563 C 109.076,0.637891 106.68,0.521484 102.891,0.986328 99.9121,1.37227 97.9797,2.35859 97.0906,3.94414 96.0078,5.83789 95.4668,8.85352 95.4668,12.9922 v 27.6074"
         style="fill:#d1d2d3;fill-opacity:1;fill-rule:nonzero;stroke:none;stroke-width:0.1"
         id="path20"
         inkscape:connector-curvature="0" /><path
         d="m 113.214,3.47969 c -0.735,0.46445 -1.102,1.19804 -1.102,2.2039 0,1.00508 0.734,2.53204 2.204,4.58201 0.425,0.6571 1.111,0.9864 2.059,0.9864 0.947,0 2.233,-0.4739 3.857,-1.42075 1.624,-0.94844 3.093,-1.42109 4.408,-1.42109 2.358,0 3.538,0.46367 3.538,1.39179 0,0.73395 -1.296,1.27615 -3.886,1.62385 -2.436,0.3476 -4.853,1.2558 -7.25,2.7265 -1.122,0.6954 -2.05,1.7872 -2.784,3.2762 -0.735,1.4887 -1.102,3.257 -1.102,5.3078 0,6.1082 4.196,9.1641 12.586,9.1641 2.745,0 5.569,-0.6582 8.468,-1.9727 1.353,-0.6191 2.03,-1.3918 2.03,-2.3203 0,-0.9277 -0.426,-2.0683 -1.276,-3.4219 -0.851,-1.3535 -1.721,-2.0292 -2.61,-2.0292 -0.464,0 -1.325,0.2902 -2.581,0.8703 -1.256,0.5789 -2.62,0.8687 -4.088,0.8687 -2.283,0 -3.423,-0.4258 -3.423,-1.2754 0,-1.1597 1.314,-1.9136 3.944,-2.2625 2.552,-0.2707 5.026,-1.0058 7.424,-2.2031 1.121,-0.5422 2.059,-1.4797 2.813,-2.8137 0.754,-1.334 1.131,-3.0066 1.131,-5.0164 0,-2.0117 -0.377,-3.72264 -1.131,-5.13397 -0.754,-1.41093 -1.808,-2.46445 -3.161,-3.15976 -2.474,-1.19922 -5.578,-1.79922 -9.309,-1.79922 -3.732,0 -7.318,1.0832 -10.759,3.24844"
         style="fill:#d1d2d3;fill-opacity:1;fill-rule:nonzero;stroke:none;stroke-width:0.1"
         id="path22"
         inkscape:connector-curvature="0" /><path
         d="m 156.715,21.0535 -3.771,0.2324 V 13.282 c 0,-1.0437 0.164,-1.7976 0.494,-2.2625 0.328,-0.4636 0.947,-0.6953 1.856,-0.6953 0.907,0 1.603,-0.0293 2.088,-0.0871 0.482,-0.0586 0.995,-0.24218 1.537,-0.55155 0.889,-0.50313 1.334,-1.79766 1.334,-3.88594 0,-2.43516 -0.542,-3.92461 -1.624,-4.46563 -0.58,-0.27148 -1.094,-0.435542 -1.537,-0.493355 -0.446,-0.057422 -1.093,-0.086719 -1.944,-0.086719 -4.021,0 -7.076,0.908204 -9.164,2.725784 -2.088,1.81719 -3.131,4.8914 -3.131,9.22231 v 8.5839 c -0.736,-0.116 -1.529,-0.1738 -2.378,-0.1738 -0.852,0 -1.557,0.3281 -2.118,0.9856 -0.56,0.6574 -0.84,1.7785 -0.84,3.364 0,1.5852 0.095,2.7356 0.29,3.4516 0.193,0.7144 0.464,1.2262 0.811,1.5371 0.618,0.5016 1.393,0.7539 2.32,0.7539 l 1.915,-0.2324 v 5.9746 c 0,0.8887 0.029,1.5457 0.086,1.9715 0.058,0.4246 0.242,0.8886 0.551,1.3918 0.502,0.9668 1.991,1.45 4.466,1.45 2.63,0 4.195,-0.716 4.698,-2.1453 0.194,-0.6192 0.29,-1.6055 0.29,-2.9582 v -5.6844 c 1.702,0.1543 2.988,0.2324 3.858,0.2324 0.87,0 1.526,-0.0297 1.971,-0.0871 0.445,-0.0586 0.957,-0.2422 1.538,-0.552 1.004,-0.5027 1.507,-1.991 1.507,-4.4656 0,-2.4355 -0.521,-3.925 -1.565,-4.4656 -0.58,-0.2707 -1.094,-0.4348 -1.537,-0.4934 -0.445,-0.0578 -1.112,-0.0871 -2.001,-0.0871"
         style="fill:#d1d2d3;fill-opacity:1;fill-rule:nonzero;stroke:none;stroke-width:0.1"
         id="path24"
         inkscape:connector-curvature="0" /><path
         d="m 179.624,17.9797 c 1.469,0 2.204,0.618 2.204,1.8562 0,0.8887 -0.339,1.6043 -1.015,2.1454 -0.677,0.5414 -1.644,0.8125 -2.9,0.8125 -1.257,0 -2.504,-0.5125 -3.741,-1.5372 -1.237,-1.0242 -1.856,-2.1171 -1.856,-3.2769 z m 12.238,1.7105 c 0,-2.3777 -0.59,-4.1375 -1.769,-5.2769 -1.18,-1.1418 -2.485,-1.7113 -3.915,-1.7113 h -13.746 c 0,-1.0829 0.638,-1.9918 1.914,-2.72622 1.276,-0.73476 2.552,-1.10195 3.828,-1.10195 2.242,0 4.002,0.23164 5.278,0.69648 l 0.638,0.23164 c 0.929,0.42465 1.701,0.63755 2.32,0.63755 1.237,0 2.3,-0.86919 3.191,-2.60942 0.502,-1.04414 0.753,-1.93477 0.753,-2.66797 C 190.354,1.71953 186.236,0 178,0 c -2.861,0 -5.404,0.493359 -7.627,1.47852 -2.224,0.98632 -3.954,2.29101 -5.191,3.91523 -2.436,3.13281 -3.654,6.63165 -3.654,10.49805 0,4.8719 1.576,8.7676 4.727,11.6875 3.151,2.9187 7.085,4.3785 11.804,4.3785 5.374,0 9.317,-1.8953 11.831,-5.6844 1.314,-2.0105 1.972,-4.2043 1.972,-6.5832"
         style="fill:#d1d2d3;fill-opacity:1;fill-rule:nonzero;stroke:none;stroke-width:0.1"
         id="path26"
         inkscape:connector-curvature="0" /><path
         d="m 214.946,30.9719 c 0.735,-0.2317 1.343,-0.6289 1.827,-1.1887 0.483,-0.5613 0.725,-1.4602 0.725,-2.6973 0,-1.2382 -0.368,-2.591 -1.102,-4.0593 -0.735,-1.4707 -1.797,-2.2043 -3.19,-2.2043 -0.695,0 -1.362,0.1535 -2.001,0.4636 -0.638,0.3086 -1.478,0.4641 -2.522,0.4641 -1.044,0 -2.022,-0.3684 -2.93,-1.1023 -0.908,-0.7344 -1.362,-1.6243 -1.362,-2.668 V 5.79961 c 0,-0.88945 -0.03,-1.55625 -0.087,-2.00078 -0.059,-0.44531 -0.242,-0.95703 -0.552,-1.53711 -0.58,-1.00586 -2.088,-1.507814 -4.523,-1.507814 -1.857,0 -3.191,0.328124 -4.002,0.986324 -0.62,0.54102 -0.967,1.37188 -1.044,2.49415 0,0.38554 0,0.94648 0,1.68164 V 26.2734 c 0,0.8899 0.028,1.5567 0.087,2.002 0.057,0.4434 0.221,0.9363 0.493,1.4785 0.541,1.0438 2.049,1.5664 4.523,1.5664 2.32,0 3.771,-0.4453 4.351,-1.334 0.425,-0.6191 0.637,-1.2578 0.637,-1.914 0.194,0.2695 0.473,0.5988 0.841,0.9851 0.367,0.3867 1.151,0.9082 2.349,1.5664 1.198,0.6575 2.253,0.9864 3.161,0.9864 0.908,0 1.672,-0.0497 2.291,-0.1454 0.618,-0.0964 1.295,-0.2605 2.03,-0.4929"
         style="fill:#d1d2d3;fill-opacity:1;fill-rule:nonzero;stroke:none;stroke-width:0.1"
         id="path28"
         inkscape:connector-curvature="0" /></g></g></svg>