<?xml version="1.0" encoding="UTF-8" standalone="no"?>
<!-- Generator: Adobe Illustrator 19.2.1, SVG Export Plug-In . SVG Version: 6.00 Build 0)  -->

<svg
   xmlns:dc="http://purl.org/dc/elements/1.1/"
   xmlns:cc="http://creativecommons.org/ns#"
   xmlns:rdf="http://www.w3.org/1999/02/22-rdf-syntax-ns#"
   xmlns:svg="http://www.w3.org/2000/svg"
   xmlns="http://www.w3.org/2000/svg"
   xmlns:sodipodi="http://sodipodi.sourceforge.net/DTD/sodipodi-0.dtd"
   xmlns:inkscape="http://www.inkscape.org/namespaces/inkscape"
   sodipodi:docname="mailpoet-logo-rgb.svg"
   xml:space="preserve"
   viewBox="0 0 306.79999 119.2"
   y="0px"
   x="0px"
   id="Layer_1"
   version="1.1"
   width="306.79999"
   height="119.2"
   inkscape:version="0.92.2 5c3e80d, 2017-08-06"><sodipodi:namedview
     inkscape:current-layer="Layer_1"
     inkscape:window-maximized="1"
     inkscape:window-y="0"
     inkscape:window-x="1920"
     inkscape:cy="63.250003"
     inkscape:cx="-135.10962"
     inkscape:zoom="0.76293622"
     showgrid="false"
     id="namedview27"
     inkscape:window-height="1014"
     inkscape:window-width="1920"
     inkscape:pageshadow="2"
     inkscape:pageopacity="0"
     guidetolerance="10"
     gridtolerance="10"
     objecttolerance="10"
     borderopacity="1"
     bordercolor="#666666"
     pagecolor="#ffffff"
     fit-margin-top="0"
     fit-margin-left="0"
     fit-margin-right="0"
     fit-margin-bottom="0" /><metadata
     id="metadata31"><rdf:RDF><cc:Work
         rdf:about=""><dc:format>image/svg+xml</dc:format><dc:type
           rdf:resource="http://purl.org/dc/dcmitype/StillImage" /><dc:title /></cc:Work></rdf:RDF></metadata><defs
     id="defs29" /><style
     id="style2"
     type="text/css">
	.st0{fill:#FE5301;}
</style><g
     id="g843"><path
       style="opacity:1;fill:#d1d2d3;fill-opacity:1"
       inkscape:connector-curvature="0"
       id="path4"
       d="m 47.1,53.1 c 0,1.5 0.4,2.7 1.2,3.5 0.8,0.8 2.1,1.2 4,1.2 2.1,0 3.5,-0.4 4.2,-1.3 0.8,-0.9 1.1,-1.9 1.1,-3.1 V 7.2 C 57.6,5.5 57,4.3 55.7,3.4 54.4,2.6 52.7,2.2 50.5,2.2 c -2.4,0 -4.3,0.4 -5.7,1.2 -1.4,0.8 -2.4,2.2 -3,4.1 L 28.8,45.9 15.3,7.2 C 14.8,5.6 13.9,4.4 12.7,3.5 11.5,2.6 9.7,2.2 7.4,2.2 5.1,2.2 3.3,2.6 2,3.5 0.7,4.3 0,5.7 0,7.7 v 45.5 c 0,1.6 0.4,2.8 1.1,3.6 0.8,0.7 2.1,1.1 4.1,1.1 2.1,0 3.5,-0.4 4.2,-1.3 0.8,-0.9 1.1,-1.9 1.1,-3.1 V 21.6 l 11.8,31.3 c 0.5,1.4 1.3,2.4 2.2,3.2 0.9,0.8 2.4,1.1 4.3,1.1 1.3,0 2.5,-0.3 3.5,-0.8 1,-0.6 1.8,-1.5 2.3,-2.9 L 47.1,19 Z"
       class="st0" /><path
       style="opacity:1;fill:#d1d2d3;fill-opacity:1"
       inkscape:connector-curvature="0"
       id="path6"
       d="M 100.9,53.5 V 29.9 c 0,-5 -1.3,-8.7 -4,-11.1 -2.7,-2.4 -7,-3.6 -13.1,-3.6 -3,0 -5.5,0.3 -7.7,0.9 -2.2,0.6 -4,1.3 -5.5,2.2 -1.5,0.9 -2.6,1.8 -3.4,2.8 -0.7,1 -1.1,2 -1.1,2.9 0,1.3 0.5,2.4 1.4,3.4 0.9,0.9 2,1.4 3.2,1.4 0.9,0 1.6,-0.2 2.3,-0.5 0.6,-0.3 1.2,-0.7 1.9,-1.2 0.9,-0.6 1.7,-1.1 2.4,-1.5 0.7,-0.4 1.4,-0.8 2.1,-1 0.7,-0.2 1.3,-0.4 2.1,-0.5 0.7,-0.1 1.5,-0.2 2.3,-0.2 1.3,0 2.4,0.2 3.3,0.6 0.9,0.4 1.6,0.9 2.1,1.5 0.5,0.6 0.9,1.3 1.1,2.1 0.2,0.8 0.3,1.5 0.3,2.3 V 32 c -2.4,0.2 -4.6,0.3 -6.6,0.6 -2,0.2 -4,0.5 -6,0.9 -1.8,0.3 -3.6,0.8 -5.3,1.3 -1.7,0.6 -3.1,1.4 -4.3,2.4 -1.2,1 -2.2,2.2 -2.9,3.7 -0.7,1.5 -1.1,3.3 -1.1,5.4 0,3.6 1.2,6.5 3.6,8.7 2.4,2.2 5.7,3.3 9.8,3.3 1.8,0 3.4,-0.2 4.7,-0.6 1.4,-0.4 2.6,-0.8 3.6,-1.4 1,-0.6 1.9,-1.2 2.6,-2 0.7,-0.7 1.4,-1.5 1.9,-2.2 v 1.4 c 0,1.6 0.5,2.7 1.4,3.4 0.9,0.7 2.2,1 3.8,1 1.8,0 3.1,-0.3 3.9,-1 0.8,-0.8 1.2,-1.9 1.2,-3.4 m -10.3,-12 c 0,2.4 -0.9,4.3 -2.7,5.8 -1.8,1.5 -4.3,2.2 -7.6,2.2 -2.1,0 -3.5,-0.4 -4.3,-1.1 -0.8,-0.8 -1.3,-1.8 -1.3,-3.2 0,-1 0.4,-2 1.1,-3 0.8,-1 2.4,-1.7 4.9,-2.2 0.9,-0.2 2.3,-0.4 4.1,-0.7 1.8,-0.3 3.7,-0.5 5.7,-0.7 v 2.9 z"
       class="st0" /><path
       style="opacity:1;fill:#d1d2d3;fill-opacity:1"
       inkscape:connector-curvature="0"
       id="path8"
       d="m 119,56.8 c 0.9,-0.7 1.4,-1.8 1.4,-3.4 V 20.6 c 0,-1.5 -0.5,-2.7 -1.4,-3.4 -0.9,-0.7 -2.2,-1.1 -3.9,-1.1 -2,0 -3.5,0.4 -4.3,1.3 -0.9,0.9 -1.3,2.1 -1.3,3.6 v 32.5 c 0,2.8 1.9,4.3 5.6,4.3 1.6,0 2.9,-0.3 3.9,-1"
       class="st0" /><path
       style="opacity:1;fill:#d1d2d3;fill-opacity:1"
       inkscape:connector-curvature="0"
       id="path10"
       d="m 110.6,1.6 c -1.1,1.1 -1.7,2.5 -1.7,4.2 0,1.8 0.6,3.2 1.7,4.3 1.1,1.1 2.6,1.6 4.5,1.6 1.9,0 3.3,-0.5 4.5,-1.6 1.1,-1.1 1.7,-2.5 1.7,-4.3 0,-2 -0.6,-3.5 -1.9,-4.4 -1.3,-0.9 -2.7,-1.4 -4.2,-1.4 -2,0 -3.5,0.5 -4.6,1.6"
       class="st0" /><path
       style="opacity:1;fill:#d1d2d3;fill-opacity:1"
       inkscape:connector-curvature="0"
       id="path12"
       d="m 138.5,56.8 c 0.9,-0.7 1.4,-1.8 1.4,-3.4 V 6.2 c 0,-1.5 -0.5,-2.6 -1.6,-3.3 -1.1,-0.7 -2.3,-1 -3.7,-1 -3.8,0 -5.7,1.5 -5.7,4.6 v 47.1 c 0,2.8 1.9,4.3 5.6,4.3 1.7,-0.1 3,-0.4 4,-1.1"
       class="st0" /><path
       style="opacity:1;fill:#d1d2d3;fill-opacity:1"
       inkscape:connector-curvature="0"
       id="path14"
       d="m 187.9,20 c 0,-5.6 -1.6,-9.9 -4.7,-13 C 180,3.9 175,2.4 168,2.4 h -15.5 c -1.3,0 -2.3,0.3 -3.1,1 -0.8,0.7 -1.2,1.6 -1.2,2.7 v 47 c 0,3.1 1.9,4.7 5.6,4.7 2.1,0 3.5,-0.4 4.2,-1.3 0.7,-0.9 1.1,-1.9 1.1,-3.2 v -16 h 9.4 c 3.9,0 7.2,-0.6 9.7,-1.7 2.5,-1.1 4.5,-2.5 6,-4.2 1.4,-1.7 2.4,-3.6 3,-5.6 0.5,-2 0.7,-3.9 0.7,-5.8 m -11.3,0.1 c 0,1.2 -0.2,2.2 -0.5,3.2 -0.3,1 -0.8,1.9 -1.6,2.6 -0.7,0.7 -1.7,1.3 -2.9,1.7 -1.2,0.4 -2.7,0.6 -4.6,0.6 h -8.1 V 11.5 h 8.1 c 1.8,0 3.4,0.2 4.6,0.7 1.2,0.5 2.2,1.1 2.9,1.9 0.7,0.8 1.3,1.7 1.6,2.7 0.4,1.1 0.5,2.1 0.5,3.3"
       class="st0" /><path
       style="opacity:1;fill:#d1d2d3;fill-opacity:1"
       inkscape:connector-curvature="0"
       id="path16"
       d="m 232,36.7 c 0,-3.2 -0.5,-6.1 -1.5,-8.8 -1,-2.7 -2.4,-4.9 -4.3,-6.8 -1.8,-1.8 -4,-3.3 -6.6,-4.3 -2.6,-1 -5.4,-1.5 -8.6,-1.5 -3.2,0 -6,0.5 -8.6,1.5 -2.6,1 -4.8,2.5 -6.7,4.3 -1.9,1.9 -3.3,4.1 -4.3,6.8 -1,2.7 -1.5,5.6 -1.5,8.9 0,3.3 0.5,6.2 1.5,8.9 1,2.7 2.4,5 4.2,6.9 1.8,1.9 4,3.4 6.6,4.4 2.6,1 5.5,1.5 8.8,1.5 3.2,0 6,-0.5 8.6,-1.6 2.6,-1.1 4.8,-2.5 6.6,-4.4 1.8,-1.9 3.3,-4.2 4.3,-6.9 1,-2.6 1.5,-5.6 1.5,-8.9 M 221,37 c 0,3.9 -0.9,7 -2.6,9.2 -1.8,2.2 -4.2,3.2 -7.4,3.2 -3.1,0 -5.5,-1.1 -7.2,-3.2 C 202,44 201.2,41 201.2,37 c 0,-3.9 0.9,-7 2.6,-9.2 1.8,-2.2 4.2,-3.3 7.2,-3.3 3.2,0 5.7,1.1 7.4,3.3 1.8,2.3 2.6,5.3 2.6,9.2"
       class="st0" /><path
       style="opacity:1;fill:#d1d2d3;fill-opacity:1"
       inkscape:connector-curvature="0"
       id="path18"
       d="m 275.4,35.9 c 0,-6.6 -1.7,-11.7 -5.1,-15.3 -3.4,-3.6 -8,-5.3 -13.7,-5.3 -3.6,0 -6.7,0.6 -9.3,1.9 -2.6,1.3 -4.8,2.9 -6.4,5 -1.7,2.1 -2.9,4.4 -3.7,7.1 -0.8,2.7 -1.2,5.4 -1.2,8.2 0,3.6 0.5,6.8 1.5,9.4 1,2.7 2.4,4.9 4.3,6.6 1.8,1.7 4.1,3 6.8,3.9 2.7,0.8 5.6,1.3 8.9,1.3 2.3,0 4.6,-0.3 6.9,-0.8 2.3,-0.6 4.4,-1.4 6,-2.4 1.3,-0.8 2.2,-1.5 2.7,-2.2 0.6,-0.7 0.8,-1.5 0.8,-2.5 0,-1.3 -0.4,-2.5 -1.3,-3.6 -0.9,-1.1 -1.9,-1.6 -2.9,-1.6 -0.9,0 -1.8,0.2 -2.4,0.6 -0.7,0.4 -1.4,0.8 -2.2,1.3 -0.8,0.4 -1.8,0.9 -3,1.5 -1.2,0.6 -2.6,0.8 -4.3,0.8 -6.5,0 -10,-3.2 -10.5,-9.7 h 22.9 c 1.7,0 3,-0.3 3.9,-0.9 0.8,-0.7 1.3,-1.7 1.3,-3.3 m -11,-4.1 h -16.8 c 0.3,-2.6 1.2,-4.6 2.9,-6 1.7,-1.4 3.6,-2.1 5.9,-2.1 1.4,0 2.6,0.2 3.6,0.7 1,0.5 1.8,1.1 2.5,1.9 0.7,0.8 1.1,1.7 1.5,2.6 0.2,1 0.4,2 0.4,2.9"
       class="st0" /><path
       style="opacity:1;fill:#d1d2d3;fill-opacity:1"
       inkscape:connector-curvature="0"
       id="path20"
       d="m 300.9,58 c 1.6,-0.4 2.9,-0.9 4,-1.6 0.7,-0.5 1.2,-1 1.5,-1.7 0.3,-0.7 0.4,-1.4 0.4,-2.3 0,-1.2 -0.3,-2.3 -0.9,-3.4 -0.6,-1.1 -1.6,-1.6 -2.9,-1.6 -0.5,0 -1,0.1 -1.4,0.3 l -1.3,0.6 c -0.4,0.2 -0.9,0.3 -1.3,0.5 -0.5,0.2 -1,0.3 -1.7,0.3 -0.9,0 -1.6,-0.2 -2.1,-0.8 -0.4,-0.5 -0.7,-1.4 -0.7,-2.6 v -21 h 6.4 c 1.9,0 2.9,-1.4 2.9,-4.2 0,-1.1 -0.2,-2 -0.6,-2.7 C 302.8,17 302,16.7 301,16.7 h -6.5 V 7.5 c 0,-1 -0.3,-1.8 -0.8,-2.5 -0.6,-0.7 -1.5,-1 -2.9,-1 -0.8,0 -1.6,0.1 -2.4,0.3 -0.8,0.2 -1.6,0.5 -2.3,0.9 -0.7,0.4 -1.3,0.9 -1.7,1.6 -0.4,0.7 -0.7,1.5 -0.7,2.4 v 7.5 h -3.5 c -0.9,0 -1.5,0.4 -1.9,1.2 -0.4,0.8 -0.6,1.7 -0.6,2.6 0,0.9 0.2,1.8 0.6,2.8 0.4,0.9 1.1,1.4 2,1.4 h 3.4 v 22.4 c 0,3.9 1,6.9 3.1,8.7 2.1,1.9 4.8,2.8 8.3,2.8 2.3,0 4.2,-0.2 5.8,-0.6"
       class="st0" /><path
       style="opacity:1;fill:#d1d2d3;fill-opacity:1"
       inkscape:connector-curvature="0"
       id="path22"
       d="m 301.6,68.4 c -3.5,-1.4 -5.8,-0.6 -6.7,2.1 -6.4,19 -31.3,20.2 -32.5,20.2 H 188 c -1.5,0 -23.6,0 -34.5,12.8 0,0 0,0 0,0 0,0 0,0 0,0 C 142.6,90.7 120.5,90.7 119,90.7 H 44.5 C 43.3,90.7 18.4,89.5 12,70.5 11.1,67.7 8.8,67 5.3,68.4 2.9,69.2 1,71.1 2,73.9 c 3.7,11 12.3,19.3 24.8,23.9 9.1,3.3 17.2,3.6 17.5,3.6 H 119 c 0,0 0,0 0,0 1.1,0 25.4,0.2 29.2,14.7 0.3,1.2 1,3.1 5.1,3.1 v 0 0 c 4.1,0 4.8,-2 5.1,-3.1 3.8,-14.5 28.1,-14.7 29.2,-14.7 0,0 0,0 0,0 h 74.7 c 0.3,0 8.4,-0.2 17.5,-3.6 12.5,-4.6 21.1,-12.8 24.8,-23.9 1.2,-2.7 -0.7,-4.7 -3,-5.5"
       class="st0" /></g></svg>