<?xml version="1.0" encoding="UTF-8" standalone="no"?>
<svg
   xmlns:dc="http://purl.org/dc/elements/1.1/"
   xmlns:cc="http://creativecommons.org/ns#"
   xmlns:rdf="http://www.w3.org/1999/02/22-rdf-syntax-ns#"
   xmlns:svg="http://www.w3.org/2000/svg"
   xmlns="http://www.w3.org/2000/svg"
   xmlns:sodipodi="http://sodipodi.sourceforge.net/DTD/sodipodi-0.dtd"
   xmlns:inkscape="http://www.inkscape.org/namespaces/inkscape"
   id="Layer_1"
   data-name="Layer 1"
   viewBox="0 0 198.28777 50"
   version="1.1"
   sodipodi:docname="mailerlite-logo.svg"
   inkscape:version="0.92.1 r"
   width="198.28778"
   height="50">
  <metadata
     id="metadata29">
    <rdf:RDF>
      <cc:Work
         rdf:about="">
        <dc:format>image/svg+xml</dc:format>
        <dc:type
           rdf:resource="http://purl.org/dc/dcmitype/StillImage" />
        <dc:title>logo-color-black</dc:title>
      </cc:Work>
    </rdf:RDF>
  </metadata>
  <sodipodi:namedview
     pagecolor="#ffffff"
     bordercolor="#666666"
     borderopacity="1"
     objecttolerance="10"
     gridtolerance="10"
     guidetolerance="10"
     inkscape:pageopacity="0"
     inkscape:pageshadow="2"
     inkscape:window-width="1920"
     inkscape:window-height="1013"
     id="namedview27"
     showgrid="false"
     inkscape:zoom="0.87330252"
     inkscape:cx="-286.26948"
     inkscape:cy="55.154324"
     inkscape:window-x="1920"
     inkscape:window-y="0"
     inkscape:window-maximized="1"
     inkscape:current-layer="Layer_1"
     fit-margin-top="0"
     fit-margin-left="0"
     fit-margin-right="0"
     fit-margin-bottom="0" />
  <defs
     id="defs4">
    <style
       id="style2">.cls-1{fill:#00a153;}</style>
    <filter
       style="color-interpolation-filters:sRGB"
       inkscape:label="Greyscale"
       id="filter6264">
      <feColorMatrix
         values="-4.5 0.88 1.01 0.04 0 -4.5 0.88 1.01 0.04 0 -4.5 0.88 1.01 0.04 0 0 0 0 1 0 "
         id="feColorMatrix6262" />
    </filter>
    <filter
       style="color-interpolation-filters:sRGB"
       inkscape:label="Greyscale"
       id="filter6268">
      <feColorMatrix
         values="-4.5 0.88 1.01 0.04 0 -4.5 0.88 1.01 0.04 0 -4.5 0.88 1.01 0.04 0 0 0 0 1 0 "
         id="feColorMatrix6266" />
    </filter>
    <filter
       style="color-interpolation-filters:sRGB"
       inkscape:label="Greyscale"
       id="filter6272">
      <feColorMatrix
         values="-4.5 0.88 1.01 0.04 0 -4.5 0.88 1.01 0.04 0 -4.5 0.88 1.01 0.04 0 0 0 0 1 0 "
         id="feColorMatrix6270" />
    </filter>
    <filter
       style="color-interpolation-filters:sRGB"
       inkscape:label="Greyscale"
       id="filter6276">
      <feColorMatrix
         values="-4.5 0.88 1.01 0.04 0 -4.5 0.88 1.01 0.04 0 -4.5 0.88 1.01 0.04 0 0 0 0 1 0 "
         id="feColorMatrix6274" />
    </filter>
    <filter
       style="color-interpolation-filters:sRGB"
       inkscape:label="Greyscale"
       id="filter6280">
      <feColorMatrix
         values="-4.5 0.88 1.01 0.04 0 -4.5 0.88 1.01 0.04 0 -4.5 0.88 1.01 0.04 0 0 0 0 1 0 "
         id="feColorMatrix6278" />
    </filter>
    <filter
       style="color-interpolation-filters:sRGB"
       inkscape:label="Greyscale"
       id="filter6284">
      <feColorMatrix
         values="-4.5 0.88 1.01 0.04 0 -4.5 0.88 1.01 0.04 0 -4.5 0.88 1.01 0.04 0 0 0 0 1 0 "
         id="feColorMatrix6282" />
    </filter>
    <filter
       style="color-interpolation-filters:sRGB"
       inkscape:label="Greyscale"
       id="filter6288">
      <feColorMatrix
         values="-4.5 0.88 1.01 0.04 0 -4.5 0.88 1.01 0.04 0 -4.5 0.88 1.01 0.04 0 0 0 0 1 0 "
         id="feColorMatrix6286" />
    </filter>
    <filter
       style="color-interpolation-filters:sRGB"
       inkscape:label="Greyscale"
       id="filter6292">
      <feColorMatrix
         values="-4.5 0.88 1.01 0.04 0 -4.5 0.88 1.01 0.04 0 -4.5 0.88 1.01 0.04 0 0 0 0 1 0 "
         id="feColorMatrix6290" />
    </filter>
    <filter
       style="color-interpolation-filters:sRGB"
       inkscape:label="Greyscale"
       id="filter6296">
      <feColorMatrix
         values="-4.5 0.88 1.01 0.04 0 -4.5 0.88 1.01 0.04 0 -4.5 0.88 1.01 0.04 0 0 0 0 1 0 "
         id="feColorMatrix6294" />
    </filter>
  </defs>
  <title
     id="title6">logo-color-black</title>
  <g
     id="g4519"
     transform="matrix(0.45331193,0,0,0.45331193,6.9854358e-5,0)">
    <path
       style="fill:#d1d2d3;fill-opacity:1"
       id="path8"
       transform="translate(-78.29,-365.78)"
       d="m 135.5,424.25 c -7.34,0 -13.1,2.9 -17.15,8.64 a 16.15,16.15 0 0 0 -14.52,-8.64 18.67,18.67 0 0 0 -15,6.75 v -1 a 5.4,5.4 0 0 0 -5.32,-5.32 5.28,5.28 0 0 0 -5.22,5.32 v 40.32 a 5.28,5.28 0 0 0 10.55,0 v -27.87 c 2.39,-3.92 6,-8.3 12.54,-8.3 6.18,0 8.59,3 8.59,10.84 v 25.38 a 5.28,5.28 0 0 0 10.55,0 v -27.92 c 2.39,-3.92 6,-8.3 12.54,-8.3 6.18,0 8.59,3 8.59,10.84 v 25.38 a 5.28,5.28 0 0 0 10.55,0 V 443.3 c -0.01,-9.18 -5.2,-19.05 -16.7,-19.05 z"
       inkscape:connector-curvature="0" />
    <path
       style="fill:#d1d2d3;fill-opacity:1"
       id="path10"
       transform="translate(-78.29,-365.78)"
       d="m 185.88,424.25 a 41.2,41.2 0 0 0 -16.64,3.46 4.7,4.7 0 0 0 -3.06,4.5 4.48,4.48 0 0 0 4.48,4.57 6.32,6.32 0 0 0 1.53,-0.24 36.41,36.41 0 0 1 12.19,-2.21 c 8.15,0 11.52,3 11.59,10.41 H 185.6 c -14.16,0 -22.62,6.07 -22.62,16.23 0,9.91 8.21,15.1 16.32,15.1 a 24.86,24.86 0 0 0 16.7,-5.84 v 0.14 a 5.28,5.28 0 0 0 10.55,0 v -26.6 c -0.02,-9.72 -6.41,-19.52 -20.67,-19.52 z m -3.38,42.3 c -5.95,0 -9,-2.19 -9,-6.52 0,-1.59 0,-6.43 13.19,-6.43 H 196 v 6.51 c -2.79,3.04 -7.86,6.44 -13.5,6.44 z"
       inkscape:connector-curvature="0" />
    <rect
       style="fill:#d1d2d3;fill-opacity:1"
       id="rect12"
       ry="5.79"
       rx="5.79"
       height="11.96"
       width="12.15"
       y="39.669998"
       x="142.5" />
    <path
       style="fill:#d1d2d3;fill-opacity:1"
       id="path14"
       transform="translate(-78.29,-365.78)"
       d="m 226.77,424.72 a 5.22,5.22 0 0 0 -5.23,5.32 v 40.32 a 5.28,5.28 0 0 0 10.55,0 V 430 a 5.27,5.27 0 0 0 -5.32,-5.28 z"
       inkscape:connector-curvature="0" />
    <path
       style="fill:#d1d2d3;fill-opacity:1"
       id="path16"
       transform="translate(-78.29,-365.78)"
       d="m 253.47,404 a 5.22,5.22 0 0 0 -5.23,5.32 v 61 a 5.28,5.28 0 0 0 10.55,0 v -61 A 5.27,5.27 0 0 0 253.47,404 Z"
       inkscape:connector-curvature="0" />
    <path
       style="fill:#d1d2d3;fill-opacity:1"
       id="path18"
       transform="translate(-78.29,-365.78)"
       d="m 295.2,424.25 c -7.52,0 -13.69,2.79 -17.87,8.08 -3.61,4.57 -5.6,10.9 -5.6,17.83 0,16.22 9.47,25.91 25.34,25.91 8.71,0 13,-2 16.95,-4.27 a 5.17,5.17 0 0 0 2.95,-4.35 4.66,4.66 0 0 0 -4.76,-4.67 4.44,4.44 0 0 0 -2.15,0.49 24.58,24.58 0 0 1 -12.23,2.8 c -8.76,0 -14,-4.11 -15.3,-11.91 h 30.72 a 5.1,5.1 0 0 0 5.32,-5.23 c 0,-16.93 -12.11,-24.68 -23.37,-24.68 z m 0,9.24 c 4.36,0 11.77,2.5 12.82,11.72 h -25.55 c 0.94,-8.09 6.96,-11.72 12.73,-11.72 z"
       inkscape:connector-curvature="0" />
    <path
       style="fill:#d1d2d3;fill-opacity:1"
       id="path20"
       transform="translate(-78.29,-365.78)"
       d="m 355.08,424.25 h -0.47 c -5,0 -9.61,2.36 -13.76,7 V 430 a 5.4,5.4 0 0 0 -5.32,-5.32 5.28,5.28 0 0 0 -5.23,5.32 v 40.32 a 5.28,5.28 0 0 0 10.55,0 V 442.1 c 3.39,-4.89 8.2,-7.58 13.57,-7.58 h 0.47 a 5,5 0 0 0 5.32,-5 5.13,5.13 0 0 0 -5.13,-5.27 z"
       inkscape:connector-curvature="0" />
    <path
       style="fill:#e7e7e7;fill-opacity:1"
       id="path22"
       transform="translate(-78.29,-365.78)"
       d="M 500.71,365.78 H 394.28 a 15,15 0 0 0 -15,15 v 95.29 l 20.66,-20.46 h 100.77 a 15,15 0 0 0 15,-15 v -59.83 a 15,15 0 0 0 -15,-15 z M 411.15,433 a 4,4 0 0 1 -8,0 v -42.5 a 4,4 0 1 1 8,0 z m 18.6,0 a 4,4 0 0 1 -8,0 v -28.1 a 4,4 0 1 1 8,0 z m 0.59,-40.93 a 4.34,4.34 0 0 1 -4.34,4.34 h -0.39 a 4.34,4.34 0 0 1 -4.34,-4.34 v -0.26 a 4.34,4.34 0 0 1 4.34,-4.34 H 426 a 4.34,4.34 0 0 1 4.34,4.34 z M 458.47,436 a 13.8,13.8 0 0 1 -5.88,1.28 c -6.91,0 -10.56,-3.33 -10.56,-9.64 v -19.3 h -3.65 a 2.2,2.2 0 0 1 -2.25,-2.24 2.45,2.45 0 0 1 0.95,-1.88 l 8.85,-8.66 a 2.62,2.62 0 0 1 1.81,-0.87 2.25,2.25 0 0 1 2.26,2.31 v 4.24 h 6.4 a 3.555,3.555 0 0 1 0,7.11 H 450 v 18.78 c 0,2.72 1.35,2.93 3.26,2.93 a 8.18,8.18 0 0 0 2.34,-0.33 6,6 0 0 1 1.59,-0.26 3.41,3.41 0 0 1 3.36,3.36 3.46,3.46 0 0 1 -2.08,3.17 z M 483,429.75 a 16.84,16.84 0 0 0 8.38,-1.92 3.42,3.42 0 0 1 1.64,-0.37 3.55,3.55 0 0 1 3.62,3.55 3.9,3.9 0 0 1 -2.21,3.29 c -2.79,1.59 -5.81,3 -12,3 -11.25,0 -18,-6.86 -18,-18.35 0,-13.55 9,-18.36 16.65,-18.36 11.4,0 16.59,9.07 16.59,17.5 a 3.85,3.85 0 0 1 -4,3.95 h -21 c 1.04,5.06 4.59,7.71 10.33,7.71 z"
       class="cls-1"
       inkscape:connector-curvature="0" />
    <path
       style="fill:#e7e7e7;fill-opacity:1"
       id="path24"
       transform="translate(-78.29,-365.78)"
       d="m 481.21,407.65 a 8.41,8.41 0 0 0 -8.52,7.56 h 17.11 a 8.46,8.46 0 0 0 -8.59,-7.56 z"
       class="cls-1"
       inkscape:connector-curvature="0" />
  </g>
</svg>
